<svg xmlns="http://www.w3.org/2000/svg" xmlns:svg="http://www.w3.org/2000/svg" id="svg1" width="500" height="500" version="1.1" viewBox="0 0 3873.067 2974.267"><g id="g1" transform="translate(-645.33331,-1094.6667)"><g id="group-R5"><path id="path2" d="m 18934,23333 2480,1815 c 78,57 124,148 124,244 0,97 -46,187 -124,244 l -2480,1815 c -92,67 -214,77 -316,26 -102,-52 -166,-156 -166,-270 v -1652 -605 -1373 c 0,-114 64,-218 166,-270 43,-22 90,-33 137,-33 64,1 127,21 179,59 z m 124,1920 v 1359 l 1665,-1219 -1665,-1219 v 1079" style="fill:#ffe57f;fill-opacity:1;fill-rule:evenodd;stroke:none" transform="matrix(0.13333333,0,0,-0.13333333,0,5164)"/><path id="path3" d="m 22392,25253 c 0,-1298 1056,-2353 2353,-2353 1195,0 2185,895 2334,2051 13,99 19,200 19,302 0,103 -7,204 -19,303 -149,1155 -1139,2051 -2334,2051 -1297,-1 -2353,-1057 -2353,-2354 z m 4102,0 c 0,2 0,5 0,7 -1,-3 -1,-5 0,-7" style="fill:#a7ffeb;fill-opacity:1;fill-rule:evenodd;stroke:none" transform="matrix(0.13333333,0,0,-0.13333333,0,5164)"/><path id="path4" d="m 9724,20593 h 765 v 1257 c 0,144 102,268 243,297 404,81 784,238 1128,468 120,80 280,64 382,-38 l 889,-889 541,541 -889,889 c -102,102 -118,262 -38,382 229,345 387,724 468,1128 28,141 152,243 297,243 h 1257 v 765 h -1257 c -144,0 -268,102 -297,243 -81,404 -238,784 -468,1128 -80,120 -64,280 38,382 l 889,889 -541,541 -889,-889 c -102,-102 -262,-118 -382,-38 -345,229 -724,387 -1128,468 -141,28 -243,152 -243,297 v 1256 h -765 v -1257 c 0,-144 -102,-268 -243,-297 -404,-81 -784,-238 -1128,-468 -120,-80 -280,-64 -382,38 l -889,889 -541,-541 889,-889 c 102,-102 118,-262 38,-382 -229,-344 -387,-724 -468,-1128 -28,-141 -152,-243 -297,-243 h -1257 v -765 h 1257 c 144,0 268,-102 297,-243 81,-404 238,-784 468,-1128 80,-120 64,-280 -38,-382 l -889,-889 541,-541 889,889 c 102,102 262,118 382,38 345,-229 724,-387 1128,-468 141,-28 243,-152 243,-297 z m 1068,-605 h -1370 c -167,0 -303,135 -303,303 v 1320 c -311,84 -609,207 -890,369 l -933,-934 c -113,-113 -314,-113 -428,0 l -969,969 c -118,118 -118,310 0,428 l 933,933 c -161,280 -285,578 -369,890 h -1320 c -167,0 -303,135 -303,303 v 1370 c 0,167 135,303 303,303 h 1320 c 84,312 208,609 369,890 l -933,933 c -57,57 -89,134 -89,214 0,80 32,157 89,214 l 969,969 c 57,57 134,89 214,89 v 0 c 80,0 157,-32 214,-89 l 933,-934 c 280,161 578,285 890,369 v 1320 c 0,167 135,303 303,303 h 1370 c 167,0 303,-135 303,-303 v -1320 c 312,-84 609,-207 890,-369 l 934,934 c 118,118 310,118 428,0 l 969,-969 c 118,-118 118,-310 0,-428 l -936,-935 c 161,-280 285,-578 369,-890 h 1320 c 167,0 303,-135 303,-303 v -1370 c 0,-167 -135,-303 -303,-303 h -1320 c -84,-312 -208,-609 -369,-890 l 934,-934 c 57,-57 89,-134 89,-214 0,-80 -32,-157 -89,-214 l -969,-969 c -118,-118 -310,-118 -428,0 l -933,933 c -280,-161 -578,-285 -890,-369 v -1320 c 0,-164 -135,-299 -302,-299 v 0" style="fill:#67657c;fill-opacity:1;fill-rule:evenodd;stroke:none" transform="matrix(0.13333333,0,0,-0.13333333,0,5164)"/><path id="path5" d="m 10107,26655 c -773,0 -1402,-629 -1402,-1402 0,-773 629,-1402 1402,-1402 773,0 1402,629 1402,1402 0,773 -629,1402 -1402,1402 z m 0,-3410 c -1107,0 -2007,901 -2007,2007 0,1107 901,2007 2007,2007 1107,0 2007,-901 2007,-2007 0,-1106 -901,-2007 -2007,-2007 v 0" style="fill:#67657c;fill-opacity:1;fill-rule:evenodd;stroke:none" transform="matrix(0.13333333,0,0,-0.13333333,0,5164)"/><path id="path6" d="m 18756,24950 h -3687 c -167,0 -303,135 -303,303 0,167 135,303 303,303 h 3687 c 167,0 303,-135 303,-303 -1,-167 -136,-303 -303,-303 z m 8983,-6837 h -3996 c -167,0 -303,135 -303,303 0,167 135,303 303,303 h 3996 c 1289,0 2338,1398 2338,3116 0,1718 -1049,3116 -2338,3116 h -943 c -167,0 -303,135 -303,303 0,167 135,303 303,303 h 943 c 1623,0 2943,-1669 2943,-3721 0,-2053 -1320,-3723 -2943,-3723 z m -4303,-6836 h -8649 c -1623,0 -2943,1669 -2943,3721 0,2052 1320,3721 2943,3721 h 943 c 167,0 303,-135 303,-303 0,-167 -135,-303 -303,-303 h -943 c -1289,0 -2338,-1398 -2338,-3116 0,-1718 1049,-3116 2338,-3116 h 8649 c 167,0 303,-135 303,-303 -1,-166 -136,-301 -303,-301 v 0" style="fill:#67657c;fill-opacity:1;fill-rule:evenodd;stroke:none" transform="matrix(0.13333333,0,0,-0.13333333,0,5164)"/><path id="path7" d="m 30521,14341 c -1523,0 -2762,-1239 -2762,-2762 0,-1523 1239,-2762 2762,-2762 1523,0 2762,1239 2762,2762 0,1523 -1239,2762 -2762,2762 z m 0,-6128 c -1857,0 -3367,1510 -3367,3367 0,1857 1510,3367 3367,3367 1857,0 3367,-1510 3367,-3367 0,-1857 -1510,-3367 -3367,-3367" style="fill:#67657c;fill-opacity:1;fill-rule:evenodd;stroke:none" transform="matrix(0.13333333,0,0,-0.13333333,0,5164)"/><path id="path8" d="m 24745,27001 c -964,0 -1748,-784 -1748,-1748 0,-964 784,-1748 1748,-1748 964,0 1748,784 1748,1748 0,964 -784,1748 -1748,1748 z m 0,-4102 c -1298,0 -2353,1056 -2353,2353 0,1298 1056,2353 2353,2353 1298,0 2353,-1056 2353,-2353 1,-1297 -1055,-2353 -2353,-2353" style="fill:#67657c;fill-opacity:1;fill-rule:evenodd;stroke:none" transform="matrix(0.13333333,0,0,-0.13333333,0,5164)"/><path id="path9" d="m 17781,20164 c -964,0 -1748,-784 -1748,-1748 0,-964 784,-1748 1748,-1748 964,0 1748,784 1748,1748 0,964 -785,1748 -1748,1748 z m 0,-4101 c -1298,0 -2353,1056 -2353,2353 0,1298 1056,2353 2353,2353 1298,0 2353,-1056 2353,-2353 0,-1298 -1056,-2353 -2353,-2353" style="fill:#67657c;fill-opacity:1;fill-rule:evenodd;stroke:none" transform="matrix(0.13333333,0,0,-0.13333333,0,5164)"/><path id="path10" d="m 19058,26611 v -2437 l 1665,1219 z m -302,-3336 c -47,0 -94,11 -137,33 -102,52 -166,156 -166,270 v 3630 c 0,114 64,218 166,270 102,51 224,42 316,-26 l 2480,-1815 c 78,-57 124,-148 124,-244 0,-97 -46,-187 -124,-244 l -2480,-1815 c -53,-39 -116,-59 -179,-59 v 0" style="fill:#67657c;fill-opacity:1;fill-rule:evenodd;stroke:none" transform="matrix(0.13333333,0,0,-0.13333333,0,5164)"/><path id="path11" d="m 21775,18416 1665,-1219 v 2437 z m 1968,-2117 c -63,0 -126,20 -179,58 l -2480,1815 c -78,57 -124,148 -124,244 0,97 46,187 124,244 l 2480,1815 c 92,67 214,77 316,26 102,-52 166,-156 166,-270 v -3630 c 0,-114 -64,-218 -166,-270 -43,-22 -90,-32 -137,-32" style="fill:#67657c;fill-opacity:1;fill-rule:evenodd;stroke:none" transform="matrix(0.13333333,0,0,-0.13333333,0,5164)"/><path id="path12" d="m 23738,12798 v -2437 l 1665,1219 z m -302,-3336 c -47,0 -94,11 -137,33 -102,52 -166,156 -166,270 v 3630 c 0,114 64,218 166,270 102,51 224,42 316,-26 l 2480,-1815 c 78,-57 124,-148 124,-244 0,-97 -46,-187 -124,-244 l -2480,-1815 c -54,-40 -116,-59 -179,-59 v 0" style="fill:#67657c;fill-opacity:1;fill-rule:evenodd;stroke:none" transform="matrix(0.13333333,0,0,-0.13333333,0,5164)"/><path id="path13" d="m 28861,10688 c -66,0 -131,21 -184,62 -75,57 -118,146 -118,240 v 1179 c 0,167 135,303 303,303 167,0 303,-135 303,-303 v -784 l 2940,788 c 162,43 327,-53 371,-214 43,-161 -53,-327 -214,-371 l -3321,-890 c -28,-7 -54,-10 -80,-10 v 0" style="fill:#67657c;fill-opacity:1;fill-rule:evenodd;stroke:none" transform="matrix(0.13333333,0,0,-0.13333333,0,5164)"/><path id="path14" d="m 30521,14341 c -1523,0 -2762,-1239 -2762,-2762 0,-1523 1239,-2762 2762,-2762 1523,0 2762,1239 2762,2762 0,1523 -1239,2762 -2762,2762 z m -1358,-2957 2940,788 c 162,43 327,-53 371,-214 43,-161 -53,-327 -214,-371 l -3321,-890 c -26,-7 -52,-10 -78,-10 -66,0 -131,21 -184,62 -75,57 -118,146 -118,240 v 1179 c 0,167 135,303 303,303 167,0 303,-135 303,-303 l -2,-784 v 0" style="fill:#ffe57f;fill-opacity:1;fill-rule:evenodd;stroke:none" transform="matrix(0.13333333,0,0,-0.13333333,0,5164)"/><path id="path15" d="m 23738,10361 1665,1218 -1665,1219 z" style="fill:#a7ffeb;fill-opacity:1;fill-rule:evenodd;stroke:none" transform="matrix(0.13333333,0,0,-0.13333333,0,5164)"/><path id="path16" d="m 17781,16668 c 964,0 1748,784 1748,1748 0,964 -784,1748 -1748,1748 -964,0 -1748,-784 -1748,-1748 -1,-964 784,-1748 1748,-1748" style="fill:#a7ffeb;fill-opacity:1;fill-rule:evenodd;stroke:none" transform="matrix(0.13333333,0,0,-0.13333333,0,5164)"/><path id="path17" d="m 21775,18416 1665,-1219 v 1211 c 0,2 0,5 0,7 0,2 0,5 0,7 v 1211 l -1665,-1217 v 0" style="fill:#a7ffeb;fill-opacity:1;fill-rule:evenodd;stroke:none" transform="matrix(0.13333333,0,0,-0.13333333,0,5164)"/><path id="path18" d="m 19058,24174 1666,1219 -1666,1218 z" style="fill:#a7ffeb;fill-opacity:1;fill-rule:evenodd;stroke:none" transform="matrix(0.13333333,0,0,-0.13333333,0,5164)"/><path id="path19" d="m 12114,25253 c 0,-1107 -901,-2007 -2007,-2007 -1107,0 -2007,901 -2007,2007 0,1107 901,2007 2007,2007 1106,0 2007,-900 2007,-2007 z m 2652,-383 v 375 c 0,2 0,5 0,7 0,2 0,5 0,7 v 375 h -1256 c -144,0 -268,102 -297,243 -81,404 -238,784 -468,1128 -80,120 -64,280 38,382 l 889,889 -541,541 -889,-889 c -102,-102 -262,-118 -382,-38 -345,229 -724,387 -1128,468 -141,28 -243,152 -243,297 v 1258 h -765 v -1257 c 0,-144 -102,-268 -243,-297 -404,-81 -784,-238 -1128,-468 -120,-80 -280,-64 -382,38 l -889,889 -541,-541 889,-889 c 102,-102 118,-262 38,-382 -229,-344 -387,-724 -468,-1128 -28,-141 -152,-243 -297,-243 h -1257 v -765 h 1257 c 144,0 268,-102 297,-243 81,-404 238,-784 468,-1128 80,-120 64,-280 -38,-382 l -889,-889 541,-541 889,889 c 102,102 262,118 382,38 345,-229 724,-387 1128,-468 141,-28 243,-152 243,-297 v -1257 h 765 v 1258 c 0,144 102,268 243,297 404,81 784,238 1128,468 120,80 280,64 382,-38 l 889,-889 541,541 -889,889 c -102,102 -118,262 -38,382 229,345 387,724 468,1128 28,141 152,243 297,243 l 1256,-1 v 0" style="display:inline;fill:#ffe57f;fill-opacity:1;fill-rule:evenodd;stroke:none" transform="matrix(0.13333333,0,0,-0.13333333,0,5164)"/></g></g></svg>