<svg class="w-16 h-auto" xmlns="http://www.w3.org/2000/svg" viewBox="0 0 250 215" fill="none"><path d="M0 162.02V69.962c0-3.137 3.137-5.378 6.095-4.302l106.849 41.592c3.047 1.165 3.316 5.378.448 6.812L6.633 166.144C3.585 167.668 0 165.427 0 162.02Z" fill="#F82B60"></path><path d="M123.611 94.792 16.942 51.766c-3.406-1.434-3.406-6.275 0-7.709L119.31 1.479c4.661-1.972 9.95-1.972 14.7 0l102.367 42.578c3.406 1.434 3.406 6.275 0 7.709L130.155 94.792a8.3 8.3 0 0 1-6.544 0Z" fill="#FCB400"></path><path d="m139.835 214.369 107.386-41.323c1.703-.628 2.778-2.241 2.778-4.034V69.424c0-3.047-2.958-5.11-5.736-4.033l-107.387 41.323c-1.703.627-2.778 2.241-2.778 4.033v99.588c0 3.048 2.958 5.109 5.737 4.034Z" fill="#18BFFF"></path><path d="M112.944 107.252 6.095 65.66c-1.434-.538-2.868-.269-4.033.448l75.295 65.525 36.035-17.569c2.868-1.523 2.599-5.736-.448-6.812Z" fill="#BA2048"></path></svg>