<svg class="h-16 w-auto" xmlns="http://www.w3.org/2000/svg" viewBox="0 0 250 343" fill="none"><path d="M163.818 0H23.736C10.59 0 0 10.663 0 23.736v294.771c0 13.146 10.663 23.737 23.736 23.737H226.19c13.147 0 23.737-10.664 23.737-23.737V85.159h-86.109V0Z" fill="#34A853"></path><path d="M250.001 85.16h-86.182V0l86.182 85.16Z" fill="#188038"></path><path d="M46.89 132.194V245.18h156.149V132.194H46.889Zm136.722 19.354v27.388h-49.08v-27.388h49.08Zm-68.507 0v27.388H66.317v-27.388h48.788Zm-48.788 74.131v-27.388h48.788v27.388H66.317Zm68.215 0v-27.388h49.08v27.388h-49.08Z" fill="#fff"></path></svg>