<svg class="w-16 h-auto" xmlns="http://www.w3.org/2000/svg" viewBox="0 0 250 250" fill="none"><path d="m146.101 236.335-42.529-41.47 91.337-93.269 44.032 43.155-92.84 91.584Z" fill="#8AB4F8"></path><path d="M146.283 52.982 103.907 9.717l-92.659 91.779c-11.944 11.944-11.944 31.308 0 43.265l91.267 91.863 43.156-40.37-69.536-73.125 70.148-70.147Z" fill="#4285F4"></path><path d="M238.329 102.209 146.45 10.332c-11.958-11.957-31.35-11.957-43.308 0-11.959 11.958-11.959 31.35 0 43.308l91.879 91.876c11.958 11.958 31.35 11.958 43.308 0 11.959-11.958 11.959-31.349 0-43.307Z" fill="#8AB4F8"></path><path d="M124.092 246.372c16.53 0 29.93-13.4 29.93-29.93 0-16.529-13.4-29.929-29.93-29.929-16.531 0-29.93 13.4-29.93 29.929 0 16.53 13.399 29.93 29.93 29.93Z" fill="#246FDB"></path></svg>