<svg xmlns="http://www.w3.org/2000/svg" fill="none" class="w-16 h-auto" viewBox="0 0 250 262"><path fill="#FF7A59" d="M192.277 86.567V55.5a23.953 23.953 0 0 0 13.815-21.594v-.727a23.998 23.998 0 0 0-23.934-23.934h-.726a24 24 0 0 0-23.935 23.934v.727A23.949 23.949 0 0 0 171.312 55.5v31.132a67.887 67.887 0 0 0-32.278 14.202l-85.44-66.541A27.259 27.259 0 1 0 40.828 50.9l84.004 65.395a68.079 68.079 0 0 0 1.049 76.757l-25.564 25.565a21.93 21.93 0 0 0-6.343-1.033 22.187 22.187 0 0 0-20.502 13.699 22.19 22.19 0 1 0 42.693 8.492 21.858 21.858 0 0 0-1.033-6.343l25.29-25.29a68.198 68.198 0 0 0 58.778 11.746 68.196 68.196 0 0 0 45.342-39.203 68.198 68.198 0 0 0-3.13-59.858 68.188 68.188 0 0 0-49.183-34.26h.048Zm-10.523 102.354a34.988 34.988 0 0 1-34.225-41.871 34.99 34.99 0 0 1 69.295 6.898 34.99 34.99 0 0 1-34.989 34.989"/></svg>