<svg xmlns="http://www.w3.org/2000/svg" class="w-16 h-auto" viewBox="0 0 512 512" style="enable-background:new 0 0 512 512" xml:space="preserve"><path d="M362.9 243.5c3.1-.4 6.2-.4 9.3 0 1.7-3.8 2-10.5.5-17.6-2.2-10.7-5.3-17.2-11.5-16.2s-6.5 8.8-4.2 19.5c1.1 5.9 3.4 11.1 5.9 14.3zm-53.7 8.5c4.5 2 7.2 3.3 8.3 2.1 1.9-1.9-3.5-9.4-12.1-13.1-10.2-4.2-21.8-2.8-30.7 3.7-3 2.2-5.8 5.2-5.4 7.1.9 3.7 10-2.7 22.7-3.5 6.9-.5 12.7 1.7 17.2 3.7zm-9 5.1c-9.1 1.4-15 6.5-13.5 10.1.9.3 1.2.8 5.2-.8 6-2.3 12.4-2.9 18.8-2 2.9.3 4.3.5 5-.5 1.3-2.1-5.8-7.9-15.5-6.8zm54.2 17.2c3.4-6.9-10.9-14-14.3-7-3.4 6.9 11 13.9 14.3 7zm15.7-20.5c-7.7-.1-8 15.8-.3 16 7.8 0 8.1-15.9.3-16zm-219.2 79c-1.3.3-6 1.5-8.5-2.4-5.2-8 11.1-20.4 3-35.9-9.1-17.5-27.9-13.6-35.1-5.6-8.7 9.6-8.7 23.6-5 24.1 4.3.6 4.1-6.5 7.4-11.7 3.9-6 11.8-7.7 17.8-3.8 0 0 .1 0 .1.1 11.6 7.6 1.4 17.8 2.3 28.7 1.4 16.7 18.5 16.4 21.6 9 .4-.7.3-1.7-.2-2.3 0 1.1.6-1.1-3.4-.2zm300.4-17.1c-3.4-11.8-2.6-9.2-6.8-20.6 2.5-3.7 15.3-24.1-3.1-43.3-10.4-10.9-34-16.6-41.2-18.6-1.5-11.4 4.7-58.8-21.6-83.2 20.8-21.6 33.8-45.4 33.8-65.8-.1-39.2-48.3-51.1-107.7-26.5L292.1 63c-.1-.1-22.8-22.3-23.1-22.6-67.6-59-279.4 176.3-211.7 233.5l14.8 12.5c-4 10.7-5.4 22.2-4.1 33.6 3.4 33.5 36.1 60.6 67.7 60.5 57.9 133.4 268.5 133.6 323 3 1.7-4.5 9.1-24.7 9.1-42.5s-10.1-25.3-16.5-25.3zM134.5 364c-22.9-.6-47.6-21.2-50-45.6-6.2-61.4 74.4-75.4 84.2-12.4 4.6 29.7-4.7 58.6-34.2 58zM116 249.5c-15.2 3-28.6 11.6-36.8 23.5-4.9-4.1-14-12-15.6-15-13-24.9 14.3-73.2 33.4-100.4C144.2 90.2 218.1 39.2 252.4 48.4c5.6 1.6 24 22.9 24 22.9s-34.2 19-65.9 45.5c-42.9 33-75.2 80.8-94.5 132.7zm239.4 101.4s-35.8 5.3-69.7-7.1c6.2-20.2 27.1 6.1 96.6-13.8 15.3-4.4 35.4-13 51.1-25.4 3.4 7.8 5.8 16 7.1 24.3 3.7-.7 14.3-.5 11.5 18.1-3.3 19.9-11.8 36.1-26 51-8.9 9.6-19.5 17.6-31.2 23.4-6.5 3.4-13.4 6.3-20.4 8.6-53.6 17.5-108.5-1.7-126.3-43.1-1.4-3.2-2.6-6.4-3.6-9.8-7.5-27.3-1.1-60 18.9-80.6 1.2-1.3 2.5-2.9 2.5-4.8-.2-1.7-.8-3.3-1.9-4.6-7-10.2-31.3-27.5-26.4-61 3.5-24.1 24.5-41 44.2-40l5 .3c8.5.5 15.9 1.6 22.9 1.9 11.7.5 22.3-1.2 34.7-11.6 4.2-3.5 7.6-6.6 13.3-7.5 4.7-1.2 9.6-.3 13.6 2.2 10 6.7 11.4 22.8 11.9 34.6.3 6.7 1.1 23.1 1.4 27.7.6 10.7 3.4 12.2 9.1 14 3.2 1.1 6.2 1.8 10.5 3.1 13.2 3.7 21 7.5 26.1 12.3 2.6 2.5 4.2 5.8 4.8 9.3 1.6 11.4-8.8 25.5-36.4 38.2-46.8 21.7-93.9 14.5-100.7 13.7-20.2-2.7-31.7 23.4-19.6 41.2 22.7 33.5 122.7 20 151.7-21.4.7-1 .1-1.6-.7-1-41.9 28.6-97.3 38.3-128.8 26.1-4.8-1.9-14.8-6.5-16-16.7 43.7 13.5 71.2.7 71.2.7s2.2-2.6-.4-2.3zM203.2 157.3c16.8-19.4 37.4-36.3 56-45.7.3-.2.8-.1 1 .3.1.2.1.5 0 .7-1.5 2.7-4.3 8.4-5.2 12.7-.1.4.2.8.6.9.2.1.4 0 .6-.1 11.5-7.8 31.6-16.3 49.1-17.3.4 0 .8.3.8.7 0 .3-.1.5-.3.7-2.9 2.2-5.5 4.8-7.7 7.8-.2.3-.2.8.2 1 .1.1.3.1.4.1 12.3.1 29.7 4.4 41.1 10.8.8.4.2 1.9-.6 1.7-69.7-16-123.4 18.6-134.8 26.9-.4.2-.8.1-1.1-.2-.3-.4-.3-.8-.1-1z"/></svg>