<svg xmlns="http://www.w3.org/2000/svg" viewBox="0 0 64 64"><path fill="#135eeb" d="M40.8 0c-10.8 0-20 8-22 18.8 1.2 0 2.8-.4 4-.4-1.2 0-2.8 0-4 .4C8 20.8 0 30 0 41.2V64h22.8c10.8 0 20-7.6 22.4-18.4H40h24V22.8C63.6 10 53.6 0 40.8 0zM18.4 22.8c0 1.6 0 3.2.4 4.4 0-1.6-.4-2.8-.4-4.4z"/><path fill="#0a60ea" d="M22.8 18.4c-1.2 0-2.8 0-4 .4 0 1.2-.4 2.8-.4 4 0 6 2.4 12 6.8 16s10 6.8 16 6.8h4c.4-1.2.4-2.8.4-4.4 0-6-2.4-12-6.8-16s-10-6.8-16-6.8z"/><path fill="#15c2ff" d="M41.2 45.6c-6 0-12-2.4-16-6.8s-6.8-10-6.8-16c0-1.2 0-2.8.4-4C8 20.8 0 30 0 41.2V64h22.8c10.8 0 20-7.6 22.4-18.4z"/><path fill="#2c82ff" d="M40.8 0c-10.8 0-20 8-22 18.8 1.2 0 2.8-.4 4-.4 6.8 0 13.2 3.2 17.6 8s6 12 4.8 18.8H64V22.8C63.6 10 53.6 0 40.8 0z"/></svg>