<svg class="w-16 h-auto" xmlns="http://www.w3.org/2000/svg" viewBox="0 0 250 190" fill="none"><path d="M115.482 49.956V189.13H0L115.482 49.956ZM115.482 0A57.587 57.587 0 0 1 98.57 40.756a57.793 57.793 0 0 1-40.83 16.882c-15.313 0-30-6.073-40.828-16.882A57.586 57.586 0 0 1 0 0h115.482ZM134.507 189.13a57.586 57.586 0 0 1 16.912-40.757 57.792 57.792 0 0 1 40.829-16.881c15.313 0 30 6.072 40.828 16.881a57.586 57.586 0 0 1 16.912 40.757H134.507ZM134.507 139.174V0h115.494L134.507 139.174Z" fill="#03363D"></path></svg>