<?xml version="1.0" standalone="no"?>
<!DOCTYPE svg PUBLIC "-//W3C//DTD SVG 20010904//EN"
 "http://www.w3.org/TR/2001/REC-SVG-20010904/DTD/svg10.dtd">
<svg version="1.0" xmlns="http://www.w3.org/2000/svg"
 width="912.000000pt" height="912.000000pt" viewBox="0 0 912.000000 912.000000"
 preserveAspectRatio="xMidYMid meet">
<metadata>
Created by potrace 1.11, written by Peter Selinger 2001-2013
</metadata>
<g transform="translate(0.000000,912.000000) scale(0.100000,-0.100000)"
fill="#000000" stroke="none">
<path d="M4010 7895 c-348 -38 -646 -120 -880 -241 -194 -101 -366 -240 -570
-462 -213 -232 -574 -541 -980 -838 -408 -299 -743 -506 -845 -525 -342 -60
-475 -116 -599 -249 -155 -168 -175 -400 -56 -657 143 -309 470 -577 848 -694
215 -67 304 -82 477 -76 149 5 294 32 320 59 7 8 4 9 -10 4 -143 -53 -357 -70
-525 -41 -57 9 -157 34 -224 55 -66 21 -132 41 -146 44 -40 10 -268 179 -349
258 -134 133 -210 262 -233 396 -11 64 -10 82 5 139 61 232 337 385 697 386
154 1 165 -2 460 -98 269 -87 334 -99 555 -99 206 0 305 17 506 84 210 70 394
173 799 450 558 381 808 511 1135 595 306 78 570 81 848 10 357 -92 756 -338
988 -610 225 -264 356 -559 415 -935 22 -141 25 -551 6 -700 -43 -318 -108
-599 -212 -910 -189 -570 -428 -1066 -831 -1728 -99 -161 -179 -295 -179 -298
0 -2 228 -4 506 -4 l505 0 133 273 c201 410 399 858 482 1084 109 301 254 884
299 1203 8 63 20 124 25 135 14 31 30 237 30 389 l0 139 88 -7 c270 -21 554
-62 740 -107 371 -90 608 -225 739 -421 46 -70 98 -192 88 -208 -3 -4 2 -10
10 -13 8 -4 16 1 19 11 61 210 6 455 -154 686 -100 144 -288 324 -480 458
-293 205 -735 405 -1134 513 -50 14 -95 30 -102 37 -6 7 -30 69 -53 137 -119
351 -256 647 -405 869 -205 307 -522 649 -830 895 -306 245 -716 453 -1061
541 -304 77 -597 101 -865 71z m-48 -572 c67 -37 105 -85 128 -163 27 -94 32
-162 20 -270 -15 -133 -24 -162 -59 -183 -16 -9 -32 -17 -35 -17 -3 0 -6 21
-6 48 -1 164 -143 223 -266 110 -50 -46 -80 -111 -90 -197 l-7 -64 -54 6 c-72
8 -100 27 -131 95 -24 50 -27 72 -30 174 -5 170 25 263 116 361 122 131 285
170 414 100z m-3 -499 c12 -15 21 -35 21 -45 0 -54 -93 -81 -124 -37 -51 73
48 151 103 82z"/>
<path d="M4565 5961 c160 -55 191 -73 198 -113 31 -179 40 -524 18 -693 -77
-590 -349 -1006 -806 -1232 -236 -117 -404 -148 -890 -163 -181 -5 -382 -15
-445 -22 -63 -6 -126 -11 -140 -11 l-25 1 28 -14 c22 -12 39 -13 85 -5 55 10
424 31 550 31 l62 0 -1 -167 c0 -93 -4 -188 -7 -212 l-7 -44 -95 65 c-52 35
-143 98 -201 139 -104 74 -239 150 -289 163 -25 7 7 -14 120 -79 28 -16 127
-83 218 -147 92 -64 203 -138 247 -163 166 -94 472 -198 700 -237 163 -28 438
-22 560 12 195 53 347 143 486 287 146 152 250 334 334 584 61 184 79 318 72
519 -12 318 -88 608 -242 925 -81 168 -160 292 -262 410 -56 65 -62 76 -36 60
18 -10 78 -59 133 -108 56 -49 103 -87 106 -85 5 5 -105 104 -185 167 -31 24
-85 58 -121 76 -65 33 -241 96 -263 94 -7 0 38 -17 98 -38z m336 -284 c34 -49
59 -91 56 -94 -8 -8 -130 -32 -138 -28 -3 3 -9 42 -12 87 -3 46 -9 106 -13
133 l-6 50 26 -30 c14 -16 53 -70 87 -118z m77 -327 c78 -58 141 -107 142
-110 0 -7 -303 -70 -308 -65 -7 7 11 286 17 283 4 -2 71 -50 149 -108z m-14
-410 c80 -112 144 -206 142 -207 -5 -5 -401 -41 -405 -37 -2 2 9 42 24 89 28
89 75 302 75 343 0 13 4 22 10 20 5 -1 74 -95 154 -208z m-131 -495 c65 -110
116 -204 115 -210 -2 -5 -16 -9 -33 -8 -16 2 -127 10 -245 18 -118 9 -216 17
-217 19 -2 2 21 37 52 77 31 41 85 134 122 206 57 114 68 130 78 115 6 -9 64
-107 128 -217z m487 -28 c0 -90 -11 -207 -19 -207 -9 0 -215 168 -219 178 -3
9 220 111 231 105 4 -2 7 -37 7 -76z m-800 -425 c40 -134 70 -245 68 -247 -2
-2 -91 36 -198 84 -107 48 -217 98 -244 110 l-50 22 55 36 c79 53 198 155 243
208 21 26 42 43 46 38 4 -4 40 -117 80 -251z m-423 -68 c1 -10 14 -117 29
-237 14 -120 23 -221 20 -224 -4 -4 -337 227 -444 308 -22 17 -22 18 75 48 54
16 143 52 198 80 55 27 105 48 110 47 6 -1 11 -11 12 -22z m1139 -21 c-4 -16
-38 -91 -76 -168 -67 -134 -104 -195 -113 -185 -9 12 -155 355 -151 359 3 3
201 16 298 19 48 2 48 2 42 -25z m-1573 -255 c-3 -73 -8 -166 -12 -207 l-6
-74 -214 184 -215 184 155 12 c85 7 172 17 194 22 22 5 54 9 72 10 l32 1 -6
-132z m996 -233 c117 -41 216 -75 219 -75 13 0 -47 -55 -103 -95 -98 -70 -316
-167 -329 -147 -2 4 -7 75 -10 157 -4 83 -9 169 -12 193 -4 31 -2 42 8 42 7 0
109 -34 227 -75z m-994 -283 c-4 -4 -210 64 -230 76 -10 5 -8 21 13 71 l25 64
97 -104 c54 -57 96 -105 95 -107z m398 74 c89 -63 171 -122 182 -131 19 -15 9
-16 -150 -11 -93 3 -180 8 -192 12 -22 6 -23 11 -23 125 0 75 4 119 10 119 6
0 84 -51 173 -114z"/>
<path d="M7903 4053 c9 -2 25 -2 35 0 9 3 1 5 -18 5 -19 0 -27 -2 -17 -5z"/>
<path d="M8058 4053 c12 -2 30 -2 40 0 9 3 -1 5 -23 4 -22 0 -30 -2 -17 -4z"/>
<path d="M7818 4043 c6 -2 18 -2 25 0 6 3 1 5 -13 5 -14 0 -19 -2 -12 -5z"/>
<path d="M8148 4043 c6 -2 18 -2 25 0 6 3 1 5 -13 5 -14 0 -19 -2 -12 -5z"/>
<path d="M7410 3930 c-9 -6 -10 -10 -3 -10 6 0 15 5 18 10 8 12 4 12 -15 0z"/>
<path d="M8611 3927 c12 -10 239 -115 239 -111 0 6 -221 114 -234 114 -5 0 -7
-2 -5 -3z"/>
<path d="M8860 3806 c0 -3 14 -12 30 -21 17 -9 30 -13 30 -11 0 3 -13 12 -30
21 -16 9 -30 13 -30 11z"/>
<path d="M8930 3766 c0 -3 9 -10 20 -16 11 -6 20 -8 20 -6 0 3 -9 10 -20 16
-11 6 -20 8 -20 6z"/>
<path d="M5189 3327 c-181 -196 -398 -310 -670 -353 -166 -26 -478 -12 -689
31 -18 4 -21 3 -10 -4 8 -5 65 -17 125 -27 140 -24 511 -27 620 -5 241 48 442
155 608 324 65 66 107 118 95 117 -2 -1 -37 -38 -79 -83z"/>
</g>
</svg>
