<svg xmlns="http://www.w3.org/2000/svg" xmlns:xlink="http://www.w3.org/1999/xlink" id="Layer_1" width="1600" height="1200" x="0" y="0" style="enable-background:new 0 0 1600 1200" fill="none" class="gridItem__media" version="1.1" viewBox="0 0 1600 1200" xml:space="preserve"><path fill="#F4F4F4" d="M311.86 1068.72L233.13 554.4C232.071 541.303 235.712 528.256 243.4 517.6L452.75 227.86C458.347 220.119 465.857 213.962 474.546 209.992C483.234 206.022 492.804 204.374 502.32 205.21L1219 268.4C1230.34 269.402 1241.1 273.889 1249.8 281.245C1258.49 288.602 1264.69 298.468 1267.56 309.49L1366.02 688.49C1368.44 697.806 1368.38 707.593 1365.85 716.88L1241.93 1070L311.86 1068.72Z"/><path fill="#3F4249" d="M1034.79 570.33L987.34 582.98L933.04 551.95L934.72 575.48L986.5 611.48L1045.51 580.32L1034.79 570.33Z"/><path fill="#000" d="M1034.79 570.33L987.34 582.98L933.04 551.95L934.72 575.48L986.5 611.48L1045.51 580.32L1034.79 570.33Z" opacity=".3"/><path fill="#B2B6BB" d="M1309.68 1072.44H240C239.783 1072.48 239.56 1072.46 239.348 1072.4C239.135 1072.35 238.938 1072.24 238.77 1072.1C238.602 1071.96 238.467 1071.78 238.375 1071.58C238.282 1071.38 238.234 1071.16 238.234 1070.94C238.234 1070.72 238.282 1070.5 238.375 1070.3C238.467 1070.1 238.602 1069.92 238.77 1069.78C238.938 1069.64 239.135 1069.53 239.348 1069.48C239.56 1069.42 239.783 1069.4 240 1069.44H1309.68C1309.9 1069.4 1310.12 1069.42 1310.33 1069.48C1310.55 1069.53 1310.74 1069.64 1310.91 1069.78C1311.08 1069.92 1311.21 1070.1 1311.31 1070.3C1311.4 1070.5 1311.45 1070.72 1311.45 1070.94C1311.45 1071.16 1311.4 1071.38 1311.31 1071.58C1311.21 1071.78 1311.08 1071.96 1310.91 1072.1C1310.74 1072.24 1310.55 1072.35 1310.33 1072.4C1310.12 1072.46 1309.9 1072.48 1309.68 1072.44Z"/><path fill="#DADDDF" d="M785.47 632.74C790.817 632.752 795.951 634.838 799.79 638.56L800.15 638.93L800.38 579.54H794.58C777.52 580.09 726.53 586.2 692.3 637.59C671.09 669.43 669.43 701.52 674.01 726.83H680.19L727.06 727.02L726.69 727.39C723.819 730.308 721.874 734.009 721.1 738.029C720.326 742.049 720.757 746.208 722.339 749.983C723.921 753.759 726.583 756.983 729.991 759.25C733.399 761.518 737.402 762.727 741.495 762.727C745.589 762.727 749.591 761.518 753 759.25C756.408 756.983 759.07 753.759 760.652 749.983C762.234 746.208 762.665 742.049 761.89 738.029C761.116 734.009 759.171 730.308 756.3 727.39L756.07 727.18H757.4L799.82 727.34L800.04 667.99L799.84 668.22C797.416 670.602 794.443 672.35 791.182 673.309C787.922 674.268 784.476 674.409 781.148 673.719C777.82 673.029 774.714 671.53 772.104 669.354C769.493 667.178 767.459 664.392 766.182 661.242C764.905 658.093 764.423 654.677 764.78 651.298C765.137 647.918 766.322 644.679 768.229 641.866C770.135 639.053 772.706 636.753 775.714 635.17C778.721 633.587 782.072 632.77 785.47 632.79V632.74Z"/><path fill="#DADDDF" d="M875.1 727.9L875.46 727.53C878.317 724.597 880.243 720.885 880.996 716.861C881.75 712.837 881.297 708.68 879.696 704.912C878.094 701.144 875.414 697.934 871.993 695.684C868.572 693.435 864.563 692.246 860.469 692.268C856.375 692.291 852.379 693.522 848.982 695.808C845.586 698.095 842.941 701.334 841.38 705.119C839.819 708.904 839.412 713.066 840.209 717.082C841.006 721.097 842.972 724.788 845.86 727.69L846.09 727.9H798V783.24L798.21 783.01C800.113 781.104 802.373 779.593 804.862 778.564C807.35 777.534 810.017 777.006 812.71 777.01C816.098 777.01 819.434 777.84 822.427 779.43C825.419 781.019 827.975 783.318 829.872 786.125C831.769 788.932 832.948 792.162 833.306 795.531C833.664 798.9 833.19 802.305 831.926 805.449C830.662 808.592 828.646 811.377 826.054 813.56C823.463 815.742 820.376 817.256 817.064 817.968C813.751 818.679 810.315 818.568 807.056 817.642C803.796 816.717 800.814 815.006 798.37 812.66L798 812.3V875.7H854.87C854.87 875.7 857.4 854.53 859.93 838.44C862.46 822.35 898.45 789.52 908.79 775.84C912.95 770.32 923.23 752.26 927.73 727.9H875.1Z"/><path fill="#3F4249" d="M854.98 889.35H754.69C751.641 889.35 749.17 891.821 749.17 894.87V898.31C749.17 901.359 751.641 903.83 754.69 903.83H854.98C858.029 903.83 860.5 901.359 860.5 898.31V894.87C860.5 891.821 858.029 889.35 854.98 889.35Z"/><path fill="#3F4249" d="M775.87 912.49H835.87C835.87 912.49 827.87 928.49 804.64 928.49C780.38 928.44 775.87 912.49 775.87 912.49Z"/><g opacity=".3"><path stroke="#000" stroke-dasharray="15.13 12.61" stroke-miterlimit="10" stroke-width="2.52" d="M875.1 727.9L875.46 727.53C878.317 724.597 880.243 720.885 880.996 716.861C881.75 712.837 881.297 708.68 879.696 704.912C878.094 701.144 875.414 697.934 871.993 695.684C868.572 693.435 864.563 692.246 860.469 692.268C856.375 692.291 852.379 693.522 848.982 695.808C845.586 698.095 842.941 701.334 841.38 705.119C839.819 708.904 839.412 713.066 840.209 717.082C841.006 721.097 842.972 724.788 845.86 727.69L846.09 727.9H798V783.24L798.21 784.01C801.95 780.29 807.02 777.01 812.71 777.01C818.203 777.01 823.47 779.192 827.354 783.076C831.238 786.96 833.42 792.227 833.42 797.72C833.42 803.213 831.238 808.48 827.354 812.364C823.47 816.248 818.203 818.43 812.71 818.43C807.14 818.43 802.09 815.24 798.37 811.66L798 812.3V875.7H854.87C854.87 875.7 857.4 854.53 859.93 838.44C862.46 822.35 898.45 789.52 908.79 775.84C912.95 770.32 923.23 752.26 927.73 727.9H875.1Z" opacity=".3"/></g><path stroke="#000" stroke-dasharray="15.13 12.61" stroke-miterlimit="10" stroke-width="2.52" d="M785.47 632.74C790.817 632.752 795.951 634.838 799.79 638.56L800.15 638.93L800.38 579.54H794.58C777.52 580.09 726.53 586.2 692.3 637.59C671.09 669.43 669.43 702.52 674.01 727.83H680.19L725.06 728.02L724.69 728.39C721.1 732.09 719.89 736.14 719.87 741.71C719.87 753.14 730.06 762.45 741.5 762.5C746.994 762.519 752.27 760.355 756.169 756.484C760.067 752.614 762.269 747.354 762.29 741.86C762.29 736.18 761 731.09 757.29 727.34L757.06 727.13H758.39L799.81 727.29L800.03 667.94L799.83 668.17C797.406 670.552 794.433 672.3 791.172 673.259C787.912 674.218 784.466 674.359 781.138 673.669C777.81 672.979 774.704 671.48 772.094 669.304C769.483 667.128 767.449 664.342 766.172 661.192C764.895 658.043 764.413 654.627 764.77 651.248C765.127 647.868 766.312 644.629 768.218 641.816C770.125 639.003 772.696 636.703 775.704 635.12C778.711 633.537 782.062 632.72 785.46 632.74H785.47Z" opacity=".3"/><path fill="#DADDDF" d="M798 636.08C794.099 632.27 788.873 630.12 783.42 630.08C771.71 630 762.19 641.37 762.1 653C762.01 664.63 771.39 677.18 783.05 677.27C785.795 677.295 788.518 676.778 791.063 675.748C793.608 674.718 795.925 673.197 797.88 671.27L798.09 671.04L797.63 729.28L848.92 729.64L848.68 729.43C844.802 725.472 842.645 720.141 842.68 714.6C842.77 702.94 849.29 693.6 860.95 693.6C872.61 693.6 878.95 703.21 878.95 714.87C878.917 720.321 876.766 725.546 872.95 729.44L872.57 729.82L926.69 729.21C931.69 703.46 930.33 673.52 909.09 640.82C874.8 588.04 822.91 581.22 805.53 580.46H798.87L798.41 636.46L798 636.08Z"/><path stroke="#000" stroke-dasharray="15.13 12.61" stroke-miterlimit="10" stroke-width="2.52" d="M800 638.08C797.527 635.668 794.501 633.9 791.186 632.93C787.871 631.96 784.369 631.818 780.987 632.517C777.605 633.216 774.445 634.734 771.786 636.938C769.127 639.143 767.05 641.965 765.736 645.16C764.422 648.354 763.912 651.821 764.25 655.258C764.588 658.696 765.765 661.997 767.676 664.874C769.588 667.751 772.176 670.114 775.214 671.758C778.251 673.401 781.646 674.274 785.1 674.3C787.845 674.325 790.568 673.808 793.113 672.778C795.657 671.749 797.974 670.227 799.93 668.3L800.14 668.07L799.68 727.31L845.97 727.67L845.73 727.46C842.85 724.488 840.911 720.732 840.154 716.664C839.397 712.595 839.856 708.394 841.474 704.585C843.092 700.776 845.796 697.528 849.25 695.248C852.703 692.967 856.752 691.756 860.891 691.764C865.029 691.772 869.073 693 872.517 695.294C875.962 697.588 878.654 700.846 880.256 704.662C881.859 708.477 882.301 712.681 881.528 716.746C880.755 720.812 878.801 724.559 875.91 727.52L875.53 727.9L926.65 728.29C931.65 702.54 930.29 673.6 909.05 640.9C874.76 588.12 822.87 581.3 805.49 580.54H800.83L800.37 638.54L800 638.08Z" opacity=".3"/><path fill="#4D61FC" d="M835.15 526.19C833.296 522.455 830.38 519.351 826.768 517.268C823.156 515.185 819.009 514.216 814.848 514.482C810.687 514.748 806.697 516.237 803.379 518.763C800.062 521.288 797.564 524.738 796.201 528.678C794.837 532.619 794.668 536.874 795.715 540.91C796.761 544.947 798.977 548.583 802.084 551.365C805.191 554.146 809.05 555.947 813.177 556.542C817.304 557.137 821.514 556.5 825.28 554.71L825.56 554.55L805.86 610.42L849.52 625.81L849.36 625.54C847.601 621.791 846.985 617.607 847.592 613.51C848.198 609.413 849.998 605.586 852.768 602.507C855.537 599.429 859.153 597.235 863.163 596.2C867.173 595.165 871.399 595.336 875.312 596.69C879.226 598.044 882.653 600.523 885.166 603.815C887.678 607.106 889.165 611.066 889.439 615.198C889.713 619.33 888.762 623.452 886.707 627.047C884.651 630.642 881.581 633.551 877.88 635.41L877.4 635.64L925.61 652.64C938.68 629.9 946.84 602.1 937.38 564.27C922.12 503.22 875.26 479.9 859.07 473.53L854.68 472L835.39 526.7L835.15 526.19Z" class="change-color-in-svg" style="fill:#4c1d95"/><path fill="#4D61FC" d="M799.42 875.86H745.62C745.62 875.86 743.09 854.69 740.55 838.6C738.01 822.51 702 789.68 691.7 776C687.54 770.49 677.26 750.43 672.7 726.06H727.5L727.13 726.43C723.789 729.906 721.769 734.441 721.42 739.25C720.42 753.02 733.96 763.65 747.16 759.61C755.03 757.2 759.79 750.02 759.79 740.77C759.785 738.074 759.248 735.406 758.209 732.917C757.171 730.429 755.653 728.17 753.74 726.27L753.51 726.06L798.95 726.4V781.74C798.95 781.74 804.26 776.17 814.66 776.46C825.06 776.75 831.93 785.13 833.6 792.59C835.27 800.05 834.44 815.72 819.86 818.94C805.95 822.01 798.79 812.85 798.79 812.85L799 876.2" class="change-color-in-svg" style="fill:#4c1d95"/><path fill="#fff" d="M1156 348.85H969.13V421.49H1156V348.85Z"/><path fill="#DADDDF" d="M1156.54 422H968.6V348.32H1156.54V422ZM969.67 421H1155.46V349.39H969.67V421Z"/><path fill="#4D61FC" d="M1156 348.85H969.13V364.42H1156V348.85Z" class="change-color-in-svg" opacity=".6" style="fill:#4c1d95"/><path fill="#4D61FC" d="M1009.69 387.4V376.29H991.34V394.64H1002.46V405.76H1020.81V387.4H1009.69Z" class="change-color-in-svg" opacity=".6" style="fill:#4c1d95"/><path fill="#E1E1E1" d="M1053.43 376.29H1035.08V394.64H1053.43V376.29Z"/><g opacity=".61"><path fill="#4D61FC" d="M1064.7 405.91H1045.28V386.49H1064.7V405.91ZM1046.35 404.84H1063.63V387.56H1046.35V404.84Z" class="change-color-in-svg" opacity=".61" style="fill:#4c1d95"/></g><path fill="#E1E1E1" d="M1094.25 387.4H1087.01V394.64H1094.25V387.4Z"/><path fill="#DADDDF" d="M1094.55 375.89H1075.23V395.21H1094.55V375.89Z"/><path fill="#DADDDF" d="M1105.29 386.62H1085.97V405.94H1105.29V386.62Z"/><path fill="#4D61FC" d="M1094.56 386.62H1085.97V395.21H1094.56V386.62Z" class="change-color-in-svg" opacity=".61" style="fill:#4c1d95"/><path fill="#4D61FC" d="M1131.77 376.29H1113.42V394.64H1131.77V376.29Z" class="change-color-in-svg" opacity=".6" style="fill:#4c1d95"/><path fill="#4D61FC" d="M1142.88 387.4H1124.53V405.75H1142.88V387.4Z" class="change-color-in-svg" opacity=".6" style="fill:#4c1d95"/><path fill="#FAFAFA" d="M1131.77 387.4H1124.53V394.64H1131.77V387.4Z"/><path fill="#fff" d="M545 492.589L403.192 495.089L405.191 608.461L546.999 605.961L545 492.589Z"/><path fill="#F4F4F4" d="M541.33 498.602L409.47 501.239L411.452 600.349L543.312 597.712L541.33 498.602Z"/><path fill="#4D61FC" d="M409.94 601.24L454.9 538.83L484.11 576.87L503.09 555.93L541.78 598.92L409.94 601.24Z" class="change-color-in-svg" style="fill:#4c1d95"/><path fill="#4D61FC" d="M495.4 530.57C495.437 532.623 494.865 534.641 493.755 536.368C492.645 538.096 491.048 539.456 489.166 540.275C487.283 541.095 485.2 541.338 483.179 540.974C481.159 540.609 479.291 539.654 477.814 538.228C476.336 536.802 475.315 534.97 474.879 532.964C474.442 530.957 474.611 528.867 475.363 526.956C476.115 525.046 477.417 523.401 479.104 522.231C480.791 521.06 482.787 520.416 484.84 520.38C487.591 520.332 490.249 521.378 492.229 523.289C494.21 525.2 495.35 527.819 495.4 530.57V530.57Z" class="change-color-in-svg" style="fill:#4c1d95"/><g opacity=".5"><path fill="#fff" d="M409.94 601.24L454.9 538.83L484.11 576.87L503.09 555.93L541.78 598.92L409.94 601.24Z" opacity=".5"/></g><g opacity=".5"><path fill="#fff" d="M495.4 530.57C495.437 532.623 494.865 534.641 493.755 536.368C492.645 538.096 491.048 539.456 489.166 540.275C487.283 541.095 485.2 541.338 483.179 540.974C481.159 540.609 479.291 539.654 477.814 538.228C476.336 536.802 475.315 534.97 474.879 532.964C474.442 530.957 474.611 528.867 475.363 526.956C476.115 525.046 477.417 523.401 479.104 522.231C480.791 521.06 482.787 520.416 484.84 520.38C487.591 520.332 490.249 521.378 492.229 523.289C494.21 525.2 495.35 527.819 495.4 530.57V530.57Z" opacity=".5"/></g><path fill="#fff" d="M496.665 398.809L468.24 567.764L679.58 603.32L708.005 434.365L496.665 398.809Z"/><path fill="#F4F4F4" d="M502.159 410.662L477.312 558.346L673.801 591.404L698.648 443.719L502.159 410.662Z"/><path fill="#4D61FC" d="M477.3 558.34L561.37 478.09L594.22 542.67L628.22 516.82L673.79 591.39L477.3 558.34Z" class="change-color-in-svg" style="fill:#4c1d95"/><path fill="#4D61FC" d="M623.82 477C623.317 480.068 621.914 482.917 619.79 485.186C617.665 487.455 614.914 489.042 611.886 489.745C608.858 490.449 605.689 490.237 602.782 489.136C599.875 488.036 597.36 486.096 595.557 483.564C593.753 481.032 592.743 478.022 592.653 474.914C592.563 471.807 593.399 468.743 595.053 466.111C596.708 463.48 599.107 461.399 601.946 460.133C604.785 458.866 607.936 458.472 611 459C615.079 459.703 618.715 461.989 621.116 465.36C623.518 468.732 624.489 472.915 623.82 477V477Z" class="change-color-in-svg" style="fill:#4c1d95"/><g opacity=".5"><path fill="#fff" d="M477.3 558.34L561.37 478.09L594.22 542.67L628.22 516.82L673.79 591.39L477.3 558.34Z" opacity=".5"/></g><g opacity=".5"><path fill="#fff" d="M623.82 477C623.317 480.068 621.914 482.917 619.79 485.186C617.665 487.455 614.914 489.042 611.886 489.745C608.858 490.449 605.689 490.237 602.782 489.136C599.875 488.036 597.36 486.096 595.557 483.564C593.753 481.032 592.743 478.022 592.653 474.914C592.563 471.807 593.399 468.743 595.053 466.111C596.708 463.48 599.107 461.399 601.946 460.133C604.785 458.866 607.936 458.472 611 459C615.079 459.703 618.715 461.989 621.116 465.36C623.518 468.732 624.489 472.915 623.82 477V477Z" opacity=".5"/></g><g opacity=".6"><path fill="#4D61FC" d="M1260.46 668.36L1251.46 669.82L1251.17 668.01L1260.22 666.55L1260.46 668.36ZM1242.37 671.27L1233.37 672.73L1233.08 670.92L1242.08 669.46L1242.37 671.27ZM1224.27 674.19L1215.27 675.65L1214.98 673.84L1223.98 672.38L1224.27 674.19ZM1206.18 677.11L1197.18 678.56L1196.89 676.76L1205.94 675.3L1206.18 677.11ZM1261.05 666.22L1259.24 666.51L1257.78 657.51L1259.59 657.22L1261.05 666.22ZM1190.51 676.66L1188.7 676.95L1187.24 667.95L1189.05 667.65L1190.51 676.66ZM1258.13 648.12L1256.32 648.42L1254.86 639.42L1256.67 639.13L1258.13 648.12ZM1187.59 658.57L1185.78 658.86L1184.33 649.81L1186.14 649.52L1187.59 658.57ZM1255.21 630L1253.4 630.29L1251.94 621.24L1253.75 620.95L1255.21 630ZM1184.68 640.44L1182.87 640.73L1181.41 631.73L1183.22 631.44L1184.68 640.44ZM1252.3 611.91L1250.49 612.2L1249.03 603.15L1250.84 602.86L1252.3 611.91ZM1181.76 622.35L1179.95 622.64L1178.49 613.64L1180.3 613.35L1181.76 622.35ZM1246 598.46L1237 599.92L1236.71 598.11L1245.71 596.65L1246 598.46ZM1227.9 601.38L1218.9 602.84L1218.61 601.03L1227.61 599.57L1227.9 601.38ZM1209.81 604.3L1200.81 605.76L1200.52 603.95L1209.52 602.49L1209.81 604.3ZM1191.72 607.21L1182.72 608.67L1182.43 606.86L1191.43 605.4L1191.72 607.21Z" class="change-color-in-svg" opacity=".6" style="fill:#4c1d95"/></g><g opacity=".6"><path fill="#4D61FC" d="M1180.4 615.87C1179.08 616.083 1177.73 615.9 1176.51 615.344C1175.3 614.788 1174.28 613.885 1173.58 612.748C1172.88 611.611 1172.53 610.292 1172.58 608.957C1172.63 607.623 1173.07 606.333 1173.85 605.251C1174.64 604.169 1175.72 603.343 1176.97 602.878C1178.23 602.414 1179.59 602.331 1180.89 602.64C1182.19 602.949 1183.36 603.637 1184.27 604.616C1185.18 605.595 1185.78 606.821 1185.99 608.14C1186.27 609.906 1185.84 611.712 1184.79 613.162C1183.75 614.611 1182.17 615.585 1180.4 615.87ZM1178.55 604.36C1177.59 604.515 1176.7 604.95 1175.99 605.611C1175.28 606.272 1174.78 607.129 1174.55 608.074C1174.33 609.018 1174.39 610.008 1174.73 610.918C1175.07 611.828 1175.67 612.618 1176.45 613.187C1177.24 613.755 1178.18 614.078 1179.15 614.114C1180.12 614.15 1181.08 613.897 1181.91 613.388C1182.73 612.879 1183.39 612.137 1183.79 611.254C1184.2 610.371 1184.33 609.389 1184.18 608.43C1183.97 607.145 1183.26 605.995 1182.21 605.232C1181.15 604.469 1179.84 604.155 1178.55 604.36V604.36Z" class="change-color-in-svg" opacity=".6" style="fill:#4c1d95"/></g><g opacity=".6"><path fill="#4D61FC" d="M1249.82 604.68C1248.5 604.893 1247.15 604.71 1245.94 604.154C1244.72 603.598 1243.7 602.695 1243 601.558C1242.3 600.421 1241.95 599.102 1242 597.767C1242.05 596.433 1242.49 595.143 1243.27 594.061C1244.06 592.979 1245.14 592.153 1246.39 591.688C1247.65 591.223 1249.01 591.14 1250.31 591.45C1251.61 591.759 1252.78 592.447 1253.69 593.426C1254.6 594.405 1255.2 595.631 1255.41 596.95C1255.69 598.716 1255.26 600.52 1254.21 601.969C1253.16 603.418 1251.58 604.393 1249.82 604.68V604.68ZM1248 593.17C1247.04 593.325 1246.15 593.76 1245.44 594.421C1244.73 595.082 1244.23 595.939 1244 596.884C1243.78 597.828 1243.84 598.818 1244.18 599.728C1244.52 600.638 1245.12 601.428 1245.9 601.996C1246.69 602.565 1247.63 602.888 1248.6 602.924C1249.57 602.96 1250.53 602.707 1251.36 602.198C1252.18 601.689 1252.84 600.946 1253.24 600.064C1253.65 599.181 1253.78 598.199 1253.63 597.24C1253.42 595.955 1252.71 594.804 1251.66 594.042C1250.6 593.279 1249.29 592.965 1248 593.17V593.17Z" class="change-color-in-svg" opacity=".6" style="fill:#4c1d95"/></g><g opacity=".6"><path fill="#4D61FC" d="M1191.91 687.25C1190.59 687.462 1189.24 687.28 1188.03 686.725C1186.82 686.171 1185.8 685.269 1185.1 684.135C1184.4 683 1184.05 681.684 1184.1 680.352C1184.15 679.02 1184.59 677.732 1185.37 676.651C1186.15 675.57 1187.24 674.745 1188.48 674.28C1189.73 673.815 1191.09 673.73 1192.39 674.037C1193.69 674.344 1194.86 675.029 1195.77 676.005C1196.68 676.981 1197.28 678.204 1197.49 679.52C1197.77 681.285 1197.34 683.089 1196.3 684.539C1195.25 685.988 1193.67 686.963 1191.91 687.25V687.25ZM1190.06 675.75C1189.1 675.905 1188.21 676.341 1187.5 677.003C1186.79 677.664 1186.29 678.522 1186.07 679.467C1185.84 680.412 1185.9 681.402 1186.24 682.312C1186.58 683.223 1187.18 684.011 1187.97 684.58C1188.76 685.148 1189.7 685.469 1190.67 685.504C1191.64 685.539 1192.6 685.285 1193.42 684.774C1194.25 684.263 1194.91 683.519 1195.31 682.636C1195.71 681.752 1195.85 680.769 1195.69 679.81C1195.48 678.526 1194.77 677.379 1193.71 676.618C1192.66 675.857 1191.34 675.545 1190.06 675.75V675.75Z" class="change-color-in-svg" opacity=".6" style="fill:#4c1d95"/></g><g opacity=".6"><path fill="#4D61FC" d="M1261.33 676.06C1260.01 676.272 1258.66 676.09 1257.45 675.535C1256.24 674.981 1255.22 674.079 1254.52 672.945C1253.82 671.81 1253.47 670.494 1253.52 669.162C1253.57 667.83 1254.01 666.542 1254.79 665.461C1255.57 664.38 1256.65 663.555 1257.9 663.09C1259.15 662.625 1260.51 662.54 1261.81 662.847C1263.11 663.154 1264.28 663.839 1265.19 664.815C1266.1 665.791 1266.7 667.014 1266.91 668.33C1267.19 670.095 1266.76 671.899 1265.72 673.349C1264.67 674.798 1263.09 675.773 1261.33 676.06ZM1259.48 664.56C1258.52 664.713 1257.63 665.148 1256.92 665.808C1256.2 666.469 1255.7 667.326 1255.48 668.272C1255.25 669.217 1255.31 670.208 1255.65 671.119C1255.99 672.03 1256.59 672.82 1257.38 673.389C1258.17 673.958 1259.11 674.28 1260.08 674.315C1261.05 674.351 1262.01 674.097 1262.83 673.586C1263.66 673.076 1264.32 672.331 1264.72 671.447C1265.12 670.563 1265.26 669.579 1265.1 668.62C1264.89 667.337 1264.18 666.19 1263.13 665.429C1262.08 664.667 1260.76 664.355 1259.48 664.56V664.56Z" class="change-color-in-svg" opacity=".6" style="fill:#4c1d95"/></g><path fill="#B2B6BB" d="M1215.91 625.31L1202.91 627.41L1201.91 621.23L1235.25 615.86L1236.25 622.04L1223.25 624.13L1228.59 657.25L1221.29 658.43L1215.91 625.31Z"/><path fill="#FBE7A1" d="M580 770C580.387 772.046 580.207 774.159 579.48 776.11C578.731 778.16 577.37 779.931 575.581 781.183C573.793 782.435 571.663 783.108 569.48 783.11C568.365 783.095 567.259 782.909 566.2 782.56C564.989 782.181 563.693 782.175 562.478 782.543C561.264 782.91 560.188 783.634 559.39 784.62C557.84 786.487 555.811 787.897 553.522 788.7C551.232 789.503 548.767 789.669 546.39 789.18C544.478 788.736 542.68 787.9 541.109 786.723C539.538 785.546 538.229 784.055 537.266 782.345C536.303 780.635 535.706 778.743 535.514 776.79C535.322 774.837 535.539 772.865 536.15 771C537.04 768.11 538.862 765.595 541.331 763.85C543.801 762.104 546.779 761.225 549.8 761.35C551.829 761.466 553.806 762.039 555.583 763.026C557.359 764.013 558.89 765.388 560.06 767.05C560.907 765.358 562.179 763.914 563.75 762.86C562.126 761.183 560.936 759.135 560.283 756.894C559.629 754.653 559.532 752.287 560 750C560.331 748.17 561.032 746.428 562.061 744.879C563.09 743.331 564.424 742.009 565.983 740.996C567.542 739.982 569.291 739.298 571.124 738.986C572.957 738.674 574.834 738.74 576.64 739.18C579.096 739.878 581.318 741.223 583.077 743.073C584.835 744.924 586.064 747.212 586.637 749.7C587.209 752.188 587.103 754.783 586.329 757.216C585.556 759.649 584.144 761.829 582.24 763.53C581.333 764.318 580.648 765.33 580.255 766.466C579.862 767.601 579.774 768.82 580 770V770Z"/><path fill="#FC9D9D" d="M581.81 880.79L592 877.92C593.253 877.57 594.59 877.68 595.77 878.23L606.21 883.12C607.341 883.651 608.255 884.555 608.8 885.68L615.52 899.68C615.664 899.965 615.75 900.277 615.772 900.596C615.794 900.915 615.752 901.236 615.649 901.539C615.546 901.841 615.383 902.121 615.17 902.359C614.957 902.598 614.698 902.792 614.41 902.93C614.215 903.048 613.987 903.097 613.761 903.068C613.536 903.039 613.327 902.934 613.17 902.77L611.99 901.63L583.79 892.46L581.81 880.79Z"/><path fill="#FC9D9D" d="M547.7 800.63L544.62 752.96H517.24L515.28 762.53L513.21 792.95L547.7 800.63Z"/><path fill="#000" d="M546.33 779.72C544.964 780.066 543.56 780.241 542.15 780.24C538.537 780.191 535.041 778.954 532.2 776.72C529.126 776.4 526.16 775.41 523.51 773.82C523.385 773.736 523.297 773.607 523.265 773.46C523.233 773.312 523.26 773.158 523.34 773.03C523.378 772.967 523.428 772.911 523.488 772.868C523.548 772.825 523.616 772.794 523.688 772.778C523.76 772.762 523.835 772.761 523.908 772.775C523.98 772.789 524.049 772.818 524.11 772.86C526.152 774.084 528.404 774.918 530.75 775.32C530.92 775.32 531.08 775.41 531.25 775.41C531.76 775.49 532.19 775.49 532.61 775.58H532.78C533.059 775.663 533.35 775.696 533.64 775.68H535.93C539.314 775.585 542.621 774.647 545.55 772.95L546.33 779.72Z" opacity=".15"/><path fill="#FBE7A1" d="M561.57 770.78L542.72 761.06L545.24 715.31L561.43 717.4L569.07 723.83C569.07 723.83 568.64 726.41 568.53 727.92C568.11 733.71 572.9 736.73 578.36 739.78L561.57 770.78Z"/><path fill="#FC9D9D" d="M557.68 752.28L556.73 723.4C556.71 722.159 556.446 720.935 555.952 719.797C555.458 718.659 554.744 717.63 553.851 716.768C552.958 715.907 551.904 715.23 550.749 714.778C549.594 714.325 548.36 714.105 547.12 714.13L518.94 715.2C517.982 715.245 517.043 715.478 516.175 715.887C515.308 716.295 514.53 716.871 513.885 717.58C513.24 718.29 512.742 719.12 512.419 720.022C512.095 720.925 511.953 721.882 512 722.84L513 753.92C513.4 766.11 523.3 775.68 535.21 775.28L536.86 775.2C548.71 774.78 558 764.48 557.68 752.28Z"/><path fill="#FC9D9D" d="M590.21 1056.09L636.54 1057.25L618 1044C614.89 1041.78 613.78 1038.31 613.6 1034.49L614.49 1020L589.24 1020.08L590.21 1056.09Z"/><path fill="#000" d="M595.37 1042.08V1041.86C595.353 1041.51 595.406 1041.16 595.528 1040.84C595.65 1040.51 595.838 1040.21 596.079 1039.96C596.321 1039.71 596.612 1039.51 596.933 1039.37C597.255 1039.24 597.601 1039.17 597.95 1039.17L614.22 1037.42L614 1035H589.32L590.04 1055.1L610.22 1053.27L603.55 1051.09C599 1049.58 595.73 1046.09 595.37 1042.08Z" opacity=".15"/><path fill="#4D61FC" d="M587 1047.91V1065.91C586.993 1066.6 587.125 1067.29 587.386 1067.93C587.648 1068.57 588.034 1069.15 588.523 1069.64C589.012 1070.13 589.593 1070.51 590.233 1070.77C590.873 1071.04 591.559 1071.17 592.25 1071.16H653.7C653.992 1071.16 654.282 1071.11 654.553 1071C654.823 1070.89 655.069 1070.72 655.276 1070.52C655.482 1070.31 655.646 1070.06 655.757 1069.79C655.867 1069.52 655.923 1069.23 655.92 1068.94C655.917 1066.84 655.255 1064.79 654.026 1063.08C652.797 1061.37 651.064 1060.09 649.07 1059.42L635.2 1054.89L617.6 1041.28C616.714 1040.59 615.618 1040.24 614.498 1040.27C613.378 1040.3 612.305 1040.72 611.46 1041.46L603.64 1048.13C603.064 1048.6 602.384 1048.92 601.657 1049.08C600.931 1049.23 600.178 1049.21 599.46 1049.02L589.59 1045.91C589.284 1045.82 588.959 1045.8 588.643 1045.85C588.327 1045.91 588.03 1046.04 587.776 1046.24C587.522 1046.43 587.319 1046.69 587.184 1046.98C587.049 1047.27 586.986 1047.59 587 1047.91V1047.91Z" class="change-color-in-svg" style="fill:#4c1d95"/><path fill="#000" d="M592.26 1071.21H653.7C653.992 1071.21 654.282 1071.16 654.552 1071.05C654.823 1070.94 655.069 1070.77 655.275 1070.57C655.482 1070.36 655.645 1070.11 655.756 1069.84C655.867 1069.57 655.922 1069.28 655.92 1068.99C655.924 1068.24 655.833 1067.49 655.65 1066.76H587.1C587.264 1068.01 587.88 1069.15 588.832 1069.97C589.783 1070.79 591.003 1071.23 592.26 1071.21V1071.21Z" opacity=".5"/><path fill="#fff" d="M617.24 1048.54C617.172 1048.54 617.105 1048.52 617.044 1048.49C616.983 1048.46 616.931 1048.41 616.89 1048.36C616.802 1048.25 616.755 1048.1 616.755 1047.96C616.755 1047.82 616.802 1047.67 616.89 1047.56L620.62 1043.56C620.73 1043.47 620.867 1043.43 621.005 1043.44C621.144 1043.45 621.275 1043.51 621.373 1043.61C621.472 1043.7 621.531 1043.84 621.539 1043.97C621.548 1044.11 621.505 1044.25 621.42 1044.36L617.69 1048.36C617.567 1048.47 617.407 1048.54 617.24 1048.54V1048.54Z"/><path fill="#fff" d="M620.18 1050.85C620.11 1050.85 620.042 1050.83 619.979 1050.8C619.917 1050.77 619.863 1050.72 619.82 1050.67C619.732 1050.56 619.685 1050.41 619.685 1050.27C619.685 1050.13 619.732 1049.98 619.82 1049.87L623.56 1045.87C623.675 1045.78 623.815 1045.73 623.96 1045.73C624.104 1045.73 624.245 1045.78 624.36 1045.87C624.443 1045.99 624.487 1046.13 624.487 1046.27C624.487 1046.41 624.443 1046.55 624.36 1046.67L620.62 1050.67C620.499 1050.78 620.343 1050.84 620.18 1050.85V1050.85Z"/><path fill="#fff" d="M623.2 1053.11C623.131 1053.11 623.062 1053.09 623 1053.06C622.938 1053.03 622.883 1052.98 622.84 1052.93C622.753 1052.82 622.705 1052.67 622.705 1052.53C622.705 1052.39 622.753 1052.24 622.84 1052.13L626.57 1048.13C626.688 1048.05 626.83 1048 626.975 1048C627.12 1048 627.262 1048.05 627.38 1048.13C627.463 1048.25 627.508 1048.39 627.508 1048.53C627.508 1048.67 627.463 1048.81 627.38 1048.93L623.64 1052.93C623.52 1053.04 623.364 1053.1 623.2 1053.11Z"/><path fill="#FC9D9D" d="M461.27 1023.42L474.43 1067.85L481.34 1046.18C482.5 1042.53 485.45 1040.41 489.04 1039.06L503.1 1035.44L495.24 1011.44L461.27 1023.42Z"/><path fill="#000" d="M476.19 1024L476.4 1023.93C476.725 1023.8 477.073 1023.75 477.421 1023.76C477.77 1023.78 478.112 1023.86 478.426 1024.01C478.74 1024.17 479.019 1024.38 479.247 1024.64C479.475 1024.91 479.646 1025.22 479.75 1025.55L486.42 1040.49L488.65 1039.58L481.05 1016.07L462.14 1023L470.09 1041.64V1034.64C470.17 1029.79 472.49 1025.59 476.19 1024Z" opacity=".15"/><path fill="#4D61FC" d="M468.07 1017.86L450.89 1023.42C450.235 1023.63 449.628 1023.97 449.103 1024.42C448.579 1024.86 448.148 1025.41 447.835 1026.02C447.522 1026.63 447.333 1027.3 447.279 1027.99C447.225 1028.68 447.307 1029.37 447.52 1030.02L460.8 1071.02L476.52 1071.12C479.27 1071.02 482.42 1071.4 483.6 1071.02C486.51 1070.08 486.6 1068.64 486.44 1066.31C486.376 1065.4 486.006 1064.54 485.391 1063.86C484.776 1063.19 483.951 1062.74 483.05 1062.59L477.66 1060.77L483.74 1044.88C484.122 1043.83 484.125 1042.67 483.749 1041.62C483.373 1040.57 482.642 1039.67 481.68 1039.1L472.93 1033.71C472.305 1033.31 471.785 1032.76 471.415 1032.12C471.044 1031.48 470.833 1030.75 470.8 1030.01L470.72 1019.66C470.706 1019.35 470.62 1019.05 470.468 1018.77C470.316 1018.5 470.103 1018.27 469.846 1018.1C469.589 1017.92 469.295 1017.81 468.986 1017.77C468.678 1017.73 468.364 1017.76 468.07 1017.86V1017.86Z" class="change-color-in-svg" style="fill:#4c1d95"/><path fill="#000" d="M478.55 1071.07H460.8L447.52 1030.07C447.111 1028.88 447.155 1027.59 447.642 1026.43C448.129 1025.27 449.026 1024.34 450.16 1023.8L464 1067.46L486.45 1068.9C486.45 1068.9 485.76 1071.79 478.55 1071.07Z" opacity=".5"/><path fill="#fff" d="M476.78 1046.81C476.758 1046.74 476.752 1046.68 476.763 1046.61C476.773 1046.54 476.8 1046.48 476.84 1046.42C476.924 1046.3 477.043 1046.22 477.18 1046.17C477.316 1046.13 477.463 1046.13 477.6 1046.17L482.6 1048.49C482.717 1048.58 482.803 1048.7 482.847 1048.84C482.89 1048.97 482.888 1049.12 482.84 1049.26C482.757 1049.38 482.638 1049.46 482.5 1049.51C482.363 1049.55 482.216 1049.55 482.08 1049.5L477.08 1047.18C476.938 1047.1 476.831 1046.97 476.78 1046.81V1046.81Z"/><path fill="#fff" d="M475.48 1050.32C475.461 1050.25 475.456 1050.18 475.466 1050.11C475.477 1050.04 475.502 1049.98 475.54 1049.92C475.624 1049.8 475.743 1049.72 475.88 1049.67C476.017 1049.63 476.165 1049.63 476.3 1049.68L481.3 1052C481.417 1052.08 481.504 1052.2 481.549 1052.34C481.594 1052.48 481.594 1052.62 481.55 1052.76C481.464 1052.88 481.343 1052.96 481.205 1053.01C481.067 1053.05 480.919 1053.05 480.78 1053.01L475.83 1050.68C475.671 1050.61 475.545 1050.48 475.48 1050.32V1050.32Z"/><path fill="#fff" d="M474.26 1053.89C474.238 1053.82 474.232 1053.75 474.242 1053.68C474.253 1053.61 474.279 1053.55 474.32 1053.49C474.403 1053.37 474.522 1053.29 474.659 1053.24C474.797 1053.2 474.944 1053.2 475.08 1053.25L480.03 1055.57C480.15 1055.65 480.24 1055.77 480.286 1055.91C480.331 1056.04 480.329 1056.19 480.28 1056.33C480.196 1056.45 480.077 1056.53 479.94 1056.58C479.804 1056.62 479.657 1056.62 479.52 1056.58L474.52 1054.25C474.391 1054.17 474.298 1054.04 474.26 1053.89Z"/><path fill="#21252B" d="M530.17 743.85C530.184 743.392 530.332 742.949 530.596 742.575C530.861 742.201 531.229 741.914 531.656 741.748C532.083 741.582 532.549 741.546 532.996 741.644C533.443 741.741 533.852 741.969 534.171 742.297C534.49 742.626 534.705 743.041 534.789 743.491C534.874 743.941 534.823 744.405 534.645 744.827C534.467 745.249 534.169 745.609 533.787 745.862C533.406 746.115 532.958 746.25 532.5 746.25C531.873 746.24 531.276 745.981 530.839 745.531C530.403 745.081 530.162 744.477 530.17 743.85V743.85Z"/><path fill="#fff" d="M533 744.27C533.002 744.176 533.032 744.084 533.086 744.006C533.14 743.929 533.215 743.869 533.303 743.834C533.391 743.799 533.487 743.791 533.58 743.811C533.672 743.83 533.757 743.877 533.823 743.944C533.889 744.012 533.934 744.097 533.951 744.19C533.969 744.283 533.959 744.379 533.922 744.466C533.886 744.553 533.824 744.627 533.746 744.68C533.667 744.732 533.574 744.76 533.48 744.76C533.352 744.757 533.23 744.705 533.14 744.613C533.05 744.521 533 744.398 533 744.27Z"/><path fill="#21252B" d="M548.28 744C548.294 743.542 548.443 743.098 548.707 742.724C548.972 742.35 549.341 742.062 549.769 741.897C550.196 741.732 550.663 741.696 551.11 741.794C551.558 741.893 551.966 742.121 552.285 742.451C552.603 742.78 552.817 743.196 552.901 743.647C552.984 744.097 552.932 744.562 552.753 744.984C552.573 745.405 552.273 745.765 551.89 746.016C551.507 746.268 551.059 746.402 550.6 746.4C549.975 746.387 549.381 746.127 548.946 745.678C548.512 745.228 548.272 744.625 548.28 744V744Z"/><path fill="#fff" d="M551.09 744.32C551.089 744.256 551.1 744.192 551.123 744.132C551.147 744.072 551.182 744.017 551.226 743.971C551.271 743.924 551.324 743.887 551.383 743.861C551.442 743.835 551.506 743.821 551.57 743.82C551.67 743.816 551.768 743.842 551.853 743.894C551.938 743.947 552.005 744.023 552.046 744.114C552.087 744.205 552.1 744.306 552.083 744.405C552.066 744.503 552.02 744.594 551.951 744.666C551.882 744.738 551.793 744.787 551.695 744.808C551.598 744.829 551.496 744.821 551.403 744.784C551.311 744.746 551.232 744.682 551.176 744.6C551.12 744.517 551.09 744.42 551.09 744.32Z"/><path fill="#000" d="M542.26 752.08C542.203 751.338 541.857 750.648 541.295 750.159C540.734 749.671 540.002 749.423 539.26 749.47C539.091 749.524 538.944 749.629 538.838 749.771C538.733 749.912 538.674 750.083 538.669 750.26C538.718 750.43 538.818 750.58 538.956 750.689C539.094 750.799 539.263 750.862 539.44 750.87C539.824 750.878 540.192 751.025 540.476 751.284C540.759 751.544 540.938 751.898 540.979 752.28C541.019 752.659 540.908 753.038 540.67 753.335C540.433 753.633 540.088 753.825 539.71 753.87L536.609 754.15C536.441 754.204 536.294 754.309 536.188 754.451C536.082 754.592 536.024 754.763 536.02 754.94C536.068 755.11 536.168 755.26 536.306 755.369C536.444 755.479 536.613 755.542 536.789 755.55L539.89 755.27C540.271 755.255 540.643 755.155 540.981 754.978C541.318 754.8 541.611 754.549 541.839 754.243C542.066 753.937 542.222 753.583 542.295 753.209C542.367 752.835 542.355 752.449 542.26 752.08V752.08Z" opacity=".15"/><path fill="#21252B" d="M480.73 1015.21L551.83 983.14L479.27 986.71L477.83 936.24L598.54 951.06L616.38 976.74L611.68 1008.96L488.61 1040.25L480.73 1015.21Z"/><path fill="#000" d="M502.65 985.71L572.34 948.18L555.65 946.73L483.75 986L502.65 985.71Z" opacity=".3"/><path fill="#000" d="M488.61 1040.25L611.68 1009L616.38 976.78L598.54 951.1L575.11 948.22L576.66 988.22C576.851 993.177 575.397 998.058 572.525 1002.1C569.652 1006.15 565.523 1009.13 560.78 1010.58L486.42 1033.33L488.61 1040.25Z" opacity=".3"/><path fill="#21252B" d="M616.13 1036.48L621.31 921.84C620.98 911.36 614.74 901.79 604.82 896.53C596.498 892.184 586.802 891.279 577.82 894.01L495.82 919.01L450.82 929.6C447.608 937.745 445.666 946.335 445.06 955.07C443.86 974.58 460.35 992.16 481.68 986.79C501.41 981.79 578.02 944.17 578.02 944.17L587.39 1037.17L616.13 1036.48Z"/><g opacity=".3"><path fill="#000" d="M567.25 974.8C567.25 974.62 563.19 975.34 558.83 977.8C554.47 980.26 551.7 983.25 551.83 983.36C551.96 983.47 554.92 980.81 559.19 978.47C563.46 976.13 567.31 975 567.25 974.8Z" opacity=".3"/></g><g opacity=".3"><path fill="#000" d="M589.73 933.1C589.84 933.33 586.05 934.7 582.73 938.17C579.41 941.64 578.02 945.41 577.79 945.3C577.862 944.421 578.125 943.568 578.56 942.8C579.45 940.877 580.664 939.121 582.15 937.61C583.632 936.09 585.368 934.841 587.28 933.92C588.029 933.474 588.864 933.195 589.73 933.1V933.1Z" opacity=".3"/></g><path fill="#fff" d="M532.6 759.59C532.21 759.59 532.09 759.84 532.15 760.15C532.538 761.371 533.273 762.453 534.266 763.262C535.259 764.071 536.467 764.573 537.741 764.706C539.015 764.839 540.3 764.597 541.439 764.009C542.577 763.422 543.52 762.515 544.15 761.4C544.181 761.338 544.197 761.269 544.196 761.2C544.195 761.131 544.178 761.063 544.146 761.001C544.113 760.94 544.067 760.887 544.011 760.847C543.954 760.806 543.889 760.78 543.82 760.77L532.6 759.59Z"/><path fill="#FBE7A1" d="M564.67 723.22C563.73 725.122 562.234 726.694 560.38 727.727C558.526 728.759 556.402 729.203 554.29 729C550.737 728.722 547.408 727.157 544.927 724.6C542.445 722.043 540.981 718.669 540.81 715.11H540.68C539.267 716.983 537.413 718.478 535.282 719.462C533.152 720.446 530.812 720.889 528.47 720.75C527.101 720.662 525.753 720.372 524.47 719.89C522.81 735.49 513.17 736.71 513.17 736.71C513.08 738.2 512.91 741.2 512.7 744.71C512.55 747.12 515.41 748.28 514.03 750.03H514.78C514.37 750.61 515.45 751.36 515.16 752.03C514.685 753.133 514.407 754.311 514.34 755.51C514.219 757.214 514.544 758.92 515.284 760.46C516.024 762 517.153 763.32 518.56 764.29C521.44 766.39 524.56 769.22 525.03 772.89C525.58 777.44 522.22 785.79 510.9 785.56C507.64 785.5 481.49 784.8 484.63 761.49C485.103 759.565 485.868 757.723 486.9 756.03C487.53 754.842 487.898 753.532 487.98 752.19C488.18 748.99 486.2 746.7 484.14 744.63C482.977 743.575 482.066 742.273 481.474 740.819C480.882 739.365 480.624 737.797 480.72 736.23C480.832 734.087 481.614 732.034 482.956 730.36C484.298 728.685 486.132 727.475 488.2 726.9C488.78 726.744 489.303 726.423 489.704 725.976C490.105 725.528 490.368 724.974 490.46 724.38C491.34 719.28 497.26 706.25 515.53 708.31C515.2 702.94 520.59 695.07 528.53 694.85C535.34 694.67 540.91 700.01 544.47 704.56C545.475 705.877 546.791 706.924 548.301 707.607C549.811 708.289 551.467 708.586 553.12 708.47C554.59 708.35 556.73 707.64 558.79 707.75C566.74 708.18 570.3 715.11 569.01 723.81L564.67 723.22Z"/><path fill="#FC9D9D" d="M689.6 763.55L692.27 765.91C692.27 765.91 696.8 770.57 696.71 770.68C696.62 770.79 696.55 775.68 696.55 775.68L696.34 778.88C696.316 779.052 696.247 779.215 696.141 779.352C696.034 779.49 695.894 779.597 695.733 779.664C695.573 779.73 695.398 779.754 695.225 779.732C695.053 779.711 694.889 779.644 694.75 779.54C694.226 779.068 693.874 778.434 693.75 777.74L693.54 778.74C693.498 778.889 693.422 779.027 693.318 779.142C693.214 779.257 693.084 779.346 692.94 779.402C692.795 779.458 692.64 779.48 692.485 779.466C692.331 779.452 692.182 779.402 692.05 779.32C691.455 778.878 690.991 778.282 690.708 777.597C690.424 776.912 690.332 776.163 690.44 775.43C690.569 773.817 690.609 772.198 690.56 770.58L689.69 769.8C689.47 769.94 682.08 772.36 682.09 772.18C682.1 772 681.25 766.89 681.25 766.89L689.6 763.55Z"/><g opacity=".15"><path fill="#000" d="M689.6 763.55L692.27 765.91C692.27 765.91 696.8 770.57 696.71 770.68C696.62 770.79 696.55 775.68 696.55 775.68L696.34 778.88C696.316 779.052 696.247 779.215 696.141 779.352C696.034 779.49 695.894 779.597 695.733 779.664C695.573 779.73 695.398 779.754 695.225 779.732C695.053 779.711 694.889 779.644 694.75 779.54C694.226 779.068 693.874 778.434 693.75 777.74L693.54 778.74C693.498 778.889 693.422 779.027 693.318 779.142C693.214 779.257 693.084 779.346 692.94 779.402C692.795 779.458 692.64 779.48 692.485 779.466C692.331 779.452 692.182 779.402 692.05 779.32C691.455 778.878 690.991 778.282 690.708 777.597C690.424 776.912 690.332 776.163 690.44 775.43C690.569 773.817 690.609 772.198 690.56 770.58L689.69 769.8C689.47 769.94 682.08 772.36 682.09 772.18C682.1 772 681.25 766.89 681.25 766.89L689.6 763.55Z" opacity=".15"/></g><path fill="#FC9D9D" d="M665.49 780.08L675.06 765.61C675.894 764.341 677.195 763.453 678.68 763.14L688.34 761.08C689.201 760.895 690.092 760.908 690.946 761.119C691.801 761.331 692.596 761.735 693.27 762.3L699.53 767.55L700.74 771.17C700.811 771.379 700.82 771.604 700.766 771.819C700.712 772.033 700.597 772.227 700.436 772.378C700.274 772.529 700.073 772.63 699.856 772.669C699.638 772.709 699.414 772.684 699.21 772.6C697.691 771.882 696.374 770.796 695.38 769.44C693.885 767.652 692.041 766.189 689.96 765.14L682.18 768.55L682.59 772.68L668.48 785.73L665.49 780.08Z"/><path fill="#000" d="M704.33 776.57L675.67 755.34C675.498 755.213 675.303 755.12 675.095 755.069C674.888 755.017 674.672 755.006 674.46 755.038C674.248 755.069 674.045 755.142 673.861 755.253C673.678 755.363 673.518 755.508 673.39 755.68V755.68C673.263 755.852 673.171 756.048 673.119 756.255C673.067 756.463 673.057 756.679 673.088 756.891C673.12 757.102 673.193 757.306 673.303 757.489C673.413 757.673 673.558 757.833 673.73 757.96L702.39 779.19L706.17 779.96L704.33 776.57Z"/><path fill="#FC9D9D" d="M671.23 790.92L679.46 785.92C680.509 785.285 681.407 784.428 682.09 783.41C683.87 780.74 687.51 775.41 688.79 774.52C690.52 773.31 696.71 769.42 696.1 767.73C695.49 766.04 694.03 764.53 690.48 766.87C686.93 769.21 678.18 773.49 678.18 773.49L667 782.89L671.23 790.92Z"/><g opacity=".15"><path fill="#000" d="M679.07 773C680.427 772.492 681.741 771.876 683 771.16C685.36 769.97 688.71 768.16 692.22 766.35C692.617 766.161 693.056 766.075 693.495 766.101C693.934 766.128 694.359 766.265 694.73 766.5C695.044 766.743 695.274 767.078 695.389 767.458C695.504 767.838 695.497 768.244 695.37 768.62C695.034 769.333 694.538 769.96 693.92 770.45C693.35 770.98 692.8 771.45 692.28 771.86C690.2 773.51 688.72 774.27 688.78 774.37C689.164 774.288 689.529 774.139 689.86 773.93C690.808 773.439 691.717 772.877 692.58 772.25C693.12 771.86 693.71 771.4 694.31 770.88C695.013 770.353 695.582 769.668 695.97 768.88C696.149 768.376 696.167 767.828 696.02 767.314C695.873 766.799 695.569 766.343 695.15 766.01C694.686 765.7 694.151 765.513 693.594 765.467C693.038 765.422 692.479 765.519 691.97 765.75C688.25 767.68 685.12 769.46 682.77 770.75C681.477 771.396 680.239 772.148 679.07 773V773Z" opacity=".15"/></g><path fill="#21252B" d="M551.16 754.4C549.194 754.39 547.275 753.798 545.646 752.699C544.016 751.6 542.748 750.042 542.003 748.223C541.257 746.404 541.068 744.405 541.457 742.478C541.847 740.552 542.798 738.783 544.192 737.397C545.585 736.01 547.358 735.068 549.287 734.688C551.216 734.308 553.214 734.508 555.029 735.262C556.844 736.017 558.395 737.292 559.486 738.927C560.577 740.562 561.16 742.484 561.16 744.45C561.147 747.094 560.087 749.624 558.213 751.489C556.339 753.353 553.803 754.4 551.16 754.4V754.4ZM551.16 735.23C549.334 735.23 547.549 735.772 546.031 736.786C544.513 737.801 543.33 739.243 542.631 740.93C541.933 742.617 541.751 744.474 542.108 746.264C542.465 748.055 543.345 749.7 544.637 750.99C545.929 752.281 547.574 753.159 549.365 753.514C551.156 753.869 553.012 753.685 554.699 752.985C556.385 752.284 557.826 751.1 558.839 749.581C559.852 748.061 560.392 746.276 560.39 744.45C560.384 742.005 559.41 739.661 557.68 737.933C555.95 736.205 553.605 735.233 551.16 735.23Z"/><path fill="#21252B" d="M528.57 754.4C526.602 754.402 524.677 753.82 523.04 752.728C521.402 751.636 520.125 750.083 519.371 748.265C518.616 746.447 518.418 744.446 518.8 742.515C519.183 740.584 520.13 738.81 521.521 737.418C522.912 736.025 524.685 735.077 526.616 734.692C528.546 734.307 530.547 734.504 532.366 735.256C534.184 736.009 535.739 737.285 536.833 738.921C537.926 740.558 538.51 742.482 538.51 744.45C538.497 747.083 537.446 749.605 535.585 751.468C533.724 753.331 531.203 754.384 528.57 754.4V754.4ZM528.57 735.23C526.744 735.228 524.958 735.768 523.439 736.781C521.919 737.795 520.735 739.236 520.035 740.923C519.335 742.61 519.151 744.467 519.507 746.258C519.863 748.05 520.742 749.695 522.034 750.987C523.325 752.278 524.971 753.157 526.762 753.513C528.553 753.869 530.41 753.685 532.097 752.985C533.784 752.286 535.226 751.101 536.239 749.582C537.252 748.062 537.792 746.276 537.79 744.45C537.785 742.006 536.812 739.664 535.084 737.936C533.356 736.208 531.014 735.235 528.57 735.23V735.23Z"/><path fill="#21252B" d="M541.7 742.26C541.144 741.961 540.522 741.804 539.89 741.804C539.258 741.804 538.636 741.961 538.08 742.26L537.71 741.65C538.375 741.286 539.122 741.095 539.88 741.095C540.638 741.095 541.385 741.286 542.05 741.65L541.7 742.26Z"/><path fill="#21252B" d="M518.77 742.65L511.58 738.5L512 737.92L519.2 742.07L518.77 742.65Z"/><path fill="#4D61FC" d="M544.61 837L547.73 803.26L609.05 807.91L665.14 775.33L676.83 792.23L616.33 836.23C613.952 837.966 611.064 838.863 608.12 838.78L544.61 837Z" class="change-color-in-svg" style="fill:#4c1d95"/><path fill="#000" d="M616.33 836.23L676.83 792.23L674.83 789.48L613.01 831.16C611.129 832.53 608.801 833.14 606.49 832.87L579 829.63C574.967 829.147 571.114 827.679 567.782 825.357C564.449 823.034 561.739 819.927 559.89 816.31L553.44 803.68L547.69 803.25L544.61 837L608.12 838.79C611.065 838.87 613.953 837.97 616.33 836.23V836.23Z" opacity=".15"/><path fill="#4D61FC" d="M547.77 797.09C547.71 798.58 559.49 833.09 559.32 847.2C559.11 865.75 539.62 880.07 539.62 880.07L519.84 911.66C489.79 932.03 445.15 945.57 446.84 924.04L470 863.65L484.36 830.2C488.49 816.471 496.007 804.002 506.22 793.94L518 786.07L547.77 797.09Z" class="change-color-in-svg" style="fill:#4c1d95"/><path fill="#4D61FC" d="M515 910.9L583.87 895.9L580.98 874.27L520 879.86L531 829.29C531.694 825.377 530.959 821.345 528.929 817.929C526.899 814.513 523.708 811.94 519.94 810.68V810.68C511.29 807.79 500.11 812.38 496.88 820.76C496.582 821.572 496.358 822.408 496.21 823.26L484.77 885.69C484.77 885.69 476.39 920.05 515 910.9Z" class="change-color-in-svg" style="fill:#4c1d95"/><g opacity=".15"><path fill="#000" d="M506.72 816.17C506.81 816.39 510.16 814.51 514.72 814.23C519.28 813.95 522.88 815.3 522.95 815.07C523.02 814.84 519.47 813.13 514.67 813.48C509.87 813.83 506.58 816 506.72 816.17Z" opacity=".15"/></g><path fill="#FAFAFA" d="M460 932.19C459.89 932.37 457.95 931.42 455.91 929.73C453.87 928.04 452.57 926.32 452.73 926.18C452.89 926.04 454.43 927.48 456.42 929.12C458.41 930.76 460.12 932 460 932.19Z"/><path fill="#4D61FC" d="M508.74 792.26L510.41 786.37C510.522 785.969 510.716 785.595 510.981 785.273C511.245 784.951 511.573 784.688 511.945 784.5C512.316 784.312 512.723 784.203 513.139 784.181C513.555 784.158 513.971 784.223 514.36 784.37L546.68 796.37C547.463 796.576 548.188 796.959 548.8 797.489C549.411 798.019 549.894 798.682 550.209 799.428C550.525 800.173 550.666 800.981 550.621 801.789C550.576 802.597 550.347 803.384 549.95 804.09V804.09C549.302 805.253 548.239 806.13 546.973 806.545C545.707 806.96 544.332 806.883 543.12 806.33L508.74 792.26Z" class="change-color-in-svg" style="fill:#4c1d95"/><path fill="#FAFAFA" d="M516.58 839.43C516.39 839.53 515.26 837.59 514.58 834.93C513.9 832.27 514.02 830.02 514.23 830.02C514.44 830.02 514.71 832.16 515.35 834.74C515.99 837.32 516.79 839.33 516.58 839.43Z"/><path fill="#FAFAFA" d="M504.87 846.3C505.03 846.44 503.87 848.11 502.02 849.75C500.17 851.39 498.36 852.34 498.25 852.16C498.14 851.98 499.69 850.76 501.49 849.16C503.29 847.56 504.69 846.16 504.87 846.3Z"/><path fill="#FAFAFA" d="M517.07 862.09C516.9 862.22 515.74 861.04 514.88 859.22C514.02 857.4 513.88 855.76 514.04 855.72C514.2 855.68 514.77 857.15 515.6 858.88C516.43 860.61 517.25 862 517.07 862.09Z"/><path fill="#FAFAFA" d="M502.58 873.27C502.37 873.27 502.71 871.27 503.34 868.85C503.97 866.43 504.66 864.57 504.87 864.62C505.08 864.67 504.74 866.62 504.11 869.05C503.48 871.48 502.79 873.33 502.58 873.27Z"/><path fill="#FAFAFA" d="M495.13 887C494.92 887.08 494.19 885.73 493.49 884C492.79 882.27 492.38 880.75 492.58 880.67C492.78 880.59 493.52 881.95 494.23 883.67C494.94 885.39 495.33 887 495.13 887Z"/><path fill="#FAFAFA" d="M517.37 877.39C517.49 877.59 515.87 878.84 513.98 880.49C512.09 882.14 510.63 883.59 510.46 883.49C510.29 883.39 511.51 881.64 513.46 879.94C515.41 878.24 517.26 877.21 517.37 877.39Z"/><path fill="#FAFAFA" d="M497.82 909.63C497.61 909.72 496.5 907.63 495.01 905.25C493.52 902.87 492.21 900.9 492.39 900.76C492.57 900.62 494.17 902.35 495.69 904.84C497.21 907.33 498 909.54 497.82 909.63Z"/><path fill="#FAFAFA" d="M512.53 902.75C512.39 902.93 510.73 901.84 508.53 900.75C506.33 899.66 504.53 898.97 504.53 898.75C504.53 898.53 506.6 898.9 508.85 900.05C511.1 901.2 512.67 902.59 512.53 902.75Z"/><path fill="#FAFAFA" d="M525 900.27C525.17 900.43 524.23 901.67 523.45 903.39C522.67 905.11 522.31 906.62 522.08 906.59C521.85 906.56 521.87 904.9 522.72 903.06C523.57 901.22 524.85 900.12 525 900.27Z"/><path fill="#FAFAFA" d="M533.62 890.32C533.49 890.51 531.98 889.61 530.03 888.72C528.08 887.83 526.44 887.24 526.5 887.01C526.56 886.78 528.35 887.01 530.37 888.01C532.39 889.01 533.75 890.15 533.62 890.32Z"/><path fill="#FAFAFA" d="M540.491 896.68C540.661 896.82 539.941 897.96 538.891 899.23C537.841 900.5 536.89 901.4 536.67 901.23C536.45 901.06 537.221 899.95 538.281 898.69C539.341 897.43 540.321 896.54 540.491 896.68Z"/><path fill="#FAFAFA" d="M547.86 886.76C547.63 886.82 547.12 885.39 546.08 883.87C545.04 882.35 543.93 881.33 544.08 881.14C544.23 880.95 545.64 881.76 546.76 883.42C547.88 885.08 548.06 886.73 547.86 886.76Z"/><path fill="#FAFAFA" d="M555.72 892.6C555.51 892.55 555.85 890.4 556.48 887.8C557.11 885.2 557.8 883.14 558.01 883.19C558.22 883.24 557.89 885.39 557.25 887.99C556.61 890.59 555.93 892.65 555.72 892.6Z"/><path fill="#FAFAFA" d="M572.33 895.87C572.21 896.05 570.67 895.18 568.91 893.87C567.15 892.56 565.82 891.46 565.91 891.28C566 891.1 567.57 891.97 569.34 893.22C571.11 894.47 572.46 895.69 572.33 895.87Z"/><path fill="#FAFAFA" d="M577.13 877.85C577.32 877.95 576.82 879.31 575.64 880.63C574.46 881.95 573.17 882.63 573.06 882.43C572.95 882.23 573.95 881.34 575.06 880.1C576.17 878.86 576.93 877.75 577.13 877.85Z"/><path fill="#FAFAFA" d="M508.48 820.92C508.64 821.08 507.56 822.34 506.08 823.75C504.6 825.16 503.29 826.16 503.14 826C502.99 825.84 504.06 824.57 505.54 823.17C507.02 821.77 508.33 820.76 508.48 820.92Z"/><path fill="#FAFAFA" d="M523.8 827.19C523.59 827.25 523 825.58 522.48 823.48C521.96 821.38 521.73 819.63 521.94 819.58C522.15 819.53 522.75 821.19 523.26 823.29C523.77 825.39 524 827.14 523.8 827.19Z"/><path fill="#FAFAFA" d="M521.15 802.29C521.15 802.5 519.63 802.51 517.8 802.29C515.97 802.07 514.51 801.73 514.54 801.51C514.57 801.29 516.06 801.29 517.89 801.51C519.72 801.73 521.18 802.07 521.15 802.29Z"/><path fill="#FAFAFA" d="M532.6 819.59C532.4 819.59 531.94 818.52 531.94 817.04C531.94 815.56 532.4 814.44 532.6 814.5C532.8 814.56 532.73 815.68 532.74 817.04C532.75 818.4 532.82 819.54 532.6 819.59Z"/><path fill="#FAFAFA" d="M546.63 824.13C546.48 824.29 544.88 823.06 543.05 821.38C541.22 819.7 539.85 818.2 540.05 818.04C540.25 817.88 541.81 819.11 543.64 820.79C545.47 822.47 546.78 824 546.63 824.13Z"/><path fill="#FAFAFA" d="M541.77 833.85C541.89 834.03 541.02 834.85 539.82 835.58C538.62 836.31 537.56 836.83 537.44 836.64C537.32 836.45 538.19 835.64 539.39 834.91C540.59 834.18 541.65 833.66 541.77 833.85Z"/><path fill="#FAFAFA" d="M550.44 847.32C550.23 847.32 549.97 845.45 550.44 843.19C550.91 840.93 551.929 839.31 552.109 839.4C552.289 839.49 551.679 841.2 551.219 843.4C550.759 845.6 550.67 847.32 550.44 847.32Z"/><path fill="#FAFAFA" d="M542.52 853.94C542.33 854.04 541.52 852.75 540.64 851.06C539.76 849.37 539.27 847.93 539.47 847.83C539.67 847.73 540.47 849.02 541.35 850.71C542.23 852.4 542.72 853.84 542.52 853.94Z"/><path fill="#FAFAFA" d="M530.88 857.52C531.08 857.62 530.5 859.34 529.59 861.38C528.68 863.42 527.77 864.99 527.59 864.9C527.41 864.81 527.97 863.09 528.89 861.05C529.81 859.01 530.68 857.43 530.88 857.52Z"/><path fill="#FAFAFA" d="M541.51 868.2C541.51 868.43 539.51 868.52 537.06 868.86C534.61 869.2 532.66 869.64 532.59 869.42C532.52 869.2 534.43 868.42 536.95 868.07C539.47 867.72 541.52 868 541.51 868.2Z"/><path fill="#FAFAFA" d="M483.17 855.73C482.95 855.73 482.38 854.06 481.89 851.88C481.4 849.7 481.18 847.88 481.4 847.88C481.62 847.88 482.18 849.56 482.67 851.74C483.16 853.92 483.38 855.69 483.17 855.73Z"/><path fill="#FAFAFA" d="M492.92 833.34C493.02 833.53 491.92 834.27 490.35 834.48C488.78 834.69 487.52 834.29 487.57 834.09C487.62 833.89 488.81 833.9 490.24 833.69C491.67 833.48 492.82 833.13 492.92 833.34Z"/><path fill="#FAFAFA" d="M474.59 875.3C474.52 875.09 476.29 874.35 478.59 873.64C480.89 872.93 482.71 872.54 482.78 872.75C482.85 872.96 481.07 873.75 478.78 874.41C476.49 875.07 474.65 875.51 474.59 875.3Z"/><path fill="#FAFAFA" d="M468.18 891.6C467.96 891.6 467.61 889.7 467.4 887.31C467.19 884.92 467.19 882.97 467.4 882.95C467.61 882.93 467.97 884.85 468.18 887.24C468.39 889.63 468.4 891.58 468.18 891.6Z"/><path fill="#FAFAFA" d="M473.14 910.47C472.95 910.36 473.93 908.22 475.34 905.69C476.75 903.16 478.05 901.2 478.24 901.31C478.43 901.42 477.45 903.55 476.04 906.08C474.63 908.61 473.33 910.57 473.14 910.47Z"/><path fill="#FAFAFA" d="M463.3 916.05C463.09 916.11 462.3 914.17 461.61 911.72C460.92 909.27 460.47 907.23 460.69 907.16C460.91 907.09 461.69 909.04 462.38 911.49C463.07 913.94 463.51 916 463.3 916.05Z"/><path fill="#FAFAFA" d="M483.75 922.13C483.83 922.34 482.17 923.13 480.23 924.23C478.29 925.33 476.77 926.37 476.63 926.23C476.49 926.09 477.82 924.72 479.83 923.57C481.84 922.42 483.68 921.93 483.75 922.13Z"/><path fill="#FAFAFA" d="M498.28 817.81C498.06 817.81 498.04 815.89 498.28 813.57C498.52 811.25 498.82 809.39 499.04 809.41C499.26 809.43 499.28 811.32 499.04 813.64C498.8 815.96 498.5 817.83 498.28 817.81Z"/><path fill="#FAFAFA" d="M518.35 793.13C518.14 793.19 517.74 792.44 517.46 791.45C517.18 790.46 517.12 789.62 517.34 789.56C517.56 789.5 517.95 790.25 518.23 791.23C518.51 792.21 518.57 793.06 518.35 793.13Z"/><path fill="#FAFAFA" d="M534.13 796.68C534.13 796.89 532.36 796.84 530.39 796.04C528.42 795.24 527.12 794.04 527.25 793.9C527.38 793.76 528.82 794.55 530.69 795.3C532.56 796.05 534.16 796.45 534.13 796.68Z"/><path fill="#FAFAFA" d="M547.12 800C547.24 800.17 546.29 801.07 544.82 801.64C543.35 802.21 542.04 802.22 542.01 802C541.98 801.78 543.15 801.45 544.53 800.9C545.91 800.35 547 799.83 547.12 800Z"/><path fill="#FAFAFA" d="M561.86 816C561.74 815.82 562.77 814.92 563.86 813.68C564.95 812.44 565.73 811.32 565.93 811.42C566.13 811.52 565.64 812.89 564.46 814.21C563.28 815.53 562 816.21 561.86 816Z"/><path fill="#FAFAFA" d="M573.29 832.08C573.13 832.24 571.47 830.82 569.58 828.92C567.69 827.02 566.28 825.34 566.44 825.19C566.6 825.04 568.26 826.45 570.15 828.35C572.04 830.25 573.44 831.92 573.29 832.08Z"/><path fill="#FAFAFA" d="M581.72 815.78C581.91 815.9 581.02 817.64 579.72 819.66C578.42 821.68 577.25 823.24 577.06 823.12C576.87 823 577.76 821.26 579.06 819.24C580.36 817.22 581.54 815.66 581.72 815.78Z"/><path fill="#FAFAFA" d="M595.19 831C594.99 831.11 594.26 830.18 593.55 828.92C592.84 827.66 592.41 826.55 592.6 826.45C592.79 826.35 593.53 827.27 594.24 828.53C594.95 829.79 595.38 830.93 595.19 831Z"/><path fill="#FAFAFA" d="M597.21 812.73C597.02 812.86 596.3 812.1 595.6 811.05C594.9 810 594.47 809.05 594.66 808.92C594.85 808.79 595.56 809.55 596.26 810.61C596.96 811.67 597.39 812.61 597.21 812.73Z"/><path fill="#FAFAFA" d="M610.84 825.82C611 825.98 610.14 827.1 608.91 828.34C607.68 829.58 606.57 830.45 606.41 830.34C606.25 830.23 607.12 829.05 608.35 827.82C609.58 826.59 610.69 825.67 610.84 825.82Z"/><path fill="#FAFAFA" d="M610.71 818.52C610.71 818.74 609.51 819.09 607.96 819.3C606.41 819.51 605.14 819.5 605.11 819.3C605.08 819.1 606.31 818.74 607.86 818.53C609.41 818.32 610.68 818.3 610.71 818.52Z"/><path fill="#FAFAFA" d="M617.63 810.91C617.51 811.01 616.79 809.91 616.02 808.51C615.469 807.666 615.07 806.732 614.84 805.75C614.96 805.65 615.68 806.75 616.45 808.15C617.002 808.994 617.402 809.928 617.63 810.91V810.91Z"/><path fill="#FAFAFA" d="M624.21 821.12C624.37 821.27 623.69 822.29 622.69 823.4C621.69 824.51 620.75 825.29 620.59 825.14C620.43 824.99 621.1 823.97 622.1 822.86C623.1 821.75 624 821 624.21 821.12Z"/><path fill="#FAFAFA" d="M631.58 807.12C631.39 807.25 630.49 806.18 629.11 805.23C627.73 804.28 626.44 803.78 626.49 803.55C626.54 803.32 628.06 803.55 629.57 804.55C631.08 805.55 631.76 807 631.58 807.12Z"/><path fill="#FAFAFA" d="M644 806.31C644.17 806.44 643.52 807.63 642.54 808.97C641.56 810.31 640.62 811.28 640.44 811.15C640.26 811.02 640.92 809.83 641.9 808.5C642.88 807.17 643.81 806.18 644 806.31Z"/><path fill="#FAFAFA" d="M645.16 799.7C644.96 799.78 644.16 798.16 643.3 796.07C642.44 793.98 641.97 792.23 642.17 792.15C642.37 792.07 643.17 793.69 644.04 795.78C644.91 797.87 645.37 799.62 645.16 799.7Z"/><path fill="#FAFAFA" d="M654.77 790.09C654.59 789.96 655.36 788.61 656.49 787.09C657.62 785.57 658.68 784.4 658.85 784.53C659.02 784.66 658.26 786.02 657.13 787.53C656 789.04 654.94 790.22 654.77 790.09Z"/><path fill="#FAFAFA" d="M665.19 794.06C665.12 794.28 663.67 794 661.87 793.96C660.07 793.92 658.61 794.13 658.56 793.91C658.51 793.69 659.97 793.11 661.89 793.16C663.81 793.21 665.26 793.87 665.19 794.06Z"/><path fill="#FC9D9D" d="M516 756L515 744.41C513.58 733.78 500.94 735.27 502.75 745.85C504.56 756.43 514.87 755.85 514.87 755.85L516 756Z"/><path fill="#000" d="M512.45 889.93C512.45 889.93 516.05 883.02 521.45 880.07Z" opacity=".2"/><path fill="#000" d="M505.64 741.27C505.745 741.416 505.899 741.518 506.073 741.559C506.248 741.599 506.432 741.575 506.59 741.49C506.888 741.263 507.228 741.098 507.59 741.004C507.952 740.909 508.329 740.888 508.7 740.94C509.407 741.211 509.978 741.75 510.29 742.44C510.812 743.5 511.079 744.668 511.07 745.85L511.13 747.06C511.13 748.06 512.5 747.84 512.49 747.06V745.96C512.546 744.514 512.2 743.081 511.49 741.82C511.269 741.315 510.941 740.865 510.528 740.501C510.115 740.136 509.628 739.866 509.1 739.71C508.559 739.607 508.003 739.619 507.467 739.745C506.932 739.87 506.428 740.107 505.99 740.44C505.855 740.527 505.749 740.653 505.687 740.801C505.624 740.949 505.608 741.112 505.64 741.27V741.27Z" opacity=".15"/><path fill="#4D61FC" d="M510.09 752C510.112 751.61 510.247 751.235 510.479 750.92C510.712 750.606 511.031 750.367 511.398 750.232C511.765 750.098 512.163 750.074 512.544 750.163C512.924 750.252 513.27 750.451 513.539 750.734C513.808 751.018 513.987 751.374 514.056 751.759C514.125 752.143 514.079 752.54 513.925 752.899C513.771 753.258 513.515 753.564 513.189 753.779C512.863 753.994 512.481 754.109 512.09 754.11C511.547 754.092 511.032 753.86 510.658 753.465C510.283 753.07 510.079 752.544 510.09 752Z" class="change-color-in-svg" style="fill:#4c1d95"/><path fill="#000" d="M513.27 753.87C512.928 754.142 512.495 754.271 512.06 754.23C511.783 754.231 511.51 754.174 511.256 754.064C511.002 753.954 510.774 753.792 510.586 753.589C510.398 753.386 510.254 753.146 510.164 752.885C510.073 752.623 510.038 752.346 510.06 752.07C510.095 751.733 510.203 751.407 510.375 751.116C510.548 750.824 510.781 750.573 511.06 750.38C510.828 750.727 510.683 751.125 510.64 751.54C510.623 751.838 510.665 752.137 510.765 752.419C510.864 752.7 511.019 752.959 511.221 753.18C511.422 753.401 511.665 753.579 511.937 753.705C512.208 753.83 512.501 753.9 512.8 753.91C512.88 753.82 513.08 753.84 513.27 753.87Z" opacity=".15"/><path fill="#000" d="M531.67 831.13L525 875.36H545L542.56 877.36L520 879.86L531 831C531.032 830.927 531.088 830.868 531.158 830.831C531.228 830.794 531.309 830.783 531.387 830.798C531.465 830.813 531.535 830.854 531.587 830.914C531.638 830.975 531.667 831.051 531.67 831.13Z" opacity=".15"/><path fill="#000" d="M515 910.9L583.87 895.9L583.14 890.45L508.62 900.79C484.56 900.62 485.83 880.11 485.83 880.11L484.83 885.73C484.83 885.73 476.39 920.05 515 910.9Z" opacity=".15"/><path fill="#000" d="M459.89 906.31L486.42 824.21C485.66 826.21 484.97 828.21 484.36 830.21L470 863.65L446.86 924C446.1 933.57 454.51 936.2 466.72 934.39L468.65 934.02C452.25 931.88 459.89 906.31 459.89 906.31Z" opacity=".15"/><path stroke="#000" stroke-miterlimit="10" stroke-width=".72" d="M496.22 827.73L486.89 874.03" opacity=".15"/><path fill="#000" d="M976.49 1066.26V1070.26H1055.23V1065.85L976.49 1066.26Z"/><path fill="#FC9D9D" d="M1053.47 1056.9L996.86 1058.33L1019.44 1042.25C1021.27 1040.97 1022.77 1039.27 1023.82 1037.3C1024.87 1035.33 1025.45 1033.14 1025.5 1030.91L1026.5 1012.91L1057.22 1013.02L1053.47 1056.9Z"/><path fill="#000" d="M1025.94 1025.74L1024.29 1038.19L1028.81 1046.33L1034.58 1034.66C1035.05 1033.71 1035.76 1032.89 1036.63 1032.28C1037.51 1031.68 1038.52 1031.3 1039.58 1031.2L1055.58 1029.61L1056.42 1025.74H1025.94Z" opacity=".15"/><path fill="#3F4249" d="M976.49 1066.26V1065.05C976.489 1064.09 976.676 1063.15 977.041 1062.27C977.406 1061.38 977.941 1060.58 978.617 1059.91C979.292 1059.23 980.094 1058.7 980.977 1058.33C981.859 1057.97 982.805 1057.78 983.76 1057.78H993.89C996.031 1057.8 998.091 1056.97 999.62 1055.47L1025.5 1030.91L1033.5 1041.48C1034.13 1042.31 1034.94 1042.98 1035.86 1043.45C1036.79 1043.92 1037.81 1044.17 1038.85 1044.2C1039.89 1044.22 1040.91 1044 1041.86 1043.57C1042.8 1043.14 1043.64 1042.5 1044.3 1041.7C1044.95 1040.93 1045.76 1040.3 1046.67 1039.87C1047.58 1039.43 1048.57 1039.19 1049.58 1039.17H1054.98V1065.82L976.49 1066.26Z"/><path fill="#000" d="M1030.67 1037.52L1013.16 1051.73C1012.22 1052.48 1011.05 1052.86 1009.85 1052.8C1008.65 1052.74 1007.51 1052.24 1006.66 1051.4L1005.34 1050.07L1025.5 1030.91C1026.02 1030.76 1026.58 1030.77 1027.09 1030.95C1027.6 1031.13 1028.05 1031.47 1028.36 1031.91L1030.45 1034.91C1030.72 1035.25 1030.89 1035.65 1030.95 1036.07C1031.01 1036.5 1030.95 1036.93 1030.78 1037.33L1030.67 1037.52Z"/><path stroke="#fff" stroke-linecap="round" stroke-linejoin="round" stroke-width="1.45" d="M1010.63 1042.59L1018.45 1049.96"/><path stroke="#fff" stroke-linecap="round" stroke-linejoin="round" stroke-width="1.45" d="M1014.81 1038.73L1022.81 1046.33"/><path stroke="#fff" stroke-linecap="round" stroke-linejoin="round" stroke-width="1.45" d="M1019.11 1035.1L1027.04 1042.59"/><path fill="#000" d="M994.64 1057.75L992.64 1070.23H983.43L985.78 1057.78L994.64 1057.75Z" opacity=".3"/><path fill="#FC9D9D" d="M985.35 1056.9L928.75 1058.33L951.32 1042.25C953.15 1040.97 954.652 1039.27 955.705 1037.3C956.758 1035.33 957.332 1033.14 957.38 1030.91L958.38 1012.91L989.1 1013.02L985.35 1056.9Z"/><path fill="#000" d="M988.32 1025.74H957.82L956.48 1038.74L963.79 1050.66L964.711 1037.2C965.071 1035.73 965.864 1034.41 966.985 1033.4C968.106 1032.38 969.505 1031.73 971 1031.52L987.86 1030.12L988.32 1025.74Z" opacity=".15"/><path fill="#3F4249" d="M908.37 1066.26V1065.05C908.37 1063.12 909.136 1061.27 910.499 1059.91C911.863 1058.55 913.712 1057.78 915.64 1057.78H925.77C927.911 1057.8 929.972 1056.97 931.5 1055.47L957.38 1030.91L965.38 1041.48C966.009 1042.31 966.815 1042.98 967.74 1043.45C968.665 1043.92 969.685 1044.17 970.722 1044.2C971.759 1044.22 972.788 1044 973.732 1043.57C974.675 1043.14 975.508 1042.5 976.17 1041.7C976.823 1040.93 977.631 1040.3 978.543 1039.87C979.455 1039.43 980.45 1039.19 981.46 1039.17H986.85V1065.82L908.37 1066.26Z"/><path fill="#000" d="M908.37 1066.26V1070.26H987.11V1065.85L908.37 1066.26Z"/><path fill="#000" d="M962.55 1037.52L945 1051.73C944.067 1052.48 942.889 1052.86 941.693 1052.8C940.496 1052.74 939.363 1052.24 938.51 1051.4L937.19 1050.07L957.34 1030.91C957.862 1030.76 958.418 1030.77 958.93 1030.95C959.443 1031.13 959.887 1031.47 960.2 1031.91L962.29 1034.91C962.562 1035.24 962.736 1035.65 962.794 1036.07C962.853 1036.5 962.792 1036.94 962.62 1037.33L962.55 1037.52Z"/><path stroke="#fff" stroke-linecap="round" stroke-linejoin="round" stroke-width="1.45" d="M942.51 1042.59L950.33 1049.96"/><path stroke="#fff" stroke-linecap="round" stroke-linejoin="round" stroke-width="1.45" d="M946.7 1038.73L954.7 1046.33"/><path stroke="#fff" stroke-linecap="round" stroke-linejoin="round" stroke-width="1.45" d="M951 1035.1L958.93 1042.59"/><path fill="#4D61FC" d="M1078.09 729.49L1056.95 1026.04H1023.22L1019.75 825.25L1054.01 731.55L1078.09 729.49Z" class="change-color-in-svg" style="fill:#4c1d95"/><path fill="#000" d="M1054 731.55L1019.74 825.25L1023.21 1026.04H1030.83L1034.73 836.82L1065.73 776.96C1072.61 765.26 1076.87 746.96 1076.87 746.96L1078.12 729.5L1054 731.55Z" opacity=".2"/><path fill="#4D61FC" d="M995.62 728.41L946.73 859.92C945.292 863.527 944.717 867.421 945.05 871.29L954.86 1025.92H988.75L989.26 873.52L1056.19 777.46C1056.19 777.46 1080.19 751.32 1075.71 722.85L995.62 728.41Z" class="change-color-in-svg" style="fill:#4c1d95"/><path fill="#000" d="M1008.89 734.51L994.66 730.83L946.73 859.92C945.292 863.527 944.717 867.421 945.05 871.29L954.86 1025.92H964.72L955.3 870.86C955.053 867.937 955.538 864.999 956.71 862.31L1008.89 734.51Z" opacity=".2"/><path fill="#FC9D9D" d="M1067.9 494.47L1066.9 515.66L1070.55 549.21L1036.45 555.21L1035 534.28L1026.6 535.73C1026.32 535.79 1026.03 535.85 1025.74 535.89C1020.28 536.68 1017.05 536.39 1015.26 527.74L1013.74 517.22L1010.32 515.88L1010.13 515.79C1009.68 515.537 1009.35 515.12 1009.2 514.626C1009.05 514.132 1009.1 513.6 1009.33 513.14L1014.02 504.5V504L1013.62 502.78C1011.97 497.647 1011.78 492.157 1013.06 486.92V486.92C1015.06 479.49 1021.06 471.76 1028.5 469.92L1034.35 468.49C1038.85 467.39 1046.91 467.21 1051.03 469.32L1055.36 471.54C1061.8 474.84 1067.08 484.15 1067.82 491.25C1067.93 492.32 1067.96 493.396 1067.9 494.47V494.47Z"/><path fill="#868A91" d="M1066.87 515.66L1067.87 494.47C1067.94 493.397 1067.92 492.32 1067.81 491.25C1067.07 484.15 1061.81 474.84 1055.35 471.54L1051.43 469.54C1047.08 467.32 1038.64 467.45 1033.89 468.61L1028.49 469.93C1022.54 471.39 1017.6 477.31 1014.79 482.59L1028.12 483.59C1028.81 483.747 1029.45 484.101 1029.94 484.608C1030.44 485.115 1030.78 485.754 1030.93 486.45L1031.51 489.08C1032.18 492.56 1034.69 494.08 1038.23 494.5L1041.76 494.73L1042.51 506.02C1042.57 506.461 1042.79 506.867 1043.12 507.165C1043.45 507.464 1043.87 507.635 1044.32 507.65V507.65C1044.56 507.651 1044.79 507.606 1045.01 507.516C1045.23 507.426 1045.43 507.294 1045.6 507.127C1045.77 506.96 1045.91 506.761 1046 506.542C1046.09 506.323 1046.14 506.088 1046.14 505.85V503.43L1054.5 504.43L1055.66 511.21C1058.45 516.68 1066.82 517.33 1067.07 517.35L1066.87 515.66Z"/><path fill="#000" d="M1035.32 541.57L1042.51 534.39C1042.65 534.222 1042.74 534.023 1042.78 533.81C1042.82 533.596 1042.81 533.376 1042.74 533.17C1042.69 533.01 1042.6 532.861 1042.49 532.733C1042.38 532.606 1042.25 532.501 1042.1 532.425C1041.95 532.35 1041.78 532.305 1041.62 532.294C1041.45 532.283 1041.28 532.305 1041.12 532.36L1035.04 534.19L1035.32 541.57Z" opacity=".15"/><path fill="#000" d="M1060.56 515.93L1052.89 514.86C1053.96 513.775 1054.89 512.559 1055.65 511.24C1056.11 512.314 1056.78 513.283 1057.62 514.089C1058.47 514.896 1059.47 515.522 1060.56 515.93Z" opacity=".15"/><path fill="#21252B" d="M1019.94 504.993C1019.95 503.762 1019.05 502.755 1017.94 502.745C1016.82 502.735 1015.91 503.725 1015.9 504.956C1015.89 506.188 1016.78 507.194 1017.9 507.205C1019.01 507.215 1019.93 506.225 1019.94 504.993Z"/><path fill="#fff" d="M1016.74 504.32C1016.91 504.32 1017.04 504.186 1017.04 504.02C1017.04 503.854 1016.91 503.72 1016.74 503.72C1016.57 503.72 1016.44 503.854 1016.44 504.02C1016.44 504.186 1016.57 504.32 1016.74 504.32Z"/><path fill="#FC9D9D" d="M1046 517.22L1046.12 503.88C1046.14 502.462 1046.72 501.108 1047.73 500.114C1048.74 499.119 1050.1 498.565 1051.52 498.57V498.57C1052.94 498.588 1054.29 499.166 1055.29 500.177C1056.28 501.189 1056.84 502.552 1056.83 503.97V506.6C1056.82 508.006 1056.53 509.397 1055.98 510.692C1055.43 511.987 1054.63 513.161 1053.63 514.147C1052.63 515.133 1051.44 515.912 1050.14 516.439C1048.83 516.967 1047.44 517.232 1046.03 517.22H1046Z"/><g opacity=".3"><path fill="#21252B" d="M1048.13 506.72V504.5C1048.15 503.564 1048.53 502.673 1049.2 502.017C1049.87 501.361 1050.76 500.992 1051.7 500.99C1052.22 500.982 1052.73 501.089 1053.2 501.303C1053.66 501.518 1054.08 501.834 1054.41 502.23L1054.48 502.32C1054.55 502.404 1054.59 502.501 1054.62 502.604C1054.65 502.707 1054.65 502.815 1054.63 502.92C1054.62 503.025 1054.58 503.126 1054.53 503.217C1054.47 503.307 1054.4 503.386 1054.31 503.447C1054.22 503.508 1054.12 503.552 1054.02 503.574C1053.92 503.596 1053.81 503.597 1053.7 503.577C1053.6 503.557 1053.5 503.516 1053.41 503.456C1053.32 503.396 1053.25 503.319 1053.19 503.23C1053.01 502.998 1052.78 502.811 1052.52 502.686C1052.25 502.561 1051.96 502.501 1051.67 502.51V502.51C1051.14 502.51 1050.63 502.721 1050.26 503.096C1049.88 503.471 1049.67 503.98 1049.67 504.51V506.74C1049.66 506.951 1049.56 507.149 1049.41 507.296C1049.26 507.444 1049.06 507.531 1048.85 507.54C1048.74 507.559 1048.63 507.549 1048.53 507.513C1048.43 507.476 1048.33 507.414 1048.26 507.332C1048.19 507.249 1048.14 507.15 1048.12 507.043C1048.09 506.936 1048.1 506.825 1048.13 506.72V506.72Z" opacity=".3"/></g><path fill="#fff" d="M1014.21 521.29C1015.92 521.165 1017.61 520.781 1019.21 520.15C1019.29 520.112 1019.39 520.104 1019.48 520.127C1019.57 520.15 1019.65 520.204 1019.71 520.278C1019.76 520.352 1019.79 520.444 1019.79 520.537C1019.78 520.63 1019.75 520.719 1019.69 520.79C1018.37 522.437 1016.61 523.684 1014.62 524.39L1014.21 521.29Z"/><path fill="#868A91" d="M1022.64 498.51C1017.09 495.78 1014.37 497.71 1014.37 497.71L1014.21 498.33C1014.21 498.33 1019.37 497.64 1022.13 498.89L1022.64 498.51Z"/><path fill="#FC9D9D" d="M928.59 557.44C928.59 557.44 926.49 546.99 926.34 543.64C926.23 541.07 918.42 535.58 914.8 533.18C914.589 533.039 914.348 532.949 914.097 532.917C913.845 532.884 913.59 532.91 913.35 532.992C913.11 533.074 912.892 533.211 912.714 533.391C912.535 533.571 912.4 533.79 912.32 534.03V534.03C912.225 534.321 912.212 534.633 912.283 534.931C912.353 535.229 912.505 535.502 912.72 535.72L919 542C919 542 919.55 543.82 918 543.31C916.45 542.8 899.71 531.72 899.71 531.72C896.13 529.35 895 531.61 895 531.61C895 531.61 892.6 529.91 891.3 531.43C890.47 532.43 892.09 535.03 892.09 535.03C892.09 535.03 889.83 532.77 887.94 534.11C886.05 535.45 890.07 539.81 890.07 539.81C888.81 542.75 896.41 551.25 898.37 553.59C900.33 555.93 920.81 572.39 920.81 572.39L932.3 562.25L928.59 557.44Z"/><g opacity=".15"><path fill="#000" d="M911.2 545.41C910.223 545.018 909.296 544.511 908.44 543.9C906.31 542.527 904.281 541.003 902.37 539.34C900.453 537.686 898.637 535.919 896.93 534.05C896.176 533.312 895.505 532.494 894.93 531.61C895.737 532.275 896.496 532.997 897.2 533.77C898.58 535.13 900.49 536.99 902.72 538.91C904.95 540.83 907.07 542.45 908.64 543.56C909.532 544.122 910.387 544.739 911.2 545.41V545.41Z" opacity=".15"/></g><g opacity=".15"><path fill="#000" d="M907.32 549.19C906.459 548.678 905.648 548.086 904.9 547.42C903.45 546.26 901.47 544.63 899.37 542.73C897.27 540.83 895.47 538.99 894.23 537.6C893.514 536.892 892.883 536.103 892.35 535.25C893.123 535.889 893.849 536.584 894.52 537.33C895.83 538.64 897.66 540.41 899.75 542.33L905.16 547.13C905.943 547.747 906.666 548.437 907.32 549.19V549.19Z" opacity=".15"/></g><g opacity=".15"><path fill="#000" d="M902.78 552.53C901.962 552.175 901.198 551.707 900.51 551.14C898.779 549.869 897.157 548.458 895.659 546.92C894.16 545.384 892.763 543.751 891.479 542.03C890.904 541.353 890.414 540.607 890.02 539.81C890.16 539.7 892.59 542.95 896.07 546.52C897.551 548.04 899.113 549.478 900.75 550.83C901.468 551.345 902.147 551.913 902.78 552.53V552.53Z" opacity=".15"/></g><path fill="#3F4249" d="M1082.87 593.32L1074.37 677.62C1074.37 677.62 1074.17 677.21 1080.59 707.15C1082.49 716.02 1080.3 729.55 1080.3 729.55L989.3 735.87C989.3 735.87 993.3 629.58 998.7 611.3C1006.39 585.5 1033.6 555.53 1033.6 555.53L1033.97 550.07C1033.99 549.725 1034.15 549.402 1034.4 549.165C1034.65 548.928 1034.98 548.794 1035.33 548.79L1071.33 548.09C1071.67 548.082 1072 548.199 1072.25 548.419C1072.51 548.639 1072.68 548.945 1072.72 549.28L1073.72 556.28C1073.72 556.28 1087.77 572.21 1082.87 593.32Z"/><path fill="#000" d="M1005.84 629C1023.73 626.25 1048.92 613.71 1048.92 613.71L998.84 610.82C998.84 610.97 998.75 611.12 998.7 611.27C993.26 629.55 989.3 735.84 989.3 735.84L1008.89 734.48L1005.46 705.31C1003.43 687.96 1003 670.458 1004.2 653.03L1005.84 629Z" opacity=".3"/><path fill="#000" d="M1017.54 576.05C1029 573.76 1039.65 571.28 1051.25 569.86L1066.5 568.72L1012.79 582.72L1017.54 576.05Z" opacity=".3"/><path fill="#3F4249" d="M979.42 624.32L1044.65 614.52C1054.26 613.084 1063.46 609.646 1071.65 604.43V604.43C1073.14 603.484 1074.43 602.254 1075.44 600.809C1076.45 599.364 1077.17 597.733 1077.55 596.01C1078.92 589.78 1080.2 580.01 1076.12 575.64C1069.86 568.95 1069.98 566.83 1064.62 566.17L985.81 591.66L927.9 552.88L914.07 569.33L967.15 618.51C968.462 620.515 970.301 622.119 972.467 623.144C974.632 624.169 977.038 624.576 979.42 624.32Z"/><g opacity=".3"><path fill="#000" d="M1077.58 598.06C1077.62 597.947 1077.65 597.829 1077.67 597.71C1077.73 597.4 1077.8 597.07 1077.88 596.71C1078.04 595.84 1078.27 594.58 1078.49 593C1079.16 588.893 1079.06 584.696 1078.17 580.63C1077.18 576.538 1074.74 572.946 1071.29 570.53C1070.24 569.826 1069.07 569.299 1067.85 568.97C1067.41 568.848 1066.96 568.765 1066.5 568.72C1068.16 569.108 1069.73 569.785 1071.15 570.72C1074.5 573.148 1076.88 576.694 1077.85 580.72C1078.72 584.746 1078.86 588.895 1078.26 592.97C1078.07 594.54 1077.88 595.81 1077.75 596.69C1077.75 597.05 1077.65 597.38 1077.6 597.69C1077.55 598 1077.56 598.05 1077.58 598.06Z" opacity=".3"/></g><g opacity=".3"><path fill="#000" d="M980.86 604.13C980.931 603.954 980.975 603.769 980.99 603.58C981.08 603.1 981.17 602.58 981.28 602.06C981.95 598.728 983.242 595.552 985.09 592.7L985.95 591.4C986.074 591.253 986.175 591.087 986.25 590.91C986.094 591.037 985.956 591.185 985.84 591.35C985.485 591.752 985.151 592.173 984.84 592.61C983.861 594.012 983.039 595.518 982.39 597.1C981.753 598.674 981.293 600.314 981.02 601.99C980.92 602.64 980.86 603.17 980.84 603.54C980.819 603.737 980.826 603.935 980.86 604.13Z" opacity=".3"/></g><path stroke="#000" stroke-miterlimit="10" stroke-width=".69" d="M1035 555.22C1035 555.22 1061.79 551.37 1072.67 555.8" opacity=".3"/><path stroke="#000" stroke-linecap="round" stroke-miterlimit="10" stroke-width=".69" d="M1017.88 516.53C1017.88 516.53 1022.7 518.6 1024.08 523.41" opacity=".15"/><path fill="#FAFAFA" d="M1009.12 643.69C1008.94 643.76 1008.2 642.32 1007.46 640.48C1006.72 638.64 1006.29 637.07 1006.46 637C1006.63 636.93 1007.38 638.37 1008.11 640.22C1008.84 642.07 1009.3 643.62 1009.12 643.69Z"/><path fill="#FAFAFA" d="M1021.12 669.69C1020.94 669.76 1020.2 668.32 1019.46 666.48C1018.72 664.64 1018.29 663.07 1018.46 663C1018.63 662.93 1019.38 664.37 1020.11 666.22C1020.84 668.07 1021.3 669.62 1021.12 669.69Z"/><path fill="#FAFAFA" d="M1017.36 628.65C1017.19 628.57 1017.68 627.03 1018.47 625.21C1019.26 623.39 1020.04 621.97 1020.22 622.05C1020.4 622.13 1019.9 623.66 1019.12 625.49C1018.34 627.32 1017.54 628.73 1017.36 628.65Z"/><path fill="#FAFAFA" d="M1025.36 608.65C1025.19 608.57 1025.68 607.03 1026.47 605.21C1027.26 603.39 1028.04 601.97 1028.22 602.05C1028.4 602.13 1027.9 603.66 1027.12 605.49C1026.34 607.32 1025.54 608.73 1025.36 608.65Z"/><path fill="#FAFAFA" d="M933.36 578.65C933.19 578.57 933.68 577.03 934.47 575.21C935.26 573.39 936.04 571.97 936.22 572.05C936.4 572.13 935.9 573.66 935.12 575.49C934.34 577.32 933.54 578.73 933.36 578.65Z"/><path fill="#FAFAFA" d="M1026.9 644.49C1026.79 644.34 1027.99 643.25 1029.58 642.06C1031.17 640.87 1032.58 640.06 1032.68 640.2C1032.78 640.34 1031.6 641.44 1030 642.63C1028.4 643.82 1027 644.65 1026.9 644.49Z"/><path fill="#FAFAFA" d="M997.36 662.65C997.19 662.57 997.68 661.03 998.47 659.21C999.26 657.39 1000.04 655.97 1000.22 656.05C1000.4 656.13 999.9 657.66 999.12 659.49C998.34 661.32 997.54 662.73 997.36 662.65Z"/><path fill="#FAFAFA" d="M1045.53 658.85C1045.44 658.68 1046.84 657.85 1048.64 657.03C1050.44 656.21 1051.98 655.66 1052.06 655.84C1052.14 656.02 1050.74 656.84 1048.94 657.67C1047.14 658.5 1045.61 659 1045.53 658.85Z"/><path fill="#FAFAFA" d="M999.12 709.69C998.94 709.76 998.2 708.32 997.46 706.48C996.72 704.64 996.29 703.07 996.46 703C996.63 702.93 997.38 704.37 998.11 706.22C998.84 708.07 999.3 709.62 999.12 709.69Z"/><path fill="#FAFAFA" d="M1004.9 684.49C1004.79 684.34 1005.99 683.25 1007.58 682.06C1009.17 680.87 1010.58 680.06 1010.68 680.2C1010.78 680.34 1009.6 681.44 1008 682.63C1006.4 683.82 1005 684.65 1004.9 684.49Z"/><path fill="#FAFAFA" d="M1023.53 698.85C1023.44 698.68 1024.84 697.85 1026.64 697.03C1028.44 696.21 1029.98 695.66 1030.06 695.84C1030.14 696.02 1028.74 696.84 1026.94 697.67C1025.14 698.5 1023.61 699 1023.53 698.85Z"/><path fill="#FAFAFA" d="M1004.53 729.85C1004.44 729.68 1005.84 728.85 1007.64 728.03C1009.44 727.21 1010.98 726.66 1011.06 726.84C1011.14 727.02 1009.74 727.84 1007.94 728.67C1006.14 729.5 1004.61 730 1004.53 729.85Z"/><path fill="#FAFAFA" d="M1044 683.91C1043.84 684.02 1042.79 682.78 1041.66 681.15C1040.53 679.52 1039.75 678.15 1039.91 677.99C1040.07 677.83 1041.11 679.11 1042.24 680.75C1043.37 682.39 1044.2 683.8 1044 683.91Z"/><path fill="#FAFAFA" d="M1056.53 613.85C1056.44 613.68 1057.84 612.85 1059.64 612.03C1061.44 611.21 1062.98 610.66 1063.06 610.84C1063.14 611.02 1061.74 611.84 1059.94 612.67C1058.14 613.5 1056.61 614 1056.53 613.85Z"/><path fill="#FAFAFA" d="M1055 638.91C1054.84 639.02 1053.79 637.78 1052.66 636.15C1051.53 634.52 1050.75 633.15 1050.91 632.99C1051.07 632.83 1052.11 634.11 1053.24 635.75C1054.37 637.39 1055.2 638.8 1055 638.91Z"/><path fill="#FAFAFA" d="M997 600.91C996.84 601.02 995.789 599.78 994.659 598.15C993.529 596.52 992.749 595.15 992.909 594.99C993.069 594.83 994.109 596.11 995.239 597.75C996.369 599.39 997.2 600.8 997 600.91Z"/><path fill="#FAFAFA" d="M1024.53 725.85C1024.44 725.68 1025.84 724.85 1027.64 724.03C1029.44 723.21 1030.98 722.66 1031.06 722.84C1031.14 723.02 1029.74 723.84 1027.94 724.67C1026.14 725.5 1024.61 726 1024.53 725.85Z"/><path fill="#FAFAFA" d="M1045 710.91C1044.84 711.02 1043.79 709.78 1042.66 708.15C1041.53 706.52 1040.75 705.15 1040.91 704.99C1041.07 704.83 1042.11 706.11 1043.24 707.75C1044.37 709.39 1045.2 710.8 1045 710.91Z"/><path fill="#FAFAFA" d="M1061.93 677.09C1061.99 676.91 1063.57 677.25 1065.46 677.87C1067.35 678.49 1068.83 679.13 1068.77 679.31C1068.71 679.49 1067.13 679.15 1065.24 678.54C1063.35 677.93 1061.87 677.28 1061.93 677.09Z"/><path fill="#FAFAFA" d="M1068.93 634.09C1068.99 633.91 1070.57 634.25 1072.46 634.87C1074.35 635.49 1075.83 636.13 1075.77 636.31C1075.71 636.49 1074.13 636.15 1072.24 635.54C1070.35 634.93 1068.87 634.28 1068.93 634.09Z"/><path fill="#FAFAFA" d="M967.929 610.09C967.989 609.91 969.57 610.25 971.46 610.87C973.35 611.49 974.83 612.13 974.77 612.31C974.71 612.49 973.129 612.15 971.239 611.54C969.349 610.93 967.869 610.28 967.929 610.09Z"/><path fill="#FAFAFA" d="M1033.53 565.85C1033.44 565.68 1034.84 564.85 1036.64 564.03C1038.44 563.21 1039.98 562.66 1040.06 562.84C1040.14 563.02 1038.74 563.84 1036.94 564.67C1035.14 565.5 1033.61 566 1033.53 565.85Z"/><path fill="#FAFAFA" d="M1045.93 586.09C1045.99 585.91 1047.57 586.25 1049.46 586.87C1051.35 587.49 1052.83 588.13 1052.77 588.31C1052.71 588.49 1051.13 588.15 1049.24 587.54C1047.35 586.93 1045.87 586.28 1045.93 586.09Z"/><path fill="#FAFAFA" d="M955.929 583.09C955.989 582.91 957.57 583.25 959.46 583.87C961.35 584.49 962.83 585.13 962.77 585.31C962.71 585.49 961.129 585.15 959.239 584.54C957.349 583.93 955.869 583.28 955.929 583.09Z"/><path fill="#FAFAFA" d="M1065.93 563.09C1065.99 562.91 1067.57 563.25 1069.46 563.87C1071.35 564.49 1072.83 565.13 1072.77 565.31C1072.71 565.49 1071.13 565.15 1069.24 564.54C1067.35 563.93 1065.87 563.28 1065.93 563.09Z"/><path fill="#FAFAFA" d="M1061.93 726.09C1061.99 725.91 1063.57 726.25 1065.46 726.87C1067.35 727.49 1068.83 728.13 1068.77 728.31C1068.71 728.49 1067.13 728.15 1065.24 727.54C1063.35 726.93 1061.87 726.28 1061.93 726.09Z"/><path fill="#FAFAFA" d="M1069 698.89C1069.19 698.94 1069 700.54 1068.47 702.46C1067.94 704.38 1067.47 705.92 1067.25 705.87C1067.03 705.82 1067.25 704.22 1067.78 702.29C1068.31 700.36 1068.81 698.84 1069 698.89Z"/><path stroke="#868A91" stroke-miterlimit="10" stroke-width=".59" d="M346 1024.24C346 1024.24 352.51 972.3 367.44 943.93"/><path stroke="#868A91" stroke-miterlimit="10" stroke-width=".59" d="M335 935C335 935 345.14 976.8 343.54 1005.71"/><path fill="#4D61FC" d="M366 946.49C366 946.49 366.11 918.43 390.64 916.83C390.64 916.73 392.64 941.37 366 946.49Z" class="change-color-in-svg" style="fill:#4c1d95"/><path fill="#4D61FC" d="M307.23 940.41C307.23 940.41 300.62 913.74 271.61 921.31C271.61 921.31 277.16 940.83 307.23 940.41Z" class="change-color-in-svg" style="fill:#4c1d95"/><path fill="#4D61FC" d="M338.7 951.39C338.7 951.39 347.34 928.67 327.29 916.84C327.29 916.73 318.43 939.13 338.7 951.39Z" class="change-color-in-svg" style="fill:#4c1d95"/><path stroke="#868A91" stroke-miterlimit="10" stroke-width=".59" d="M307.23 940.41C307.23 940.41 333.9 970.91 333.9 1024.24"/><path stroke="#868A91" stroke-miterlimit="10" stroke-width=".59" d="M354.16 936.25C348.3 959.71 345.74 964.83 342.32 1024.25"/><path stroke="#868A91" stroke-miterlimit="10" stroke-width=".59" d="M285.16 903.72C296.89 909.05 333.9 947.87 327.71 1023.28"/><path stroke="#868A91" stroke-miterlimit="10" stroke-width=".59" d="M323.231 1023.28C323.231 1023.28 330.911 971.02 298.591 953.63"/><path stroke="#868A91" stroke-miterlimit="10" stroke-width=".59" d="M347 1016.34C349.447 1010.28 353.503 1005.01 358.73 1001.09"/><path stroke="#868A91" stroke-miterlimit="10" stroke-width=".59" d="M349.9 1000.13C349.9 1000.13 368.13 984.03 377.31 981.36"/><path fill="#4D61FC" d="M313.1 966.86C313.1 966.86 305.95 939.45 277.37 945.86C277.37 945.86 282.28 969.21 313.1 966.86Z" class="change-color-in-svg" style="fill:#4c1d95"/><g opacity=".4"><g opacity=".4"><path fill="#fff" d="M313.1 966.86C313.1 966.86 305.95 939.45 277.37 945.86C277.37 945.86 282.28 969.21 313.1 966.86Z" opacity=".4"/></g></g><path fill="#4D61FC" d="M327.71 995C327.71 995 322.81 975.48 296.71 982C296.81 981.89 305.34 1001.41 327.71 995Z" class="change-color-in-svg" style="fill:#4c1d95"/><path fill="#4D61FC" d="M345.521 982.32C345.521 982.32 348.001 951.71 379.861 948C379.761 948 381.361 978 345.521 982.34" class="change-color-in-svg" style="fill:#4c1d95"/><path stroke="#868A91" stroke-miterlimit="10" stroke-width=".59" d="M338.16 889.1C338.16 889.1 336.88 1002.27 336.67 1024.24"/><path fill="#4D61FC" d="M342.86 974.22C342.86 974.22 315.66 975.6 315.66 945.53C315.66 945.53 342 945.84 342.86 974.22Z" class="change-color-in-svg" style="fill:#4c1d95"/><g opacity=".4"><g opacity=".4"><path fill="#fff" d="M342.86 974.22C342.86 974.22 315.66 975.6 315.66 945.53C315.66 945.53 342 945.84 342.86 974.22Z" opacity=".4"/></g></g><path fill="#4D61FC" d="M368.67 985.84C368.67 985.84 376.03 965.15 399.49 970.38C399.38 970.38 395.54 987.87 368.67 985.84Z" class="change-color-in-svg" style="fill:#4c1d95"/><g opacity=".4"><g opacity=".4"><path fill="#fff" d="M368.67 985.84C368.67 985.84 376.03 965.15 399.49 970.38C399.38 970.38 395.54 987.87 368.67 985.84Z" opacity=".4"/></g></g><path fill="#868A91" d="M357.79 1023.7H309.58V1029.78H357.79V1023.7Z"/><path fill="#868A91" d="M351.71 1069.24H315.66L312.99 1029.68H354.38L351.71 1069.24Z"/><path fill="#868A91" d="M351.71 1069.24H315.66L312.99 1029.68H354.38L351.71 1069.24Z"/><path fill="#61656D" d="M357.79 1023.7H350V1029.68H342.75H312.99L313.1 1031.38H342.75L342.86 1069.24H351.71L354.37 1029.68H357.79V1023.7Z"/><path fill="#4D61FC" d="M337.841 912.46C337.841 912.46 324.511 892.3 341.901 873C341.791 873 353.311 892.62 337.841 912.46Z" class="change-color-in-svg" style="fill:#4c1d95"/><g opacity=".4"><g opacity=".4"><path fill="#fff" d="M337.841 912.46C337.841 912.46 324.511 892.3 341.901 873C341.791 873 353.311 892.62 337.841 912.46Z" opacity=".4"/></g></g><path fill="#4D61FC" d="M349.89 953C349.89 953 335.28 921.75 361.41 902.55C361.41 902.55 379.41 930.82 349.89 953Z" class="change-color-in-svg" style="fill:#4c1d95"/><g opacity=".4"><g opacity=".4"><path fill="#fff" d="M349.89 953C349.89 953 335.28 921.75 361.41 902.55C361.41 902.55 379.41 930.82 349.89 953Z" opacity=".4"/></g></g><path fill="#4D61FC" d="M353.42 1006.42C353.42 1006.42 356.94 992.77 375.6 995.65C375.6 995.65 372.51 1009.52 353.42 1006.42Z" class="change-color-in-svg" style="fill:#4c1d95"/><path fill="#4D61FC" d="M328 1012.61C328 1012.61 324 986.27 348.05 983.17C348.05 983.17 353.81 1006.1 328 1012.61Z" class="change-color-in-svg" style="fill:#4c1d95"/><g opacity=".4"><g opacity=".4"><path fill="#fff" d="M328 1012.61C328 1012.61 324 986.27 348.05 983.17C348.05 983.17 353.81 1006.1 328 1012.61Z" opacity=".4"/></g></g><path fill="#4D61FC" d="M278.54 899.66C278.54 899.66 293.05 898.17 295.82 912.14C295.93 912.04 282.82 913.64 278.54 899.66" class="change-color-in-svg" style="fill:#4c1d95"/><g opacity=".3"><g opacity=".3"><path fill="#fff" d="M278.54 899.66C278.54 899.66 293.05 898.17 295.82 912.14C295.93 912.04 282.82 913.64 278.54 899.66" opacity=".3"/></g></g><path fill="#4D61FC" d="M314 898.17C314 898.17 296 916.94 313.58 937.42C313.58 937.42 331.39 917.42 314 898.17Z" class="change-color-in-svg" style="fill:#4c1d95"/><g opacity=".4"><g opacity=".4"><path fill="#fff" d="M314 898.17C314 898.17 296 916.94 313.58 937.42C313.58 937.42 331.39 917.42 314 898.17Z" opacity=".4"/></g></g><path fill="#DADDDF" d="M1286.33 917.71H1294.17L1307.87 878.66H1286.33V917.71Z"/><path fill="#DADDDF" d="M1149.89 964.68V1006.31H1263.07L1277.68 964.68H1149.89Z"/><path fill="#DADDDF" d="M1149.89 919.93V962.46H1278.46L1284.26 945.94C1283.7 945.556 1283.24 945.041 1282.93 944.44C1282.61 943.839 1282.45 943.169 1282.45 942.49C1282.43 941.437 1282.82 940.418 1283.54 939.652C1284.26 938.886 1285.26 938.437 1286.31 938.4C1286.5 938.405 1286.7 938.425 1286.89 938.46L1293.39 919.93H1149.89V919.93Z"/><path fill="#DADDDF" d="M1284.24 917.71V878.66H1149.89V917.71H1284.24V917.71ZM1216.11 893.08C1216.93 893.034 1217.74 893.234 1218.44 893.655C1219.14 894.076 1219.7 894.698 1220.05 895.441C1220.39 896.184 1220.51 897.013 1220.38 897.821C1220.24 898.629 1219.87 899.379 1219.31 899.974C1218.75 900.569 1218.02 900.981 1217.22 901.158C1216.42 901.334 1215.59 901.266 1214.83 900.963C1214.06 900.66 1213.41 900.135 1212.95 899.457C1212.49 898.779 1212.25 897.979 1212.25 897.16C1212.23 896.109 1212.62 895.092 1213.34 894.328C1214.07 893.565 1215.06 893.117 1216.11 893.08V893.08Z"/><path fill="#DADDDF" d="M1142.03 1015.17H1167.5H1189.15H1230.34H1251.99H1259.96L1262.38 1008.28H1148.21V876.69H1308.56L1311.26 869H1142.03V1015.17Z"/><path fill="#B2B6BB" d="M1148.21 1008.28H1262.38L1263.07 1006.28H1149.89V964.68H1149.05C1148.62 964.68 1148.62 962.46 1149.05 962.46H1149.89V919.93H1149.05C1148.62 919.93 1148.62 917.71 1149.05 917.71H1149.89V878.66H1284.24V877.66L1286.33 877.54V878.69H1307.87L1308.56 876.69H1148.21V1008.28Z"/><path fill="#B2B6BB" d="M1286.33 919.37C1286.33 919.88 1284.24 919.88 1284.24 919.37V917.71H1149.05C1148.62 917.71 1148.62 919.93 1149.05 919.93H1293.39L1294.17 917.71H1286.33V919.37Z"/><path fill="#B2B6BB" d="M1284.24 919.37C1284.24 919.88 1286.33 919.88 1286.33 919.37V877.51L1284.24 877.63V919.37Z"/><path fill="#B2B6BB" d="M1149.89 962.46H1149.05C1148.62 962.46 1148.62 964.68 1149.05 964.68H1277.68L1278.46 962.46H1149.89Z"/><path fill="#B2B6BB" d="M1216.11 901.25C1216.93 901.296 1217.74 901.096 1218.44 900.675C1219.14 900.255 1219.7 899.633 1220.05 898.891C1220.39 898.149 1220.51 897.32 1220.38 896.512C1220.25 895.704 1219.88 894.954 1219.31 894.359C1218.75 893.764 1218.03 893.351 1217.23 893.174C1216.43 892.996 1215.59 893.063 1214.83 893.364C1214.07 893.666 1213.42 894.189 1212.96 894.866C1212.5 895.542 1212.25 896.341 1212.25 897.16C1212.23 898.212 1212.62 899.232 1213.34 899.998C1214.06 900.763 1215.06 901.213 1216.11 901.25V901.25Z"/><path fill="#B2B6BB" d="M1282.45 942.49C1282.45 943.169 1282.61 943.839 1282.93 944.44C1283.24 945.041 1283.7 945.556 1284.26 945.94L1286.89 938.46C1286.7 938.425 1286.51 938.405 1286.31 938.4C1285.26 938.437 1284.26 938.886 1283.54 939.652C1282.82 940.418 1282.43 941.437 1282.45 942.49Z"/><path fill="#DADDDF" d="M1164.79 1024.62L1152.1 1068.91H1156.89L1173.03 1026.09L1164.79 1024.62Z"/><path fill="#DADDDF" d="M1160.76 1068.91L1165.66 1059.63L1160.68 1068.91H1160.76Z"/><path fill="#DADDDF" d="M1165.39 1022.53L1167.88 1015.22H1189.12L1189.15 1015.17H1167.5L1165.39 1022.53Z"/><path fill="#DADDDF" d="M1223.6 1068.91L1228.5 1059.63L1223.52 1068.91H1223.6Z"/><path fill="#DADDDF" d="M1214.94 1068.91H1220.03L1231.75 1040.79L1224.47 1037.41L1230.72 1015.22H1251.96L1251.99 1015.17H1230.34L1214.94 1068.91Z"/><path fill="#000" d="M1189.52 1015.22H1189.12L1165.66 1059.63L1189.52 1015.22Z" opacity=".2"/><path fill="#000" d="M1164.68 1024.6L1164.79 1024.62L1165.39 1022.53L1164.68 1024.6Z" opacity=".2"/><path fill="#DADDDF" d="M1165.39 1022.53L1164.79 1024.62L1173.03 1026.09L1156.89 1068.91H1160.68L1165.66 1059.63L1189.12 1015.22H1167.88L1165.39 1022.53Z"/><path fill="#000" d="M1165.39 1022.53L1164.79 1024.62L1173.03 1026.09L1156.89 1068.91H1160.68L1165.66 1059.63L1189.12 1015.22H1167.88L1165.39 1022.53Z" opacity=".2"/><path fill="#000" d="M1252.36 1015.22H1251.96L1228.5 1059.63L1252.36 1015.22Z" opacity=".2"/><path fill="#DADDDF" d="M1224.47 1037.41L1231.75 1040.79L1220.03 1068.91H1223.52L1228.5 1059.63L1251.96 1015.22H1230.72L1224.47 1037.41Z"/><path fill="#000" d="M1224.47 1037.41L1231.75 1040.79L1220.03 1068.91H1223.52L1228.5 1059.63L1251.96 1015.22H1230.72L1224.47 1037.41Z" opacity=".2"/></svg>