<svg xmlns="http://www.w3.org/2000/svg" xmlns:xlink="http://www.w3.org/1999/xlink" id="Layer_1" width="1600" height="1200" x="0" y="0" style="enable-background:new 0 0 1600 1200" fill="none" class="gridItem__media" version="1.1" viewBox="0 0 1600 1200" xml:space="preserve"><path fill="#F4F4F4" d="M233.44 1051.87L188.11 496.22C186.959 482.068 190.895 467.969 199.21 456.46L425.38 143.46C431.424 135.096 439.537 128.444 448.924 124.157C458.311 119.869 468.65 118.092 478.93 119L1253.22 187.26C1265.48 188.34 1277.1 193.186 1286.49 201.134C1295.88 209.082 1302.58 219.742 1305.67 231.65L1412.06 641.1C1414.67 651.165 1414.61 661.74 1411.86 671.77L1307.77 1053.28L233.44 1051.87Z"/><path fill="#B2B6BB" d="M1348 1056.29L194.6 1054.8C194.376 1054.83 194.15 1054.8 193.935 1054.73C193.72 1054.67 193.523 1054.55 193.355 1054.4C193.187 1054.25 193.053 1054.07 192.961 1053.86C192.869 1053.66 192.821 1053.44 192.821 1053.21C192.821 1052.98 192.869 1052.76 192.961 1052.56C193.053 1052.35 193.187 1052.17 193.355 1052.02C193.523 1051.87 193.72 1051.75 193.935 1051.69C194.15 1051.62 194.376 1051.59 194.6 1051.62L1348 1053.11C1348.23 1053.07 1348.46 1053.09 1348.69 1053.15C1348.91 1053.21 1349.12 1053.32 1349.3 1053.48C1349.48 1053.63 1349.62 1053.81 1349.71 1054.03C1349.81 1054.24 1349.86 1054.47 1349.86 1054.7C1349.86 1054.93 1349.81 1055.16 1349.71 1055.37C1349.62 1055.59 1349.48 1055.77 1349.3 1055.92C1349.12 1056.08 1348.91 1056.19 1348.69 1056.25C1348.46 1056.31 1348.23 1056.33 1348 1056.29V1056.29Z"/><path fill="#DADDDF" d="M1197.44 940.94V983.12H1326.9L1338.41 940.94H1197.41H1197.44Z"/><path fill="#DADDDF" d="M1345.2 893.35H1351.4L1362.19 853.79H1345.19L1345.2 893.35Z"/><path fill="#DADDDF" d="M1197.44 895.6V938.69H1339L1343.49 922.25C1342.61 921.871 1341.9 921.201 1341.46 920.353C1341.02 919.505 1340.88 918.532 1341.08 917.598C1341.28 916.664 1341.79 915.826 1342.53 915.227C1343.28 914.628 1344.21 914.304 1345.16 914.31C1345.32 914.316 1345.48 914.333 1345.64 914.36L1350.76 895.6H1197.44V895.6Z"/><path fill="#DADDDF" d="M1342.93 893.35V853.79H1197.44V893.35H1342.93V893.35ZM1269.15 868.35C1269.97 868.356 1270.77 868.604 1271.45 869.064C1272.13 869.524 1272.65 870.174 1272.96 870.933C1273.27 871.691 1273.35 872.525 1273.19 873.328C1273.02 874.131 1272.63 874.868 1272.04 875.445C1271.46 876.022 1270.72 876.415 1269.92 876.572C1269.11 876.73 1268.28 876.646 1267.53 876.331C1266.77 876.016 1266.12 875.484 1265.67 874.802C1265.21 874.121 1264.97 873.32 1264.97 872.5C1264.99 871.403 1265.43 870.356 1266.22 869.587C1267 868.817 1268.05 868.387 1269.15 868.39V868.35Z"/><path fill="#DADDDF" d="M1188.93 992.1H1219.72L1219.83 991.62H1239.95L1239.93 991.68H1240.29L1240.11 992.1H1278.11L1278.22 991.62H1298.35L1298.32 991.68H1298.68L1298.5 992.1H1324.45L1326.36 985.12H1195.63V851.79H1362.74L1364.86 844H1188.93V992.1Z"/><path fill="#B2B6BB" d="M1195.63 985.12H1326.36L1326.9 983.12H1197.44V940.94H1196.54C1196.06 940.94 1196.06 938.69 1196.54 938.69H1197.44V895.6H1196.54C1196.06 895.6 1196.06 893.35 1196.54 893.35H1197.44V853.79H1342.93V852.79L1345.2 852.68V853.84H1362.2L1362.75 851.84H1195.63V985.12Z"/><path fill="#B2B6BB" d="M1345.2 895C1345.2 895.52 1342.93 895.52 1342.93 895V893.32H1196.54C1196.06 893.32 1196.06 895.57 1196.54 895.57H1350.78L1351.4 893.32H1345.2V895Z"/><path fill="#B2B6BB" d="M1342.93 895C1342.93 895.52 1345.2 895.52 1345.2 895V852.6L1342.93 852.71V895Z"/><path fill="#B2B6BB" d="M1197.44 938.69H1196.54C1196.06 938.69 1196.06 940.94 1196.54 940.94H1338.41L1339.02 938.69H1197.44Z"/><path fill="#B2B6BB" d="M1269.15 876.68C1269.97 876.674 1270.77 876.425 1271.45 875.965C1272.13 875.505 1272.65 874.855 1272.96 874.095C1273.27 873.336 1273.35 872.502 1273.19 871.699C1273.02 870.895 1272.62 870.159 1272.04 869.582C1271.46 869.005 1270.72 868.613 1269.91 868.457C1269.11 868.3 1268.27 868.385 1267.52 868.702C1266.76 869.018 1266.12 869.552 1265.66 870.235C1265.21 870.918 1264.97 871.72 1264.97 872.54C1264.97 873.086 1265.08 873.627 1265.29 874.13C1265.51 874.634 1265.81 875.091 1266.2 875.476C1266.59 875.86 1267.05 876.164 1267.56 876.371C1268.06 876.578 1268.6 876.683 1269.15 876.68V876.68Z"/><path fill="#B2B6BB" d="M1341 918.45C1341 919.259 1341.24 920.051 1341.69 920.726C1342.13 921.402 1342.77 921.931 1343.51 922.25L1345.66 914.36C1345.5 914.333 1345.34 914.316 1345.18 914.31C1344.63 914.307 1344.09 914.412 1343.59 914.619C1343.08 914.826 1342.62 915.13 1342.23 915.514C1341.84 915.899 1341.54 916.356 1341.32 916.86C1341.11 917.363 1341 917.904 1341 918.45V918.45Z"/><path fill="#DADDDF" d="M1213.57 1052.17L1218.12 1041.73L1213.49 1052.17H1213.57Z"/><path fill="#DADDDF" d="M1217.31 1002.27L1205.52 1052.17H1209.97L1224.97 1003.92L1217.31 1002.27Z"/><path fill="#DADDDF" d="M1220.19 991.68H1239.93L1239.95 991.62H1219.83L1219.72 992.1L1217.87 999.91L1220.19 991.68Z"/><path fill="#DADDDF" d="M1272.77 1016.69L1278.58 991.68H1298.32L1298.35 991.62H1278.22L1278.11 992.1L1263.91 1052.17H1268.64L1279.54 1020.49L1272.77 1016.69Z"/><path fill="#DADDDF" d="M1271.96 1052.17L1276.52 1041.72L1271.88 1052.17H1271.96Z"/><path fill="#000" d="M1218.12 1041.73L1240.11 992.1H1239.74L1218.12 1041.73Z" opacity=".2"/><path fill="#000" d="M1213.49 1052.18V1052.17H1209.97L1213.49 1052.18Z" opacity=".2"/><path fill="#000" d="M1217.21 1002.25L1217.31 1002.27L1217.87 999.91L1217.21 1002.25Z" opacity=".2"/><path fill="#DADDDF" d="M1239.93 991.68H1220.19L1217.87 999.91L1217.31 1002.27L1224.97 1003.92L1209.97 1052.17H1213.49L1218.12 1041.73L1239.74 992.1H1240.11L1240.29 991.68H1239.93Z"/><path fill="#000" d="M1239.93 991.68H1220.19L1217.87 999.91L1217.31 1002.27L1224.97 1003.92L1209.97 1052.17H1213.49L1218.12 1041.73L1239.74 992.1H1240.11L1240.29 991.68H1239.93Z" opacity=".2"/><path fill="#000" d="M1276.52 1041.72L1298.5 992.1H1298.14L1276.52 1041.72Z" opacity=".2"/><path fill="#000" d="M1271.88 1052.18V1052.17H1268.64L1271.88 1052.18Z" opacity=".2"/><path fill="#DADDDF" d="M1298.32 991.68H1278.58L1272.77 1016.69L1279.54 1020.49L1268.64 1052.17H1271.88L1276.52 1041.72L1298.14 992.1H1298.5L1298.68 991.68H1298.32Z"/><path fill="#000" d="M1298.32 991.68H1278.58L1272.77 1016.69L1279.54 1020.49L1268.64 1052.17H1271.88L1276.52 1041.72L1298.14 992.1H1298.5L1298.68 991.68H1298.32Z" opacity=".2"/><path fill="#fff" d="M1312.8 414.06H1226V534.15H1312.8V414.06Z"/><path fill="#DDD" d="M1301.21 425.17H1237.59V523.03H1301.21V425.17Z"/><path fill="#DADDDF" d="M1315.4 414H1312.88V534.09H1315.4V414Z"/><path fill="#B1B5BA" d="M1284.34 459.81H1254.54V507.1H1284.34V459.81Z"/><path fill="#4D61FC" d="M1269.44 453.89C1273.34 453.893 1277.08 452.352 1279.84 449.604C1282.6 446.856 1284.16 443.126 1284.18 439.23H1254.78C1254.78 441.156 1255.16 443.062 1255.89 444.842C1256.63 446.621 1257.71 448.238 1259.07 449.599C1260.43 450.961 1262.05 452.04 1263.83 452.777C1265.61 453.513 1267.51 453.891 1269.44 453.89" class="change-color-in-svg" style="fill:#4c1d95"/><path stroke="#21252B" stroke-linecap="round" stroke-miterlimit="10" stroke-width=".93" d="M309.17 833.46L301.99 1010.74"/><path stroke="#21252B" stroke-linecap="round" stroke-miterlimit="10" stroke-width=".93" d="M257.04 910.52L288.9 947.91"/><path stroke="#21252B" stroke-linecap="round" stroke-miterlimit="10" stroke-width=".93" d="M331.2 954.96L302.5 998.53"/><path stroke="#21252B" stroke-linecap="round" stroke-miterlimit="10" stroke-width=".93" d="M345.18 881.81L305.64 927.01"/><path fill="#4D61FC" d="M342.51 906.08C351.88 895.08 354.72 882.08 348.84 877.08C342.96 872.08 330.6 877 321.22 888C311.84 899 309.02 912 314.9 917C320.78 922 333.14 917.13 342.51 906.11" class="change-color-in-svg" style="fill:#4c1d95"/><g opacity=".3"><g opacity=".3"><path fill="#000" d="M349.21 877.53L314.71 916.81C314.84 916.81 314.84 916.94 314.96 916.94C320.88 921.94 333.22 917.07 342.53 906.11C351.73 895.41 354.62 882.82 349.21 877.53" opacity=".3"/></g></g><path fill="#4D61FC" d="M276.1 932.57C280.65 928.8 278.6 918.8 271.51 910.23C264.42 901.66 254.98 897.76 250.42 901.52C245.86 905.28 247.92 915.3 255.01 923.87C262.1 932.44 271.54 936.34 276.1 932.57Z" class="change-color-in-svg" style="fill:#4c1d95"/><g opacity=".3"><g opacity=".3"><path fill="#000" d="M250.12 901.83L276.18 932.43L276.06 932.55C271.52 936.33 262.06 932.43 254.9 923.86C248.11 915.55 245.96 905.73 250.12 901.86" opacity=".3"/></g></g><path stroke="#21252B" stroke-linecap="round" stroke-miterlimit="10" stroke-width=".93" d="M261.83 961.26L295.45 987.45"/><path fill="#4D61FC" d="M284.93 979C288.62 974.38 284.57 965 275.93 958.06C267.29 951.12 257.2 949.21 253.51 953.83C249.82 958.45 253.87 967.83 262.51 974.77C271.15 981.71 281.23 983.61 284.92 979" class="change-color-in-svg" style="fill:#4c1d95"/><g opacity=".3"><g opacity=".3"><path fill="#000" d="M253.27 954.21L285 978.88L284.87 979.01C281.22 983.67 271.15 981.78 262.46 974.85C254.02 968.06 249.99 958.85 253.27 954.21" opacity=".3"/></g></g><path fill="#4D61FC" d="M322.31 846.79C322.96 832.34 317.36 820.35 309.78 820.01C302.2 819.67 295.54 831.1 294.89 845.55C294.24 860 299.83 871.99 307.41 872.33C314.99 872.67 321.65 861.24 322.31 846.79Z" class="change-color-in-svg" style="fill:#4c1d95"/><g opacity=".3"><g opacity=".3"><path fill="#000" d="M294.94 845.68C295.57 831.32 302.24 819.86 309.8 820.24L307.41 872.49C299.85 871.99 294.31 860.03 294.94 845.68Z" opacity=".3"/></g></g><path fill="#4D61FC" d="M334.26 971.41C340.55 961.57 341.26 950.77 335.79 947.28C330.32 943.79 320.79 948.95 314.53 958.79C308.27 968.63 307.53 979.44 313 982.92C318.47 986.4 328 981.25 334.26 971.41Z" class="change-color-in-svg" style="fill:#4c1d95"/><g opacity=".3"><g opacity=".3"><path fill="#000" d="M314.58 958.74C308.41 968.31 307.66 978.89 312.69 982.54L335.74 947.28L334.35 946.65C328.94 944.65 320.35 949.65 314.58 958.74" opacity=".3"/></g></g><path stroke="#21252B" stroke-linecap="round" stroke-miterlimit="10" stroke-width=".93" d="M298.85 1008.6L279.2 886.22"/><path fill="#4D61FC" d="M281.06 903.35C287.79 902.27 291.58 890.99 289.53 878.15C287.48 865.31 280.35 855.78 273.62 856.85C266.89 857.92 263.11 869.21 265.16 882.05C267.21 894.89 274.34 904.43 281.06 903.35Z" class="change-color-in-svg" style="fill:#4c1d95"/><g opacity=".3"><g opacity=".3"><path fill="#000" d="M265.1 882.06C263.1 869.22 266.87 857.89 273.54 856.76L281 903.34C274.32 904.6 267.15 895.03 265.13 882.06" opacity=".3"/></g></g><path fill="#868A91" d="M290.16 1051.91H313.7C314.743 1051.91 315.776 1051.71 316.739 1051.31C317.703 1050.92 318.579 1050.33 319.316 1049.6C320.053 1048.86 320.637 1047.98 321.035 1047.02C321.432 1046.06 321.634 1045.02 321.63 1043.98V1012.75H282.1V1044C282.142 1046.11 283.009 1048.12 284.515 1049.61C286.021 1051.09 288.047 1051.92 290.16 1051.93"/><path fill="#868A91" d="M322.64 1008.6H281.34C280.773 1008.6 280.228 1008.83 279.827 1009.23C279.426 1009.63 279.2 1010.17 279.2 1010.74C279.2 1011.31 279.426 1011.85 279.827 1012.25C280.228 1012.65 280.773 1012.88 281.34 1012.88H322.64C322.922 1012.88 323.201 1012.83 323.462 1012.72C323.723 1012.62 323.96 1012.46 324.159 1012.26C324.359 1012.06 324.516 1011.82 324.623 1011.56C324.729 1011.3 324.783 1011.02 324.78 1010.74C324.743 1010.18 324.505 1009.66 324.112 1009.27C323.718 1008.87 323.195 1008.64 322.64 1008.6Z"/><path fill="#61656D" d="M321.76 1012.75H285.76C285.193 1012.75 284.649 1012.52 284.247 1012.12C283.846 1011.72 283.62 1011.18 283.62 1010.61C283.62 1010.04 283.846 1009.5 284.247 1009.1C284.649 1008.7 285.193 1008.47 285.76 1008.47H281.35C280.783 1008.47 280.239 1008.7 279.837 1009.1C279.436 1009.5 279.21 1010.04 279.21 1010.61C279.21 1011.18 279.436 1011.72 279.837 1012.12C280.239 1012.52 280.783 1012.75 281.35 1012.75H282.24V1043.85C282.235 1044.89 282.437 1045.93 282.833 1046.89C283.23 1047.86 283.814 1048.73 284.551 1049.47C285.289 1050.21 286.165 1050.79 287.13 1051.19C288.094 1051.58 289.128 1051.79 290.17 1051.78H303C300.288 1051.79 297.658 1050.86 295.564 1049.13C293.471 1047.41 292.047 1045 291.54 1042.34L285.88 1013.26H321.76V1012.75Z"/><path fill="#21252B" d="M1163 376.74L1162.74 867.74C1162.74 871.35 1162.03 874.924 1160.64 878.259C1159.26 881.594 1157.23 884.624 1154.68 887.175C1152.13 889.727 1149.1 891.751 1145.76 893.131C1142.42 894.512 1138.85 895.221 1135.24 895.22L406.68 894.83C403.07 894.829 399.496 894.116 396.162 892.733C392.828 891.351 389.799 889.324 387.248 886.771C384.697 884.217 382.674 881.186 381.295 877.85C379.916 874.514 379.207 870.94 379.21 867.33L379.47 376.33C379.47 372.717 380.182 369.14 381.567 365.802C382.951 362.465 384.979 359.433 387.536 356.881C390.093 354.329 393.129 352.306 396.468 350.927C399.808 349.549 403.387 348.843 407 348.85L1135.55 349.23C1142.84 349.243 1149.82 352.148 1154.97 357.306C1160.11 362.464 1163 369.453 1163 376.74V376.74Z"/><path fill="#3F4249" d="M1150.92 376.74L1150.66 867.74C1150.66 871.35 1149.95 874.925 1148.56 878.259C1147.18 881.594 1145.15 884.624 1142.6 887.175C1140.05 889.727 1137.02 891.751 1133.68 893.131C1130.34 894.512 1126.77 895.221 1123.16 895.22L394.6 894.83C390.99 894.829 387.416 894.116 384.082 892.733C380.748 891.351 377.719 889.324 375.168 886.771C372.617 884.217 370.594 881.186 369.215 877.85C367.836 874.514 367.127 870.94 367.13 867.33L367.39 376.33C367.391 372.72 368.104 369.146 369.486 365.811C370.869 362.476 372.895 359.446 375.449 356.895C378.002 354.343 381.033 352.319 384.369 350.939C387.705 349.558 391.28 348.849 394.89 348.85L1123.44 349.23C1130.73 349.235 1137.72 352.136 1142.88 357.295C1148.03 362.454 1150.92 369.448 1150.92 376.74V376.74Z"/><path fill="#fff" d="M421.02 366.94V878.49H1075.37V366.94H421.02Z"/><path fill="#000" d="M1111.43 601.27C1115.59 601.27 1119.65 602.503 1123.1 604.813C1126.56 607.124 1129.25 610.407 1130.84 614.248C1132.42 618.088 1132.84 622.314 1132.02 626.389C1131.21 630.464 1129.2 634.206 1126.26 637.14C1123.31 640.075 1119.57 642.07 1115.49 642.874C1111.41 643.677 1107.19 643.253 1103.35 641.654C1099.52 640.056 1096.24 637.355 1093.94 633.893C1091.64 630.432 1090.42 626.366 1090.43 622.21C1090.45 616.651 1092.67 611.325 1096.6 607.4C1100.54 603.474 1105.87 601.27 1111.43 601.27V601.27Z"/><path fill="#000" d="M389.61 540.51V702.51C389.61 703.184 390.156 703.73 390.83 703.73H397.05C397.724 703.73 398.27 703.184 398.27 702.51V540.51C398.27 539.836 397.724 539.29 397.05 539.29H390.83C390.156 539.29 389.61 539.836 389.61 540.51Z"/><g opacity=".2"><path fill="#4D61FC" d="M719.55 801.39H474.54C471.541 801.39 469.11 803.821 469.11 806.82V838.35C469.11 841.349 471.541 843.78 474.54 843.78H719.55C722.549 843.78 724.98 841.349 724.98 838.35V806.82C724.98 803.821 722.549 801.39 719.55 801.39Z" class="change-color-in-svg" opacity=".2" style="fill:#4c1d95"/></g><g opacity=".2"><path fill="#4D61FC" d="M719.55 710.6H474.54C471.541 710.6 469.11 713.031 469.11 716.03V747.56C469.11 750.559 471.541 752.99 474.54 752.99H719.55C722.549 752.99 724.98 750.559 724.98 747.56V716.03C724.98 713.031 722.549 710.6 719.55 710.6Z" class="change-color-in-svg" opacity=".2" style="fill:#4c1d95"/></g><g opacity=".2"><path fill="#4D61FC" d="M998.47 710.6H753.46C750.461 710.6 748.03 713.031 748.03 716.03V747.56C748.03 750.559 750.461 752.99 753.46 752.99H998.47C1001.47 752.99 1003.9 750.559 1003.9 747.56V716.03C1003.9 713.031 1001.47 710.6 998.47 710.6Z" class="change-color-in-svg" opacity=".2" style="fill:#4c1d95"/></g><g opacity=".2"><path fill="#4D61FC" d="M988.95 452.63H753.46C750.461 452.63 748.03 455.061 748.03 458.06V489.59C748.03 492.589 750.461 495.02 753.46 495.02H988.95C991.949 495.02 994.38 492.589 994.38 489.59V458.06C994.38 455.061 991.949 452.63 988.95 452.63Z" class="change-color-in-svg" opacity=".2" style="fill:#4c1d95"/></g><g opacity=".2"><path fill="#4D61FC" d="M995.48 536.8H474.54C471.541 536.8 469.11 539.231 469.11 542.23V573.76C469.11 576.759 471.541 579.19 474.54 579.19H995.48C998.479 579.19 1000.91 576.759 1000.91 573.76V542.23C1000.91 539.231 998.479 536.8 995.48 536.8Z" class="change-color-in-svg" opacity=".2" style="fill:#4c1d95"/></g><g opacity=".2"><path fill="#4D61FC" d="M719.55 452.63H474.54C471.541 452.63 469.11 455.061 469.11 458.06V489.59C469.11 492.589 471.541 495.02 474.54 495.02H719.55C722.549 495.02 724.98 492.589 724.98 489.59V458.06C724.98 455.061 722.549 452.63 719.55 452.63Z" class="change-color-in-svg" opacity=".2" style="fill:#4c1d95"/></g><path fill="#4D61FC" d="M552.14 433.57L550.77 435.36L552.94 435.07V436.07L550.77 435.81L552.15 437.53L551.25 438.04L550.39 436.04L549.46 438.04L548.64 437.52L550 435.77L547.88 436.05V435.05L549.99 435.32L548.64 433.58L549.51 433.07L550.4 435.07L551.28 433.07L552.14 433.57Z" class="change-color-in-svg" style="fill:#4c1d95"/><path fill="#4D61FC" d="M538.12 689.68L536.76 691.48L538.92 691.2V692.2L536.76 691.95L538.13 693.67L537.23 694.19L536.37 692.19L535.44 694.19L534.62 693.68L536 692L533.88 692.27V691.27L535.99 691.54L534.64 689.79L535.52 689.29L536.41 691.29L537.29 689.29L538.12 689.68Z" class="change-color-in-svg" style="fill:#4c1d95"/><path fill="#4D61FC" d="M828.15 690L826.79 691.79L828.96 691.5L829.96 692.5L826.79 692.24L828.17 693.96L827.27 694.47L826.4 692.47L825.47 694.47L824.65 693.95L826.01 692.2L823.89 692.48V691.48L826 691.75L824.63 690L825.5 689.49L826.39 691.49L827.26 689.49L828.15 690Z" class="change-color-in-svg" style="fill:#4c1d95"/><path fill="#4D61FC" d="M523.37 517.86L522 519.65L524.16 519.36V520.36L522 520.1L523.37 521.82L522.47 522.33L521.61 520.33L520.68 522.33L519.86 521.81L521.22 520.06L519.1 520.34V519.34L521.21 519.61L519.86 517.86L520.74 517.36L521.63 519.36L522.51 517.36L523.37 517.86Z" class="change-color-in-svg" style="fill:#4c1d95"/><path fill="#4D61FC" d="M588.57 604.51L587.2 606.3L589.37 606.01V607.01L587.2 606.75L588.58 608.47L587.68 608.98L586.82 606.98L585.89 608.98L585.07 608.46L586.43 606.71L584.31 606.98V605.98L586.42 606.26L585 604.54L585.87 604.04L586.76 606.04L587.64 604.04L588.57 604.51Z" class="change-color-in-svg" style="fill:#4c1d95"/><g opacity=".2"><path fill="#4D61FC" d="M996.26 626.74H474.54C471.541 626.74 469.11 629.171 469.11 632.17V663.7C469.11 666.699 471.541 669.13 474.54 669.13H996.26C999.259 669.13 1001.69 666.699 1001.69 663.7V632.17C1001.69 629.171 999.259 626.74 996.26 626.74Z" class="change-color-in-svg" opacity=".2" style="fill:#4c1d95"/></g><path fill="#4D61FC" d="M828.07 432.28L826.71 434.07L828.87 433.78V434.78L826.71 434.53L828.09 436.25L827.18 436.77L826.32 434.77L825.38 436.77L824.57 436.26L825.93 434.51L823.81 434.78V433.78L825.91 434.05L824.57 432.3L825.44 431.8L826.33 433.8L827.2 431.8L828.07 432.28Z" class="change-color-in-svg" style="fill:#4c1d95"/><path fill="#B2B6BB" d="M491.94 822.35L495.42 824.3L494.51 825.91L491 823.84V827.84H489.25V823.84L485.71 825.91L484.81 824.3L488.31 822.35L484.81 820.42L485.71 818.78L489.25 820.86V816.86H491V820.86L494.54 818.78L495.45 820.42L491.94 822.35Z"/><path fill="#B2B6BB" d="M504.21 822.35L507.69 824.3L506.78 825.91L503.24 823.84V827.84H501.49V823.84L498 825.91L497.1 824.3L500.6 822.35L497.1 820.42L498 818.78L501.54 820.86V816.86H503.29V820.86L506.83 818.78L507.74 820.42L504.21 822.35Z"/><path fill="#B2B6BB" d="M516.48 822.35L520 824.3L519.09 825.91L515.56 823.84V827.84H513.8V823.84L510.26 825.91L509.36 824.3L512.87 822.35L509.36 820.42L510.26 818.78L513.8 820.86V816.86H515.56V820.86L519.09 818.78L520 820.42L516.48 822.35Z"/><path fill="#B2B6BB" d="M528.75 822.35L532.23 824.3L531.32 825.91L527.79 823.84V827.84H526.03V823.84L522.5 825.91L521.59 824.3L525.1 822.35L521.59 820.42L522.5 818.78L526.03 820.86V816.86H527.79V820.86L531.32 818.78L532.23 820.42L528.75 822.35Z"/><path fill="#B2B6BB" d="M541 822.35L544.48 824.3L543.57 825.91L540.04 823.84V827.84H538.28V823.84L534.75 825.91L533.84 824.3L537.35 822.35L533.84 820.42L534.75 818.78L538.28 820.86V816.86H540.04V820.86L543.57 818.78L544.48 820.42L541 822.35Z"/><path fill="#B2B6BB" d="M553.29 822.35L556.77 824.3L555.86 825.91L552.33 823.84V827.84H550.6V823.84L547.07 825.91L546.16 824.3L549.67 822.35L546.16 820.42L547.07 818.78L550.6 820.86V816.86H552.36V820.86L555.89 818.78L556.8 820.42L553.29 822.35Z"/><path fill="#B2B6BB" d="M565.56 822.35L569 824.3L568.1 825.91L564.56 823.84V827.84H562.81V823.84L559.28 825.91L558.37 824.3L561.88 822.35L558.37 820.42L559.28 818.78L562.81 820.86V816.86H564.56V820.86L568.1 818.78L569 820.42L565.56 822.35Z"/><path fill="#4D61FC" d="M860.33 801.39H779.59C776.591 801.39 774.16 803.821 774.16 806.82V838.35C774.16 841.349 776.591 843.78 779.59 843.78H860.33C863.329 843.78 865.76 841.349 865.76 838.35V806.82C865.76 803.821 863.329 801.39 860.33 801.39Z" class="change-color-in-svg" style="fill:#4c1d95"/><path fill="#4D61FC" d="M1076.09 366.43H421.08V406.52H1076.09V366.43Z" class="change-color-in-svg" style="fill:#4c1d95"/><path fill="#fff" d="M816.37 381.51H680.79C679.415 381.51 678.3 382.625 678.3 384V390C678.3 391.375 679.415 392.49 680.79 392.49H816.37C817.745 392.49 818.86 391.375 818.86 390V384C818.86 382.625 817.745 381.51 816.37 381.51Z"/><path fill="#4D61FC" d="M970.16 801.67H889.42C886.421 801.67 883.99 804.101 883.99 807.1V838.63C883.99 841.629 886.421 844.06 889.42 844.06H970.16C973.159 844.06 975.59 841.629 975.59 838.63V807.1C975.59 804.101 973.159 801.67 970.16 801.67Z" class="change-color-in-svg" style="fill:#4c1d95"/><g opacity=".2"><path fill="#000" d="M970.16 801.67H889.42C886.421 801.67 883.99 804.101 883.99 807.1V838.63C883.99 841.629 886.421 844.06 889.42 844.06H970.16C973.159 844.06 975.59 841.629 975.59 838.63V807.1C975.59 804.101 973.159 801.67 970.16 801.67Z" opacity=".2"/></g><path fill="#B2B6BB" d="M540.2 435.32H470.49C469.728 435.32 469.11 435.938 469.11 436.7V441.63C469.11 442.392 469.728 443.01 470.49 443.01H540.2C540.962 443.01 541.58 442.392 541.58 441.63V436.7C541.58 435.938 540.962 435.32 540.2 435.32Z"/><path fill="#B2B6BB" d="M819.12 435.32H749.41C748.648 435.32 748.03 435.938 748.03 436.7V441.63C748.03 442.392 748.648 443.01 749.41 443.01H819.12C819.882 443.01 820.5 442.392 820.5 441.63V436.7C820.5 435.938 819.882 435.32 819.12 435.32Z"/><path fill="#B2B6BB" d="M819.12 691.18H749.41C748.648 691.18 748.03 691.798 748.03 692.56V697.49C748.03 698.252 748.648 698.87 749.41 698.87H819.12C819.882 698.87 820.5 698.252 820.5 697.49V692.56C820.5 691.798 819.882 691.18 819.12 691.18Z"/><path fill="#B2B6BB" d="M580.83 607.72H470.49C469.728 607.72 469.11 608.338 469.11 609.1V614.03C469.11 614.792 469.728 615.41 470.49 615.41H580.83C581.592 615.41 582.21 614.792 582.21 614.03V609.1C582.21 608.338 581.592 607.72 580.83 607.72Z"/><path fill="#B2B6BB" d="M530.32 691.18H470.49C469.728 691.18 469.11 691.798 469.11 692.56V697.49C469.11 698.252 469.728 698.87 470.49 698.87H530.32C531.082 698.87 531.7 698.252 531.7 697.49V692.56C531.7 691.798 531.082 691.18 530.32 691.18Z"/><path fill="#B2B6BB" d="M570.95 783.42H470.49C469.728 783.42 469.11 784.038 469.11 784.8V789.73C469.11 790.492 469.728 791.11 470.49 791.11H570.95C571.712 791.11 572.33 790.492 572.33 789.73V784.8C572.33 784.038 571.712 783.42 570.95 783.42Z"/><path fill="#B2B6BB" d="M513.85 518.78H470.49C469.728 518.78 469.11 519.398 469.11 520.16V525.09C469.11 525.852 469.728 526.47 470.49 526.47H513.85C514.612 526.47 515.23 525.852 515.23 525.09V520.16C515.23 519.398 514.612 518.78 513.85 518.78Z"/><path fill="#4D61FC" d="M1165.49 1008.16C1166.38 1010.2 1167.02 1012.34 1167.39 1014.54L1172.71 1038.1C1173.34 1041.42 1173.24 1044.83 1172.41 1048.1C1172.05 1049.46 1171.25 1050.67 1170.14 1051.54C1169.03 1052.4 1167.66 1052.88 1166.25 1052.89H1160C1158.89 1052.89 1157.79 1052.59 1156.83 1052.03C1155.87 1051.47 1155.07 1050.66 1154.52 1049.69L1154.07 1048.93C1152.18 1045.58 1151.11 1041.83 1150.95 1037.99L1151.03 1015.99C1150.87 1013.34 1151.21 1010.68 1152.03 1008.16H1165.49Z" class="change-color-in-svg" style="fill:#4c1d95"/><path fill="#FC9D9D" d="M1088.66 951.46L1081.28 996.83C1080.52 1002.99 1079.99 1005.72 1080.07 1010.28L1065.25 1037L1048.6 1045.28L1044.35 1039.43L1062.74 1007.43C1064.26 1005.38 1065.25 1001.28 1065.25 997.43L1066.54 956.31L1088.66 951.46Z"/><path fill="#000" d="M1047.58 1043L1066.58 1034.61L1080.03 1010.33C1079.95 1005.77 1080.48 1003.04 1081.24 996.88L1084.98 973.88H1065.98L1065.68 982.47C1068.35 983.403 1071.07 984.178 1073.83 984.79C1074.66 984.934 1075.4 985.378 1075.92 986.038C1076.43 986.697 1076.69 987.524 1076.63 988.36L1075.45 1004.79C1075.3 1006.99 1074.55 1009.11 1073.3 1010.92L1058.9 1031.81C1058.9 1031.81 1053.32 1039.81 1044.54 1039.17L1044.41 1039.38L1047.58 1043Z" opacity=".15"/><path fill="#4D61FC" d="M1030.59 1050.11C1030.47 1050.41 1030.43 1050.74 1030.46 1051.06C1030.49 1051.38 1030.6 1051.69 1030.78 1051.96C1030.96 1052.23 1031.2 1052.45 1031.49 1052.6C1031.77 1052.76 1032.09 1052.84 1032.41 1052.85H1050.41C1052.97 1052.84 1055.5 1052.27 1057.81 1051.16C1060.13 1050.06 1062.16 1048.45 1063.78 1046.46L1075.33 1032.32C1075.52 1032.07 1075.79 1031.88 1076.1 1031.79C1076.4 1031.7 1076.73 1031.7 1077.03 1031.81C1077.33 1031.91 1077.59 1032.1 1077.78 1032.36C1077.96 1032.61 1078.07 1032.92 1078.07 1033.24L1078.68 1052.77H1080.88L1083.62 1033.77C1084.76 1025.77 1083.55 1017.6 1080.12 1010.28L1061.2 1033.28C1059.2 1035.71 1056.59 1037.57 1053.64 1038.67C1050.69 1039.78 1047.51 1040.09 1044.4 1039.58L1035.66 1044.9C1033.37 1045.93 1031.55 1047.79 1030.59 1050.11V1050.11Z" class="change-color-in-svg" style="fill:#4c1d95"/><path fill="#FC9D9D" d="M1147.79 963.47L1167.62 963.16L1165.49 1001.54C1165.17 1007.37 1165.58 1013.22 1166.71 1018.95L1168.91 1030.2C1169.06 1031.3 1168.98 1032.41 1168.67 1033.48C1168.35 1034.54 1167.81 1035.52 1167.09 1036.36C1166.36 1037.19 1165.46 1037.86 1164.45 1038.32C1163.44 1038.78 1162.35 1039.01 1161.24 1039.01H1160C1157.99 1039 1156.05 1038.21 1154.61 1036.81C1153.16 1035.41 1152.31 1033.5 1152.24 1031.49L1152.4 1021.99C1152.52 1014.02 1152.12 1006.04 1151.18 998.12L1147.79 963.47Z"/><path fill="#000" d="M1167.27 969.51L1148.57 971.65L1148.88 977.58L1149.78 982.58L1158.52 983.9C1159.41 984.036 1160.22 984.485 1160.8 985.165C1161.39 985.846 1161.71 986.713 1161.71 987.61V1008.34L1164.16 1028.44C1164.16 1028.44 1167.51 1038.16 1158.08 1038.61L1158.58 1038.83C1159.03 1038.92 1159.49 1038.96 1159.95 1038.96H1161.24C1162.35 1038.96 1163.44 1038.73 1164.45 1038.27C1165.46 1037.81 1166.36 1037.14 1167.09 1036.31C1167.81 1035.47 1168.35 1034.49 1168.67 1033.43C1168.98 1032.36 1169.06 1031.25 1168.91 1030.15L1166.71 1018.9C1165.58 1013.17 1165.17 1007.32 1165.49 1001.49L1167.27 969.51Z" opacity=".15"/><path fill="#FC9D9D" d="M1086.17 545.29L1082.88 545.91C1079.65 546.511 1076.67 548.056 1074.32 550.35C1071.96 552.645 1070.34 555.585 1069.66 558.8L1062.17 601.8L1051.56 650.8C1051.56 650.8 1073.18 671.9 1080.56 658.29L1086.17 545.29Z"/><path fill="#000" d="M1084.2 576.49L1080.12 575.68L1079.43 577.25C1074 589.586 1071.88 603.125 1073.29 616.53H1081.71L1084.2 576.49Z" opacity=".15"/><path fill="#21252B" d="M1069.84 796.13C1070.51 777.297 1071.69 758.493 1073.38 739.72L1074.97 722.09L1078.65 681.46H1167.27L1170.27 701.78C1178.02 734.01 1177.99 767.22 1176.39 800.36L1167.73 979.87L1148 980L1128.7 737.32C1128.63 736.476 1128.25 735.689 1127.63 735.113C1127.01 734.537 1126.2 734.215 1125.35 734.21C1124.55 734.189 1123.76 734.464 1123.15 734.981C1122.53 735.499 1122.13 736.224 1122.01 737.02L1084.85 980.02H1064.85L1069.48 806.58C1069.58 803.087 1069.69 799.597 1069.82 796.11"/><path fill="#000" d="M1107.16 477.77C1095.62 493.27 1093.98 510.34 1090.55 515.32C1089.18 517.32 1087.55 519.32 1087.39 521.62C1087.26 524.16 1089.05 526.53 1089.1 529.07C1089.17 532.61 1085.99 535.45 1083.94 538.5C1082.56 540.524 1081.64 542.83 1081.26 545.251C1080.87 547.672 1081.03 550.148 1081.72 552.5C1081.82 553.017 1082.03 553.507 1082.33 553.94C1082.63 554.373 1083.01 554.741 1083.46 555.02C1084.16 555.39 1082.79 566.7 1083.61 566.74C1100.35 567.51 1120.61 562.74 1137.36 562.27C1141.18 562.17 1143.97 555.7 1147.2 553.92C1151.62 551.5 1153.42 546.78 1154.9 542.44C1156.47 537.853 1158.04 533.267 1159.6 528.68C1160.71 525.742 1161.55 522.709 1162.11 519.62C1162.75 515.35 1162.31 511.01 1162.36 506.7C1162.41 502.7 1162.9 498.7 1162.54 494.7C1162.33 490.574 1160.66 486.656 1157.83 483.65"/><path fill="#DADDDF" d="M1069.66 558.8C1070.34 555.585 1071.96 552.645 1074.32 550.35C1076.67 548.056 1079.65 546.511 1082.88 545.91L1089.88 544.67L1084.35 577.07C1078.01 572.76 1065.18 580 1065.18 580L1069.66 558.8Z"/><path fill="#4D61FC" d="M1148.25 541L1188.64 549.26L1167 632.38V681.38H1078.9L1080.53 660.16L1081.75 607.54C1081.75 607.54 1069.51 601.83 1083.75 576.13L1083 545.9L1113.19 541H1148.25Z" class="change-color-in-svg" style="fill:#4c1d95"/><path fill="#DADDDF" d="M1138.34 592.906L1090.23 591.067L1089.64 606.555L1137.74 608.395L1138.34 592.906Z"/><path fill="#DADDDF" d="M1141.66 612.66L1085.39 610.5L1086.29 586.84L1142.57 588.99L1141.66 612.66ZM1086.26 609.66L1140.86 611.75L1141.7 589.75L1087.1 587.66L1086.26 609.66Z"/><path fill="#000" d="M1151.1 681.34H1167.01V639.87L1151.1 645.03V681.34Z" opacity=".2"/><path fill="#000" d="M1171.5 571.6C1169.5 571.6 1166.17 572.83 1165.5 574.68L1152.71 613.21L1126.6 587.92H1122.53L1159.24 625.45L1171.5 571.6Z" opacity=".2"/><path fill="#FC9D9D" d="M1183.3 548.35C1185.61 548.714 1187.82 549.562 1189.78 550.837C1191.74 552.113 1193.41 553.789 1194.68 555.754C1195.95 557.719 1196.79 559.93 1197.14 562.242C1197.5 564.554 1197.36 566.914 1196.74 569.17L1173.81 644.44C1173.36 646.083 1172.56 647.608 1171.46 648.91L1169.8 650.91C1168.56 652.378 1166.99 653.52 1165.21 654.237C1163.43 654.953 1161.5 655.222 1159.59 655.02V655.02C1156.3 654.67 1153.68 652.64 1151.35 650.29C1141.35 640.17 1115.61 600.97 1115.61 600.97L1126.95 591.89L1155.73 620.21L1166.82 579.84C1167.35 577.87 1168.12 575.969 1169.1 574.18L1183.3 548.35Z"/><path fill="#000" d="M1192.34 583.61L1186.97 585.83L1169.87 637.69C1169.87 637.69 1163.54 656.64 1153.5 652.2C1155.21 653.704 1157.33 654.67 1159.59 654.98V654.98C1161.5 655.182 1163.43 654.913 1165.21 654.197C1166.99 653.48 1168.56 652.338 1169.8 650.87L1171.46 648.87C1172.56 647.568 1173.36 646.043 1173.81 644.4L1192.34 583.61Z" opacity=".15"/><path fill="#DADDDF" d="M1182.48 548.35L1169.87 570L1166.87 579.55C1166.87 579.55 1187.28 581.92 1190.4 592.28L1196.72 569.2C1199.36 559.61 1192.71 548.75 1182.48 548.35Z"/><path fill="#FC9D9D" d="M1147.91 541.05L1147 501L1118.27 495.19L1113.18 541.39C1113.18 541.39 1123.91 567.38 1147.91 541.05Z"/><path fill="#FC9D9D" d="M1030.35 607.5C1030.35 607.5 1023.09 616.87 1030.59 628.75L1037.12 629.4L1036.48 612.83L1030.35 607.5Z"/><path fill="#000" d="M1030.35 607.5C1030.35 607.5 1023.09 616.87 1030.59 628.75L1037.12 629.4L1036.48 612.83L1030.35 607.5Z" opacity=".15"/><path fill="#FC9D9D" d="M1107.67 505L1108.67 479C1108.74 476.737 1109.69 474.589 1111.3 473C1112.07 472.236 1112.98 471.639 1113.99 471.247C1115 470.854 1116.08 470.675 1117.16 470.72L1141.88 471.89C1142.71 471.922 1143.53 472.13 1144.27 472.5C1145.03 472.866 1145.72 473.387 1146.27 474.03C1146.83 474.682 1147.27 475.436 1147.55 476.25C1147.83 477.076 1147.96 477.948 1147.92 478.82L1146.82 506.82C1146.72 509.434 1146.13 512.006 1145.08 514.4C1144.05 516.753 1142.58 518.885 1140.74 520.68C1138.94 522.441 1136.81 523.818 1134.46 524.73C1132.15 525.626 1129.68 526.031 1127.2 525.92L1125.75 525.83C1123.25 525.692 1120.8 525.047 1118.55 523.935C1116.3 522.823 1114.31 521.266 1112.68 519.36C1109.27 515.38 1107.48 510.259 1107.68 505.02L1107.67 505Z"/><path fill="#000" d="M1127.41 500.73C1126.98 500.732 1126.56 500.606 1126.2 500.368C1125.84 500.131 1125.56 499.792 1125.4 499.395C1125.23 498.998 1125.19 498.561 1125.27 498.139C1125.35 497.717 1125.56 497.33 1125.87 497.026C1126.17 496.722 1126.56 496.515 1126.98 496.431C1127.4 496.348 1127.84 496.392 1128.24 496.557C1128.63 496.723 1128.97 497.002 1129.21 497.361C1129.45 497.719 1129.57 498.14 1129.57 498.57C1129.57 498.854 1129.51 499.135 1129.41 499.397C1129.3 499.659 1129.14 499.897 1128.94 500.097C1128.74 500.298 1128.5 500.457 1128.24 500.566C1127.97 500.674 1127.69 500.73 1127.41 500.73Z"/><path fill="#fff" d="M1126.51 499.41C1126.42 499.41 1126.33 499.384 1126.26 499.334C1126.19 499.285 1126.13 499.214 1126.09 499.132C1126.06 499.05 1126.05 498.96 1126.07 498.872C1126.09 498.785 1126.13 498.705 1126.19 498.642C1126.25 498.579 1126.34 498.536 1126.42 498.519C1126.51 498.501 1126.6 498.51 1126.68 498.544C1126.76 498.578 1126.83 498.636 1126.88 498.71C1126.93 498.784 1126.96 498.871 1126.96 498.96C1126.96 499.079 1126.91 499.194 1126.83 499.278C1126.74 499.363 1126.63 499.41 1126.51 499.41V499.41Z"/><path fill="#000" d="M1110.57 500.73C1110.14 500.732 1109.72 500.606 1109.36 500.368C1109 500.131 1108.72 499.792 1108.56 499.395C1108.39 498.998 1108.35 498.561 1108.43 498.139C1108.51 497.717 1108.72 497.33 1109.03 497.026C1109.33 496.722 1109.72 496.515 1110.14 496.431C1110.56 496.348 1111 496.392 1111.4 496.557C1111.79 496.723 1112.13 497.002 1112.37 497.361C1112.61 497.719 1112.73 498.14 1112.73 498.57C1112.73 499.142 1112.5 499.69 1112.09 500.094C1111.69 500.499 1111.14 500.727 1110.57 500.73Z"/><path fill="#fff" d="M1109.67 499.32C1109.55 499.32 1109.44 499.273 1109.35 499.188C1109.27 499.104 1109.22 498.989 1109.22 498.87C1109.22 498.751 1109.27 498.636 1109.35 498.552C1109.44 498.467 1109.55 498.42 1109.67 498.42C1109.79 498.42 1109.9 498.467 1109.99 498.552C1110.07 498.636 1110.12 498.751 1110.12 498.87C1110.12 498.989 1110.07 499.104 1109.99 499.188C1109.9 499.273 1109.79 499.32 1109.67 499.32V499.32Z"/><g opacity=".15"><path fill="#000" d="M1115.39 504.91C1115.46 504.233 1115.79 503.609 1116.31 503.17C1116.84 502.738 1117.51 502.524 1118.19 502.57C1118.34 502.609 1118.48 502.701 1118.57 502.83C1118.64 502.928 1118.68 503.044 1118.68 503.162C1118.69 503.281 1118.66 503.4 1118.6 503.503C1118.54 503.607 1118.46 503.693 1118.35 503.751C1118.25 503.808 1118.13 503.836 1118.01 503.83C1117.64 503.819 1117.29 503.948 1117.01 504.19C1116.75 504.421 1116.57 504.741 1116.53 505.09C1116.5 505.267 1116.52 505.447 1116.56 505.62C1116.61 505.792 1116.7 505.952 1116.81 506.09C1116.92 506.225 1117.05 506.338 1117.21 506.42C1117.36 506.503 1117.53 506.553 1117.7 506.57L1120.58 506.84C1120.74 506.879 1120.87 506.975 1120.96 507.11C1121.01 507.175 1121.04 507.248 1121.06 507.325C1121.07 507.402 1121.07 507.482 1121.06 507.56C1121.04 507.717 1120.96 507.861 1120.84 507.961C1120.72 508.062 1120.56 508.112 1120.4 508.1L1117.52 507.83C1117.17 507.818 1116.83 507.733 1116.52 507.58C1116.21 507.416 1115.95 507.187 1115.74 506.91C1115.53 506.638 1115.39 506.319 1115.33 505.98C1115.26 505.65 1115.26 505.31 1115.33 504.98L1115.39 504.91Z" opacity=".15"/></g><path fill="#000" d="M1114.44 528.65C1119.6 529.96 1124.44 529.58 1128.72 526.35C1130.43 526.16 1139.44 524.43 1137.72 522.3C1134.23 524.112 1130.34 525.008 1126.41 524.905C1122.48 524.802 1118.64 523.703 1115.25 521.71L1114.44 528.65Z" opacity=".15"/><path fill="#fff" d="M1126.38 511.22C1126.74 511.22 1126.83 511.49 1126.74 511.76C1126.23 512.811 1125.44 513.698 1124.45 514.318C1123.46 514.939 1122.32 515.268 1121.15 515.268C1119.99 515.268 1118.85 514.939 1117.86 514.318C1116.87 513.698 1116.08 512.811 1115.57 511.76C1115.55 511.698 1115.55 511.632 1115.57 511.57C1115.58 511.507 1115.6 511.446 1115.63 511.39C1115.67 511.342 1115.72 511.298 1115.77 511.26C1115.83 511.245 1115.9 511.245 1115.96 511.26L1126.38 511.22Z"/><path fill="#000" d="M1137.24 460.87C1148.66 461.3 1161.41 469.07 1165.3 479.81C1167.3 485.23 1167.73 491.45 1171.52 495.81C1173.9 498.55 1177.41 500.25 1179.37 503.31C1183.55 509.86 1178.73 518.85 1181.37 526.17C1182.53 529.44 1185.07 532 1187.04 534.86C1189.01 537.72 1189.04 556.14 1187.76 559.35C1187.24 560.444 1186.49 561.417 1185.57 562.204C1184.64 562.991 1183.56 563.576 1182.4 563.92C1180.07 564.584 1177.65 564.92 1175.23 564.92C1162.93 565.47 1151.82 559.67 1139.52 560.22C1139.52 560.22 1137.95 547.22 1140.39 543.35C1142.83 539.48 1148.86 535.89 1147.52 530.3C1146.18 524.71 1143.44 525.42 1143.36 519.6C1143.28 513.78 1147.3 508.23 1146.63 503.19C1145.96 498.15 1144.3 499.32 1142.18 491.36C1140.06 483.4 1135.62 481.23 1135.62 481.23L1139.09 462.23"/><path fill="#000" d="M1128.53 458.09C1120.98 457.64 1111.89 461.27 1107.53 467.45C1103.17 473.63 1098.87 480.05 1097.36 487.45C1099.71 487.5 1103.53 491.28 1105.86 491.63C1106.62 491.665 1107.39 491.547 1108.11 491.283C1108.82 491.018 1109.48 490.613 1110.04 490.09C1112.78 487.749 1115.17 485.036 1117.16 482.03C1122.19 475.117 1127.16 468.167 1132.08 461.18"/><path fill="#000" d="M1147.37 514.46L1144.12 507.97H1147.19L1147.37 514.46Z" opacity=".15"/><path fill="#000" d="M1124.53 459.38C1121.13 466.62 1124.53 475.19 1131.53 478.94C1134.59 480.56 1138.47 481.45 1139.99 484.55C1141.17 486.95 1140.51 490.03 1141.99 492.24C1143.47 494.45 1146.23 494.89 1148.27 496.38C1151.06 498.38 1152.18 502.07 1152.48 505.52C1152.78 508.97 1152.48 512.52 1153.13 515.87C1153.78 519.22 1155.83 522.69 1159.13 523.71C1161.22 513.92 1163.13 503.97 1162.58 493.98C1162.03 483.99 1158.82 473.82 1151.87 466.62C1144.92 459.42 1133.87 455.83 1124.46 459.38"/><path fill="#FC9D9D" d="M1144.21 507.88L1146.38 497.62C1148.81 488.25 1160.38 490.95 1157.54 500.23C1154.7 509.51 1145.3 507.88 1145.3 507.88H1144.21Z"/><path fill="#000" d="M1155.29 495.81C1155.18 495.934 1155.03 496.013 1154.86 496.03C1154.69 496.043 1154.53 495.997 1154.39 495.9C1154.16 495.632 1153.87 495.426 1153.54 495.3C1153.21 495.174 1152.86 495.133 1152.51 495.18C1152.15 495.222 1151.81 495.352 1151.51 495.56C1151.22 495.764 1150.99 496.035 1150.84 496.35C1150.24 497.247 1149.87 498.277 1149.76 499.35L1149.58 500.43C1149.49 501.33 1148.23 500.97 1148.32 500.25L1148.41 499.25C1148.51 497.944 1148.98 496.693 1149.76 495.64C1150.01 495.216 1150.35 494.851 1150.76 494.57C1151.18 494.289 1151.65 494.101 1152.15 494.02C1152.66 493.989 1153.17 494.061 1153.65 494.23C1154.13 494.397 1154.57 494.663 1154.94 495.01C1155.07 495.101 1155.16 495.231 1155.21 495.38C1155.26 495.522 1155.26 495.678 1155.21 495.82L1155.29 495.81Z" opacity=".15"/><path fill="#000" d="M1090.49 519.48C1091.89 517.36 1093.36 514.96 1092.9 512.48C1092.58 510.74 1091.36 509.29 1090.83 507.6C1090.49 506.528 1090.38 505.398 1090.49 504.28C1090.6 503.161 1090.93 502.077 1091.47 501.09C1092.28 499.02 1094.96 498.67 1095.62 496.55C1096.15 494.85 1094.82 491.46 1095.51 489.82C1095.8 488.978 1096.3 488.222 1096.95 487.616C1097.61 487.011 1098.4 486.576 1099.26 486.35C1108.68 490.02 1097.42 502.16 1097.01 510.15C1097.07 511.906 1096.8 513.657 1096.2 515.31C1095.47 516.9 1093.67 518.17 1092 517.65"/><path fill="#F4F4F4" d="M1105.63 491.45C1104.34 492.535 1103.43 493.999 1103.02 495.632C1102.61 497.266 1102.73 498.987 1103.36 500.55C1103.82 501.694 1104.54 502.717 1105.46 503.537C1106.38 504.358 1107.48 504.954 1108.67 505.28C1109.86 505.598 1111.12 505.642 1112.33 505.41C1113.54 505.171 1114.68 504.655 1115.66 503.902C1116.64 503.149 1117.43 502.18 1117.97 501.07C1118.51 499.962 1118.79 498.743 1118.78 497.51C1118.78 496.276 1118.49 495.06 1117.93 493.96C1119.24 493.585 1120.63 493.613 1121.93 494.04C1121.59 494.857 1121.36 495.719 1121.27 496.6C1121.15 498.177 1121.49 499.756 1122.27 501.136C1123.04 502.517 1124.21 503.637 1125.62 504.355C1127.03 505.073 1128.62 505.356 1130.19 505.17C1131.76 504.983 1133.24 504.335 1134.44 503.307C1135.65 502.279 1136.52 500.917 1136.95 499.394C1137.37 497.871 1137.34 496.255 1136.85 494.751C1136.36 493.246 1135.44 491.92 1134.2 490.941C1132.95 489.962 1131.45 489.374 1129.87 489.25C1128.4 489.125 1126.92 489.414 1125.61 490.086C1124.29 490.758 1123.19 491.785 1122.43 493.05C1120.82 492.44 1119.05 492.411 1117.43 492.97C1116.8 492.033 1115.98 491.242 1115.02 490.649C1114.06 490.055 1112.99 489.674 1111.87 489.53C1110.75 489.386 1109.62 489.483 1108.54 489.814C1107.46 490.145 1106.46 490.703 1105.62 491.45H1105.63ZM1128.54 504.13C1126.95 503.996 1125.45 503.316 1124.3 502.206C1123.15 501.096 1122.42 499.623 1122.23 498.036C1122.04 496.45 1122.41 494.846 1123.26 493.497C1124.12 492.147 1125.41 491.135 1126.93 490.63C1128.23 490.215 1129.62 490.187 1130.93 490.55C1132.59 491.016 1134.01 492.081 1134.93 493.539C1135.84 494.997 1136.18 496.743 1135.88 498.437C1135.58 500.131 1134.65 501.653 1133.29 502.705C1131.93 503.757 1130.23 504.265 1128.51 504.13H1128.54ZM1110.24 504.46C1109.1 504.368 1108.01 503.997 1107.05 503.381C1106.09 502.765 1105.3 501.922 1104.75 500.927C1104.19 499.933 1103.89 498.817 1103.87 497.678C1103.85 496.54 1104.11 495.414 1104.63 494.4C1105.15 493.386 1105.91 492.515 1106.84 491.864C1107.78 491.214 1108.86 490.804 1109.99 490.671C1111.12 490.537 1112.27 490.684 1113.33 491.099C1114.39 491.514 1115.33 492.184 1116.07 493.05C1116.96 494.089 1117.53 495.37 1117.69 496.731C1117.85 498.092 1117.61 499.47 1116.98 500.69C1116.36 501.915 1115.4 502.928 1114.2 503.599C1113.01 504.271 1111.64 504.571 1110.27 504.46H1110.24Z"/><path fill="#21252B" d="M1099.6 600.15H1038.23C1036.22 600.15 1034.59 601.78 1034.59 603.79V647.09C1034.59 649.1 1036.22 650.73 1038.23 650.73H1099.6C1101.61 650.73 1103.24 649.1 1103.24 647.09V603.79C1103.24 601.78 1101.61 600.15 1099.6 600.15Z"/><path fill="#3F4249" d="M1096.71 600.15H1035.34C1033.33 600.15 1031.7 601.78 1031.7 603.79V647.09C1031.7 649.1 1033.33 650.73 1035.34 650.73H1096.71C1098.72 650.73 1100.35 649.1 1100.35 647.09V603.79C1100.35 601.78 1098.72 600.15 1096.71 600.15Z"/><path fill="#DADDDF" d="M1065.03 628.71C1067.51 628.71 1069.52 626.7 1069.52 624.22C1069.52 621.74 1067.51 619.73 1065.03 619.73C1062.55 619.73 1060.54 621.74 1060.54 624.22C1060.54 626.7 1062.55 628.71 1065.03 628.71Z"/><path fill="#000" d="M1111.12 739.67L1077.12 979.96L1082.83 980.04H1084.83L1121.99 737.04C1122.1 736.303 1122.45 735.625 1123 735.119C1123.54 734.613 1124.25 734.31 1124.99 734.26V733.94C1124.99 733.94 1112.75 729.88 1111.12 739.67Z" opacity=".3"/><path fill="#000" d="M1167.27 681.47H1153.59C1154.59 683.98 1169.78 730.04 1167.42 781.28L1162 979.93H1167.69L1176.35 800.42C1177.95 767.28 1177.98 734.07 1170.23 701.84L1167.27 681.47Z" opacity=".3"/><path fill="#000" d="M1155.75 620.14L1162.52 628.71C1160.88 624.31 1159.01 620 1156.91 615.8L1155.75 620.14Z" opacity=".15"/><path fill="#000" d="M1080.12 575.68L1084.83 566.84C1084.9 566.704 1085.02 566.599 1085.17 566.543C1085.31 566.488 1085.47 566.486 1085.62 566.538C1085.76 566.59 1085.89 566.692 1085.96 566.826C1086.04 566.96 1086.07 567.118 1086.04 567.27C1085.47 570.427 1084.58 573.517 1083.38 576.49L1080.12 575.68Z" opacity=".2"/><path fill="#000" d="M1060.54 650.74C1060.54 650.74 1071.96 662.16 1078.54 660.53C1078.54 660.53 1080.33 659.97 1080.66 656.58V650.74H1060.54Z" opacity=".15"/><path fill="#FC9D9D" d="M1116.72 577.54C1116.72 577.54 1111.8 567.94 1110.35 568.54C1108.9 569.14 1106.99 569.14 1107.92 572.77C1108.85 576.4 1111.26 578.9 1111.12 581.77C1110.98 584.64 1109.19 590.69 1111.23 593.99C1113.57 597.77 1120.91 609.19 1120.91 609.19L1129.62 595.64L1127.18 592.06C1127.18 592.06 1130.45 585.57 1131.25 582.28C1132.05 578.99 1130.85 574.28 1130.85 574.28C1130.98 572.578 1130.56 570.878 1129.66 569.43C1129.82 567.969 1129.89 566.5 1129.87 565.03C1129.87 562.81 1124.09 553.64 1124.09 553.64C1123.29 553.95 1122.63 554.56 1122.27 555.342C1121.91 556.123 1121.86 557.015 1122.14 557.83C1122.76 559.768 1123.51 561.659 1124.4 563.49L1117.7 560.94C1117.46 561.395 1117.32 561.894 1117.28 562.407C1117.24 562.919 1117.31 563.434 1117.48 563.919C1117.65 564.404 1117.92 564.849 1118.27 565.226C1118.62 565.603 1119.04 565.904 1119.51 566.11C1123.06 568.03 1123.62 569.64 1123.62 569.64L1118.52 570.02C1118.52 570.02 1118.05 572.86 1120.09 573.43L1122.09 574.01L1116.72 577.54Z"/><path stroke="#000" stroke-linecap="round" stroke-miterlimit="10" stroke-width=".67" d="M1123.84 569.5C1123.84 569.5 1129.16 569.5 1130.05 573.93" opacity=".15"/><path stroke="#000" stroke-linecap="round" stroke-miterlimit="10" stroke-width=".67" d="M1124.73 564.18C1126.71 565.05 1128.29 566.631 1129.16 568.61" opacity=".15"/><path stroke="#000" stroke-linecap="round" stroke-miterlimit="10" stroke-width=".67" d="M1120.09 573.42L1124.28 574.42C1124.28 574.42 1126.6 578.74 1123.54 582.15C1122.93 582.807 1122.19 583.337 1121.37 583.71C1118.96 584.86 1112.18 588.49 1113.64 592.16" opacity=".15"/><path fill="#FC9D9D" d="M1037.12 613.29L1030.86 607.94C1030.51 607.632 1030.07 607.455 1029.6 607.44C1029.29 607.43 1028.99 607.488 1028.71 607.609C1028.43 607.731 1028.18 607.913 1027.98 608.142C1027.78 608.372 1027.63 608.643 1027.54 608.936C1027.46 609.23 1027.44 609.538 1027.49 609.84C1027.59 610.44 1027.82 611.011 1028.17 611.512C1028.51 612.013 1028.96 612.432 1029.49 612.74L1037.21 617.45C1037.39 617.57 1037.6 617.635 1037.82 617.635C1038.04 617.635 1038.25 617.57 1038.43 617.45V617.45C1038.6 617.329 1038.73 617.164 1038.81 616.973C1038.89 616.783 1038.91 616.574 1038.88 616.37V616.37C1038.68 615.165 1038.06 614.072 1037.12 613.29V613.29Z"/><path fill="#FC9D9D" d="M1037.36 617.85L1029.18 613.6C1028.78 613.35 1028.32 613.241 1027.85 613.29V613.29C1027.55 613.322 1027.25 613.421 1026.99 613.58C1026.73 613.738 1026.51 613.952 1026.34 614.206C1026.18 614.46 1026.07 614.748 1026.02 615.05C1025.98 615.351 1026 615.659 1026.09 615.95C1026.27 616.527 1026.57 617.059 1026.97 617.51C1027.37 617.96 1027.87 618.319 1028.42 618.56L1038 622C1038.2 622.087 1038.42 622.113 1038.64 622.076C1038.85 622.038 1039.05 621.939 1039.21 621.79V621.79C1039.36 621.647 1039.46 621.466 1039.52 621.266C1039.57 621.067 1039.56 620.857 1039.5 620.66V620.66C1039.15 619.494 1038.39 618.495 1037.36 617.85Z"/><path fill="#FC9D9D" d="M1038.15 622.33L1029.54 619.04C1029.12 618.827 1028.65 618.767 1028.19 618.87V618.87C1027.89 618.933 1027.61 619.063 1027.37 619.248C1027.12 619.434 1026.93 619.671 1026.79 619.943C1026.65 620.215 1026.57 620.515 1026.56 620.82C1026.55 621.126 1026.61 621.43 1026.73 621.71C1026.97 622.264 1027.33 622.759 1027.79 623.161C1028.24 623.563 1028.77 623.863 1029.35 624.04L1039.22 626.35C1039.43 626.412 1039.65 626.413 1039.86 626.35C1040.07 626.288 1040.25 626.166 1040.39 626C1040.52 625.842 1040.61 625.652 1040.64 625.449C1040.67 625.246 1040.64 625.039 1040.56 624.85C1040.08 623.752 1039.22 622.86 1038.15 622.33Z"/><path fill="#FC9D9D" d="M1037.87 626L1030.77 625.54C1030.42 625.491 1030.07 625.558 1029.77 625.73V625.73C1029.57 625.847 1029.39 626.008 1029.25 626.201C1029.12 626.394 1029.03 626.614 1028.99 626.846C1028.95 627.078 1028.96 627.316 1029.02 627.544C1029.08 627.771 1029.2 627.981 1029.35 628.16V628.16C1029.66 628.511 1030.03 628.793 1030.46 628.986C1030.88 629.179 1031.34 629.279 1031.81 629.28L1039.62 628.72C1039.79 628.72 1039.96 628.67 1040.1 628.576C1040.24 628.481 1040.35 628.347 1040.41 628.19C1040.47 628.045 1040.49 627.886 1040.46 627.73C1040.44 627.575 1040.37 627.43 1040.27 627.31V627.31C1039.65 626.599 1038.8 626.134 1037.87 626V626Z"/><path fill="#000" d="M1190.42 592.25L1196.74 569.17C1197.49 566.295 1197.48 563.275 1196.71 560.405C1195.94 557.535 1194.45 554.911 1192.37 552.79H1192.27C1192.27 552.79 1197.7 560.41 1186.64 586.79C1188.4 588.186 1189.71 590.067 1190.42 592.2V592.25Z" opacity=".15"/><path fill="#DADDDF" d="M576 997H441V1052H576V997Z"/><path fill="#000" d="M576 997H490V1052H576V997Z" opacity=".1"/><path fill="#DADDDF" d="M583 992H434V1005H583V992Z"/><path fill="#000" d="M583 992H490V1005H583V992Z" opacity=".1"/><path fill="#000" d="M576 1005H441V1007H576V1005Z" opacity=".1"/><path fill="#fff" d="M481 1031H449V1043H481V1031Z"/><path fill="#000" d="M476 1016H452V1021H476V1016Z" opacity=".1"/><path fill="#DADDDF" d="M679 997H544V1052H679V997Z"/><path fill="#000" d="M679 997H593V1052H679V997Z" opacity=".1"/><path fill="#DADDDF" d="M686 992H537V1005H686V992Z"/><path fill="#000" d="M686 992H593V1005H686V992Z" opacity=".1"/><path fill="#000" d="M679 1005H544V1007H679V1005Z" opacity=".1"/><path fill="#fff" d="M584 1031H552V1043H584V1031Z"/><path fill="#000" d="M579 1016H555V1021H579V1016Z" opacity=".1"/></svg>