<?xml version="1.0" standalone="no"?>
<!DOCTYPE svg PUBLIC "-//W3C//DTD SVG 20010904//EN"
 "http://www.w3.org/TR/2001/REC-SVG-20010904/DTD/svg10.dtd">
<svg version="1.0" xmlns="http://www.w3.org/2000/svg"
 width="1800.000000pt" height="1800.000000pt" viewBox="0 0 1800.000000 1800.000000"
 preserveAspectRatio="xMidYMid meet">
<metadata>
Created by potrace 1.14, written by Peter Selinger 2001-2017
</metadata>
<g transform="translate(0.000000,1800.000000) scale(0.100000,-0.100000)"
fill="#000000" stroke="none">
<path d="M6739 17996 c-2 -2 -59 -6 -127 -10 -68 -4 -149 -9 -180 -12 -84 -8
-333 -35 -362 -39 -223 -33 -386 -58 -388 -60 -2 -2 31 -71 72 -154 278 -555
476 -1087 625 -1686 34 -138 97 -434 116 -545 18 -108 45 -288 45 -306 0 -17
-38 -40 -212 -127 -117 -59 -240 -122 -273 -140 -655 -365 -1210 -777 -1720
-1277 -384 -375 -679 -728 -1017 -1210 -110 -158 -301 -472 -423 -695 -42 -77
-215 -422 -215 -429 0 -2 -20 -46 -44 -97 -58 -124 -160 -376 -231 -572 -56
-154 -59 -160 -114 -210 -124 -113 -435 -430 -556 -567 -351 -396 -681 -854
-934 -1295 -50 -88 -96 -167 -101 -175 -34 -53 -281 -564 -340 -705 -76 -179
-190 -478 -190 -497 0 -6 11 -3 25 6 407 267 1018 568 1515 747 91 33 175 64
188 69 13 6 26 10 30 10 4 0 7 -69 8 -153 4 -717 118 -1474 330 -2187 78 -262
223 -662 314 -865 10 -22 32 -74 50 -115 59 -138 217 -453 307 -615 158 -283
304 -512 490 -770 23 -33 51 -71 60 -85 10 -13 50 -65 88 -115 39 -49 77 -99
85 -111 31 -44 319 -377 409 -473 155 -166 416 -419 567 -551 284 -246 534
-437 836 -638 162 -109 476 -301 528 -325 8 -4 35 -19 60 -33 25 -14 113 -60
195 -103 129 -67 220 -111 441 -211 268 -121 757 -297 1049 -375 115 -31 320
-84 345 -89 45 -9 71 -15 88 -20 10 -3 31 -8 47 -10 17 -3 41 -7 55 -10 62
-14 88 -19 180 -36 197 -36 206 -38 405 -63 139 -18 197 -25 286 -32 35 -3 80
-7 99 -10 228 -26 1099 -26 1262 0 12 2 57 6 98 10 84 6 242 23 280 30 14 2
48 6 75 10 68 7 394 62 480 81 328 70 624 148 865 225 85 28 164 54 175 59 11
5 48 18 81 29 60 20 314 117 378 145 17 7 76 33 131 56 268 115 641 308 925
479 132 80 452 290 500 328 8 6 80 60 160 119 202 150 439 347 611 509 58 55
85 73 124 81 19 4 200 71 262 98 213 90 472 241 639 373 135 107 164 132 294
263 367 369 631 832 756 1330 69 273 73 341 30 437 -47 102 -145 167 -259 172
-49 2 -89 -8 -265 -68 -254 -86 -419 -136 -572 -176 -294 -75 -677 -155 -870
-180 -25 -3 -56 -8 -70 -10 -122 -17 -192 -26 -340 -39 -41 -4 -89 -9 -105
-11 -233 -27 -1077 -27 -1296 0 -14 2 -66 6 -115 10 -49 4 -92 9 -96 11 -3 2
-50 7 -105 10 -85 5 -105 3 -154 -15 -75 -28 -132 -80 -166 -149 -41 -83 -39
-172 9 -362 108 -430 283 -792 543 -1124 92 -118 122 -152 245 -274 l95 -94
-35 -30 c-51 -42 -259 -186 -316 -218 -27 -15 -86 -47 -131 -72 -290 -162
-699 -308 -1041 -373 -43 -8 -88 -17 -102 -20 -13 -2 -42 -7 -65 -10 -22 -3
-47 -8 -55 -10 -8 -2 -44 -7 -80 -10 -36 -4 -76 -8 -90 -10 -186 -27 -845 -27
-987 -1 -10 2 -47 7 -83 10 -36 4 -87 11 -115 17 -27 5 -66 11 -85 13 -247 32
-795 187 -1025 290 -16 8 -64 28 -105 46 -109 47 -360 178 -470 245 -656 399
-1124 918 -1395 1550 -71 166 -164 463 -189 610 -3 17 -8 39 -10 50 -2 11 -9
54 -16 95 -6 41 -13 86 -16 100 -2 14 -6 57 -10 95 -3 39 -7 88 -10 110 -4 45
-4 364 1 440 6 102 19 203 51 400 21 128 127 491 178 610 8 17 26 59 41 95
126 300 338 631 580 905 91 104 81 97 123 74 249 -141 601 -373 855 -566 307
-232 516 -414 809 -703 98 -96 178 -173 178 -170 0 68 -84 582 -125 770 -28
125 -67 293 -76 324 -6 21 -12 46 -14 55 -7 28 -42 153 -69 246 -29 98 -141
438 -156 470 -5 11 -41 103 -81 205 -39 102 -76 190 -80 196 -6 8 8 16 43 27
29 9 91 28 138 42 73 22 184 49 283 69 15 3 38 8 52 11 21 5 61 -18 203 -113
419 -281 836 -508 1297 -707 17 -7 58 -25 93 -39 360 -155 1093 -381 1430
-441 15 -2 52 -9 82 -15 67 -14 84 -17 160 -30 33 -6 70 -13 82 -15 52 -9 156
-25 203 -30 28 -3 61 -8 75 -10 14 -3 50 -7 80 -10 30 -3 69 -8 85 -10 29 -4
112 -12 205 -20 319 -27 986 -27 1250 -1 19 2 73 7 120 11 83 6 124 11 185 20
17 3 57 7 89 11 33 3 69 8 80 10 12 2 41 7 66 10 67 8 219 33 270 44 25 5 58
12 74 15 16 2 52 9 80 15 28 6 60 12 71 14 65 13 304 70 323 77 13 5 36 11 51
14 161 28 990 312 1011 345 20 32 16 828 -4 1010 -3 19 -7 73 -11 120 -3 47
-8 99 -10 115 -2 17 -7 57 -10 90 -32 304 -110 726 -195 1060 -315 1229 -907
2355 -1728 3287 -143 163 -120 137 -283 304 -398 405 -747 699 -1194 1006
-227 155 -331 219 -730 446 -22 13 -144 74 -271 137 l-230 114 -135 150 c-191
214 -526 544 -724 712 -22 19 -42 36 -45 39 -3 3 -54 46 -115 96 -784 645
-1755 1166 -2710 1453 -93 28 -183 55 -200 61 -218 69 -823 192 -1105 224 -19
2 -57 7 -85 11 -27 3 -63 8 -80 10 -16 2 -91 9 -165 15 -74 6 -155 13 -180 16
-50 6 -865 16 -871 10z"/>
</g>
</svg>
