<?xml version="1.0" encoding="UTF-8"?>
<!DOCTYPE svg PUBLIC "-//W3C//DTD SVG 1.1//EN" "http://www.w3.org/Graphics/SVG/1.1/DTD/svg11.dtd">
<!-- Creator: CorelDRAW 2018 -->
<svg xmlns="http://www.w3.org/2000/svg" xml:space="preserve" width="120.684mm" height="88.6589mm" version="1.1" style="shape-rendering:geometricPrecision; text-rendering:geometricPrecision; image-rendering:optimizeQuality; fill-rule:evenodd; clip-rule:evenodd"
viewBox="0 0 12620.4 9271.38"
 xmlns:xlink="http://www.w3.org/1999/xlink">
 <defs>
  <style type="text/css">
   <![CDATA[
    .str0 {stroke:#2B2A29;stroke-width:2.61;stroke-miterlimit:22.9256}
    .str1 {stroke:#1F1B20;stroke-width:2.61;stroke-miterlimit:22.9256}
    .str2 {stroke:#2B2A29;stroke-width:7.97;stroke-miterlimit:22.9256}
    .fil5 {fill:none}
    .fil10 {fill:none}
    .fil4 {fill:#FEFEFE}
    .fil8 {fill:#FEFEFE}
    .fil1 {fill:#2B2A29}
    .fil6 {fill:#2B2A29}
    .fil7 {fill:#E31E24}
    .fil0 {fill:black}
    .fil2 {fill:#077187}
    .fil3 {fill:#1298B3}
    .fil9 {fill:#2B2A29;fill-opacity:0.101961}
   ]]>
  </style>
 </defs>
 <g id="Layer_x0020_1">
  <metadata id="CorelCorpID_0Corel-Layer"/>
  <g id="_417715528">
   <path class="fil1 str0" d="M9998.27 3511.11c623.6,155.76 1278.31,427.67 1797.13,811.15 384.74,284.37 796.06,712.03 822.4,1218.05 5.69,109.27 -7.39,218.48 -38.02,323.5 -4.59,15.75 -53.02,-16.14 -59.14,-19.76 -48.77,-28.99 -96.58,-59.99 -145.16,-89.42 -165.71,-100.35 -336.25,-188.27 -517.48,-257.42 -550.82,-210.16 -1113.02,-214.47 -1649.42,47.39 -0.86,0.42 -1.8,0.37 -2.6,-0.16 -0.81,-0.51 -1.24,-1.35 -1.21,-2.3 7.33,-254.23 16.3,-510.35 14.24,-764.65 -1.31,-161.99 -8.44,-322.27 -32.49,-482.66 -39.1,-260.79 -120.25,-525.87 -192.51,-779.32 -39.86,-9.92 -79.83,-19.44 -119.88,-28.53 -1.38,-0.31 -2.27,-1.64 -2.04,-3.03 0.24,-1.39 1.52,-2.35 2.92,-2.2l116.84 12.82c1.1,0.12 1.96,0.85 2.26,1.91 1.39,4.87 2.78,9.75 4.17,14.63z"/>
  </g>
  <path class="fil2 str1" d="M9874.71 3484.38c1559.46,353.85 2999.85,1359.25 2702.52,2378.68 -18.03,61.83 -1107.43,-937.14 -2369.8,-320.85 33.59,-1165.83 26.14,-1196.02 -215.87,-2045.01l-116.84 -12.82z"/>
  <path class="fil3" d="M10237.88 4799.13c839.66,75.31 2126.95,171.93 2330.37,1066.05 6.88,30.27 -251.37,-188.22 -658.65,-350.55 -435.76,-173.68 -1049.68,-290.98 -1702.19,27.58 29.49,-368.2 26.35,-348.85 33.59,-698.58l-3.13 -44.5z"/>
  <path class="fil2 str0" d="M1006.99 2893.21c579.76,-237.63 2047.92,-1356.11 2474.89,-1840.5 519.11,-588.91 979.15,-873.97 1885.1,-1012.99 1083.16,-166.27 2182.11,214.88 3052.46,996.81 537.28,482.73 1019.49,1047.94 1293.04,1707.95 685.53,1654.02 676.14,2571.34 133.65,4416.24 -71.64,243.83 -163.09,455.45 -263.42,688.89 -207.86,483.63 -428.36,955.42 -664.5,1420.48l-6307.16 0c747.01,-1485.44 1445.65,-2635.53 1291.62,-3050.12 -63.76,-171.63 -124.24,-263.66 -228.4,-329.78 -181.69,-115.41 -515.2,-150.32 -731.13,-196.57 -456.74,-97.85 -873.39,-211.42 -1307.47,-395 -181.6,-76.79 -327.4,-145.98 -478.24,-237.82 -122.51,-49.28 -236.51,-106.85 -341.58,-170.79 -1042.24,-634.2 -1193.58,-1899.1 191.14,-1996.79z"/>
  <path class="fil4" d="M993.52 4939.64c-144.13,-101.28 -255.64,-173.19 -377.12,-303.62 -661.86,-710.62 -87.29,-1217.7 676.29,-1238.57 252.79,-6.91 478.61,91.04 754.27,182.13 459.48,151.76 886.64,135.92 1319.65,-0.82 683.48,-215.83 1272.58,-798.8 2025.59,-1192.98 795.87,-416.58 1592.1,-500.21 2412.81,-71.16 2534.57,1324.9 1122.78,4631.9 14.42,6436.27l-318.95 519.18 -4889.06 0c748.91,-1490.26 1451.04,-2644.55 1296.66,-3060.07 -63.77,-171.63 -124.26,-263.66 -228.4,-329.79 -181.69,-115.38 -515.22,-150.31 -731.13,-196.56 -456.75,-97.84 -873.39,-211.44 -1307.48,-395.01 -247.91,-104.82 -429.15,-195.52 -647.54,-349z"/>
  <g id="_417720784">
   <path class="fil1" d="M5277.84 6780.9c766.45,152.69 1498.98,104.6 2006.71,-561.36 3.07,-4.03 8.87,-4.81 12.9,-1.74 4.03,3.07 4.81,8.87 1.74,12.9 -512.31,671.94 -1251.29,722.37 -2024.95,568.24 -4.97,-0.99 -8.22,-5.86 -7.23,-10.82 0.99,-4.97 5.86,-8.22 10.82,-7.23z"/>
  </g>
  <path class="fil5" d="M5276.04 6789.92c774.72,154.34 1507.52,101.91 2015.83,-564.8"/>
  <g id="_415867864">
   <path class="fil1" d="M5145.85 1872.85c-111.38,-173.34 -98.73,-262.77 -93.1,-458.47 4.72,-164.34 80.41,-318.49 200.35,-429.6 108.69,-100.68 257.82,-167.84 408.13,-153.16 84.2,8.23 160.45,41.63 224.58,96.69 193.57,166.16 161.53,554.84 105.18,777.8 -22.11,87.48 -328.14,166.19 -404.6,183.05 -100.98,22.27 -355.13,68.11 -437.94,-13.1l-1.48 -1.45 -1.12 -1.75z"/>
  </g>
  <path class="fil4" d="M5161.33 1862.91c-109.57,-170.53 -95.68,-257.1 -90.19,-447.99 12.11,-421.94 502.46,-730.4 802.69,-472.64 185.81,159.47 155.21,540.62 99.32,759.33 -24.88,100.84 -686.44,284.25 -811.82,161.3z"/>
  <path class="fil6" d="M5868.96 1779.63c-122.63,56.67 -329.45,111.74 -491.4,122.37 -38.62,-479.02 530.62,-610.94 497.03,-140.65l-5.63 18.28z"/>
  <ellipse class="fil4" cx="5730.97" cy="1642.77" rx="95.27" ry="91.18"/>
  <path class="fil1" d="M6648.13 2879.26c336.6,349.9 580.79,932.62 680.84,1401.67 78.73,369.23 97.09,775.84 -15.63,1140.09 -440.16,1422.62 -1520.78,1578.12 -2752.86,1044.72 -176.39,-76.36 -330.06,-185.9 -484.88,-297.9 -114.74,-83 -232.75,-169.5 -360.13,-234.26 -15.91,-13.53 -32.88,-26.01 -51.23,-37.67 -65.03,-41.3 -149.55,-72.31 -241.13,-97.2l64.21 -9.3c282.02,-40.83 563.68,-42.59 847.78,-48.42 255.59,-5.25 519.65,-13.9 768.52,-76.96 262.58,-66.53 508.45,-181.51 723.21,-347.19 739.4,-570.45 893.57,-1537.72 770.14,-2412.69l-12.89 -91.51 64.05 66.6z"/>
  <path class="fil7" d="M3491.6 5819.03c579.45,-83.9 1131.73,-2.45 1619.36,-125.99 1066.48,-270.19 1727.56,-1290.55 1515.63,-2793.06 461.89,480.16 924.6,1651.16 658.19,2512.2 -481.77,1557.09 -1689.48,1468.98 -2712.42,1026.12 -409.27,-177.18 -686.4,-530.56 -1080.76,-619.27z"/>
  <path class="fil4 str2" d="M5910.13 6711.22c-176.26,16.28 -358.62,5.35 -542.38,-26.16l3.07 -355.97 539.31 382.13z"/>
  <path class="fil4 str2" d="M6764.27 6328.93c-183.86,177.15 -393.1,285.99 -616.73,342.18l-29.34 -566.79 646.08 224.61z"/>
  <path class="fil4 str2" d="M7263.28 5507.26c-77.45,213.92 -169.99,393.01 -274.67,541.68l-226.3 -519.52 500.97 -22.16z"/>
  <path class="fil4 str2" d="M7358.82 4716.76c8.2,142.01 4.33,282.74 -14.02,418.92l-333.13 -267.6 347.15 -151.32z"/>
  <path class="fil4 str2" d="M6490.93 4456.23c77.09,-200.61 130.22,-421.8 156.35,-661.84l0.16 -0.1 431.66 607.38 -588.09 54.78 -0.07 -0.22z"/>
  <path class="fil4 str2" d="M6647.33 3794c14.53,-133.58 20.8,-272.93 18.08,-417.88l0.01 0 434.52 325.07 -452.51 93.09 -0.1 -0.28z"/>
  <path class="fil4 str2" d="M6661.69 3268.83c-5.74,-119.44 -23.67,-266.82 -41.51,-393.27 84.22,87.56 174.87,222.6 254.72,350.03l-213.08 43.38 -0.14 -0.14z"/>
  <path class="fil4 str2" d="M6145.76 5050.8c142.24,-170.57 258.64,-369.53 345.06,-594.28l0.19 -0.07 380.18 647.63 -725.42 -53.27 -0.01 -0.01z"/>
  <path class="fil4 str2" d="M5079.44 5700.68c10.53,-2.46 21.05,-4.99 31.52,-7.64 199.37,-50.51 384.56,-127.25 552.54,-228.44l0.01 0.02 86.62 712.88 -670.68 -476.81z"/>
  <path class="fil8 str2" d="M4435.45 5768.53l-13.02 594.71c-331.57,-187.54 -586.51,-466.77 -930.83,-544.21 325.4,-47.12 642.23,-42.09 943.85,-50.5z"/>
  <path class="fil4 str2" d="M4435.45 5768.53l617.86 529.75 26.15 -597.55 -0.02 -0.04c-204.46,47.92 -420.04,61.61 -644,67.85z"/>
  <path class="fil4 str2" d="M5100.82 6625.71l-297.54 -307.74 -71.94 185.52c121.76,47.18 245.39,88.64 369.48,122.22z"/>
  <path class="fil4 str2" d="M5663.51 5464.62l699.14 313.87 -216.88 -727.68 -0.03 0c-137.84,165.27 -299.86,303.93 -482.21,413.78l-0.02 0.03z"/>
  <g id="_415956312">
   <path class="fil1" d="M6959.81 3114.32c-119.55,-103.83 -247.37,-229.57 -384.65,-308.19 -120.3,-68.89 -267.24,-109.19 -399.26,-150.4 -4.84,-1.51 -7.55,-6.69 -6.04,-11.52 1.51,-4.84 6.69,-7.55 11.52,-6.04 133.59,41.7 281.16,82.26 402.92,151.99 138.72,79.44 266.85,205.41 387.58,310.28 3.83,3.31 4.24,9.15 0.91,12.98 -3.31,3.83 -9.15,4.24 -12.98,0.91z"/>
  </g>
  <path class="fil5" d="M6965.85 3107.37c-115.17,-100.02 -254.06,-233.61 -386.12,-309.23 -118.14,-67.65 -271.53,-110.74 -401.09,-151.19"/>
  <g id="_415960296">
   <path class="fil1" d="M2386.51 5124.53c-447.47,157.21 -809.33,82.03 -1241.03,-77.94 -4.75,-1.76 -7.19,-7.07 -5.43,-11.83 1.76,-4.75 7.07,-7.19 11.83,-5.43 427.49,158.4 785.4,233.5 1228.52,77.83 4.79,-1.68 10.06,0.85 11.73,5.63 1.68,4.79 -0.85,10.06 -5.63,11.73z"/>
  </g>
  <path class="fil5" d="M2383.45 5115.85c-445.58,156.54 -805.13,81.32 -1234.77,-77.89"/>
  <path class="fil1" d="M1008.01 2873.7c448.29,10.31 808.82,90.62 1216.27,279.25 7.48,3.47 10.74,12.39 7.29,19.87 -3.46,7.47 -12.38,10.73 -19.86,7.29 -401.57,-185.91 -756.42,-265.53 -1197.29,-276.34 -2.28,-0.05 -105.07,0.69 -107.38,0.68 -3.13,-0.04 99.03,-30.81 100.97,-30.76z"/>
  <path class="fil9" d="M4191.96 9270.07l40.48 -76.56c647.34,-1222.75 719.27,-1042.95 1150.83,-1978 431.55,-935.04 71.01,-2425.38 -1618.36,-2265.69 -1160.42,109.67 -2251.86,-570.73 -2806.25,-1004.63 -7.96,-0.19 8.42,3.07 0,0l-361.65 -354.03 -95.53 74.89c-1.45,-1.06 -32.33,29.76 -64.71,69.64 -40.56,49.94 -70.89,112.18 -80.23,140.49 -8.5,22.32 -9.08,18.65 -24.77,95.22 -15.71,76.52 -0.67,148.99 15.08,223.86l22.79 69.51c13.68,33.78 28.94,65.76 45.36,98.23 11.12,17.9 19.8,36.2 28,48.74 44.62,68.18 48.3,72.69 110.9,153.44 22,28.39 47.19,56.91 75.37,84.5 28.06,27.51 50.97,53.03 82.98,79.86 46.52,39.03 91.01,74.31 144,113.6 34.83,23.34 71.03,49.95 104.76,73.76 50.08,35.3 101.02,69.16 152.1,102.96 114.98,69.49 187.54,111.95 258.02,151.7 17.12,7.23 22.39,10.04 43.12,21.31 116.39,48.5 232.38,97.77 348.97,145.8 157.16,64.73 200.1,67.74 338.17,122.11 48.77,19.21 207.46,78.17 267.07,81.2l758.27 186.73c70.4,25.74 105.26,9.96 192.1,36.94 103.38,32.15 59.45,33.57 172.76,53.38 280.3,49.03 434.8,300.87 434.8,570.2 -5.02,91.83 -6.34,78.24 -27.7,179.89 -9.19,42.1 -6.21,33.06 -42.46,141.31 -36.65,109.42 -155.99,413.63 -207.37,518.63 -30.37,62.05 -74.7,143.13 -98.72,203.26l-519.79 1022.01c-142.13,270.49 -281.94,542.67 -419.11,815.75l1580.71 0z"/>
  <path class="fil10" d="M4191.82 9270.07l40.62 -76.56c647.34,-1222.75 719.27,-1042.95 1150.83,-1978 431.55,-935.04 71.02,-2425.38 -1618.36,-2265.69 -1160.42,109.69 -2227.2,-565.94 -2781.61,-999.84"/>
  <g id="_415958184">
   <path class="fil1" d="M3707.96 1972.12c-111.38,-173.34 -98.73,-262.77 -93.1,-458.47 4.72,-164.34 80.41,-318.49 200.35,-429.6 108.69,-100.68 257.82,-167.84 408.13,-153.16 84.2,8.23 160.45,41.63 224.58,96.69 193.57,166.16 161.53,554.84 105.18,777.8 -22.11,87.48 -328.14,166.19 -404.6,183.05 -100.98,22.27 -355.13,68.11 -437.94,-13.1l-1.48 -1.45 -1.12 -1.75z"/>
  </g>
  <path class="fil4" d="M3723.45 1962.18c-109.57,-170.53 -95.68,-257.1 -90.19,-447.99 12.11,-421.94 502.46,-730.4 802.69,-472.64 185.81,159.47 155.21,540.62 99.32,759.33 -24.88,100.84 -686.44,284.25 -811.82,161.3z"/>
  <path class="fil6" d="M4431.08 1878.9c-122.63,56.67 -329.45,111.74 -491.4,122.37 -38.62,-479.02 530.62,-610.94 497.03,-140.65l-5.63 18.28z"/>
  <ellipse class="fil4" cx="4293.09" cy="1742.04" rx="95.27" ry="91.18"/>
 </g>
</svg>
