<?xml version="1.0" encoding="UTF-8"?>
<!DOCTYPE svg PUBLIC "-//W3C//DTD SVG 1.1//EN" "http://www.w3.org/Graphics/SVG/1.1/DTD/svg11.dtd">
<!-- Creator: CorelDRAW 2018 (64-Bit) -->
<svg xmlns="http://www.w3.org/2000/svg" xml:space="preserve" width="3.99115in" height="5.00266in" version="1.1" style="shape-rendering:geometricPrecision; text-rendering:geometricPrecision; image-rendering:optimizeQuality; fill-rule:evenodd; clip-rule:evenodd"
viewBox="0 0 5150.7 6456.08"
 xmlns:xlink="http://www.w3.org/1999/xlink">
 <defs>
  <style type="text/css">
   <![CDATA[
    .str0 {stroke:#2B2A29;stroke-width:8.96;stroke-miterlimit:2.61313}
    .fil0 {fill:none}
    .fil5 {fill:#FEFEFE}
    .fil6 {fill:#FEFEFE}
    .fil17 {fill:#C5C6C6}
    .fil10 {fill:#B2B3B3}
    .fil11 {fill:#9D9E9E}
    .fil12 {fill:#898989}
    .fil9 {fill:#898989}
    .fil16 {fill:#727271}
    .fil3 {fill:#5B5B5B}
    .fil7 {fill:#2B2A29}
    .fil1 {fill:#2B2A29}
    .fil8 {fill:#E31E24}
    .fil4 {fill:#00A0E3}
    .fil2 {fill:#0084B9}
    .fil13 {fill:#C8C8C9;fill-rule:nonzero}
    .fil15 {fill:#888B8A;fill-rule:nonzero}
    .fil14 {fill:#616363;fill-rule:nonzero}
   ]]>
  </style>
 </defs>
 <g id="Layer_x0020_1">
  <metadata id="CorelCorpID_0Corel-Layer"/>
  <path class="fil0" d="M4856.39 1514.18l8.57 -4.44c11.54,-5.98 23.12,-11.89 34.74,-17.73l15.69 -7.88 10.46 -5.2 17.5 -8.62 13.21 -6.45 18.23 -8.81 18.27 -8.73 18.32 -8.64 18.37 -8.58 9.19 -4.24 19.5 -8.95c11.91,-5.47 23.88,-10.83 35.86,-16.17 10.26,-4.58 20.66,-8.84 30.94,-13.38 14.54,-6.43 27.63,-15.34 25.2,-33.1 -2.42,-17.7 -17.24,-22.84 -32.99,-24.99 -11.29,-1.54 -22.64,-2.65 -33.96,-4.03 -420.5,-51.45 -849.87,0.02 -1263.1,82.12 -94.83,18.84 -186.29,50.89 -279.24,76.9 -74.95,20.97 -158.78,40.32 -236.66,27.11 -60.01,-10.18 -109.21,-38.61 -152.16,-81.13 -0.64,-0.63 -1.1,-1.24 -1.53,-2.02 -77.52,-139.81 -183.41,-262.95 -299.42,-372.21 -1.87,-1.76 -2.82,-3.98 -2.81,-6.54 0.01,-2.47 0.01,-4.93 0.01,-7.4 -0.01,-7.45 -0.04,-14.91 -0.12,-22.36 -0.08,-7.42 -0.2,-14.83 -0.36,-22.25 -0.15,-7.37 -0.35,-14.74 -0.59,-22.11 -0.24,-7.33 -0.5,-14.66 -0.83,-21.99 -0.33,-7.29 -0.68,-14.57 -1.08,-21.84 -0.41,-7.24 -0.84,-14.48 -1.33,-21.71 -0.49,-7.19 -1.02,-14.37 -1.59,-21.56 -0.57,-7.14 -1.19,-14.27 -1.85,-21.41 -0.66,-7.09 -1.36,-14.17 -2.12,-21.25 -0.75,-7.04 -1.54,-14.07 -2.39,-21.1 -0.84,-6.98 -1.73,-13.96 -2.67,-20.92 -0.93,-6.93 -1.92,-13.85 -2.95,-20.76 -1.03,-6.87 -2.1,-13.74 -3.24,-20.6 -1.13,-6.81 -2.3,-13.61 -3.53,-20.4 -1.22,-6.76 -2.49,-13.5 -3.82,-20.23 -1.32,-6.7 -2.69,-13.38 -4.13,-20.05 -1.42,-6.63 -2.9,-13.25 -4.44,-19.86 -3.04,-13.09 -6.3,-26.14 -9.8,-39.12 -1.74,-6.43 -3.53,-12.85 -5.38,-19.26 -1.84,-6.36 -3.74,-12.71 -5.7,-19.03 -1.95,-6.3 -3.96,-12.58 -6.04,-18.83 -2.06,-6.22 -4.19,-12.43 -6.37,-18.61 -2.17,-6.15 -4.42,-12.28 -6.72,-18.39 -2.29,-6.08 -4.64,-12.13 -7.06,-18.16 -2.4,-6 -4.88,-11.98 -7.41,-17.93 -2.53,-5.91 -5.11,-11.81 -7.76,-17.67 -2.64,-5.85 -5.36,-11.67 -8.13,-17.45 -2.76,-5.76 -5.59,-11.49 -8.49,-17.19 -2.89,-5.68 -5.85,-11.33 -8.87,-16.94 -3.01,-5.59 -6.09,-11.15 -9.23,-16.68 -3.14,-5.51 -6.36,-10.98 -9.63,-16.42 -3.27,-5.42 -6.61,-10.81 -10.01,-16.14 -3.4,-5.32 -6.86,-10.61 -10.39,-15.86 -3.53,-5.25 -7.13,-10.44 -10.8,-15.59 -3.67,-5.15 -7.4,-10.24 -11.19,-15.29 -3.8,-5.06 -7.66,-10.07 -11.59,-15.01 -3.93,-4.95 -7.93,-9.85 -12,-14.7 -4.08,-4.86 -8.23,-9.67 -12.43,-14.42 -4.21,-4.75 -8.48,-9.45 -12.81,-14.08 -4.35,-4.65 -8.77,-9.25 -13.26,-13.78 -4.5,-4.56 -9.06,-9.04 -13.69,-13.47 -4.64,-4.44 -9.34,-8.82 -14.1,-13.13 -4.78,-4.33 -9.63,-8.6 -14.53,-12.8 -4.93,-4.23 -9.93,-8.38 -14.98,-12.47 -5.08,-4.12 -10.22,-8.16 -15.42,-12.13 -5.23,-4 -10.51,-7.93 -15.85,-11.78 -5.38,-3.88 -10.82,-7.69 -16.3,-11.42 -5.54,-3.77 -11.13,-7.46 -16.76,-11.08 -5.69,-3.65 -11.42,-7.22 -17.21,-10.72 -5.84,-3.53 -11.73,-6.98 -17.67,-10.34 -6,-3.4 -12.04,-6.73 -18.12,-9.97 -6.16,-3.28 -12.36,-6.49 -18.61,-9.61 -6.31,-3.15 -12.67,-6.22 -19.06,-9.22 -6.47,-3.03 -12.98,-5.96 -19.53,-8.83 -6.64,-2.9 -13.31,-5.72 -20.01,-8.45 -6.79,-2.77 -13.63,-5.44 -20.48,-8.04 -6.96,-2.64 -13.96,-5.19 -20.98,-7.66 -7.12,-2.5 -14.28,-4.91 -21.47,-7.25 -7.29,-2.36 -14.61,-4.65 -21.95,-6.84 -7.45,-2.23 -14.93,-4.36 -22.43,-6.43 -7.63,-2.09 -15.29,-4.09 -22.97,-6.02 -7.79,-1.95 -15.61,-3.82 -23.45,-5.6l-1.55 -0.35 -10.34 -2.24c-26.68,-5.48 -53.62,-9.76 -80.7,-12.63l-7.97 -0.84c-3.07,-0.33 -5.55,-2.02 -6.99,-4.75 -14.26,-27.28 -60.84,-38.67 -89.11,-39.89 -29.05,-1.25 -80.55,6.65 -94.54,36.26 -1.43,3.02 -4.18,4.89 -7.51,5.1 -34.4,2.19 -68.74,5.76 -102.8,11.09l-7.87 1.23c-110.6,17.29 -236.03,55.25 -321.43,130.4l-1.97 1.74c-1.57,1.41 -3.13,2.84 -4.67,4.28 -92.53,86.46 -165.83,187.17 -208.93,306.91 -44.87,124.64 -51.98,255.74 -37.51,386.56 0.22,1.98 -0.15,3.74 -1.15,5.46 -57.26,98.84 -322.51,159.23 -429.18,197.66 -0.46,0.16 -0.85,0.27 -1.33,0.37 -43.22,8.39 -85.37,29.16 -102.95,72.01 -19.59,47.75 0.44,101.43 27.38,141.94 28.17,42.35 67.64,78.29 109.47,106.92 2.5,1.71 3.89,4.32 3.89,7.36 0.01,3.04 -1.37,5.65 -3.87,7.38 -25.22,17.39 -50.67,34.45 -76.39,51.09 -52.28,33.83 -106.3,68.43 -163.8,92.74 -0.92,0.39 -1.77,0.6 -2.77,0.68 -123.6,9.79 -260.21,56.32 -305.15,184.11 -28.2,80.22 -9.3,169.03 29.37,242.35 47.61,90.28 126.19,164.56 212.8,217.27 32.95,20.05 67.55,37.36 103.28,51.9 0.46,0.18 0.83,0.37 1.25,0.62 45.94,27.74 94.56,50.48 143.94,71.37 127.48,53.91 260.42,90.62 395.55,119.56 62.05,13.29 157.41,21.78 210.33,55.39 31.57,20.05 45.59,52.33 58.11,86.02 4.38,11.79 5.13,25.63 4.64,38.14 -0.12,3.15 -1.71,5.8 -4.44,7.38 -139.76,81.46 -340.25,23.29 -483.97,-21.04 -159.61,-49.23 -256.66,-62.91 -399.64,37.97 -23.6,16.65 -46.01,34.96 -67.21,54.56 -2.24,2.06 -5.09,2.83 -8.05,2.15 -2.97,-0.67 -5.21,-2.59 -6.33,-5.42l-65.21 -163.97c-0.13,-0.33 -0.23,-0.62 -0.33,-0.97 -0.19,-0.69 -0.4,-1.38 -0.65,-2.05 -0.84,-2.36 -1.68,-4.73 -2.51,-7.1 -1.06,-3.03 -0.5,-6.15 1.54,-8.63 15.01,-18.25 29.74,-36.4 40.57,-57.57 3.9,-7.63 7.18,-15.57 9.83,-23.72 35.57,-109.66 -42.29,-239.81 -153.35,-265.78 -9.22,-2.16 -18.67,0.89 -24.91,8.02 -6.2,7.09 -7.97,16.95 -4.62,25.76 2.3,6.03 4.52,12.09 6.72,18.15 0.13,0.37 0.23,0.69 0.32,1.07 7.55,33.02 17.28,65.49 27.16,97.88 0.99,3.25 0.16,6.54 -2.24,8.94 -15.06,15.02 -30.55,29.64 -45.12,45.15 -4.65,4.95 -9.19,9.99 -13.71,15.05 -1.96,2.19 -4.6,3.22 -7.52,2.94 -3.81,-0.37 -7.62,-0.74 -11.42,-1.12 -24.56,-2.46 -49.23,-3.38 -73.9,-3.73 -3.31,-0.05 -6.13,-1.74 -7.72,-4.65 -2.52,-4.6 -5.12,-9.17 -7.83,-13.66 -0.11,-0.17 -0.19,-0.33 -0.29,-0.51 -15.76,-30.51 -29.81,-61.85 -44.52,-92.87 -4,-8.43 -12.07,-13.9 -21.39,-14.47 -9.21,-0.57 -18.07,3.95 -23.01,11.74 -75.93,119.61 -3.37,286.26 135.12,314.13 7.35,1.47 14.7,2.9 22.11,4.02 2.77,0.42 5.56,0.69 8.35,0.91 3.48,0.27 6.31,2.37 7.6,5.61l114.32 287.45c1.06,2.66 0.85,5.4 -0.61,7.86 -46.56,78.58 -82.83,164.56 -106.4,252.8 -4.87,18.26 -10.07,36.5 -13.4,55.12 -3.03,16.92 -3.7,35.99 12.99,45.96 17.99,10.74 35.89,-1.43 50.33,-12.34 14.68,-11.1 28.89,-22.8 43.34,-33.98l0.55 -0.43c0.18,-0.13 0.35,-0.27 0.36,-0.27l11.08 -8.47 76.4 -59.06 8.83 -6.7c2.3,-1.74 5.02,-2.27 7.8,-1.49 2.78,0.78 4.84,2.63 5.91,5.31l57.76 145.25c1.16,3.25 2.32,6.49 3.48,9.74 0.97,2.7 0.65,5.45 -0.91,7.86 -70.76,109.43 -40.28,260.44 96.06,295.03 8.99,2.28 18.43,-0.48 24.78,-7.25 6.39,-6.81 8.51,-16.31 5.63,-25.2 -9.08,-28.07 -18.79,-55.94 -26.96,-84.3 -0.06,-0.19 -0.1,-0.36 -0.14,-0.56 -0.78,-3.54 -1.62,-7.06 -2.51,-10.57 -0.81,-3.18 0.07,-6.32 2.41,-8.61 14.63,-14.28 28.94,-28.91 42.32,-44.37 1.62,-1.87 3.25,-3.75 4.87,-5.62 1.93,-2.22 4.56,-3.29 7.5,-3.04 5.06,0.43 10.12,0.83 15.19,1.13 17.38,1.03 34.8,1.06 52.21,1.49 3.4,0.08 6.27,1.91 7.79,4.95 12.57,25.26 25.3,50.48 39.62,74.82 0.19,0.33 0.34,0.62 0.5,0.97 2.15,4.97 4.28,9.94 6.35,14.95 3.62,8.78 11.59,14.69 21.04,15.61 9.44,0.91 18.41,-3.37 23.64,-11.28 27.99,-42.37 37.76,-91.63 24.04,-140.91 -19.93,-71.55 -83.85,-125.7 -154.85,-142.99 -2.56,-0.62 -4.52,-2.14 -5.77,-4.46 -0.66,-1.22 -1.32,-2.45 -1.99,-3.67 -0.18,-0.34 -0.33,-0.64 -0.46,-0.99l-71.04 -178.62c-0.99,-2.46 -0.87,-4.97 0.33,-7.34 1.2,-2.37 3.15,-3.94 5.72,-4.61l3.99 -1.04 3.02 -0.74 3.19 -0.74c1.77,-0.41 3.55,-0.8 5.34,-1.16l3.44 -0.69 2.77 -0.52 2.96 -0.52 3.28 -0.54 2.06 -0.3 3.91 -0.54 3.07 -0.39 2.85 -0.32 3.24 -0.33 3.83 -0.32 3.86 -0.26 4.28 -0.23 3.35 -0.12 5.35 -0.1 2.2 -0.01 4.8 0.05 3.17 0.08 2.41 0.1 2.84 0.14 2.78 0.17 4.61 0.35 5.51 0.54 4.33 0.5 4.92 0.67 1.84 0.27 5.12 0.83 4.57 0.83 5.99 1.22 5.83 1.32c1.56,0.35 3.1,0.76 4.65,1.15l1.45 0.37 4.87 1.32 6.31 1.84 6.17 1.95 4.74 1.6 6.87 2.45 4.74 1.8c0.17,0.06 0.18,0.06 0.35,0.13l5.81 2.32 1.02 0.42c1.76,0.73 3.52,1.47 5.26,2.23 1.93,0.83 3.86,1.68 5.62,2.48 0.16,0.07 0.32,0.14 0.56,0.24l0.35 0.15c1.69,0.77 3.37,1.54 5.05,2.34l0.19 0.09c1.87,0.89 3.75,1.76 5.6,2.68l6.21 3.08 5.85 3.01 5.85 3.11 6.35 3.48 5.4 3.04 6.35 3.68 6.1 3.64 5.79 3.54 5.97 3.73 6.07 3.89 5.84 3.83 5.78 3.86 4.32 2.94 7.87 5.45 5.61 3.96 4.51 3.23 7.43 5.43 5.8 4.31 6.19 4.67 3.36 2.58 6.02 4.65 6.35 4.96 5.79 4.6 5.76 4.62 5.85 4.76 6.07 4.98 6.46 5.38 6.84 5.75 7.79 6.64 8.09 6.98 11.27 9.85 8.35 7.4 10.01 8.97c9.18,8.22 18.26,16.54 27.29,24.92l11.03 10.25 9.51 8.89 16.41 15.45 53.71 50.87c2.94,2.78 3.65,7 1.8,10.59 -156.15,302.52 -306.39,609.32 -414.05,932.99 -110.15,331.19 -179.68,691.61 -126.82,1040.37 21.92,144.64 65.02,284.84 130.63,415.69 148.01,295.17 240.7,409.54 530.47,574.24 407.37,231.54 833.24,160.96 1259.1,27.22 0.58,-0.19 1.17,-0.39 1.74,-0.61 130.04,-51.51 257.22,-130.68 370.72,-211.96 112.97,-80.9 227.38,-174.65 318.69,-280.01 10.98,-12.01 21.82,-24.16 32.37,-36.55 1.77,-2.07 4.11,-3.15 6.83,-3.14 2.72,0.01 5.06,1.1 6.81,3.18 270.95,321.46 670.42,545.54 1080.56,637.03 48.59,10.84 63.86,13.11 110.19,29.97 11.82,4.3 25.26,-0.87 31.15,-12 5.92,-11.19 2.66,-25.1 -7.62,-32.5 -400.47,-288.06 -654.12,-698.79 -746.88,-1182.03 -34.58,-180.09 -45.56,-364.47 -35.6,-547.5 24.79,-455.49 180.81,-919.62 448.78,-1289.88 7.91,-10.92 5.9,-26.11 -4.56,-34.61 -10.35,-8.41 -25.82,-7.26 -34.8,2.61 -56.18,51.68 -113.64,90.97 -173.59,139.57 -327.64,265.64 -597.02,612.03 -737.48,1010.88 -102.04,289.76 -130.57,595.81 -79.03,898.91 0.68,4.01 -1.32,7.85 -5,9.59 -10.55,4.97 -20.8,10.58 -30.78,16.6 -121.69,73.5 -248.66,144.37 -386.2,183.29 -113.85,32.22 -227.83,39.62 -344.88,22.12 -95.64,-14.3 -205.54,-48.26 -248.42,-144.07 -44,-98.34 -6.67,-237.68 23.94,-335.87 37.52,-120.39 87.44,-236.66 141.92,-350.25 60.14,-125.39 126.47,-247.72 195.36,-368.49 84.38,-147.93 172.92,-293.42 261.37,-438.93 178.94,-294.36 337.18,-601.1 473.2,-917.59 12.56,-29.22 25.1,-58.47 36.99,-87.97 0.68,-1.68 1.68,-2.95 3.16,-3.98 23.58,-16.54 46.35,-34.2 68.66,-52.41 102.87,-84.01 195.97,-179.17 289.13,-273.59 74.57,-75.57 148.54,-151.78 226.33,-224.08 59.92,-55.69 124.48,-113.57 195.97,-153.91 0.3,-0.17 0.57,-0.3 0.89,-0.44 128.56,-54.77 227.81,-8.56 332.9,69.02 42.38,31.29 83.52,64.2 125.43,96.11 11.65,8.87 23.1,18 34.57,27.1 6.28,4.98 12.35,10.29 18.96,14.85 12.75,8.77 29.9,16.66 44.67,7.83 16.69,-9.97 16.01,-29.03 12.99,-45.95 -3.33,-18.62 -8.52,-36.86 -13.39,-55.11 -45.48,-170.28 -152.63,-365.76 -294.07,-474.23 -2.24,-1.72 -3.45,-4.13 -3.5,-6.95 -0.05,-2.82 1.08,-5.27 3.26,-7.06 84.8,-69.76 172.8,-135.66 264.05,-196.78 102.42,-68.61 208.75,-131.33 317.71,-188.95 0.07,-0.04 0.13,-0.07 0.19,-0.1"/>
  <g id="_2696278375152">
   <path class="fil1" d="M4101.1 3381c-269.75,372.71 -426.93,840.19 -451.89,1298.64 -10.03,184.36 1.05,370.1 35.87,551.5 93.54,487.27 349.35,901.63 753.44,1192.29 3.4,2.45 4.64,6.79 3.04,10.67 -1.6,3.88 -5.54,6.08 -9.69,5.42 -461.4,-74.23 -923.05,-320.38 -1217.35,-687.24 -0.64,-0.79 -1.07,-1.55 -1.41,-2.5 -38.43,-104.27 -76.84,-208.54 -115.26,-312.81 -0.18,-0.5 -0.3,-0.93 -0.4,-1.45 -58.12,-311.11 -31.48,-625.47 73.51,-923.69 165.24,-469.37 509.81,-866.03 917.86,-1143.46 3.62,-2.46 8.39,-1.98 11.45,1.16 3.05,3.14 3.39,7.92 0.83,11.47z"/>
  </g>
  <path class="fil2" d="M3106.24 5433.88c-156.53,-837.85 314.02,-1600.13 987.62,-2058.12 -624.85,863.36 -696.4,2309.85 339.44,3054.94 -456.55,-73.45 -917.4,-317.03 -1211.79,-684.01 -38.42,-104.27 -76.84,-208.54 -115.26,-312.81z"/>
  <path class="fil3 str0" d="M854.56 1358.94l164 61.84c0,0 206.45,-170.54 209.71,-196.27 3.26,-25.73 -268.86,-51.08 -268.86,-51.08l-185.52 10.76 16.13 115.61 64.53 59.15z"/>
  <g id="_2696278385552">
   <path class="fil1" d="M1457.09 2654.81c-10.22,85.29 -60.95,194.75 -97.62,272.14 -62.61,132.18 -132.39,261.99 -199.76,391.84 -1.33,2.56 -3.57,4.2 -6.41,4.69 -2.84,0.49 -5.5,-0.29 -7.62,-2.26 -104.51,-97.2 -239.09,-236.52 -370.26,-293.16 -135.21,-58.39 -240.33,-11.37 -350.82,70.2 -42.45,31.34 -83.65,64.3 -125.62,96.26 -16.1,12.27 -31.69,25.25 -47.82,37.42 -7.75,5.85 -21.82,17.4 -31.96,11.34 -9.36,-5.59 -6.81,-20.05 -5.22,-28.92 3.19,-17.83 8.42,-36.26 13.1,-53.77 49.12,-183.92 161.17,-377.56 318.8,-488.77 138.87,-97.98 228.6,-84.02 385.3,-35.69 154.38,47.61 366.45,108.13 512.05,10.21 2.97,-2 6.61,-2.08 9.65,-0.21 3.05,1.86 4.64,5.14 4.22,8.69z"/>
  </g>
  <path class="fil2" d="M235.71 3162.89c52.73,-197.42 170.06,-381.28 315.32,-483.77 129.49,-91.36 209.32,-86.31 377.51,-34.45 170,52.44 374.72,106.58 519.67,9.08 -15.77,131.64 -143.6,366.4 -296.44,660.93 -98.61,-91.71 -241.74,-238.22 -372.81,-294.82 -143.65,-62.03 -254.11,-6.73 -359.68,71.21 -43.32,31.98 -83.89,64.48 -125.72,96.34 -76.09,57.94 -85.78,80.08 -57.85,-24.52z"/>
  <g id="_2696278384144">
   <path class="fil1" d="M3137.24 1437.46c46.12,46.78 99.29,78.09 164.46,89.14 80.42,13.64 166.49,-5.85 243.85,-27.49 92.84,-25.97 183.15,-57.76 278.01,-76.6 410.4,-81.54 840.45,-133 1257.9,-81.92 11.22,1.37 22.53,2.47 33.73,4 7.02,0.96 17.68,1.99 18.91,10.91 1.23,9 -9.02,12.93 -15.54,15.81 -10.29,4.55 -20.7,8.82 -30.99,13.4 -198.2,88.46 -390.01,189.64 -571.03,309.63 -154.3,102.29 -297.28,216.41 -433.7,341.43 -141.84,129.98 -274.98,269.22 -407.19,408.86 -153.52,162.15 -306.25,324.25 -464.94,481.45 -2.99,2.97 -7.5,3.46 -11.07,1.21 -3.56,-2.25 -5.06,-6.53 -3.67,-10.51 5.86,-16.84 11.34,-33.82 16.37,-50.93 68.44,-232.74 129.57,-477.32 115.65,-721.82 -11.81,-207.43 -76.3,-402.25 -155.3,-592.85 -14.62,-35.28 -31.28,-69.68 -49.65,-103.15 -2.16,-3.94 -1.1,-8.79 2.5,-11.48 3.6,-2.68 8.56,-2.3 11.71,0.89z"/>
  </g>
  <path class="fil2" d="M3130.87 1443.73c193.28,196.02 425.29,41.01 694.44,-12.45 409.7,-81.42 840.1,-132.59 1255.07,-81.82 61.32,7.5 57.15,3.18 3.54,27.09 -915.59,408.63 -1189.56,859.69 -1879.51,1543.18 5.82,-16.71 11.34,-33.75 16.51,-51.35 162.23,-551.69 165.04,-826 -39.97,-1320.62 -14.75,-35.59 -31.54,-70.26 -50.08,-104.02l0.01 -0.01z"/>
  <g id="_2696278387216">
   <path class="fil1" d="M5051.15 1401.14c-190.21,86.75 -374.08,185.65 -547.86,302.05 -149.29,100 -288,211.23 -420.41,332.57 -141.85,129.98 -275,269.22 -407.22,408.87 -153.53,162.15 -306.26,324.25 -464.95,481.46 -2.99,2.97 -7.5,3.46 -11.07,1.21 -3.56,-2.25 -5.06,-6.53 -3.67,-10.51 5.86,-16.84 11.34,-33.82 16.37,-50.93 68.44,-232.77 129.56,-477.34 115.62,-721.85 -3.6,-63.2 -12,-125.82 -24.56,-187.85 -0.44,-2.17 -0.13,-4.18 0.95,-6.12l0.03 -0.05c131.93,-237.46 568.84,-378.83 815.51,-443.49 180.62,-47.35 367.46,-82.92 552.81,-105.63 73.72,-9.03 148.17,-16.17 222.38,-19.4 49.57,-2.16 104.18,-3.47 153.48,2.65 4.03,0.5 7.12,3.51 7.74,7.52 0.61,4.01 -1.43,7.81 -5.13,9.49z"/>
  </g>
  <path class="fil4" d="M3312.18 1954.34c228.02,-415.96 1455.17,-596.08 1735.26,-561.34l0.05 0.01c-886.53,404.3 -1162.38,852.38 -1843.08,1526.72 5.82,-16.71 11.34,-33.75 16.51,-51.35 112.56,-382.78 148.33,-632.04 91.24,-913.99l0.03 -0.05z"/>
  <g id="_2696278386448">
   <path class="fil1" d="M1340.46 2966.48c-57.78,118.53 -120.01,235.27 -180.75,352.32 -1.33,2.56 -3.57,4.2 -6.41,4.69 -2.84,0.49 -5.5,-0.29 -7.62,-2.26 -104.51,-97.2 -239.09,-236.52 -370.26,-293.16 -135.21,-58.39 -240.33,-11.37 -350.82,70.2 -42.45,31.34 -83.65,64.3 -125.62,96.26 -11.74,8.94 -23.25,18.13 -34.82,27.29 -3.31,2.63 -7.86,2.61 -11.15,-0.04 -3.29,-2.64 -4.29,-7.08 -2.44,-10.88 82.49,-169.84 211.7,-364.83 402.36,-422.85 85.89,-26.13 173.09,-20.91 258.06,6.11 47.94,15.24 93.1,34.44 138.08,56.82 36.88,18.35 72.99,38.46 110.34,55.79 57.18,26.54 110.59,41.98 173.71,46.87 3.04,0.24 5.55,1.82 7.07,4.48 1.52,2.65 1.62,5.61 0.28,8.36z"/>
  </g>
  <path class="fil5" d="M1332.42 2962.56c-50.3,103.17 -113.02,221.79 -180.65,352.12 -98.61,-91.71 -241.74,-238.22 -372.81,-294.82 -143.65,-62.03 -254.11,-6.73 -359.68,71.21 -43.32,31.98 -83.89,64.48 -125.72,96.34 -13.77,10.49 -25.36,19.79 -34.96,27.4 151.88,-312.68 363.16,-503.23 649.66,-412.13 183.31,58.28 250.21,146.41 424.15,159.88z"/>
  <path class="fil1" d="M575.61 1583.43c57.41,-23.74 118.2,-62.04 170.21,-95.7 74.61,-48.28 147.39,-100.28 218.4,-153.7 69.68,-52.43 138.35,-106.82 204.59,-163.54 48.24,-41.3 100.24,-86.88 142.25,-134.54 168.74,-191.43 314.69,-266.81 569.06,-305.85 79.07,-12.13 159.53,-14.68 239.22,-7.84 255.46,21.93 491.51,137.95 680.91,308.12 159.85,143.61 305.92,313.64 388.95,513.97 79.81,192.56 144.7,389.11 156.63,598.67 14.05,246.78 -47.27,492.96 -116.34,727.89 -21.03,71.52 -49.77,138.68 -79.14,207.01 -136.06,316.57 -293.13,621.05 -472.15,915.54 -88.54,145.65 -177.14,291.26 -261.6,439.33 -69.03,121.02 -135.65,243.88 -195.91,369.52 -54.58,113.79 -105.22,231.89 -142.8,352.47 -31.94,102.5 -69.37,244.38 -23.24,347.49 45.47,101.62 159.13,138.4 261.01,153.63 285.44,42.68 503.72,-63.66 742.02,-207.6 56.5,-34.13 113.52,-48.96 176.14,-20.2 96.8,44.46 106.54,149.73 55.68,235 -34.74,58.23 -68.75,100.57 -114.28,150.37 -155.79,179.77 -462.34,399.93 -682.87,487.27 -0.21,0.09 -0.4,0.15 -0.61,0.22 -422.57,132.71 -841.43,204.14 -1246.04,-25.83 -291.84,-165.87 -375.85,-272.08 -523.89,-567.3 -64.99,-129.6 -107.36,-267.54 -129.07,-410.78 -52.41,-345.76 16.98,-704.44 126.16,-1032.71 123.94,-372.63 302.64,-719.03 483.43,-1066.22 36.02,-69.18 72.05,-138.41 106.73,-208.27 28.48,-57.38 56.42,-115.56 80.93,-174.77 22.33,-53.96 66.9,-166.52 45.21,-224.9 -14.03,-37.77 -29.71,-71.95 -64.71,-94.18 -53.8,-34.17 -152.57,-44.06 -215.71,-57.59 -135.48,-29.02 -264.7,-64.54 -392.59,-118.63 -49.66,-21 -97.41,-43.3 -143.55,-71.33 -35.57,-14.35 -70,-31.52 -102.77,-51.45 -83.97,-51.1 -160.6,-123.29 -206.79,-210.88 -36.59,-69.39 -55.14,-153.17 -28.4,-229.22 43.02,-122.37 177.23,-164.9 294.93,-173.47z"/>
  <path class="fil2" d="M577.68 1592.24c173.37,-71.06 612.4,-405.53 740.08,-550.38 155.23,-176.11 292.8,-261.35 563.71,-302.92 323.91,-49.72 652.53,64.26 912.8,298.08 160.67,144.36 304.86,313.38 386.67,510.74 205,494.61 202.19,768.93 39.97,1320.62 -21.43,72.91 -48.77,136.2 -78.77,206 -135.99,316.4 -290.06,615.82 -471.57,914.43 -220.97,363.49 -488.16,800.57 -601.2,1163.31 -73.14,234.7 -97.79,461.4 244.99,512.62 283.56,42.41 496.93,-57.15 747.97,-208.79 52.98,-32 106.97,-47.65 167.78,-19.73 82.89,38.07 105.97,131.38 51.73,222.3 -34.36,57.62 -58.03,88.58 -113.36,149.1 -163.14,188.24 -475.72,404.14 -679.41,484.82 -420.33,132 -835.7,204.13 -1238.94,-25.07 -298.1,-169.42 -376.72,-277.22 -520.32,-563.54 -594.49,-1185.6 826.77,-2812.65 713.78,-3116.76 -19.07,-51.32 -37.16,-78.84 -68.3,-98.62 -54.33,-34.51 -154.07,-44.95 -218.63,-58.78 -136.58,-29.26 -261.17,-63.22 -390.98,-118.12 -54.3,-22.96 -97.9,-43.65 -143.01,-71.12 -36.63,-14.73 -70.73,-31.95 -102.14,-51.07 -311.67,-189.65 -356.92,-567.9 57.16,-597.11z"/>
  <g id="_2696278389296">
   <path class="fil1" d="M566.9 2214.5c-41.6,-29.24 -79.12,-54.37 -114.18,-92.01 -58.45,-62.76 -113.7,-152.8 -77.9,-240.64 13.41,-32.91 37.51,-59.53 66.12,-80.11 61.73,-44.41 145.43,-62.61 220.32,-64.66 79.16,-2.16 154.76,30.51 228.6,54.91 131.91,43.57 257.54,41.27 389.13,-0.28 105.17,-33.21 202.11,-95.69 292.73,-157.25 102.26,-69.46 201.68,-141.39 311.54,-198.89 241.57,-126.45 483.19,-150.2 729.8,-21.28 763.01,398.86 343.19,1391.28 7.79,1937.29 -122.89,200.06 -246.21,399.87 -365.01,602.39 -111.46,190.01 -219.29,382.6 -317.81,579.67 -92.89,185.79 -178.44,377.04 -246.45,573.22 -62.79,194.64 -115.8,424.08 -50.26,624.82 42.61,130.51 128.64,231.61 235.7,314.97 230.81,179.7 520.67,114.18 773.33,24.67 42.4,-15.02 86.98,-39.59 125.95,-61.98 53.94,-30.98 106.69,-64.8 158.02,-99.91 60.9,-41.66 121.61,-86.14 177.75,-133.73 14.1,-12.52 91.04,-82.15 112.39,-61.31 19.59,19.12 -38.41,85.86 -49.24,99.09 -155.79,179.77 -462.34,399.93 -682.87,487.27 -0.21,0.09 -0.4,0.15 -0.61,0.22 -422.57,132.71 -841.43,204.14 -1246.04,-25.83 -291.84,-165.87 -375.85,-272.08 -523.89,-567.3 -64.99,-129.6 -107.36,-267.54 -129.07,-410.78 -52.41,-345.76 16.98,-704.44 126.16,-1032.71 123.94,-372.63 302.64,-719.03 483.43,-1066.22 36.02,-69.18 72.05,-138.41 106.73,-208.27 28.48,-57.38 56.42,-115.56 80.93,-174.77 22.33,-53.96 66.9,-166.52 45.21,-224.9 -14.03,-37.77 -29.71,-71.95 -64.71,-94.18 -53.8,-34.17 -152.57,-44.06 -215.71,-57.59 -135.48,-29.02 -264.7,-64.54 -392.6,-118.63 -71.3,-30.15 -131.77,-60.64 -195.3,-105.28z"/>
  </g>
  <path class="fil6" d="M572.04 2207.18c-43.11,-30.29 -76.45,-51.79 -112.77,-90.79 -124.08,-133.22 -102.89,-242.81 -13.1,-307.39 53.08,-38.19 130.15,-60.65 215.34,-62.98 75.59,-2.07 143.12,27.22 225.55,54.46 137.4,45.38 265.13,40.65 394.62,-0.24 204.39,-64.55 380.55,-238.87 605.73,-356.74 238,-124.57 476.1,-149.58 721.52,-21.28 757.93,396.19 335.75,1385.11 4.31,1924.68 -345.14,561.85 -729.98,1179.74 -930.16,1757.21 -132.59,411.02 -123.27,706.89 188.46,949.6 235.21,183.11 527.46,116.16 781.81,26.04 105.96,-37.53 332.62,-185.42 464.68,-297.36 93.91,-83.43 147.5,-93.29 50.46,25.24 -163.14,188.24 -475.72,404.14 -679.41,484.82 -420.33,132 -835.7,204.13 -1238.94,-25.07 -298.1,-169.42 -376.72,-277.22 -520.32,-563.54 -594.49,-1185.6 826.77,-2812.65 713.78,-3116.76 -19.07,-51.32 -37.16,-78.84 -68.3,-98.62 -54.33,-34.51 -154.07,-44.95 -218.63,-58.78 -136.58,-29.26 -261.17,-63.22 -390.98,-118.12 -74.14,-31.35 -128.33,-58.47 -193.64,-104.37z"/>
  <g id="_2696279621312">
   <path class="fil1" d="M1858.16 2751.4c228.52,45.53 446.98,31.36 598.38,-167.23 1.49,-1.96 4.31,-2.34 6.27,-0.84 1.96,1.49 2.34,4.31 0.84,6.27 -153.64,201.51 -375.19,216.8 -607.24,170.57 -2.41,-0.48 -3.99,-2.85 -3.51,-5.26 0.48,-2.41 2.85,-3.99 5.26,-3.51z"/>
  </g>
  <path class="fil0" d="M1857.28 2755.78c231.67,46.15 450.81,30.47 602.81,-168.9"/>
  <g id="_2696279622976">
   <path class="fil1" d="M1719.27 1262.34c-33.76,-52.54 -30.09,-79.79 -28.39,-139.06 1.44,-50.07 24.46,-97.04 61.01,-130.89 33.23,-30.78 78.78,-51.19 124.72,-46.7 25.88,2.53 49.35,12.8 69.06,29.73 59.09,50.72 49.77,167.89 32.55,236.04 -7.17,28.39 -98.91,51.81 -123.58,57.26 -31.76,7.01 -108.08,20.7 -134.11,-4.82l-0.72 -0.71 -0.54 -0.85z"/>
  </g>
  <path class="fil6" d="M1726.79 1257.5c-32.77,-51 -28.62,-76.88 -26.97,-133.97 3.62,-126.18 150.26,-218.42 240.03,-141.34 55.56,47.69 46.41,161.67 29.7,227.07 -7.44,30.15 -205.27,85 -242.76,48.24z"/>
  <path class="fil7" d="M1938.4 1232.6c-36.67,16.94 -98.52,33.41 -146.95,36.59 -11.55,-143.24 158.67,-182.69 148.63,-42.06l-1.68 5.47z"/>
  <ellipse class="fil6" cx="1897.14" cy="1191.67" rx="28.49" ry="27.27"/>
  <g id="_2696279625440">
   <path class="fil1" d="M4101.1 3381c-269.75,372.71 -426.93,840.19 -451.89,1298.64 -10.03,184.36 1.05,370.1 35.87,551.5 93.54,487.27 349.35,901.63 753.44,1192.29 3.65,2.63 4.78,7.47 2.68,11.44 -2.1,3.97 -6.74,5.76 -10.96,4.22 -83.41,-30.37 -164.83,-53.83 -240.9,-101.46 -353.15,-221.18 -643.89,-508.89 -768,-915.28 -250.04,-818.74 128.1,-1461.92 665.9,-2052.62 3.2,-3.51 8.57,-3.91 12.25,-0.92 3.69,3 4.39,8.34 1.61,12.18z"/>
  </g>
  <path class="fil4" d="M4093.85 3375.76c-527.46,579.34 -915.45,1220.48 -663.96,2043.98 109.46,358.39 357.59,655.66 764.19,910.31 76.5,47.91 154.51,69.8 239.21,100.64 -1035.84,-745.09 -964.29,-2191.58 -339.44,-3054.94z"/>
  <path class="fil1" d="M2267.59 1586.35c100.66,104.63 173.68,278.89 203.59,419.15 23.54,110.41 29.03,232.01 -4.67,340.93 -131.62,425.42 -454.77,471.92 -823.21,312.41 -52.75,-22.83 -98.7,-55.59 -145,-89.08 -34.31,-24.82 -69.6,-50.69 -107.69,-70.05 -4.76,-4.05 -9.83,-7.78 -15.32,-11.26 -19.45,-12.35 -44.72,-21.62 -72.11,-29.07l19.2 -2.78c84.34,-12.21 168.56,-12.74 253.52,-14.48 76.43,-1.57 155.39,-4.16 229.82,-23.01 78.52,-19.9 152.04,-54.28 216.27,-103.83 221.11,-170.58 267.21,-459.83 230.3,-721.48l-3.86 -27.37 19.15 19.92z"/>
  <path class="fil8" d="M1323.67 2465.45c173.28,-25.09 338.43,-0.73 484.25,-37.67 318.92,-80.8 516.6,-385.92 453.23,-835.23 138.12,143.58 276.49,493.76 196.82,751.24 -144.07,465.63 -505.22,439.28 -811.11,306.85 -122.39,-52.98 -205.26,-158.66 -323.19,-185.19z"/>
  <path class="fil1" d="M1970.67 2350.48c53.01,-32.26 100.02,-72.82 139.8,-120.51 43.6,-52.29 77.29,-111.71 101.7,-175.18l0.64 -1.66c23.77,-62.32 38.4,-127.84 45.61,-194.09l0.18 -1.67c4.34,-40.59 5.95,-81.46 5.19,-122.26l-0.34 -18.36 152.79 114.3 2.24 7.02 -135.78 27.93 130.14 183.11 -177.32 16.52 115.2 196.24 -221.01 -16.23 66.74 223.92 -212.44 -95.38 26.44 217.58 -203.67 -144.79 -7.91 180.64 -184.36 -158.07 -3.81 173.88 -13.07 -7.39c-70.4,-39.82 -134.98,-99.88 -206.96,-136.27 -4.77,-4.06 -9.85,-7.8 -15.35,-11.29 -18.94,-12.03 -43.41,-21.15 -69.98,-28.48 -0.74,-0.2 -1.48,-0.41 -2.23,-0.61l2.96 -0.43 16.33 -2.37c94.11,-13.63 187.64,-12.54 282.32,-15.16l2.01 -0.06c61.96,-1.74 125,-5.36 185.63,-19.07l4.1 -0.96c3.09,-0.72 6.18,-1.46 9.27,-2.25 57.25,-14.51 112.18,-36.8 162.8,-67.3l2.15 -1.3zm77.06 390.72c-54.84,5.06 -110.35,1.38 -164.54,-7.92l-7.53 -1.3 1.13 -131.28 195.11 138.25 -24.18 2.24zm260.82 -116.8c-53.43,51.48 -116.56,86.5 -188.47,104.57l-10.59 2.66 -10.03 -193.74 219.62 76.36 -10.53 10.15zm143.66 -235.16c-20.88,57.69 -47.85,113.83 -83.23,164.1l-9.2 13.06 -79.27 -181.99 176.28 -7.79 -4.57 12.63zm36.87 -253.93c2.44,42.31 1.41,84.97 -4.26,126.99l-2.12 15.77 -123.6 -99.29 129.24 -56.33 0.74 12.86zm-226.41 -432.03c-1.86,-38.8 -6.91,-78.31 -12.34,-116.78l-3.88 -27.49 19.25 20.01c29.09,30.24 55.02,70.56 77.31,106.13l6.88 10.98 -81.15 16.52 -5.91 -5.91 -0.17 -3.47zm-460.13 1012.07c-37.76,-10.22 -74.92,-22.71 -111.39,-36.84l-8.38 -3.25 29.84 -76.94 121.38 125.54 -31.46 -8.51z"/>
  <path class="fil6" d="M2046.9 2732.25c-52.71,4.87 -107.24,1.6 -162.19,-7.82l0.92 -106.45 161.27 114.27z"/>
  <path class="fil6" d="M2302.32 2617.93c-54.98,52.97 -117.55,85.52 -184.42,102.32l-8.77 -169.49 193.2 67.17z"/>
  <path class="fil6" d="M2443.77 2386.18c-23.16,63.97 -50.83,117.52 -82.14,161.98l-67.67 -155.36 149.81 -6.63z"/>
  <path class="fil6" d="M2480.11 2135.83c2.45,42.47 1.3,84.55 -4.19,125.27l-99.62 -80.02 103.81 -45.25z"/>
  <path class="fil6" d="M2220.58 2057.92c23.05,-59.99 38.94,-126.13 46.75,-197.91l0.05 -0.03 129.08 181.63 -175.86 16.38 -0.02 -0.07z"/>
  <path class="fil6" d="M2267.35 1859.89c4.34,-39.95 6.22,-81.61 5.41,-124.96l0.01 0 129.94 97.21 -135.32 27.84 -0.03 -0.09z"/>
  <path class="fil6" d="M2271.65 1702.85c-1.72,-35.72 -7.08,-79.79 -12.41,-117.6 25.19,26.18 52.29,66.56 76.17,104.67l-63.72 12.97 -0.04 -0.04z"/>
  <path class="fil6" d="M2117.36 2235.72c42.54,-51.01 77.35,-110.5 103.19,-177.71l0.06 -0.02 113.69 193.67 -216.93 -15.93 -0.01 -0.01z"/>
  <path class="fil6" d="M1798.49 2430.06c3.15,-0.74 6.3,-1.49 9.42,-2.29 59.62,-15.11 115,-38.05 165.23,-68.31l0.01 0.01 25.9 213.18 -200.56 -142.58z"/>
  <path class="fil5" d="M1605.92 2450.35l-3.89 177.84c-99.15,-56.08 -175.39,-139.58 -278.35,-162.74 97.31,-14.09 192.05,-12.59 282.24,-15.1z"/>
  <path class="fil6" d="M1605.92 2450.35l184.76 158.42 7.82 -178.69 -0.01 -0.01c-61.14,14.33 -125.61,18.42 -192.58,20.29z"/>
  <path class="fil6" d="M1804.89 2706.68l-88.98 -92.02 -21.51 55.48c36.41,14.11 73.38,26.51 110.49,36.55z"/>
  <path class="fil6" d="M1973.15 2359.47l209.07 93.86 -64.85 -217.6 -0.01 0c-41.22,49.42 -89.67,90.89 -144.2,123.73l-0.01 0.01z"/>
  <g id="_2696279632992">
   <path class="fil1" d="M2359.67 1657.94c-35.64,-30.95 -73.83,-68.53 -114.75,-91.96 -35.84,-20.53 -79.72,-32.55 -119.05,-44.83 -2.35,-0.73 -3.67,-3.25 -2.94,-5.6 0.73,-2.35 3.25,-3.67 5.6,-2.94 40.1,12.52 84.28,24.67 120.83,45.6 41.61,23.83 79.96,61.52 116.17,92.98 1.86,1.61 2.06,4.45 0.44,6.31 -1.61,1.86 -4.45,2.06 -6.31,0.44z"/>
  </g>
  <path class="fil0" d="M2362.6 1654.57c-34.44,-29.91 -75.97,-69.86 -115.46,-92.47 -35.33,-20.23 -81.2,-33.12 -119.94,-45.21"/>
  <g id="_2696279633216">
   <path class="fil1" d="M1228.43 889.94c-0.17,-0.54 -0.28,-1.1 -0.35,-1.69 -31.9,-275.16 37.71,-496.39 240.6,-685.99 97.68,-91.28 260.38,-128.76 390.02,-141.19 0.18,-0.02 0.34,-0.03 0.51,-0.04l158.3 -6.02c2.02,-0.08 3.8,0.43 5.24,1.35 56.08,2.13 113.81,8.09 168.5,20.52 498.27,113.2 645.47,509.06 640.72,986.5 -0.04,3.61 -2.07,6.67 -5.38,8.11 -3.31,1.44 -6.94,0.83 -9.6,-1.6l-28.75 -26.27c-185.95,-169.91 -419.67,-283.44 -672.26,-304.02 -76.01,-6.19 -152.7,-3.76 -228.14,7.42 -4.26,7.6 -12.35,15.29 -15.49,18.84 -17.12,19.41 -34.96,38.38 -52.69,57.24 -54.95,58.45 -110.69,116.23 -166.32,174.04 -72.73,75.57 -147.63,151.14 -218.12,228.7 -0.17,0.18 -0.32,0.34 -0.49,0.5 -104.74,98.32 -127.28,134.04 -271.85,71.02 -44.63,-19.45 -92,-35.95 -138.61,-49.94 -45.41,-13.63 -95.13,-26.61 -142.3,-31.87 -14.45,-1.61 -63.24,-6.03 -72.23,9.69 -14.25,24.91 69.59,98.32 83.88,110.73 9.62,8.35 21.44,15.87 32.09,22.8 2.54,1.65 3.97,4.21 4.06,7.24 0.09,3.02 -1.2,5.67 -3.64,7.46 -19.51,14.34 -39.12,28.54 -58.86,42.56 -2.91,2.06 -6.53,2.24 -9.62,0.47 -53.11,-30.42 -106.02,-73.1 -140.18,-124.46 -23.72,-35.65 -43.23,-84.24 -25.86,-126.58 15.6,-38.02 54.71,-55.41 92.76,-62.46 112.91,-41.2 386.96,-101.11 442.7,-211.06 0.38,-0.75 0.83,-1.41 1.36,-2z"/>
  </g>
  <path class="fil9" d="M1881.48 738.94c15.29,-2.35 -364.82,384.02 -452.86,480.88 -102.6,96.31 -120.9,130.92 -262.16,69.35 -158.67,-69.16 -538.48,-171.91 -278.7,53.55 6.17,5.35 14.62,11.53 33.08,23.54 -19.64,14.44 -39.27,28.65 -58.74,42.48 -174.32,-99.85 -235.33,-268.02 -75.37,-297.09 125.17,-45.86 390.53,-101.69 448.32,-215.68 252.88,-105.31 316.94,-105.11 534.38,-139.65 48.29,-8 54.35,-8.53 112.05,-17.39zm136.38 -674.99c0.4,-0.02 0.04,0.79 0.04,1.19 63.45,2.18 122.44,9.34 171.38,20.46 394.65,89.66 639.79,371.85 633.76,977.69l-28.75 -26.27c-260.27,-233.82 -588.89,-347.8 -912.8,-298.08 -287.6,44.15 -350.89,25.99 -644.52,148.27 -37.88,-326.76 76.04,-527.24 237.83,-678.42 87.72,-81.97 236.23,-124.58 384.77,-138.82l158.3 -6.02z"/>
  <path class="fil10" d="M779.67 1114.3c121.94,-46.37 396.48,-102.13 455.38,-218.31 253.02,-105.37 317.01,-105.11 534.75,-139.71l-0.37 0.06c-18.49,28.46 -375.09,374.68 -409.07,401.37 -104.72,82.27 -166.43,27.33 -319.55,-16.46 -6.86,-1.96 -13.61,-3.84 -20.25,-5.61l-0.3 -0.08c-6.45,-1.73 -12.8,-3.37 -19.04,-4.92l-1.11 -0.28c-5.9,-1.46 -11.71,-2.86 -17.43,-4.17l-2.02 -0.46c-5.51,-1.25 -10.93,-2.44 -16.26,-3.56l-2.05 -0.43c-5.26,-1.09 -10.44,-2.11 -15.52,-3.06l-2.61 -0.48c-4.75,-0.87 -9.41,-1.69 -14.01,-2.45l-2.92 -0.48c-4.5,-0.72 -8.93,-1.4 -13.28,-2.01l-3.19 -0.44c-4.12,-0.56 -8.17,-1.07 -12.16,-1.54l-3.93 -0.44c-3.65,-0.4 -7.24,-0.76 -10.78,-1.08l-4.38 -0.38c-3.53,-0.29 -7,-0.54 -10.41,-0.75l-3.76 -0.21c-3.2,-0.17 -6.34,-0.3 -9.43,-0.4l-4.94 -0.13c-2.61,-0.05 -5.18,-0.08 -7.71,-0.09l-5.72 0.04c-2.31,0.03 -4.59,0.08 -6.84,0.16 -2.06,0.07 -4.08,0.16 -6.09,0.26 -1.83,0.09 -3.63,0.2 -5.42,0.32 -2.32,0.16 -4.59,0.35 -6.83,0.55l-3.49 0.35c-2.45,0.25 -4.88,0.54 -7.25,0.85l-2.92 0.41 -0.49 0.08c-2.62,0.39 -5.19,0.81 -7.7,1.26l-0.29 0.05 -2.74 0.52 -0.08 0.02c-2.58,0.51 -5.1,1.06 -7.56,1.64l-0.3 0.07 0.05 -0.07z"/>
  <path class="fil1" d="M854.14 1414.38c-50.23,-30.51 -98.63,-71.52 -131,-120.23 -24.13,-36.33 -44.46,-86.36 -26.37,-129.46 45.6,-108.66 267.19,-54.74 346.5,-32.04 42.57,12.18 83.29,27.48 125.22,41.23 29,9.51 60.64,18.7 91.46,17.22 36.38,-1.74 66.76,-18.33 94.89,-40.42 8.69,-6.83 17.48,-15.36 25.61,-22.89 16.18,-14.98 32.2,-30.15 48.17,-45.36 44.55,-42.4 88.75,-85.19 132.77,-128.14 44.8,-43.73 89.49,-87.65 133.59,-132.1 15.5,-15.62 30.98,-31.31 46.11,-47.29 5.86,-6.18 16.31,-16.44 20.86,-23.44 1.42,-2.18 3.47,-3.53 6.04,-3.95 37.35,-6.19 74.74,-11.66 112.15,-17.41 2.97,-0.45 5.98,0.48 8.1,2.64 9.01,9.17 -10.54,27.1 -15.86,33.12 -17.12,19.41 -34.96,38.38 -52.69,57.24 -54.95,58.45 -110.69,116.23 -166.32,174.04 -72.73,75.57 -147.63,151.14 -218.12,228.7 -0.17,0.18 -0.32,0.34 -0.49,0.5 -104.74,98.32 -127.28,134.04 -271.85,71.02 -44.64,-19.45 -92,-35.95 -138.61,-49.94 -45.41,-13.63 -95.13,-26.61 -142.3,-31.87 -14.45,-1.61 -63.24,-6.03 -72.23,9.69 -14.25,24.91 69.59,98.32 83.88,110.73 9.53,8.27 23.63,16.94 35.29,24.38 6.26,3.99 9.52,4.07 0.32,10.83 -19.5,14.34 -39.12,28.54 -58.86,42.56 -6.66,4.73 -10.19,4.31 -16.24,0.64z"/>
  <path class="fil11" d="M1428.62 1219.82c-102.6,96.31 -120.9,130.92 -262.16,69.35 -158.67,-69.16 -538.48,-171.91 -278.7,53.55 6.17,5.35 14.62,11.53 33.08,23.54 -19.64,14.44 -39.27,28.65 -58.74,42.48 -235.39,-134.83 -264.17,-394.22 178.7,-267.5 153.12,43.81 214.84,98.73 319.55,16.46 33.99,-26.69 390.58,-372.92 409.07,-401.37 48.29,-8 54.35,-8.53 112.05,-17.39 15.29,-2.35 -364.82,384.02 -452.86,480.88z"/>
  <ellipse class="fil12 str0" transform="matrix(1.05348 0.0454599 -0.0431118 0.99907 1995.84 55.5232)" rx="75.28" ry="38.99"/>
  <path class="fil1" d="M2816.95 1069.85c-9.48,-8.81 -19.03,-17.53 -28.65,-26.17 -186.5,-167.55 -418.93,-282.01 -670.49,-303.6 -78.28,-6.72 -157.32,-4.22 -234.98,7.71 -58.18,8.93 -116.41,16.51 -174.8,23.85 -44.85,5.64 -89.79,11.22 -134.33,19.03 -117.27,20.57 -223.66,59.14 -333.31,104.81 -2.68,1.11 -5.46,0.92 -7.96,-0.54 -2.5,-1.47 -4.03,-3.8 -4.36,-6.68 -31.9,-275.16 37.71,-496.39 240.6,-685.99 159.53,-149.08 518.74,-171.68 722.57,-125.37 498.27,113.2 645.47,509.06 640.72,986.5 -0.04,3.62 -2.08,6.69 -5.41,8.12 -3.33,1.43 -6.97,0.8 -9.62,-1.67z"/>
  <path class="fil11" d="M2823.04 1063.3c6.03,-605.84 -239.11,-888.03 -633.76,-977.69 -196.58,-44.66 -555.45,-25.43 -714.49,123.19 -161.78,151.18 -275.71,351.66 -237.83,678.42 293.63,-122.29 356.92,-104.13 644.52,-148.27 323.91,-49.72 652.53,64.26 912.8,298.08 9.65,8.67 19.24,17.42 28.75,26.27l0.01 0z"/>
  <g id="_2696279636960">
   <path class="fil1" d="M963.29 2259.39c-134.22,47.15 -242.79,24.67 -372.28,-23.32 -2.31,-0.85 -3.5,-3.43 -2.64,-5.75 0.85,-2.31 3.43,-3.5 5.75,-2.64 127.44,47.22 234.1,69.67 366.21,23.27 2.33,-0.82 4.89,0.41 5.7,2.73 0.82,2.33 -0.41,4.89 -2.73,5.7z"/>
  </g>
  <path class="fil0" d="M961.81 2255.17c-133.24,46.81 -240.76,24.32 -369.24,-23.29"/>
  <path class="fil1" d="M580.99 1584.69c134.05,3.08 241.87,27.1 363.71,83.51 2.24,1.04 3.21,3.7 2.18,5.94 -1.04,2.24 -3.7,3.21 -5.94,2.18 -120.09,-55.59 -226.2,-79.4 -358.04,-82.63 -0.68,-0.02 -31.42,0.21 -32.11,0.2 -0.93,-0.01 29.62,-9.21 30.2,-9.2z"/>
  <g id="_2696279640032">
   <path class="fil1" d="M4184.97 1904.99c167.64,94.79 293.08,318.58 341.84,501.13 4.68,17.51 9.91,35.94 13.09,53.77 1.59,8.87 4.14,23.33 -5.22,28.92 -12.56,7.5 -35.8,-14.2 -44.96,-21.46 -11.56,-9.16 -23.08,-18.35 -34.82,-27.29 -41.97,-31.96 -83.17,-64.92 -125.62,-96.26 -110.49,-81.57 -215.61,-128.58 -350.82,-70.2 -130.59,56.39 -272.36,185.19 -375.62,282.72 -95.5,90.21 -186.15,187.32 -284.59,274.36 -15.65,13.13 -31.07,26.54 -46.4,40.05 -52.95,46.7 -106.17,97.36 -163.15,138.92 -35.39,25.82 -91.55,62.53 -137.63,48.73 -39.42,-11.81 -57.68,-55.44 -67.43,-91.67 -40.64,-150.91 -9.58,-350.95 35.13,-498.09 50.28,-165.42 159.74,-397.32 328.7,-469.67 19.56,-8.37 39.46,-14.46 60.47,-17.86 58.97,-9.54 134.79,2.02 194.6,6.86 149.11,12.06 248.1,-77.9 380.51,-118.67 101.92,-31.38 189.54,-16.52 281.9,35.71z"/>
  </g>
  <path class="fil2" d="M4180.57 1912.78c154.75,87.5 284.87,298.23 337.6,495.65 22.88,85.67 20.52,86.32 -22.89,51.92 -9.59,-7.6 -21.19,-16.91 -34.96,-27.4 -41.84,-31.86 -82.4,-64.36 -125.72,-96.34 -105.56,-77.94 -216.04,-133.23 -359.68,-71.21 -131.06,56.6 -279.6,192.72 -378.21,284.43 -100.24,96.12 -196.75,196.69 -284.2,274.01 -173.46,145.56 -344.72,346.73 -400.23,140.56 -76.35,-283.5 92.88,-843.38 358.73,-957.21 73.6,-31.52 127.72,-20.27 250.83,-10.31 248.44,20.1 378.96,-242.29 658.73,-84.09z"/>
  <g id="_2696279640512">
   <path class="fil1" d="M3501.95 2372.7c12.84,-11.87 26.2,-23.36 38.69,-35.85 90.93,-87.4 188.05,-171.1 300.44,-229.85 337.5,-176.41 543.83,24.49 662.59,350.27 1.39,3.82 0.12,7.94 -3.17,10.31 -3.29,2.38 -7.61,2.28 -10.79,-0.24 -11.56,-9.16 -23.08,-18.35 -34.82,-27.29 -41.97,-31.96 -83.17,-64.92 -125.62,-96.26 -107.23,-79.16 -219.57,-143.57 -350,-70.6 -71.17,39.82 -141.13,101.72 -200.74,157.12 -77.85,72.35 -152.2,148.92 -226.84,224.57 -91.95,93.18 -186.43,189.58 -287.83,272.4 -65.01,53.09 -164.55,126.57 -251.26,131.89 -65.41,4.01 -92.63,-31.79 -108.97,-92.47 -58,-215.39 -27.1,-454.64 90.06,-645.32 1.98,-3.21 5.53,-4.8 9.24,-4.12 3.71,0.68 6.47,3.43 7.17,7.13 14.98,79.03 49.74,224.91 143.35,247.17 53.63,12.76 113.96,-17.04 158.17,-44.7 67.62,-42.3 131.84,-100.09 190.33,-154.18z"/>
  </g>
  <path class="fil6" d="M3508.02 2379.26c12.01,-11.11 27.34,-24.49 38.82,-35.96 154.29,-148.31 673.73,-636.52 948.43,117.04 -9.59,-7.6 -21.18,-16.91 -34.96,-27.4 -41.84,-31.86 -82.4,-64.36 -125.72,-96.34 -105.56,-77.94 -223.13,-147.6 -359.68,-71.21 -275.45,154.1 -710.99,769.42 -962.85,784.87 -45.73,2.8 -79.78,-11.58 -99.79,-85.87 -70.61,-262.25 1.79,-496.29 89.05,-638.31 76.91,405.77 283.36,259.73 506.7,53.19z"/>
  <g id="_2696279641920">
   <path class="fil1" d="M105.37 2387.47c5.3,8.73 10.15,17.72 14.8,26.81 29.21,0.18 58.45,0.88 87.53,3.8 8.09,0.81 16.19,1.59 24.29,2.35 7.32,-8.12 14.52,-16.36 22.01,-24.33 17.89,-19.05 37.17,-36.72 55.34,-55.49 -0.22,-1.01 -0.45,-2.02 -0.67,-3.03 -11.11,-36.38 -22.35,-72.78 -30.75,-109.91 -2.41,-6.64 -4.84,-13.28 -7.35,-19.88 -1.2,-3.17 -0.61,-6.51 1.63,-9.06 2.23,-2.56 5.46,-3.6 8.77,-2.82 101.93,23.83 173.95,144.42 141.43,244.67 -2.37,7.33 -5.31,14.45 -8.82,21.31 -12.52,24.48 -30.47,44.49 -47.64,65.59 2.36,6.94 4.73,13.88 7.21,20.78 0.21,0.58 0.34,1.09 0.43,1.69l268.67 675.56c2.76,5.04 5.45,10.11 8.02,15.24 69.61,12.74 134.6,64.42 153.91,133.76 12.44,44.67 3.45,89.02 -21.92,127.42 -1.87,2.84 -4.94,4.3 -8.32,3.97 -3.38,-0.33 -6.11,-2.35 -7.41,-5.49 -2.3,-5.59 -4.69,-11.14 -7.1,-16.68 -16.7,-28.23 -31.18,-57.69 -45.77,-87.04 -0.34,-0.55 -0.67,-1.11 -0.99,-1.66 -22.27,-0.97 -44.58,-0.64 -66.84,-1.96 -9.21,-0.55 -18.4,-1.43 -27.6,-2.17 -4.48,5.1 -8.94,10.23 -13.39,15.36 -16.35,18.88 -34.1,36.47 -52.11,53.75 2.4,8.22 4.61,16.5 6.42,24.87 8.26,28.8 18.13,57.12 27.36,85.62 1.03,3.18 0.3,6.43 -1.98,8.87 -2.29,2.44 -5.48,3.37 -8.72,2.55 -131.85,-33.45 -151.8,-180.6 -79.38,-280.19 -2.6,-7.61 -5.32,-15.13 -7.94,-22.46l-270.03 -678.95c-0.19,-0.47 -0.34,-0.94 -0.44,-1.41 -1.6,-3.76 -3.18,-7.53 -4.78,-11.29 -7.54,-1 -15.3,-1.02 -22.82,-2.17 -7.15,-1.09 -14.26,-2.46 -21.35,-3.89 -126.79,-25.52 -194.6,-178.71 -124.48,-289.16 1.79,-2.82 4.76,-4.34 8.1,-4.14 3.34,0.21 6.1,2.07 7.53,5.1 14.91,31.44 29.17,63.22 45.17,94.13z"/>
  </g>
  <path class="fil13" d="M52.12 2297.17c15,31.63 29.38,63.65 45.45,94.68 6.2,10.2 11.75,20.7 17.08,31.34 30.83,0.13 61.6,0.72 92.16,3.79 9.6,0.96 19.21,1.87 28.8,2.77 8.34,-9.16 16.45,-18.53 24.91,-27.53 18.96,-20.19 39.5,-38.85 58.58,-58.87 -0.58,-2.67 -1.19,-5.35 -1.77,-8.03 -11.15,-36.52 -22.43,-72.99 -30.82,-110.18 -2.5,-6.87 -4.99,-13.71 -7.59,-20.53 110.21,25.77 173.36,162.1 126.69,253.2 -12.88,25.34 -32.14,45.95 -49.74,67.87 2.92,8.53 5.8,17.08 8.86,25.59l0.15 1.01 269.26 677.03c3.53,6.42 6.94,12.89 10.12,19.47 112.69,17.77 202.92,138.64 130.54,248.2 -2.4,-5.82 -4.88,-11.59 -7.39,-17.35 -16.75,-28.25 -31.25,-57.79 -45.89,-87.25 -1.21,-2.01 -2.42,-4.04 -3.63,-6.08 -23.8,-1.25 -47.71,-0.79 -71.52,-2.18 -10.63,-0.66 -21.25,-1.71 -31.89,-2.52 -5.49,6.22 -10.95,12.49 -16.4,18.78 -17.32,20 -36.27,38.57 -55.48,56.92 2.96,9.8 5.71,19.68 7.87,29.73 8.29,28.93 18.24,57.49 27.53,86.2 -125.62,-31.87 -144.71,-173.87 -71.61,-269.94 -3.06,-9.19 -6.35,-18.25 -9.6,-27.33l-270.03 -678.95 0.16 -0.01c-2.45,-5.79 -4.91,-11.63 -7.37,-17.42 -9.1,-1.82 -19.13,-1.66 -27.78,-2.99 -7.04,-1.07 -14.03,-2.32 -20.94,-3.82 -117.11,-23.46 -187.36,-167.44 -118.69,-275.61z"/>
  <path class="fil14" d="M290.01 2562.32c28.45,-11.31 57.12,-4.1 65.27,16.38l247.08 621.27c8.16,20.52 -7.74,45.42 -36.19,56.74 -28.45,11.33 -57.12,4.12 -65.26,-16.38l-247.1 -621.29c-8.14,-20.48 7.75,-45.4 36.2,-56.72z"/>
  <path class="fil15" d="M561.13 3244.02c20.61,-8.21 33.69,-26.06 28.54,-39.01l-247.1 -621.27c-5.13,-12.93 -26.91,-16.95 -47.52,-8.74 -20.63,8.18 -33.71,26.08 -28.56,39.01l247.09 621.28c5.14,12.95 26.91,16.92 47.55,8.74z"/>
  <path class="fil16" d="M1881.59 737.34c4.98,-168.03 60.24,-328.94 112.19,-487.14 8.18,-24.9 18.11,-49.25 26.09,-74.12 5.08,-15.81 9.98,-34.19 7.14,-50.87 -4.04,-23.71 -25.37,-44.56 -43.9,-57.92 -0.97,-0.69 -1.84,-1.89 -2.43,-2.85 9.53,-0.06 19.02,0.31 28.3,0.43 16.56,14.33 31.87,35.04 35.66,57.32 6.38,37.47 -21.96,97.3 -33.87,133.58 -51.17,155.85 -106.05,315.13 -111.25,480.59 -5.94,0.8 -11.89,1.64 -17.83,2.55 -0.08,-0.51 -0.11,-1.04 -0.09,-1.58z"/>
  <path class="fil17" d="M1408.11 277.51c-107.86,123.53 -181.31,280.11 -178.34,500.88l0.01 0.56c1.91,-1.19 3.98,-2.44 6.33,-3.84 120.63,-83.11 351.47,-113.74 498.97,-103.03 27.43,-231.59 48.84,-382.76 100.06,-453.2 -119.47,-2.87 -292.66,11.88 -427.02,58.64z"/>
  <path class="fil6" d="M1531.57 451.84c54.2,-45.03 31.16,-100.67 -11.28,-104.23 -47.45,-3.97 -84.11,1.37 -117.06,13.23l-68.5 278.39c50.63,-4.65 94.97,-8.28 151.61,-23.19 99.94,-26.31 144.58,-138.53 45.23,-164.2zm-114.06 6.83c14.05,-1.51 67.34,-5.03 78.65,-11.56 50.27,-29.08 27.5,-74.81 -16.98,-75.7 -15.38,-0.3 -31.59,1.7 -47.36,7.3l-14.31 79.97zm-33.35 138.25l28.76 -105c33.12,-7.86 52.9,-10.4 73.94,-10.65 73.56,-0.88 67.7,74.1 4.67,97.42 -29.64,10.96 -59.57,16.08 -107.37,18.24z"/>
 </g>
</svg>
