<?xml version="1.0" encoding="UTF-8"?>
<!DOCTYPE svg PUBLIC "-//W3C//DTD SVG 1.1//EN" "http://www.w3.org/Graphics/SVG/1.1/DTD/svg11.dtd">
<!-- Creator: CorelDRAW 2018 (64-Bit) -->
<svg xmlns="http://www.w3.org/2000/svg" xml:space="preserve" width="8.26667in" height="11.6933in" version="1.1" style="shape-rendering:geometricPrecision; text-rendering:geometricPrecision; image-rendering:optimizeQuality; fill-rule:evenodd; clip-rule:evenodd"
viewBox="0 0 8266.67 11691.43"
 xmlns:xlink="http://www.w3.org/1999/xlink">
 <defs>
  <style type="text/css">
   <![CDATA[
    .str0 {stroke:#2B2A29;stroke-width:6.94;stroke-miterlimit:2.61313}
    .fil0 {fill:none}
    .fil5 {fill:#FEFEFE}
    .fil6 {fill:#FEFEFE}
    .fil17 {fill:#C5C6C6}
    .fil10 {fill:#B2B3B3}
    .fil11 {fill:#9D9E9E}
    .fil12 {fill:#898989}
    .fil9 {fill:#898989}
    .fil16 {fill:#727271}
    .fil3 {fill:#5B5B5B}
    .fil7 {fill:#2B2A29}
    .fil1 {fill:#2B2A29}
    .fil8 {fill:#E31E24}
    .fil4 {fill:#00A0E3}
    .fil2 {fill:#0084B9}
    .fil13 {fill:#C8C8C9;fill-rule:nonzero}
    .fil15 {fill:#888B8A;fill-rule:nonzero}
    .fil14 {fill:#616363;fill-rule:nonzero}
   ]]>
  </style>
 </defs>
 <g id="Layer_x0020_1">
  <metadata id="CorelCorpID_0Corel-Layer"/>
  <rect class="fil0" x="977.65" y="2883.36" width="6282.2" height="5920.54"/>
  <path class="fil0" d="M6349.83 4517.86l6.64 -3.44c8.94,-4.63 17.92,-9.22 26.91,-13.73l12.16 -6.1 8.1 -4.03 13.56 -6.68 10.23 -5 14.12 -6.82 14.15 -6.76 14.19 -6.7 14.23 -6.64 7.12 -3.29 15.1 -6.94c9.23,-4.24 18.5,-8.39 27.78,-12.53 7.95,-3.55 16.01,-6.85 23.97,-10.37 11.26,-4.98 21.41,-11.89 19.52,-25.64 -1.88,-13.71 -13.36,-17.7 -25.56,-19.36 -8.75,-1.19 -17.54,-2.05 -26.31,-3.12 -325.8,-39.86 -658.46,0.01 -978.62,63.62 -73.47,14.6 -144.34,39.43 -216.35,59.58 -58.07,16.25 -123.02,31.24 -183.36,21 -46.5,-7.88 -84.61,-29.91 -117.89,-62.86 -0.49,-0.49 -0.85,-0.96 -1.18,-1.57 -60.06,-108.32 -142.1,-203.73 -231.98,-288.38 -1.45,-1.36 -2.18,-3.08 -2.18,-5.07 0.01,-1.91 0.01,-3.82 0.01,-5.73 -0,-5.77 -0.03,-11.55 -0.09,-17.32 -0.06,-5.75 -0.15,-11.49 -0.28,-17.24 -0.12,-5.71 -0.27,-11.42 -0.46,-17.13 -0.19,-5.68 -0.39,-11.36 -0.64,-17.04 -0.25,-5.64 -0.52,-11.29 -0.84,-16.92 -0.31,-5.61 -0.65,-11.22 -1.03,-16.82 -0.38,-5.57 -0.79,-11.14 -1.23,-16.7 -0.44,-5.53 -0.92,-11.06 -1.43,-16.58 -0.51,-5.49 -1.05,-10.98 -1.64,-16.46 -0.58,-5.46 -1.2,-10.9 -1.85,-16.35 -0.65,-5.41 -1.34,-10.81 -2.07,-16.21 -0.72,-5.37 -1.48,-10.73 -2.29,-16.08 -0.8,-5.33 -1.63,-10.65 -2.51,-15.96 -0.87,-5.27 -1.78,-10.55 -2.73,-15.81 -0.95,-5.24 -1.93,-10.46 -2.96,-15.68 -1.02,-5.19 -2.09,-10.37 -3.2,-15.54 -1.1,-5.14 -2.25,-10.27 -3.44,-15.39 -2.36,-10.14 -4.88,-20.25 -7.59,-30.31 -1.35,-4.98 -2.73,-9.96 -4.17,-14.92 -1.43,-4.93 -2.9,-9.85 -4.42,-14.75 -1.51,-4.88 -3.07,-9.74 -4.68,-14.59 -1.6,-4.82 -3.24,-9.63 -4.94,-14.42 -1.68,-4.77 -3.42,-9.51 -5.21,-14.25 -1.78,-4.71 -3.59,-9.4 -5.47,-14.07 -1.86,-4.65 -3.78,-9.28 -5.74,-13.89 -1.96,-4.58 -3.96,-9.15 -6.01,-13.69 -2.05,-4.53 -4.15,-9.04 -6.3,-13.52 -2.14,-4.46 -4.33,-8.9 -6.58,-13.32 -2.24,-4.4 -4.53,-8.78 -6.87,-13.12 -2.33,-4.33 -4.72,-8.64 -7.15,-12.92 -2.43,-4.27 -4.92,-8.51 -7.46,-12.72 -2.54,-4.2 -5.12,-8.37 -7.75,-12.51 -2.64,-4.13 -5.32,-8.22 -8.05,-12.29 -2.74,-4.07 -5.53,-8.09 -8.37,-12.08 -2.84,-3.99 -5.73,-7.94 -8.67,-11.85 -2.94,-3.92 -5.93,-7.8 -8.98,-11.63 -3.05,-3.83 -6.14,-7.63 -9.29,-11.39 -3.16,-3.77 -6.37,-7.49 -9.63,-11.17 -3.26,-3.68 -6.57,-7.32 -9.93,-10.91 -3.37,-3.61 -6.8,-7.17 -10.27,-10.68 -3.49,-3.53 -7.02,-7.01 -10.6,-10.44 -3.59,-3.44 -7.24,-6.83 -10.92,-10.18 -3.7,-3.36 -7.46,-6.66 -11.26,-9.92 -3.82,-3.28 -7.69,-6.5 -11.6,-9.66 -3.94,-3.19 -7.92,-6.32 -11.94,-9.4 -4.05,-3.1 -8.14,-6.14 -12.28,-9.13 -4.17,-3.01 -8.38,-5.96 -12.63,-8.85 -4.29,-2.92 -8.62,-5.78 -12.99,-8.59 -4.4,-2.83 -8.85,-5.6 -13.33,-8.3 -4.53,-2.73 -9.09,-5.4 -13.69,-8.01 -4.65,-2.64 -9.33,-5.21 -14.04,-7.72 -4.77,-2.54 -9.58,-5.03 -14.42,-7.44 -4.89,-2.44 -9.81,-4.82 -14.77,-7.14 -5.01,-2.35 -10.06,-4.62 -15.13,-6.84 -5.14,-2.25 -10.31,-4.43 -15.51,-6.55 -5.26,-2.15 -10.56,-4.22 -15.87,-6.23 -5.39,-2.05 -10.81,-4.02 -16.25,-5.93 -5.52,-1.94 -11.07,-3.81 -16.63,-5.61 -5.65,-1.83 -11.32,-3.6 -17.01,-5.3 -5.77,-1.72 -11.57,-3.38 -17.38,-4.98 -5.91,-1.62 -11.84,-3.17 -17.79,-4.66 -6.04,-1.51 -12.1,-2.96 -18.17,-4.34l-1.2 -0.27 -8.01 -1.74c-20.67,-4.25 -41.54,-7.56 -62.53,-9.78l-6.17 -0.65c-2.38,-0.25 -4.3,-1.56 -5.41,-3.68 -11.05,-21.14 -47.14,-29.96 -69.04,-30.91 -22.51,-0.97 -62.41,5.15 -73.25,28.09 -1.11,2.34 -3.24,3.79 -5.82,3.95 -26.65,1.7 -53.26,4.46 -79.65,8.59l-6.09 0.95c-85.69,13.4 -182.87,42.81 -249.04,101.03l-1.52 1.35c-1.22,1.09 -2.42,2.2 -3.62,3.32 -71.69,66.99 -128.48,145.02 -161.88,237.79 -34.76,96.57 -40.27,198.14 -29.06,299.5 0.17,1.53 -0.12,2.9 -0.89,4.23 -44.36,76.58 -249.87,123.37 -332.52,153.15 -0.35,0.13 -0.66,0.21 -1.03,0.28 -33.48,6.5 -66.15,22.59 -79.77,55.79 -15.18,37 0.34,78.59 21.21,109.97 21.82,32.81 52.4,60.65 84.81,82.84 1.94,1.33 3.01,3.35 3.02,5.7 0,2.35 -1.06,4.38 -3,5.72 -19.54,13.47 -39.26,26.69 -59.19,39.59 -40.51,26.21 -82.36,53.02 -126.91,71.85 -0.72,0.3 -1.37,0.46 -2.15,0.53 -95.76,7.59 -201.61,43.63 -236.42,142.65 -21.85,62.15 -7.2,130.96 22.75,187.77 36.89,69.95 97.77,127.5 164.87,168.33 25.53,15.54 52.34,28.95 80.02,40.21 0.35,0.14 0.65,0.29 0.97,0.48 35.59,21.49 73.27,39.11 111.52,55.29 98.77,41.77 201.77,70.21 306.47,92.63 48.07,10.3 121.96,16.88 162.96,42.91 24.46,15.54 35.32,40.54 45.02,66.65 3.39,9.14 3.97,19.86 3.6,29.55 -0.09,2.44 -1.33,4.49 -3.44,5.72 -108.29,63.11 -263.62,18.04 -374.97,-16.3 -123.67,-38.14 -198.86,-48.74 -309.63,29.42 -18.29,12.9 -35.65,27.09 -52.08,42.27 -1.73,1.6 -3.94,2.19 -6.24,1.67 -2.3,-0.52 -4.03,-2.01 -4.9,-4.2l-50.52 -127.04c-0.1,-0.26 -0.18,-0.48 -0.25,-0.75 -0.15,-0.54 -0.31,-1.07 -0.5,-1.59 -0.65,-1.83 -1.3,-3.66 -1.94,-5.5 -0.82,-2.35 -0.39,-4.76 1.19,-6.68 11.63,-14.14 23.04,-28.21 31.43,-44.6 3.02,-5.91 5.57,-12.07 7.61,-18.38 27.56,-84.97 -32.76,-185.8 -118.81,-205.92 -7.14,-1.67 -14.47,0.69 -19.3,6.21 -4.81,5.49 -6.18,13.14 -3.58,19.96 1.78,4.67 3.5,9.36 5.21,14.06 0.1,0.28 0.18,0.53 0.24,0.83 5.85,25.58 13.39,50.74 21.04,75.83 0.76,2.52 0.13,5.07 -1.74,6.92 -11.67,11.64 -23.67,22.97 -34.96,34.98 -3.6,3.83 -7.12,7.74 -10.62,11.66 -1.52,1.7 -3.56,2.5 -5.83,2.28 -2.95,-0.28 -5.9,-0.57 -8.85,-0.87 -19.03,-1.91 -38.14,-2.62 -57.26,-2.89 -2.56,-0.04 -4.75,-1.35 -5.98,-3.6 -1.95,-3.57 -3.97,-7.1 -6.07,-10.59 -0.08,-0.13 -0.15,-0.26 -0.22,-0.4 -12.21,-23.64 -23.1,-47.92 -34.5,-71.95 -3.1,-6.53 -9.35,-10.77 -16.57,-11.21 -7.14,-0.44 -14,3.06 -17.83,9.1 -58.83,92.67 -2.61,221.79 104.69,243.38 5.69,1.14 11.39,2.24 17.13,3.12 2.15,0.33 4.31,0.53 6.47,0.7 2.69,0.21 4.89,1.83 5.89,4.35l88.58 222.71c0.82,2.06 0.66,4.18 -0.48,6.09 -36.07,60.88 -64.17,127.5 -82.44,195.86 -3.78,14.14 -7.8,28.28 -10.38,42.7 -2.35,13.11 -2.87,27.88 10.06,35.61 13.94,8.32 27.81,-1.11 39,-9.56 11.38,-8.6 22.39,-17.67 33.58,-26.32l0.43 -0.33c0.14,-0.1 0.27,-0.21 0.28,-0.21l8.58 -6.56 59.19 -45.76 6.84 -5.19c1.78,-1.35 3.89,-1.76 6.05,-1.16 2.15,0.6 3.75,2.04 4.58,4.12l44.75 112.53c0.9,2.52 1.8,5.03 2.7,7.55 0.75,2.09 0.5,4.22 -0.71,6.09 -54.82,84.78 -31.2,201.79 74.42,228.58 6.97,1.77 14.28,-0.37 19.2,-5.61 4.95,-5.27 6.59,-12.64 4.36,-19.52 -7.03,-21.75 -14.56,-43.34 -20.89,-65.31 -0.04,-0.15 -0.08,-0.28 -0.11,-0.43 -0.6,-2.74 -1.25,-5.47 -1.94,-8.19 -0.63,-2.46 0.05,-4.89 1.87,-6.67 11.33,-11.07 22.42,-22.4 32.79,-34.38 1.26,-1.45 2.52,-2.91 3.78,-4.35 1.5,-1.72 3.53,-2.55 5.81,-2.36 3.92,0.33 7.84,0.64 11.77,0.87 13.47,0.8 26.97,0.82 40.45,1.15 2.63,0.06 4.86,1.48 6.03,3.84 9.74,19.57 19.6,39.11 30.7,57.97 0.15,0.26 0.26,0.48 0.39,0.75 1.67,3.85 3.32,7.7 4.92,11.58 2.8,6.8 8.98,11.38 16.31,12.09 7.31,0.71 14.26,-2.61 18.32,-8.74 21.69,-32.83 29.26,-70.99 18.63,-109.17 -15.44,-55.44 -64.96,-97.39 -119.98,-110.79 -1.98,-0.48 -3.5,-1.66 -4.47,-3.46 -0.51,-0.95 -1.02,-1.9 -1.54,-2.85 -0.14,-0.26 -0.25,-0.49 -0.36,-0.77l-55.04 -138.39c-0.76,-1.91 -0.67,-3.85 0.26,-5.69 0.93,-1.83 2.44,-3.05 4.43,-3.57l3.09 -0.81 2.34 -0.57 2.47 -0.57c1.37,-0.32 2.75,-0.62 4.14,-0.9l2.67 -0.53 2.15 -0.4 2.29 -0.4 2.54 -0.42 1.6 -0.24 3.03 -0.42 2.38 -0.3 2.21 -0.25 2.51 -0.25 2.97 -0.25 2.99 -0.2 3.32 -0.18 2.59 -0.09 4.15 -0.08 1.7 -0 3.72 0.04 2.45 0.06 1.87 0.08 2.2 0.11 2.15 0.13 3.57 0.27 4.27 0.42 3.35 0.39 3.81 0.52 1.43 0.21 3.97 0.65 3.54 0.65 4.64 0.94 4.52 1.02c1.21,0.27 2.41,0.59 3.6,0.89l1.12 0.29 3.78 1.02 4.89 1.43 4.78 1.51 3.67 1.24 5.32 1.9 3.67 1.4c0.13,0.04 0.14,0.05 0.27,0.1l4.5 1.8 0.79 0.33c1.36,0.56 2.72,1.14 4.08,1.72 1.5,0.65 2.99,1.3 4.36,1.92 0.12,0.06 0.24,0.11 0.43,0.19l0.27 0.12c1.31,0.6 2.61,1.2 3.91,1.81l0.15 0.07c1.45,0.69 2.91,1.36 4.34,2.07l4.81 2.39 4.53 2.33 4.53 2.41 4.92 2.7 4.18 2.36 4.92 2.85 4.73 2.82 4.49 2.74 4.63 2.89 4.7 3.02 4.53 2.96 4.48 2.99 3.35 2.28 6.09 4.22 4.35 3.07 3.49 2.5 5.76 4.2 4.5 3.34 4.8 3.62 2.61 2 4.66 3.61 4.92 3.84 4.49 3.56 4.46 3.58 4.53 3.68 4.7 3.86 5.01 4.17 5.3 4.45 6.03 5.14 6.27 5.4 8.73 7.63 6.47 5.74 7.76 6.95c7.11,6.37 14.15,12.82 21.14,19.31l8.55 7.94 7.37 6.89 12.71 11.97 41.61 39.42c2.28,2.15 2.83,5.42 1.39,8.21 -120.98,234.39 -237.39,472.09 -320.8,722.86 -85.34,256.6 -139.21,535.84 -98.26,806.06 16.99,112.06 50.38,220.68 101.21,322.07 114.67,228.69 186.49,317.3 411,444.91 315.62,179.39 645.58,124.71 975.53,21.09 0.45,-0.15 0.91,-0.3 1.35,-0.48 100.75,-39.91 199.29,-101.25 287.22,-164.22 87.52,-62.68 176.17,-135.32 246.92,-216.95 8.51,-9.31 16.9,-18.72 25.08,-28.32 1.37,-1.6 3.18,-2.44 5.29,-2.43 2.11,0 3.92,0.85 5.28,2.46 209.93,249.06 519.43,422.67 837.19,493.56 37.65,8.4 49.48,10.16 85.37,23.22 9.16,3.33 19.57,-0.67 24.13,-9.29 4.59,-8.67 2.06,-19.45 -5.9,-25.18 -310.27,-223.18 -506.79,-541.4 -578.67,-915.81 -26.79,-139.53 -35.3,-282.39 -27.58,-424.19 19.21,-352.9 140.08,-712.5 347.7,-999.37 6.13,-8.46 4.57,-20.23 -3.53,-26.82 -8.02,-6.52 -20.01,-5.63 -26.97,2.02 -43.53,40.04 -88.05,70.48 -134.49,108.13 -253.85,205.81 -462.56,474.19 -571.38,783.21 -79.06,224.5 -101.16,461.62 -61.23,696.45 0.53,3.11 -1.02,6.09 -3.88,7.43 -8.18,3.85 -16.12,8.2 -23.85,12.86 -94.28,56.95 -192.66,111.85 -299.22,142.01 -88.21,24.97 -176.52,30.7 -267.2,17.14 -74.1,-11.08 -159.25,-37.39 -192.47,-111.62 -34.09,-76.19 -5.16,-184.15 18.54,-260.22 29.07,-93.27 67.75,-183.36 109.95,-271.37 46.6,-97.15 97.99,-191.92 151.36,-285.5 65.38,-114.61 133.98,-227.34 202.51,-340.07 138.64,-228.07 261.24,-465.72 366.63,-710.93 9.73,-22.64 19.45,-45.3 28.66,-68.16 0.52,-1.3 1.3,-2.28 2.45,-3.09 18.27,-12.81 35.91,-26.5 53.19,-40.61 79.7,-65.09 151.84,-138.82 224.01,-211.97 57.77,-58.55 115.09,-117.6 175.36,-173.61 46.42,-43.15 96.44,-87.99 151.83,-119.25 0.24,-0.13 0.44,-0.23 0.69,-0.34 99.61,-42.43 176.51,-6.63 257.92,53.47 32.84,24.24 64.71,49.74 97.18,74.47 9.03,6.87 17.9,13.95 26.78,20.99 4.87,3.86 9.57,7.97 14.69,11.5 9.88,6.8 23.16,12.91 34.61,6.07 12.93,-7.72 12.41,-22.49 10.06,-35.6 -2.58,-14.42 -6.6,-28.56 -10.38,-42.7 -35.24,-131.93 -118.26,-283.38 -227.84,-367.42 -1.74,-1.33 -2.67,-3.2 -2.71,-5.38 -0.04,-2.18 0.84,-4.08 2.53,-5.47 65.7,-54.05 133.88,-105.1 204.58,-152.46 79.36,-53.16 161.73,-101.75 246.16,-146.39 0.05,-0.03 0.1,-0.05 0.15,-0.07"/>
  <g id="_2057224035552">
   <path class="fil1" d="M5764.65 5964.23c-209,288.77 -330.77,650.96 -350.11,1006.16 -7.77,142.84 0.81,286.75 27.79,427.29 72.48,377.53 270.67,698.56 583.74,923.76 2.64,1.9 3.6,5.26 2.36,8.27 -1.24,3 -4.29,4.71 -7.51,4.2 -357.48,-57.51 -715.16,-248.22 -943.17,-532.46 -0.49,-0.61 -0.83,-1.2 -1.09,-1.94 -29.77,-80.79 -59.54,-161.57 -89.3,-242.36 -0.14,-0.39 -0.24,-0.72 -0.31,-1.13 -45.03,-241.04 -24.39,-484.6 56.96,-715.65 128.02,-363.65 394.99,-670.98 711.14,-885.93 2.81,-1.91 6.5,-1.54 8.87,0.9 2.36,2.43 2.63,6.14 0.64,8.89z"/>
  </g>
  <path class="fil2" d="M4993.85 7554.75c-121.28,-649.15 243.3,-1239.74 765.18,-1594.58 -484.12,668.91 -539.55,1789.62 262.99,2366.9 -353.73,-56.91 -710.78,-245.63 -938.87,-529.95 -29.77,-80.79 -59.54,-161.57 -89.3,-242.36z"/>
  <path class="fil3 str0" d="M3249.3 4397.58l127.07 47.91c0,0 159.95,-132.13 162.48,-152.07 2.53,-19.93 -208.3,-39.58 -208.3,-39.58l-143.73 8.33 12.5 89.57 49.99 45.83z"/>
  <g id="_2057224033536">
   <path class="fil1" d="M3716.13 5401.59c-7.92,66.08 -47.23,150.89 -75.63,210.85 -48.51,102.41 -102.57,202.99 -154.77,303.59 -1.03,1.98 -2.76,3.25 -4.97,3.63 -2.2,0.38 -4.26,-0.23 -5.9,-1.75 -80.97,-75.31 -185.24,-183.25 -286.87,-227.13 -104.76,-45.24 -186.2,-8.81 -271.81,54.39 -32.89,24.28 -64.81,49.82 -97.33,74.58 -12.47,9.5 -24.55,19.56 -37.05,28.99 -6,4.53 -16.9,13.48 -24.76,8.78 -7.25,-4.33 -5.27,-15.54 -4.05,-22.41 2.47,-13.81 6.52,-28.09 10.15,-41.66 38.06,-142.49 124.87,-292.53 247,-378.69 107.6,-75.92 177.11,-65.1 298.52,-27.65 119.61,36.89 283.92,83.78 396.72,7.91 2.3,-1.55 5.12,-1.61 7.48,-0.16 2.37,1.44 3.59,3.98 3.27,6.73z"/>
  </g>
  <path class="fil2" d="M2769.83 5795.24c40.86,-152.95 131.76,-295.41 244.3,-374.81 100.33,-70.78 162.18,-66.87 292.48,-26.69 131.71,40.63 290.33,82.57 402.63,7.03 -12.21,101.99 -111.26,283.88 -229.67,512.07 -76.4,-71.06 -187.3,-184.57 -288.84,-228.42 -111.29,-48.06 -196.88,-5.21 -278.67,55.17 -33.57,24.78 -65,49.96 -97.41,74.64 -58.95,44.89 -66.46,62.04 -44.82,-19z"/>
  <g id="_2057224030816">
   <path class="fil1" d="M5017.87 4458.41c35.74,36.24 76.93,60.5 127.42,69.07 62.31,10.57 128.99,-4.53 188.93,-21.3 71.93,-20.12 141.9,-44.75 215.4,-59.35 317.97,-63.18 651.17,-103.05 974.59,-63.47 8.69,1.06 17.46,1.92 26.13,3.1 5.44,0.74 13.7,1.54 14.65,8.46 0.95,6.97 -6.99,10.01 -12.04,12.25 -7.98,3.53 -16.04,6.83 -24.01,10.38 -153.56,68.53 -302.17,146.93 -442.42,239.89 -119.55,79.25 -230.33,167.67 -336.02,264.53 -109.9,100.7 -213.05,208.58 -315.48,316.78 -118.95,125.63 -237.28,251.22 -360.22,373.02 -2.32,2.3 -5.81,2.68 -8.57,0.94 -2.76,-1.74 -3.92,-5.06 -2.85,-8.14 4.54,-13.05 8.79,-26.2 12.68,-39.46 53.02,-180.32 100.39,-369.82 89.6,-559.25 -9.15,-160.72 -59.11,-311.65 -120.32,-459.33 -11.33,-27.33 -24.24,-53.99 -38.47,-79.92 -1.67,-3.05 -0.85,-6.81 1.94,-8.89 2.79,-2.08 6.63,-1.78 9.07,0.69z"/>
  </g>
  <path class="fil2" d="M5012.93 4463.27c149.75,151.87 329.5,31.77 538.03,-9.65 317.42,-63.08 650.89,-102.73 972.4,-63.39 47.51,5.81 44.28,2.46 2.74,20.99 -709.38,316.59 -921.64,666.07 -1456.2,1195.62 4.51,-12.94 8.78,-26.15 12.79,-39.78 125.69,-427.44 127.87,-639.97 -30.96,-1023.19 -11.43,-27.58 -24.44,-54.43 -38.8,-80.6l0 -0.01z"/>
  <g id="_2057224031008">
   <path class="fil1" d="M6500.72 4430.27c-147.37,67.21 -289.83,143.84 -424.47,234.02 -115.67,77.47 -223.13,163.65 -325.73,257.66 -109.9,100.7 -213.07,208.59 -315.51,316.78 -118.95,125.63 -237.28,251.22 -360.23,373.02 -2.32,2.3 -5.81,2.68 -8.57,0.94 -2.76,-1.74 -3.92,-5.06 -2.85,-8.14 4.54,-13.05 8.79,-26.2 12.68,-39.46 53.03,-180.34 100.38,-369.83 89.58,-559.28 -2.79,-48.97 -9.3,-97.48 -19.03,-145.54 -0.34,-1.68 -0.1,-3.24 0.73,-4.74l0.02 -0.04c102.22,-183.98 440.73,-293.51 631.84,-343.61 139.94,-36.68 284.7,-64.25 428.31,-81.84 57.11,-7 114.8,-12.53 172.3,-15.03 38.4,-1.68 80.71,-2.68 118.91,2.05 3.12,0.39 5.52,2.72 6,5.83 0.48,3.11 -1.11,6.05 -3.98,7.35z"/>
  </g>
  <path class="fil4" d="M5153.41 4858.88c176.66,-322.27 1127.43,-461.83 1344.44,-434.91l0.04 0.01c-686.86,313.24 -900.59,660.41 -1427.98,1182.87 4.51,-12.94 8.78,-26.15 12.79,-39.78 87.21,-296.57 114.93,-489.69 70.69,-708.14l0.02 -0.04z"/>
  <g id="_2057224030496">
   <path class="fil1" d="M3625.76 5643.06c-44.77,91.83 -92.98,182.28 -140.04,272.97 -1.03,1.98 -2.76,3.25 -4.97,3.63 -2.2,0.38 -4.26,-0.23 -5.9,-1.75 -80.97,-75.31 -185.24,-183.25 -286.87,-227.13 -104.76,-45.24 -186.2,-8.81 -271.81,54.39 -32.89,24.28 -64.81,49.82 -97.33,74.58 -9.09,6.93 -18.02,14.05 -26.98,21.14 -2.56,2.04 -6.09,2.02 -8.64,-0.03 -2.55,-2.05 -3.32,-5.49 -1.89,-8.43 63.91,-131.59 164.02,-282.66 311.74,-327.61 66.54,-20.25 134.11,-16.2 199.94,4.73 37.14,11.81 72.13,26.69 106.98,44.03 28.57,14.21 56.55,29.8 85.49,43.23 44.3,20.56 85.68,32.52 134.59,36.31 2.36,0.19 4.3,1.41 5.48,3.47 1.18,2.05 1.25,4.35 0.22,6.48z"/>
  </g>
  <path class="fil5" d="M3619.54 5640.03c-38.97,79.93 -87.56,171.84 -139.96,272.81 -76.4,-71.06 -187.3,-184.57 -288.84,-228.42 -111.29,-48.06 -196.88,-5.21 -278.67,55.17 -33.57,24.78 -65,49.96 -97.41,74.64 -10.67,8.12 -19.65,15.34 -27.08,21.23 117.67,-242.26 281.37,-389.89 503.34,-319.31 142.03,45.16 193.85,113.43 328.62,123.87z"/>
  <path class="fil1" d="M3033.18 4571.51c44.48,-18.39 91.57,-48.06 131.87,-74.15 57.8,-37.41 114.19,-77.69 169.21,-119.08 53.99,-40.62 107.19,-82.77 158.52,-126.7 37.37,-32 77.66,-67.31 110.21,-104.23 130.74,-148.32 243.82,-206.72 440.9,-236.97 61.26,-9.4 123.6,-11.38 185.34,-6.08 197.92,16.99 380.81,106.88 527.56,238.72 123.85,111.27 237.02,243 301.35,398.21 61.83,149.19 112.11,301.48 121.35,463.84 10.88,191.2 -36.62,381.94 -90.14,563.95 -16.29,55.41 -38.56,107.45 -61.32,160.39 -105.42,245.27 -227.11,481.18 -365.81,709.34 -68.6,112.85 -137.24,225.66 -202.68,340.38 -53.49,93.76 -105.1,188.95 -151.78,286.3 -42.29,88.16 -81.52,179.66 -110.64,273.09 -24.75,79.41 -53.75,189.34 -18.01,269.23 35.23,78.73 123.29,107.23 202.23,119.03 221.15,33.07 390.27,-49.32 574.9,-160.84 43.78,-26.45 87.95,-37.93 136.47,-15.65 75,34.44 82.54,116.01 43.14,182.08 -26.91,45.12 -53.26,77.92 -88.54,116.5 -120.7,139.28 -358.21,309.85 -529.07,377.53 -0.17,0.07 -0.31,0.12 -0.48,0.17 -327.4,102.82 -651.92,158.16 -965.4,-20.01 -226.11,-128.52 -291.2,-210.8 -405.9,-439.53 -50.35,-100.41 -83.18,-207.28 -100,-318.26 -40.61,-267.88 13.15,-545.79 97.75,-800.12 96.02,-288.7 234.48,-557.09 374.55,-826.08 27.91,-53.6 55.82,-107.24 82.69,-161.37 22.07,-44.46 43.71,-89.54 62.7,-135.41 17.3,-41.81 51.84,-129.02 35.03,-174.25 -10.87,-29.26 -23.02,-55.75 -50.14,-72.97 -41.68,-26.47 -118.21,-34.14 -167.13,-44.62 -104.96,-22.49 -205.08,-50.01 -304.17,-91.91 -38.48,-16.27 -75.47,-33.55 -111.22,-55.26 -27.56,-11.12 -54.24,-24.42 -79.63,-39.87 -65.06,-39.59 -124.43,-95.52 -160.22,-163.39 -28.35,-53.76 -42.72,-118.67 -22,-177.59 33.33,-94.81 137.31,-127.76 228.5,-134.4z"/>
  <path class="fil2" d="M3034.78 4578.34c134.32,-55.06 474.48,-314.19 573.4,-426.42 120.27,-136.44 226.86,-202.49 436.75,-234.7 250.96,-38.52 505.57,49.79 707.22,230.95 124.48,111.84 236.2,242.8 299.58,395.71 158.83,383.22 156.65,595.75 30.96,1023.19 -16.6,56.49 -37.79,105.52 -61.03,159.61 -105.36,245.14 -224.73,477.12 -365.36,708.48 -171.2,281.62 -378.22,620.26 -465.8,901.3 -56.67,181.84 -75.76,357.48 189.81,397.17 219.69,32.86 385.01,-44.28 579.51,-161.77 41.05,-24.8 82.88,-36.92 129.99,-15.29 64.22,29.5 82.1,101.79 40.08,172.23 -26.62,44.64 -44.96,68.63 -87.83,115.52 -126.39,145.85 -368.58,313.12 -526.39,375.63 -325.66,102.27 -647.48,158.15 -959.9,-19.43 -230.96,-131.26 -291.87,-214.78 -403.13,-436.62 -460.6,-918.58 640.56,-2179.18 553.02,-2414.79 -14.77,-39.76 -28.79,-61.09 -52.92,-76.41 -42.09,-26.74 -119.37,-34.83 -169.39,-45.54 -105.82,-22.67 -202.35,-48.98 -302.93,-91.52 -42.07,-17.79 -75.85,-33.82 -110.8,-55.1 -28.38,-11.42 -54.8,-24.76 -79.14,-39.57 -241.47,-146.93 -276.54,-440 44.29,-462.63z"/>
  <g id="_2057224027424">
   <path class="fil1" d="M3026.43 5060.44c-32.23,-22.65 -61.3,-42.13 -88.46,-71.29 -45.29,-48.62 -88.09,-118.38 -60.35,-186.44 10.39,-25.5 29.06,-46.12 51.23,-62.07 47.83,-34.41 112.68,-48.51 170.7,-50.1 61.33,-1.68 119.9,23.64 177.12,42.54 102.2,33.76 199.54,31.98 301.49,-0.22 81.48,-25.73 156.59,-74.14 226.8,-121.83 79.23,-53.82 156.26,-109.55 241.37,-154.1 187.16,-97.97 374.37,-116.37 565.44,-16.49 591.17,309.03 265.9,1077.93 6.04,1500.97 -95.21,155 -190.76,309.81 -282.8,466.72 -86.36,147.21 -169.9,296.43 -246.23,449.11 -71.97,143.95 -138.25,292.12 -190.94,444.12 -48.65,150.8 -89.72,328.56 -38.94,484.1 33.02,101.12 99.66,179.45 182.62,244.03 178.83,139.23 403.4,88.47 599.16,19.12 32.85,-11.64 67.39,-30.67 97.59,-48.02 41.79,-24 82.66,-50.21 122.43,-77.41 47.19,-32.28 94.22,-66.74 137.72,-103.61 10.92,-9.7 70.53,-63.65 87.08,-47.5 15.18,14.81 -29.76,66.52 -38.15,76.77 -120.7,139.28 -358.21,309.85 -529.07,377.53 -0.17,0.07 -0.31,0.12 -0.48,0.17 -327.4,102.82 -651.92,158.16 -965.4,-20.01 -226.11,-128.52 -291.2,-210.8 -405.9,-439.53 -50.35,-100.41 -83.18,-207.28 -100,-318.26 -40.61,-267.88 13.15,-545.79 97.75,-800.12 96.02,-288.7 234.48,-557.09 374.55,-826.08 27.91,-53.6 55.82,-107.24 82.69,-161.37 22.07,-44.46 43.71,-89.54 62.7,-135.41 17.3,-41.81 51.84,-129.02 35.03,-174.25 -10.87,-29.26 -23.02,-55.75 -50.14,-72.97 -41.68,-26.47 -118.21,-34.14 -167.13,-44.62 -104.96,-22.49 -205.08,-50.01 -304.17,-91.91 -55.24,-23.36 -102.09,-46.98 -151.31,-81.57z"/>
  </g>
  <path class="fil6" d="M3030.41 5054.78c-33.4,-23.47 -59.23,-40.13 -87.37,-70.35 -96.14,-103.22 -79.71,-188.12 -10.15,-238.16 41.13,-29.59 100.83,-46.99 166.84,-48.8 58.57,-1.6 110.89,21.09 174.75,42.2 106.45,35.16 205.42,31.49 305.74,-0.19 158.35,-50.01 294.84,-185.07 469.3,-276.4 184.39,-96.52 368.87,-115.89 559.02,-16.49 587.23,306.96 260.13,1073.15 3.34,1491.2 -267.4,435.31 -565.57,914.04 -720.67,1361.45 -102.73,318.45 -95.5,547.68 146.01,735.73 182.23,141.87 408.66,90 605.73,20.18 82.09,-29.08 257.71,-143.66 360.03,-230.39 72.76,-64.64 114.28,-72.28 39.09,19.55 -126.39,145.85 -368.58,313.12 -526.39,375.63 -325.66,102.27 -647.48,158.15 -959.9,-19.43 -230.96,-131.26 -291.87,-214.78 -403.13,-436.62 -460.6,-918.58 640.56,-2179.18 553.02,-2414.79 -14.77,-39.76 -28.79,-61.09 -52.92,-76.41 -42.09,-26.74 -119.37,-34.83 -169.39,-45.54 -105.82,-22.67 -202.35,-48.98 -302.93,-91.52 -57.44,-24.29 -99.42,-45.3 -150.03,-80.86z"/>
  <g id="_2057224028000">
   <path class="fil1" d="M4026.87 5476.42c177.05,35.28 346.31,24.3 463.61,-129.56 1.16,-1.52 3.34,-1.81 4.86,-0.65 1.52,1.16 1.81,3.34 0.65,4.86 -119.04,156.13 -290.69,167.97 -470.48,132.15 -1.87,-0.37 -3.09,-2.2 -2.72,-4.07 0.37,-1.87 2.2,-3.09 4.07,-2.72z"/>
  </g>
  <path class="fil0" d="M4026.19 5479.82c179.49,35.76 349.27,23.61 467.04,-130.86"/>
  <g id="_2057224026208">
   <path class="fil1" d="M3919.26 4322.73c-26.15,-40.7 -23.31,-61.82 -21.99,-107.74 1.11,-38.79 18.95,-75.18 47.27,-101.41 25.75,-23.85 61.04,-39.66 96.63,-36.18 20.05,1.96 38.24,9.92 53.51,23.03 45.78,39.3 38.56,130.08 25.22,182.88 -5.56,22 -76.63,40.14 -95.75,44.36 -24.6,5.43 -83.74,16.04 -103.9,-3.74l-0.56 -0.55 -0.42 -0.66z"/>
  </g>
  <path class="fil6" d="M3925.09 4318.99c-25.39,-39.51 -22.17,-59.57 -20.9,-103.79 2.81,-97.76 116.41,-169.23 185.97,-109.51 43.05,36.95 35.96,125.26 23.01,175.93 -5.76,23.36 -159.04,65.86 -188.09,37.37z"/>
  <path class="fil7" d="M4089.04 4299.69c-28.41,13.13 -76.33,25.89 -113.85,28.35 -8.95,-110.98 122.94,-141.55 115.15,-32.59l-1.3 4.24z"/>
  <ellipse class="fil6" cx="4057.07" cy="4267.98" rx="22.07" ry="21.13"/>
  <g id="_2057224023648">
   <path class="fil1" d="M5764.65 5964.23c-209,288.77 -330.77,650.96 -350.11,1006.16 -7.77,142.84 0.81,286.75 27.79,427.29 72.48,377.53 270.67,698.56 583.74,923.76 2.83,2.04 3.7,5.79 2.08,8.87 -1.63,3.08 -5.22,4.46 -8.49,3.27 -64.62,-23.53 -127.71,-41.7 -186.64,-78.61 -273.61,-171.36 -498.87,-394.27 -595.03,-709.14 -193.73,-634.34 99.25,-1132.66 515.93,-1590.32 2.48,-2.72 6.64,-3.03 9.49,-0.71 2.86,2.32 3.4,6.46 1.24,9.44z"/>
  </g>
  <path class="fil4" d="M5759.03 5960.16c-408.66,448.86 -709.27,945.6 -514.42,1583.63 84.8,277.67 277.06,507.99 592.08,705.29 59.27,37.12 119.71,54.08 185.33,77.97 -802.54,-577.28 -747.11,-1697.99 -262.99,-2366.9z"/>
  <path class="fil1" d="M4344.09 4573.77c77.99,81.07 134.56,216.07 157.74,324.75 18.24,85.54 22.49,179.75 -3.62,264.14 -101.98,329.6 -352.35,365.63 -637.8,242.05 -40.87,-17.69 -76.47,-43.07 -112.34,-69.02 -26.58,-19.23 -53.93,-39.27 -83.44,-54.27 -3.68,-3.14 -7.62,-6.03 -11.87,-8.73 -15.07,-9.57 -34.65,-16.75 -55.87,-22.52l14.88 -2.15c65.34,-9.46 130.6,-9.87 196.42,-11.22 59.22,-1.22 120.39,-3.22 178.06,-17.83 60.84,-15.42 117.8,-42.05 167.56,-80.44 171.31,-132.16 207.03,-356.27 178.43,-558.99l-2.99 -21.2 14.84 15.43z"/>
  <path class="fil8" d="M3612.76 5254.88c134.25,-19.44 262.21,-0.57 375.18,-29.19 247.09,-62.6 400.25,-299.01 351.15,-647.11 107.01,111.25 214.22,382.55 152.49,582.04 -111.62,360.76 -391.43,340.34 -628.43,237.74 -94.82,-41.05 -159.03,-122.93 -250.4,-143.48z"/>
  <path class="fil1" d="M4114.04 5165.8c41.07,-25 77.49,-56.42 108.31,-93.37 33.78,-40.51 59.88,-86.55 78.79,-135.73l0.49 -1.29c18.42,-48.28 29.75,-99.05 35.33,-150.37l0.14 -1.3c3.37,-31.45 4.61,-63.11 4.02,-94.73l-0.26 -14.23 118.38 88.56 1.73 5.44 -105.2 21.64 100.83 141.87 -137.38 12.8 89.26 152.04 -171.23 -12.58 51.71 173.49 -164.6 -73.9 20.49 168.57 -157.8 -112.18 -6.13 139.96 -142.84 -122.47 -2.95 134.72 -10.13 -5.73c-54.54,-30.85 -104.58,-77.39 -160.35,-105.58 -3.69,-3.15 -7.63,-6.04 -11.89,-8.75 -14.68,-9.32 -33.63,-16.38 -54.22,-22.07 -0.57,-0.16 -1.15,-0.31 -1.72,-0.47l2.29 -0.33 12.66 -1.83c72.91,-10.56 145.38,-9.72 218.73,-11.75l1.56 -0.04c48.01,-1.35 96.85,-4.15 143.82,-14.77l3.18 -0.74c2.4,-0.56 4.79,-1.13 7.18,-1.74 44.36,-11.24 86.91,-28.51 126.13,-52.14l1.67 -1zm59.71 302.72c-42.49,3.92 -85.49,1.07 -127.48,-6.13l-5.83 -1 0.88 -101.71 151.17 107.12 -18.73 1.73zm202.08 -90.49c-41.4,39.88 -90.31,67.02 -146.02,81.02l-8.21 2.06 -7.77 -150.1 170.16 59.16 -8.16 7.86zm111.3 -182.19c-16.18,44.7 -37.07,88.19 -64.49,127.14l-7.13 10.12 -61.42 -141 136.58 -6.04 -3.54 9.78zm28.56 -196.74c1.89,32.78 1.09,65.83 -3.3,98.39l-1.65 12.21 -95.76 -76.93 100.13 -43.64 0.57 9.97zm-175.41 -334.73c-1.44,-30.06 -5.35,-60.67 -9.56,-90.48l-3 -21.3 14.91 15.5c22.54,23.43 42.63,54.67 59.9,82.23l5.33 8.51 -62.87 12.8 -4.58 -4.58 -0.13 -2.68zm-356.5 784.13c-29.25,-7.92 -58.04,-17.6 -86.3,-28.54l-6.49 -2.52 23.12 -59.61 94.04 97.27 -24.37 -6.59z"/>
  <path class="fil6" d="M4173.1 5461.59c-40.84,3.77 -83.09,1.24 -125.66,-6.06l0.71 -82.47 124.95 88.54z"/>
  <path class="fil6" d="M4370.99 5373.01c-42.6,41.04 -91.08,66.26 -142.89,79.28l-6.8 -131.32 149.69 52.04z"/>
  <path class="fil6" d="M4480.58 5193.46c-17.94,49.56 -39.38,91.06 -63.64,125.5l-52.43 -120.37 116.07 -5.13z"/>
  <path class="fil6" d="M4508.74 4999.49c1.9,32.9 1,65.51 -3.25,97.06l-77.18 -62 80.43 -35.06z"/>
  <path class="fil6" d="M4307.67 4939.13c17.86,-46.48 30.17,-97.72 36.22,-153.34l0.04 -0.02 100.01 140.72 -136.25 12.69 -0.02 -0.05z"/>
  <path class="fil6" d="M4343.9 4785.7c3.37,-30.95 4.82,-63.23 4.19,-96.81l0 0 100.67 75.31 -104.84 21.57 -0.02 -0.07z"/>
  <path class="fil6" d="M4347.23 4664.03c-1.33,-27.67 -5.48,-61.82 -9.62,-91.11 19.51,20.28 40.51,51.57 59.02,81.1l-49.37 10.05 -0.03 -0.03z"/>
  <path class="fil6" d="M4227.69 5076.89c32.96,-39.52 59.93,-85.62 79.95,-137.69l0.04 -0.02 88.08 150.05 -168.07 -12.34 -0 -0z"/>
  <path class="fil6" d="M3980.64 5227.46c2.44,-0.57 4.88,-1.16 7.3,-1.77 46.19,-11.7 89.1,-29.48 128.02,-52.93l0 0 20.07 165.16 -155.39 -110.47z"/>
  <path class="fil5" d="M3831.43 5243.18l-3.02 137.79c-76.82,-43.45 -135.89,-108.14 -215.66,-126.09 75.39,-10.92 148.8,-9.75 218.68,-11.7z"/>
  <path class="fil6" d="M3831.43 5243.18l143.15 122.74 6.06 -138.45 -0 -0.01c-47.37,11.1 -97.32,14.27 -149.21,15.72z"/>
  <path class="fil6" d="M3985.59 5441.77l-68.94 -71.3 -16.67 42.98c28.21,10.93 56.85,20.54 85.6,28.32z"/>
  <path class="fil6" d="M4115.96 5172.76l161.98 72.72 -50.25 -168.59 -0.01 0c-31.94,38.29 -69.48,70.42 -111.72,95.87l-0 0.01z"/>
  <g id="_2057224016064">
   <path class="fil1" d="M4415.42 4629.23c-27.61,-23.98 -57.2,-53.1 -88.91,-71.25 -27.77,-15.9 -61.77,-25.22 -92.24,-34.73 -1.82,-0.57 -2.84,-2.52 -2.28,-4.34 0.57,-1.82 2.52,-2.84 4.34,-2.28 31.07,9.7 65.3,19.11 93.62,35.33 32.24,18.47 61.95,47.67 90.01,72.04 1.44,1.25 1.59,3.44 0.34,4.89 -1.25,1.44 -3.44,1.59 -4.89,0.34z"/>
  </g>
  <path class="fil0" d="M4417.69 4626.62c-26.68,-23.17 -58.86,-54.12 -89.46,-71.64 -27.37,-15.68 -62.91,-25.66 -92.93,-35.03"/>
  <g id="_2057224015680">
   <path class="fil1" d="M3538.97 4034.21c-0.13,-0.42 -0.22,-0.85 -0.27,-1.31 -24.72,-213.19 29.22,-384.59 186.41,-531.49 75.68,-70.72 201.74,-99.76 302.18,-109.39 0.14,-0.01 0.26,-0.02 0.4,-0.03l122.65 -4.66c1.56,-0.06 2.94,0.33 4.06,1.05 43.45,1.65 88.17,6.27 130.55,15.9 386.05,87.71 500.1,394.41 496.41,764.32 -0.03,2.79 -1.6,5.17 -4.16,6.28 -2.56,1.11 -5.37,0.65 -7.44,-1.24l-22.28 -20.36c-144.07,-131.64 -325.15,-219.6 -520.85,-235.54 -58.89,-4.8 -118.31,-2.92 -176.76,5.75 -3.3,5.89 -9.57,11.84 -12,14.6 -13.27,15.04 -27.08,29.73 -40.82,44.34 -42.58,45.29 -85.76,90.05 -128.86,134.84 -56.35,58.55 -114.38,117.1 -169,177.19 -0.13,0.14 -0.24,0.26 -0.38,0.39 -81.15,76.18 -98.61,103.85 -210.62,55.03 -34.58,-15.07 -71.28,-27.85 -107.39,-38.7 -35.18,-10.56 -73.71,-20.62 -110.25,-24.69 -11.2,-1.25 -48.99,-4.67 -55.97,7.51 -11.04,19.3 53.92,76.18 64.99,85.79 7.45,6.47 16.61,12.29 24.86,17.67 1.96,1.28 3.08,3.26 3.15,5.61 0.07,2.34 -0.93,4.39 -2.82,5.78 -15.11,11.11 -30.31,22.11 -45.6,32.98 -2.25,1.6 -5.06,1.74 -7.46,0.36 -41.15,-23.57 -82.14,-56.64 -108.61,-96.43 -18.38,-27.62 -33.49,-65.27 -20.03,-98.07 12.09,-29.46 42.38,-42.93 71.86,-48.39 87.48,-31.92 299.81,-78.34 342.99,-163.53 0.3,-0.58 0.64,-1.09 1.05,-1.55z"/>
  </g>
  <path class="fil9" d="M4044.94 3917.22c11.85,-1.82 -282.65,297.53 -350.86,372.57 -79.49,74.62 -93.67,101.43 -203.11,53.73 -122.94,-53.58 -417.2,-133.19 -215.93,41.49 4.78,4.15 11.33,8.93 25.63,18.24 -15.21,11.19 -30.43,22.2 -45.51,32.91 -135.06,-77.36 -182.33,-207.66 -58.39,-230.18 96.98,-35.53 302.58,-78.79 347.35,-167.1 195.92,-81.59 245.56,-81.44 414.03,-108.2 37.41,-6.2 42.11,-6.61 86.81,-13.47zm105.66 -522.97c0.31,-0.01 0.03,0.61 0.03,0.92 49.16,1.69 94.87,7.24 132.78,15.85 305.77,69.47 495.7,288.1 491.02,757.49l-22.28 -20.36c-201.65,-181.16 -456.26,-269.47 -707.22,-230.95 -222.83,34.2 -271.86,20.14 -499.36,114.88 -29.35,-253.17 58.92,-408.49 184.26,-525.63 67.96,-63.51 183.02,-96.52 298.11,-107.55l122.65 -4.66z"/>
  <path class="fil10" d="M3191.28 4208.03c94.48,-35.93 307.19,-79.13 352.82,-169.14 196.03,-81.64 245.61,-81.44 414.31,-108.25l-0.28 0.05c-14.33,22.05 -290.61,290.29 -316.94,310.98 -81.13,63.74 -128.95,21.18 -247.58,-12.75 -5.32,-1.52 -10.55,-2.97 -15.69,-4.35l-0.24 -0.06c-5,-1.34 -9.92,-2.61 -14.75,-3.81l-0.86 -0.22c-4.57,-1.13 -9.07,-2.21 -13.5,-3.23l-1.56 -0.35c-4.27,-0.97 -8.47,-1.89 -12.6,-2.76l-1.59 -0.33c-4.07,-0.84 -8.09,-1.64 -12.03,-2.37l-2.02 -0.37c-3.68,-0.68 -7.29,-1.31 -10.86,-1.9l-2.26 -0.37c-3.48,-0.56 -6.92,-1.08 -10.29,-1.56l-2.47 -0.34c-3.19,-0.44 -6.33,-0.83 -9.42,-1.19l-3.05 -0.34c-2.83,-0.31 -5.61,-0.59 -8.35,-0.83l-3.39 -0.3c-2.73,-0.22 -5.42,-0.42 -8.07,-0.58l-2.91 -0.17c-2.48,-0.13 -4.91,-0.23 -7.31,-0.31l-3.83 -0.1c-2.02,-0.04 -4.01,-0.06 -5.97,-0.07l-4.43 0.03c-1.79,0.02 -3.56,0.06 -5.3,0.12 -1.59,0.05 -3.16,0.12 -4.72,0.2 -1.42,0.07 -2.81,0.15 -4.2,0.25 -1.8,0.12 -3.55,0.27 -5.29,0.43l-2.7 0.27c-1.9,0.2 -3.78,0.42 -5.61,0.66l-2.26 0.31 -0.38 0.06c-2.03,0.3 -4.02,0.63 -5.96,0.98l-0.22 0.04 -2.12 0.4 -0.06 0.01c-2,0.39 -3.95,0.82 -5.85,1.27l-0.24 0.06 0.04 -0.06z"/>
  <path class="fil1" d="M3248.97 4440.53c-38.92,-23.64 -76.42,-55.41 -101.49,-93.15 -18.7,-28.15 -34.44,-66.91 -20.43,-100.3 35.33,-84.19 207.01,-42.41 268.46,-24.82 32.98,9.44 64.53,21.29 97.02,31.94 22.47,7.37 46.99,14.49 70.86,13.34 28.19,-1.35 51.72,-14.2 73.52,-31.32 6.73,-5.29 13.54,-11.9 19.84,-17.73 12.53,-11.6 24.95,-23.36 37.32,-35.14 34.52,-32.85 68.76,-66 102.86,-99.28 34.71,-33.88 69.33,-67.91 103.5,-102.35 12.01,-12.1 24,-24.26 35.72,-36.64 4.54,-4.79 12.64,-12.74 16.16,-18.16 1.1,-1.69 2.69,-2.73 4.68,-3.06 28.94,-4.8 57.91,-9.03 86.89,-13.49 2.3,-0.35 4.63,0.37 6.28,2.05 6.98,7.11 -8.17,20.99 -12.29,25.66 -13.27,15.04 -27.08,29.73 -40.82,44.34 -42.58,45.29 -85.76,90.05 -128.86,134.84 -56.35,58.55 -114.38,117.1 -169,177.19 -0.13,0.14 -0.24,0.26 -0.38,0.39 -81.15,76.18 -98.61,103.85 -210.62,55.03 -34.58,-15.07 -71.28,-27.85 -107.39,-38.7 -35.18,-10.56 -73.71,-20.62 -110.25,-24.69 -11.2,-1.25 -48.99,-4.67 -55.97,7.51 -11.04,19.3 53.92,76.18 64.99,85.79 7.38,6.4 18.3,13.13 27.34,18.89 4.85,3.09 7.37,3.16 0.25,8.39 -15.11,11.11 -30.31,22.12 -45.6,32.98 -5.16,3.66 -7.89,3.34 -12.59,0.49z"/>
  <path class="fil11" d="M3694.07 4289.79c-79.49,74.62 -93.67,101.43 -203.11,53.73 -122.94,-53.58 -417.2,-133.19 -215.93,41.49 4.78,4.15 11.33,8.93 25.63,18.24 -15.21,11.19 -30.43,22.2 -45.51,32.91 -182.37,-104.47 -204.67,-305.43 138.45,-207.25 118.63,33.94 166.45,76.49 247.58,12.75 26.33,-20.68 302.61,-288.93 316.94,-310.98 37.41,-6.2 42.11,-6.61 86.81,-13.47 11.85,-1.82 -282.65,297.53 -350.86,372.57z"/>
  <ellipse class="fil12 str0" transform="matrix(1.05348 0.0454599 -0.0431118 0.99907 4133.54 3387.72)" rx="58.33" ry="30.2"/>
  <path class="fil1" d="M4769.72 4173.6c-7.34,-6.82 -14.74,-13.58 -22.19,-20.28 -144.5,-129.81 -324.58,-218.5 -519.48,-235.22 -60.65,-5.2 -121.89,-3.27 -182.06,5.97 -45.08,6.92 -90.19,12.79 -135.43,18.48 -34.75,4.37 -69.57,8.7 -104.08,14.75 -90.86,15.93 -173.29,45.82 -258.24,81.2 -2.07,0.86 -4.23,0.72 -6.17,-0.42 -1.94,-1.14 -3.12,-2.94 -3.38,-5.18 -24.72,-213.19 29.22,-384.59 186.41,-531.49 123.6,-115.51 401.91,-133.01 559.83,-97.14 386.05,87.7 500.1,394.41 496.42,764.32 -0.03,2.8 -1.61,5.18 -4.19,6.29 -2.58,1.11 -5.4,0.62 -7.45,-1.29z"/>
  <path class="fil11" d="M4774.43 4168.52c4.67,-469.39 -185.26,-688.03 -491.02,-757.49 -152.3,-34.6 -430.35,-19.71 -553.57,95.44 -125.35,117.13 -213.61,272.46 -184.26,525.63 227.5,-94.74 276.53,-80.67 499.36,-114.88 250.96,-38.52 505.57,49.79 707.22,230.95 7.48,6.72 14.9,13.5 22.28,20.36l0 0z"/>
  <g id="_2057224010464">
   <path class="fil1" d="M3333.55 5095.23c-103.99,36.53 -188.11,19.11 -288.44,-18.06 -1.79,-0.66 -2.71,-2.66 -2.04,-4.45 0.66,-1.79 2.66,-2.71 4.45,-2.04 98.74,36.59 181.37,53.98 283.73,18.03 1.8,-0.63 3.79,0.32 4.42,2.12 0.63,1.8 -0.32,3.79 -2.12,4.42z"/>
  </g>
  <path class="fil0" d="M3332.4 5091.96c-103.23,36.27 -186.54,18.84 -286.08,-18.04"/>
  <path class="fil1" d="M3037.34 4572.48c103.86,2.39 187.39,21 281.79,64.7 1.73,0.8 2.49,2.87 1.69,4.6 -0.8,1.73 -2.87,2.49 -4.6,1.69 -93.04,-43.07 -175.25,-61.52 -277.4,-64.02 -0.53,-0.01 -24.34,0.16 -24.88,0.16 -0.72,-0.01 22.95,-7.14 23.39,-7.13z"/>
  <g id="_2057224009248">
   <path class="fil1" d="M5829.63 4820.65c129.89,73.44 227.07,246.83 264.85,388.26 3.63,13.57 7.68,27.85 10.14,41.66 1.23,6.87 3.21,18.08 -4.04,22.41 -9.73,5.81 -27.74,-11 -34.83,-16.62 -8.96,-7.1 -17.88,-14.21 -26.98,-21.14 -32.52,-24.76 -64.44,-50.3 -97.33,-74.58 -85.6,-63.2 -167.05,-99.62 -271.81,-54.39 -101.18,43.69 -211.02,143.48 -291.02,219.05 -73.99,69.89 -144.22,145.14 -220.5,212.57 -12.12,10.18 -24.08,20.56 -35.95,31.03 -41.02,36.18 -82.26,75.44 -126.4,107.63 -27.42,20.01 -70.93,48.45 -106.64,37.76 -30.54,-9.15 -44.69,-42.96 -52.25,-71.02 -31.49,-116.92 -7.42,-271.91 27.22,-385.91 38.96,-128.16 123.76,-307.83 254.67,-363.89 15.15,-6.49 30.57,-11.2 46.85,-13.84 45.69,-7.39 104.44,1.56 150.77,5.31 115.52,9.35 192.22,-60.35 294.81,-91.95 78.97,-24.32 146.85,-12.8 218.41,27.67z"/>
  </g>
  <path class="fil2" d="M5826.22 4826.68c119.89,67.79 220.71,231.07 261.57,384.02 17.73,66.37 15.9,66.88 -17.74,40.22 -7.43,-5.89 -16.42,-13.1 -27.08,-21.23 -32.41,-24.69 -63.84,-49.87 -97.41,-74.64 -81.79,-60.39 -167.38,-103.23 -278.67,-55.17 -101.54,43.85 -216.63,149.32 -293.03,220.37 -77.67,74.47 -152.44,152.39 -220.19,212.3 -134.4,112.78 -267.08,268.64 -310.09,108.9 -59.15,-219.65 71.96,-653.43 277.93,-741.63 57.02,-24.42 98.96,-15.7 194.34,-7.99 192.48,15.58 293.61,-187.72 510.37,-65.15z"/>
  <g id="_2056679513808">
   <path class="fil1" d="M5300.44 5183.01c9.95,-9.2 20.3,-18.1 29.98,-27.77 70.45,-67.72 145.69,-132.57 232.78,-178.08 261.49,-136.68 421.34,18.97 513.36,271.38 1.07,2.96 0.09,6.15 -2.46,7.99 -2.55,1.84 -5.89,1.77 -8.36,-0.19 -8.96,-7.1 -17.88,-14.21 -26.98,-21.14 -32.52,-24.76 -64.44,-50.3 -97.33,-74.58 -83.08,-61.33 -170.12,-111.23 -271.17,-54.7 -55.14,30.85 -109.34,78.81 -155.53,121.74 -60.32,56.06 -117.92,115.38 -175.75,173.99 -71.24,72.2 -144.44,146.88 -223.01,211.05 -50.37,41.13 -127.49,98.07 -194.67,102.19 -50.67,3.11 -71.77,-24.63 -84.43,-71.64 -44.94,-166.88 -20.99,-352.25 69.78,-499.98 1.53,-2.49 4.29,-3.72 7.16,-3.19 2.87,0.53 5.01,2.66 5.55,5.52 11.6,61.23 38.53,174.25 111.06,191.5 41.55,9.88 88.29,-13.2 122.54,-34.63 52.39,-32.77 102.14,-77.55 147.46,-119.46z"/>
  </g>
  <path class="fil6" d="M5305.15 5188.1c9.31,-8.61 21.19,-18.97 30.07,-27.86 119.54,-114.91 521.99,-493.16 734.82,90.68 -7.43,-5.89 -16.41,-13.1 -27.08,-21.23 -32.41,-24.69 -63.84,-49.87 -97.41,-74.64 -81.79,-60.39 -172.88,-114.36 -278.67,-55.17 -213.41,119.39 -550.86,596.13 -746,608.1 -35.43,2.17 -61.81,-8.97 -77.31,-66.53 -54.71,-203.18 1.39,-384.52 69,-494.55 59.59,314.39 219.54,201.23 392.58,41.21z"/>
  <g id="_2056682268944">
   <path class="fil1" d="M2668.85 5194.46c4.11,6.76 7.87,13.73 11.46,20.77 22.63,0.14 45.29,0.68 67.82,2.94 6.27,0.63 12.54,1.23 18.82,1.82 5.67,-6.29 11.25,-12.67 17.05,-18.85 13.86,-14.76 28.8,-28.45 42.87,-42.99 -0.17,-0.78 -0.35,-1.56 -0.52,-2.35 -8.61,-28.19 -17.31,-56.39 -23.83,-85.15 -1.87,-5.15 -3.75,-10.29 -5.7,-15.4 -0.93,-2.46 -0.47,-5.05 1.26,-7.02 1.73,-1.98 4.23,-2.79 6.79,-2.19 78.97,18.47 134.77,111.89 109.58,189.56 -1.84,5.68 -4.12,11.2 -6.83,16.51 -9.7,18.97 -23.61,34.47 -36.91,50.82 1.83,5.38 3.66,10.75 5.59,16.1 0.16,0.45 0.26,0.84 0.33,1.31l208.16 523.41c2.14,3.9 4.22,7.83 6.22,11.81 53.93,9.87 104.29,49.91 119.24,103.63 9.64,34.61 2.67,68.97 -16.98,98.72 -1.45,2.2 -3.83,3.33 -6.44,3.08 -2.62,-0.26 -4.74,-1.82 -5.74,-4.26 -1.78,-4.33 -3.63,-8.63 -5.5,-12.92 -12.94,-21.88 -24.15,-44.7 -35.46,-67.44 -0.26,-0.43 -0.52,-0.86 -0.77,-1.29 -17.25,-0.75 -34.54,-0.49 -51.78,-1.52 -7.14,-0.43 -14.25,-1.11 -21.38,-1.68 -3.47,3.95 -6.93,7.92 -10.38,11.9 -12.67,14.63 -26.42,28.26 -40.37,41.64 1.86,6.37 3.57,12.78 4.97,19.27 6.4,22.32 14.05,44.25 21.19,66.34 0.8,2.46 0.24,4.98 -1.54,6.87 -1.77,1.89 -4.25,2.61 -6.76,1.98 -102.15,-25.91 -117.61,-139.93 -61.5,-217.08 -2.02,-5.89 -4.12,-11.72 -6.15,-17.4l-209.21 -526.04c-0.15,-0.36 -0.26,-0.73 -0.34,-1.09 -1.24,-2.92 -2.46,-5.83 -3.7,-8.75 -5.84,-0.78 -11.86,-0.79 -17.68,-1.68 -5.54,-0.85 -11.05,-1.91 -16.54,-3.02 -98.23,-19.77 -150.77,-138.46 -96.44,-224.04 1.39,-2.19 3.69,-3.36 6.27,-3.2 2.59,0.16 4.72,1.61 5.83,3.95 11.55,24.36 22.6,48.98 35,72.93z"/>
  </g>
  <path class="fil13" d="M2627.59 5124.5c11.62,24.5 22.76,49.32 35.21,73.36 4.81,7.9 9.1,16.04 13.23,24.28 23.88,0.1 47.73,0.56 71.4,2.93 7.44,0.74 14.88,1.45 22.32,2.15 6.46,-7.1 12.75,-14.36 19.3,-21.33 14.69,-15.64 30.61,-30.1 45.39,-45.61 -0.45,-2.07 -0.93,-4.15 -1.37,-6.22 -8.64,-28.29 -17.38,-56.55 -23.88,-85.36 -1.94,-5.33 -3.87,-10.62 -5.88,-15.91 85.39,19.97 134.32,125.59 98.16,196.17 -9.98,19.64 -24.9,35.6 -38.54,52.59 2.26,6.61 4.49,13.23 6.86,19.82l0.12 0.78 208.62 524.55c2.74,4.97 5.37,9.99 7.84,15.08 87.31,13.77 157.22,107.41 101.14,192.3 -1.86,-4.51 -3.78,-8.98 -5.73,-13.44 -12.97,-21.89 -24.21,-44.77 -35.55,-67.6 -0.94,-1.56 -1.87,-3.13 -2.81,-4.71 -18.44,-0.97 -36.97,-0.61 -55.41,-1.69 -8.24,-0.51 -16.46,-1.33 -24.71,-1.95 -4.26,4.82 -8.48,9.68 -12.7,14.55 -13.42,15.5 -28.1,29.88 -42.98,44.1 2.29,7.59 4.42,15.25 6.09,23.04 6.42,22.41 14.13,44.54 21.33,66.79 -97.33,-24.69 -112.12,-134.71 -55.49,-209.15 -2.37,-7.12 -4.92,-14.14 -7.44,-21.18l-209.21 -526.04 0.12 -0c-1.9,-4.49 -3.8,-9.01 -5.71,-13.49 -7.05,-1.41 -14.82,-1.29 -21.52,-2.32 -5.46,-0.83 -10.87,-1.8 -16.22,-2.96 -90.73,-18.18 -145.16,-129.73 -91.96,-213.54z"/>
  <path class="fil14" d="M2811.9 5329.93c22.04,-8.76 44.25,-3.17 50.57,12.69l191.43 481.35c6.32,15.9 -6,35.19 -28.04,43.96 -22.04,8.77 -44.25,3.19 -50.56,-12.69l-191.44 -481.36c-6.31,-15.86 6,-35.18 28.05,-43.95z"/>
  <path class="fil15" d="M3021.95 5858.1c15.97,-6.36 26.1,-20.19 22.12,-30.22l-191.44 -481.34c-3.98,-10.01 -20.85,-13.13 -36.82,-6.77 -15.99,6.34 -26.11,20.21 -22.13,30.22l191.44 481.35c3.98,10.03 20.85,13.11 36.84,6.77z"/>
  <path class="fil16" d="M4045.02 3915.98c3.86,-130.19 46.68,-254.86 86.92,-377.43 6.33,-19.29 14.03,-38.16 20.21,-57.43 3.93,-12.25 7.74,-26.49 5.53,-39.42 -3.13,-18.37 -19.66,-34.53 -34.01,-44.87 -0.75,-0.54 -1.43,-1.46 -1.89,-2.2 7.38,-0.04 14.74,0.24 21.93,0.33 12.83,11.1 24.69,27.15 27.63,44.41 4.94,29.03 -17.01,75.38 -26.24,103.49 -39.65,120.75 -82.16,244.15 -86.2,372.35 -4.61,0.62 -9.21,1.27 -13.82,1.98 -0.06,-0.4 -0.08,-0.81 -0.07,-1.22z"/>
  <path class="fil17" d="M3678.18 3559.71c-83.57,95.71 -140.48,217.02 -138.18,388.07l0.01 0.44c1.48,-0.93 3.08,-1.89 4.9,-2.98 93.46,-64.39 272.31,-88.13 386.59,-79.83 21.25,-179.43 37.84,-296.56 77.52,-351.13 -92.56,-2.22 -226.75,9.2 -330.85,45.43z"/>
  <path class="fil6" d="M3773.83 3694.78c41.99,-34.89 24.14,-78 -8.74,-80.75 -36.77,-3.08 -65.17,1.06 -90.69,10.25l-53.08 215.69c39.23,-3.61 73.58,-6.41 117.46,-17.97 77.43,-20.39 112.02,-107.33 35.05,-127.22zm-88.37 5.29c10.88,-1.17 52.17,-3.9 60.94,-8.96 38.95,-22.53 21.31,-57.96 -13.16,-58.65 -11.92,-0.24 -24.47,1.32 -36.69,5.66l-11.09 61.96zm-25.84 107.12l22.28 -81.35c25.66,-6.09 40.99,-8.06 57.28,-8.25 56.99,-0.68 52.45,57.41 3.62,75.48 -22.96,8.49 -46.15,12.46 -83.19,14.13z"/>
 </g>
</svg>
