<?xml version="1.0" encoding="UTF-8"?>
<!DOCTYPE svg PUBLIC "-//W3C//DTD SVG 1.1//EN" "http://www.w3.org/Graphics/SVG/1.1/DTD/svg11.dtd">
<!-- Creator: CorelDRAW X6 -->
<svg xmlns="http://www.w3.org/2000/svg" xml:space="preserve" width="1467px" height="1501px" version="1.1" style="shape-rendering:geometricPrecision; text-rendering:geometricPrecision; image-rendering:optimizeQuality; fill-rule:evenodd; clip-rule:evenodd"
viewBox="0 0 1467 1501"
 xmlns:xlink="http://www.w3.org/1999/xlink">
 <defs>
  <style type="text/css">
   <![CDATA[
    .str0 {stroke:#2B2A29;stroke-width:2.08361}
    .fil2 {fill:none}
    .fil5 {fill:#00A0E3}
    .fil0 {fill:#2B2A29}
    .fil4 {fill:#5B5B5B}
    .fil1 {fill:#727271}
    .fil8 {fill:#898989}
    .fil10 {fill:#9D9E9E}
    .fil9 {fill:#B2B3B3}
    .fil14 {fill:#C5C6C6}
    .fil7 {fill:#E31E24}
    .fil6 {fill:#FEFEFE}
    .fil3 {fill:#0084B9}
    .fil12 {fill:#616363;fill-rule:nonzero}
    .fil13 {fill:#888B8A;fill-rule:nonzero}
    .fil11 {fill:#C8C8C9;fill-rule:nonzero}
   ]]>
  </style>
 </defs>
 <g id="Layer_x0020_1">
  <metadata id="CorelCorpID_0Corel-Layer"/>
  <g id="_271866104">
   <path class="fil0" d="M1395 914c-2,9 -5,19 -12,25 -7,6 -19,6 -28,5 -8,0 -15,-1 -23,-2 -11,-2 -22,-3 -32,-4 -14,-2 -28,-1 -39,8 -8,7 -14,17 -20,26 -17,27 -104,155 -105,175 -1,44 87,78 29,121 -19,13 -37,27 -56,40 -13,9 -26,19 -39,27l-5 3c0,0 0,0 0,0 -2,2 -5,3 -7,4 -3,2 -7,4 -9,4 -8,2 -15,1 -22,-2 -15,-7 -27,-26 -36,-40 -7,-10 -16,-21 -27,-28 -8,-4 -16,-6 -25,-6 -12,1 -24,4 -36,6 -15,3 -30,7 -45,11 -25,6 -50,13 -74,18 -16,4 -39,7 -52,17 -1,1 -3,3 -4,4 -7,11 -10,25 -11,37 -2,17 -2,43 -14,56 -4,5 -10,8 -16,9 -1,0 -3,0 -4,1 -14,2 -32,-2 -46,-4 -7,-1 -15,-2 -23,-4 -18,-2 -36,-4 -53,-7 -10,-1 -21,-2 -30,-5 -6,-1 -12,-4 -16,-9 -1,-1 -1,-1 -2,-2 -23,-29 25,-88 -15,-119l-176 -105c-6,-2 -19,-9 -25,-9 -46,-1 -80,84 -126,28 -14,-17 -28,-35 -42,-53 -7,-8 -39,-48 -40,-57 0,-1 -1,-2 -1,-2 -6,-19 7,-32 22,-42 11,-8 22,-15 33,-23 7,-5 13,-10 17,-18 5,-8 5,-17 4,-26 -2,-17 -6,-34 -10,-50 -4,-14 -7,-28 -10,-42 -4,-17 -10,-34 -14,-51 -4,-15 -7,-36 -16,-48 -3,-4 -7,-7 -11,-10 -14,-6 -33,-8 -48,-9 -12,-1 -28,-3 -38,-8 -5,-2 -10,-6 -13,-12 -9,-17 -1,-45 2,-64 4,-27 7,-55 12,-83 6,-30 25,-34 52,-30 12,1 23,2 35,3 8,1 16,2 24,2 11,-2 20,-6 27,-15l110 -173c7,-11 11,-22 7,-34 -3,-11 -11,-20 -17,-28 -8,-11 -18,-22 -24,-34 -4,-6 -7,-14 -6,-22 3,-12 17,-21 25,-28 17,-15 37,-27 55,-39 8,-7 16,-13 24,-19 7,-4 13,-9 20,-12 14,-9 29,-12 43,-2 13,9 21,19 29,32 6,10 13,21 21,29 4,3 7,5 12,7 8,2 18,1 27,0 15,-2 30,-6 45,-9 27,-6 134,-26 150,-40 11,-11 14,-35 16,-50 1,-8 2,-16 3,-24 4,-20 11,-33 32,-34 8,-1 18,0 26,1 13,2 27,4 40,6 12,2 24,3 36,4 9,1 19,2 28,4 12,2 29,4 38,13 6,6 8,16 8,24 1,14 -2,30 -4,44 -3,16 -6,36 4,50 9,9 23,17 34,24 0,0 0,0 0,0 8,4 15,8 23,13 37,21 75,42 112,64 11,6 23,14 35,17 14,3 25,-1 36,-8 14,-10 44,-36 59,-38 13,-2 26,7 35,15 13,11 24,26 34,40 9,12 18,25 28,37 6,8 13,15 19,24l2 3c0,0 0,0 0,0 5,8 9,18 7,28 -4,12 -15,21 -24,28 -13,9 -26,16 -38,26 -8,6 -15,12 -18,21 -5,14 0,32 3,45l13 55c0,0 0,0 0,0 1,4 2,7 3,11 6,25 12,50 19,76 3,9 6,17 13,24 10,8 27,10 40,12 16,2 34,4 49,9 8,2 18,6 22,14 6,9 4,24 3,34 -2,21 -7,42 -10,63 -1,4 -1,9 -2,13 -1,8 -2,16 -3,25 -1,6 -2,12 -3,18zm-688 -493c-115,0 -224,55 -289,150 -37,53 -56,116 -56,181 0,65 19,128 56,181 65,95 174,150 289,150 115,0 224,-55 289,-150 37,-53 56,-116 56,-181 0,-65 -19,-128 -56,-181 -65,-95 -174,-150 -289,-150z"/>
  </g>
  <path class="fil1" d="M1339 740c70,9 77,15 71,55 -1,21 -7,50 -9,63 -1,4 -1,9 -2,13 -2,18 -3,32 -6,42 -8,37 -19,31 -93,23 -38,-4 -46,12 -61,35 -21,33 -104,156 -105,176 -1,45 86,77 30,119 -12,8 -65,48 -96,67l-4 4c-2,1 -5,2 -7,3 -4,3 -7,4 -9,4 -49,9 -53,-80 -110,-76 -33,3 -116,27 -155,35 -24,6 -44,8 -57,22 -22,33 -1,92 -40,101 -1,0 -2,0 -3,0 -13,3 -30,0 -45,-3 -9,-1 -17,-3 -24,-4 -17,-2 -36,-4 -53,-7 -27,-3 -40,-6 -46,-15 -22,-28 26,-88 -15,-120l-177 -104c-12,-6 -21,-10 -26,-10 -47,-1 -80,83 -124,29 -11,-14 -80,-98 -82,-110 0,0 -1,-1 -1,-2 -5,-14 1,-25 21,-39 57,-40 66,-34 45,-120 -3,-9 -6,-24 -10,-41 -5,-20 -11,-39 -14,-52 -7,-26 -9,-47 -29,-58 -13,-6 -31,-8 -48,-10 -14,-2 -28,-3 -37,-8 -25,-12 -14,-46 -10,-74 4,-27 8,-56 13,-82 5,-31 25,-33 49,-29 28,2 45,6 59,5 11,-2 21,-6 29,-16l110 -173c18,-29 5,-45 -11,-65 -38,-48 -38,-55 -4,-80 15,-14 35,-27 54,-40 18,-13 32,-24 44,-31 12,-7 27,-12 41,-1 31,22 35,56 62,68 14,3 35,0 74,-9 31,-8 134,-26 150,-41 16,-14 15,-48 20,-75 4,-23 14,-31 30,-32 13,-2 33,2 66,7 26,3 48,5 64,8 42,5 50,13 40,79 -4,24 -5,39 4,51 7,7 18,15 35,25 0,0 0,0 0,0 8,4 16,8 23,12 26,15 63,35 112,65 23,13 43,29 73,9 13,-9 44,-36 59,-38 30,-5 66,56 94,91 5,7 14,15 19,25l2 2c25,37 -19,52 -55,79 -23,18 -24,34 -15,68l13 55c0,0 0,0 0,1 1,3 2,7 3,10 6,26 12,51 19,76 8,28 22,34 55,38zm-632 -321c192,0 348,149 348,333 0,184 -156,333 -348,333 -192,0 -347,-149 -347,-333 0,-184 155,-333 347,-333z"/>
  <path class="fil2" d="M1399 352l2 -1c2,-1 5,-3 8,-4l3 -2 3 -1 4 -2 3 -2 4 -2 4 -2 5 -2 4 -2 2 -1 5 -2c2,-1 5,-2 8,-4 2,-1 5,-2 7,-3 3,-1 6,-3 6,-7 -1,-5 -4,-6 -8,-6 -2,-1 -5,-1 -8,-1 -97,-12 -197,0 -293,19 -22,4 -44,12 -65,18 -18,5 -37,9 -55,6 -14,-2 -26,-9 -36,-19 0,0 0,0 0,0 -18,-33 -43,-61 -70,-87 0,0 0,-1 0,-1 0,-1 0,-1 0,-2 0,-2 0,-3 0,-5 0,-2 0,-4 0,-5 0,-2 0,-4 0,-5 -1,-2 -1,-4 -1,-6 0,-1 0,-3 0,-5 0,-1 0,-3 0,-5 0,-1 0,-3 -1,-5 0,-1 0,-3 0,-5 0,-1 0,-3 0,-5 -1,-1 -1,-3 -1,-5 0,-1 0,-3 -1,-4 0,-2 0,-4 0,-5 -1,-2 -1,-3 -1,-5 0,-2 -1,-3 -1,-5 0,-1 -1,-3 -1,-4 0,-2 0,-4 -1,-5 0,-2 0,-3 -1,-5 -1,-3 -1,-6 -2,-9 0,-1 -1,-3 -1,-4 -1,-2 -1,-3 -2,-5 0,-1 -1,-3 -1,-4 -1,-2 -1,-3 -2,-4 0,-2 -1,-3 -1,-5 -1,-1 -1,-3 -2,-4 0,-1 -1,-3 -1,-4 -1,-2 -2,-3 -2,-4 -1,-2 -2,-3 -2,-4 -1,-2 -1,-3 -2,-4 -1,-2 -2,-3 -2,-4 -1,-2 -2,-3 -2,-4 -1,-1 -2,-3 -3,-4 0,-1 -1,-2 -2,-4 -1,-1 -2,-2 -2,-3 -1,-2 -2,-3 -3,-4 -1,-1 -2,-2 -2,-4 -1,-1 -2,-2 -3,-3 -1,-1 -2,-2 -3,-3 -1,-2 -2,-3 -3,-4 -1,-1 -2,-2 -3,-3 -1,-1 -2,-2 -3,-3 -1,-1 -2,-2 -3,-3 -1,-1 -2,-2 -3,-3 -1,-1 -3,-2 -4,-3 -1,-1 -2,-2 -3,-3 -1,-1 -3,-2 -4,-3 -1,-1 -2,-2 -3,-3 -2,-1 -3,-2 -4,-3 -2,0 -3,-1 -4,-2 -1,-1 -3,-2 -4,-3 -2,0 -3,-1 -4,-2 -2,-1 -3,-2 -4,-2 -2,-1 -3,-2 -5,-3 -1,0 -3,-1 -4,-2 -2,0 -3,-1 -5,-2 -1,0 -3,-1 -4,-2 -2,0 -4,-1 -5,-2 -2,0 -3,-1 -5,-1 -2,-1 -3,-2 -5,-2 -2,-1 -3,-1 -5,-2 -2,0 -4,-1 -5,-1 -2,-1 -4,-1 -6,-2 -2,0 -3,0 -5,-1l-1 0 -2 0c-6,-2 -12,-3 -19,-3l-2 -1c0,0 -1,0 -1,-1 -3,-6 -14,-9 -21,-9 -7,0 -19,2 -22,8 0,1 -1,2 -2,2 -8,0 -16,1 -24,2l-1 1c-26,4 -55,12 -75,30l-1 0c0,1 0,1 -1,1 -21,20 -38,44 -48,72 -11,29 -12,59 -9,89 0,1 0,1 0,2 -13,23 -75,37 -100,46 0,0 0,0 0,0 -10,2 -20,7 -24,16 -5,12 0,24 6,33 7,10 16,19 26,25 0,1 1,1 1,2 0,1 -1,1 -1,2 -6,4 -12,8 -18,12 -12,8 -25,16 -38,21 0,0 -1,0 -1,0 -29,3 -60,13 -71,43 -6,19 -2,39 7,57 11,21 29,38 50,50 7,5 15,9 24,12 0,0 0,0 0,0 10,7 22,12 33,17 30,12 61,21 92,28 15,3 37,5 49,12 7,5 11,13 14,20 1,3 1,6 1,9 0,1 -1,2 -1,2 -33,19 -79,5 -113,-5 -37,-11 -59,-14 -93,9 -5,4 -10,8 -15,13 -1,0 -2,0 -2,0 -1,0 -1,0 -2,-1l-15 -38c0,0 0,0 0,0 0,-1 0,-1 0,-1 0,0 0,-1 -1,-2 0,0 0,-1 1,-2 3,-4 7,-8 9,-13 1,-2 2,-4 2,-5 9,-26 -9,-56 -35,-62 -2,-1 -5,0 -6,2 -1,1 -2,4 -1,6 0,1 1,2 1,4 0,0 1,0 1,0 1,8 4,15 6,23 0,1 0,1 -1,2 -3,3 -7,7 -10,10 -1,2 -2,3 -3,4 -1,0 -1,1 -2,1 -1,0 -2,-1 -3,-1 -5,0 -11,0 -17,-1 -1,0 -1,0 -2,-1 0,-1 -1,-2 -2,-3 0,0 0,0 0,0 -3,-7 -7,-14 -10,-21 -1,-2 -3,-4 -5,-4 -2,0 -4,1 -5,3 -18,28 -1,66 31,73 2,0 4,1 5,1 1,0 2,0 2,0 1,0 2,1 2,1l27 67c0,1 0,1 -1,2 -10,18 -19,38 -24,59 -1,4 -3,8 -3,13 -1,4 -1,8 3,10 4,3 8,0 11,-3 4,-2 7,-5 10,-7l0 -1c1,0 1,0 1,0l2 -2 18 -13 2 -2c0,0 1,0 2,0 0,0 1,0 1,1l14 34c0,1 0,1 0,2 1,1 1,1 0,2 -16,25 -9,60 22,68 3,1 5,0 6,-1 2,-2 2,-4 2,-6 -3,-7 -5,-13 -7,-20 0,0 0,0 0,0 0,-1 0,-1 0,-2 -1,-1 0,-2 0,-2 4,-4 7,-7 10,-11 0,0 1,0 1,-1 1,0 1,-1 2,-1 1,0 2,1 3,1 5,0 9,0 13,0 0,0 1,0 1,1 3,6 6,12 10,18 0,0 0,0 0,0 0,1 1,2 1,3 1,2 3,4 5,4 2,0 4,-1 6,-3 6,-10 8,-21 5,-33 -4,-16 -19,-29 -36,-33 0,0 -1,0 -1,-1 0,0 0,0 -1,-1 0,0 0,0 0,0l-16 -41c0,-1 0,-2 0,-2 0,-1 1,-1 1,-1l1 0 1 -1 1 0c0,0 0,0 1,0l1 0 0 0 1 0 1 -1 0 0 1 0 1 0 0 0 1 0 1 0 1 0 1 0 1 0 1 0 1 0 1 0 0 0 1 0 1 0 0 0 1 0 2 0 1 0 1 0 0 0 1 1 1 0 2 0 1 0c1,0 1,1 1,1l1 0 1 0 1 0 2 1 1 0 1 1 1 0c0,0 0,0 1,0l1 1 0 0c1,0 1,0 1,0 1,1 1,1 2,1 0,0 0,0 0,0l0 0c0,0 1,1 1,1l0 0c0,0 1,0 1,0l2 1 1 1 2 0 1 1 1 1 2 1 1 1 1 1 2 0 1 1 2 1 1 1 1 1 2 1 1 1 1 1 2 1 1 1 2 1 0 1 2 1 1 1 2 1 1 1 1 1 2 1 1 2 2 1 2 1 2 2 2 2 2 2 2 2c3,2 5,4 7,6l2 2 3 2 3 4 13 12c1,0 1,1 0,2 -36,71 -71,142 -96,217 -26,77 -42,161 -29,242 5,34 15,66 30,97 34,68 56,95 123,133 95,54 194,38 293,6 0,0 0,0 0,0 31,-12 60,-30 87,-49 26,-19 52,-41 74,-65 2,-3 5,-6 7,-9 1,0 1,0 2,0 0,0 1,0 1,0 63,75 156,127 252,149 11,2 14,3 25,7 3,1 6,-1 7,-3 2,-3 1,-6 -1,-8 -93,-67 -152,-162 -174,-275 -8,-41 -11,-84 -8,-127 6,-106 42,-214 104,-300 2,-2 1,-6 -1,-8 -2,-2 -6,-1 -8,1 -13,12 -26,21 -40,32 -77,62 -139,143 -172,235 -24,68 -30,139 -18,209 0,1 -1,2 -1,2 -3,2 -5,3 -8,4 -28,17 -57,34 -89,43 -27,7 -53,9 -81,5 -22,-3 -47,-11 -57,-33 -10,-23 -2,-56 5,-78 9,-28 21,-56 33,-82 14,-29 30,-57 46,-86 19,-34 40,-68 60,-102 42,-68 79,-139 110,-213 3,-7 6,-14 9,-20 0,-1 0,-1 1,-1 5,-4 11,-8 16,-13 24,-19 45,-41 67,-63 17,-18 35,-35 53,-52 14,-13 29,-27 45,-36 0,0 0,0 0,0 30,-13 53,-2 78,16 10,7 19,15 29,22 3,2 5,4 8,7 1,1 3,2 4,3 3,2 7,4 11,2 4,-2 3,-7 3,-11 -1,-4 -2,-8 -3,-13 -11,-39 -36,-85 -69,-110 0,0 -1,-1 -1,-1 0,-1 1,-2 1,-2 20,-16 40,-32 62,-46 23,-16 48,-30 73,-44 0,0 1,0 1,0"/>
  <g id="_271867448">
   <path class="fil0" d="M1223 786c-63,87 -99,195 -105,302 -2,43 0,86 8,128 22,113 81,210 175,277 1,1 2,2 1,3 0,1 -1,1 -2,1 -107,-17 -215,-74 -283,-160 0,0 0,0 0,0 -9,-25 -18,-49 -27,-73 0,0 0,0 0,0 -14,-73 -8,-146 17,-215 38,-109 118,-201 213,-266 1,0 2,0 3,0 1,1 1,2 0,3z"/>
  </g>
  <path class="fil3" d="M992 1263c-37,-195 73,-372 229,-478 -145,201 -162,537 79,710 -106,-17 -213,-74 -281,-159 -9,-24 -18,-48 -27,-73z"/>
  <path class="fil4 str0" d="M468 316l38 14c0,0 48,-39 49,-45 1,-6 -62,-12 -62,-12l-44 2 4 27 15 14z"/>
  <g id="_271869464">
   <path class="fil0" d="M608 617c-2,20 -14,45 -22,63 -15,31 -31,61 -47,92 0,0 -1,1 -1,1 -1,0 -2,0 -2,-1 -24,-22 -56,-55 -86,-68 -32,-14 -56,-3 -82,16 -10,8 -19,15 -29,23 -4,3 -7,6 -11,8 -2,2 -5,4 -7,3 -3,-1 -2,-5 -2,-7 1,-4 2,-8 3,-12 12,-43 38,-88 74,-114 33,-23 54,-19 90,-8 36,11 85,25 119,2 1,0 2,0 2,0 1,1 1,1 1,2z"/>
  </g>
  <path class="fil3" d="M324 735c13,-46 40,-88 74,-112 30,-21 48,-20 87,-8 40,12 88,25 121,2 -3,31 -33,85 -69,154 -23,-22 -56,-56 -86,-69 -34,-14 -59,-2 -84,17 -10,7 -19,15 -29,22 -18,13 -20,19 -14,-6z"/>
  <g id="_642048048">
   <path class="fil0" d="M999 334c11,11 23,18 38,21 19,3 39,-1 57,-6 21,-7 42,-14 64,-18 96,-19 196,-31 293,-19 3,0 5,0 8,1 1,0 4,0 4,2 0,2 -2,3 -3,4 -3,1 -5,2 -8,3 -46,20 -90,44 -132,72 -36,24 -70,50 -101,79 -33,30 -64,63 -95,95 -36,38 -71,76 -108,112 -1,1 -2,1 -3,1 0,-1 -1,-2 0,-3 1,-4 2,-8 3,-12 16,-54 30,-111 27,-168 -2,-48 -17,-93 -36,-137 -3,-9 -7,-17 -11,-24 -1,-1 -1,-2 0,-3 1,-1 2,-1 3,0z"/>
  </g>
  <path class="fil3" d="M997 336c45,45 99,9 162,-3 95,-19 195,-31 292,-19 14,1 13,0 0,6 -212,95 -276,200 -436,359 1,-4 2,-8 3,-12 38,-128 39,-192 -9,-307 -3,-8 -7,-17 -12,-24l0 0z"/>
  <g id="_642049840">
   <path class="fil0" d="M1444 326c-44,20 -87,43 -128,70 -34,23 -66,49 -97,77 -33,30 -64,63 -95,95 -36,38 -71,76 -108,112 -1,1 -2,1 -3,1 0,-1 -1,-2 0,-3 1,-4 2,-8 3,-12 16,-54 30,-111 27,-168 -1,-14 -3,-29 -5,-43 -1,-1 0,-1 0,-2l0 0c30,-55 132,-88 189,-103 42,-11 86,-19 129,-24 17,-2 34,-4 52,-5 11,0 24,-1 35,1 1,0 2,1 2,2 0,0 0,1 -1,2z"/>
  </g>
  <path class="fil5" d="M1040 454c53,-96 338,-138 403,-130l0 0c-206,94 -270,198 -428,355 1,-4 2,-8 3,-12 27,-89 35,-147 22,-213l0 0z"/>
  <g id="_642050568">
   <path class="fil0" d="M581 690c-13,27 -28,54 -42,82 0,0 -1,1 -1,1 -1,0 -2,0 -2,-1 -24,-22 -56,-55 -86,-68 -32,-14 -56,-3 -82,16 -10,8 -19,15 -29,23 -3,2 -5,4 -8,6 -1,1 -2,1 -3,0 0,-1 -1,-2 0,-3 19,-39 49,-84 93,-98 20,-6 41,-5 60,2 11,3 22,8 32,13 9,4 17,9 26,13 13,6 26,10 40,11 1,0 2,0 2,1 0,0 1,1 0,2z"/>
  </g>
  <path class="fil6" d="M579 689c-11,24 -26,51 -42,82 -23,-22 -56,-56 -86,-69 -34,-14 -59,-2 -84,17 -10,7 -19,15 -29,22 -3,2 -6,5 -8,6 35,-72 84,-117 151,-95 42,13 58,34 98,37z"/>
  <path class="fil0" d="M403 368c14,-5 28,-14 40,-22 17,-11 34,-23 51,-36 16,-12 32,-25 47,-38 12,-9 24,-20 33,-31 40,-45 74,-62 133,-71 18,-3 37,-4 55,-2 60,5 115,32 159,72 37,33 71,72 90,119 19,45 34,90 36,139 4,58 -11,115 -27,169 -5,17 -11,33 -18,49 -32,73 -68,144 -110,212 -20,34 -41,68 -61,103 -16,28 -31,56 -45,85 -13,27 -25,54 -33,82 -8,24 -16,57 -6,81 11,24 37,32 61,36 66,10 117,-15 172,-48 14,-8 27,-12 41,-5 23,10 25,35 13,55 -8,13 -16,23 -26,35 -36,41 -108,92 -159,113 0,0 0,0 0,0 -98,31 -196,47 -290,-6 -68,-39 -87,-63 -122,-132 -15,-30 -25,-62 -30,-96 -12,-80 4,-163 30,-240 29,-86 70,-167 112,-248 8,-16 17,-32 25,-48 7,-13 13,-27 19,-41 5,-12 15,-38 10,-52 -3,-9 -7,-17 -15,-22 -12,-8 -35,-10 -50,-13 -31,-7 -62,-15 -91,-28 -12,-5 -23,-10 -34,-16 -8,-4 -16,-8 -23,-12 -20,-12 -38,-29 -49,-49 -8,-16 -12,-36 -6,-54 10,-28 41,-38 68,-40z"/>
  <path class="fil3" d="M404 370c40,-16 142,-94 172,-128 36,-41 68,-61 131,-70 75,-12 152,15 212,69 38,34 71,73 90,119 48,115 47,179 9,307 -5,17 -11,32 -18,48 -32,73 -67,143 -110,212 -51,85 -113,186 -139,271 -17,54 -23,107 57,119 66,10 115,-13 173,-49 13,-7 25,-11 40,-4 19,9 24,30 12,51 -8,14 -14,21 -27,35 -38,44 -110,94 -158,113 -97,31 -194,47 -288,-6 -69,-39 -87,-64 -121,-131 -138,-276 192,-654 166,-725 -4,-11 -8,-18 -16,-22 -12,-9 -36,-11 -51,-14 -31,-7 -60,-15 -90,-28 -13,-5 -23,-10 -34,-16 -8,-4 -16,-8 -23,-12 -73,-44 -83,-132 13,-139z"/>
  <g id="_642053536">
   <path class="fil0" d="M401 515c-9,-7 -18,-13 -26,-22 -14,-14 -27,-35 -18,-56 3,-7 8,-13 15,-18 14,-10 34,-15 51,-15 19,-1 36,7 53,13 31,10 60,9 91,0 24,-8 47,-23 68,-37 24,-16 47,-33 72,-46 57,-30 113,-35 170,-5 177,93 80,323 2,450 -29,47 -57,93 -85,140 -26,44 -51,89 -74,135 -21,43 -41,88 -57,133 -15,45 -27,99 -12,145 10,31 30,54 55,74 54,41 121,26 180,5 10,-3 20,-9 29,-14 13,-7 25,-15 37,-23 14,-10 28,-20 41,-31 3,-3 21,-19 26,-15 5,5 -9,20 -11,24 -36,41 -108,92 -159,113 0,0 0,0 0,0 -98,31 -196,47 -290,-6 -68,-39 -87,-63 -122,-132 -15,-30 -25,-62 -30,-96 -12,-80 4,-163 30,-240 29,-86 70,-167 112,-248 8,-16 17,-32 25,-48 7,-13 13,-27 19,-41 5,-12 15,-38 10,-52 -3,-9 -7,-17 -15,-22 -12,-8 -35,-10 -50,-13 -31,-7 -62,-15 -91,-28 -17,-7 -31,-14 -46,-24z"/>
  </g>
  <path class="fil6" d="M403 513c-10,-7 -18,-12 -27,-21 -29,-31 -24,-56 -3,-71 13,-9 31,-15 50,-15 18,-1 34,6 53,13 32,10 61,9 92,0 47,-15 88,-56 140,-83 56,-29 111,-35 168,-5 176,92 78,322 1,447 -80,131 -170,274 -216,409 -31,95 -29,164 44,220 54,43 122,27 181,6 25,-8 78,-43 108,-69 22,-19 35,-21 12,6 -38,44 -110,94 -158,113 -97,31 -194,47 -288,-6 -69,-39 -87,-64 -121,-131 -138,-276 192,-654 166,-725 -4,-11 -8,-18 -16,-22 -12,-9 -36,-11 -51,-14 -31,-7 -60,-15 -90,-28 -18,-7 -30,-13 -45,-24z"/>
  <g id="_642054824">
   <path class="fil0" d="M702 640c53,10 103,7 139,-39 0,-1 1,-1 1,0 1,0 1,1 0,1 -35,47 -87,50 -141,40 0,0 -1,-1 -1,-2 0,0 1,0 2,0z"/>
  </g>
  <path class="fil2" d="M701 641c54,10 105,7 140,-40"/>
  <g id="_642057288">
   <path class="fil0" d="M669 293c-8,-12 -7,-18 -6,-32 0,-12 5,-22 14,-30 8,-7 18,-12 29,-11 6,0 11,3 16,7 14,12 11,39 7,55 -1,6 -23,12 -28,13 -8,2 -25,5 -31,-1l-1 0 0 -1z"/>
  </g>
  <path class="fil6" d="M671 292c-8,-12 -7,-18 -6,-31 1,-29 35,-51 56,-33 12,11 10,38 6,53 -1,7 -47,20 -56,11z"/>
  <path class="fil0" d="M720 287c-8,3 -23,7 -34,8 -3,-33 37,-42 35,-10l-1 2z"/>
  <ellipse class="fil6" cx="711" cy="277" rx="7" ry="6"/>
  <g id="_642058688">
   <path class="fil0" d="M1223 786c-63,87 -99,195 -105,302 -2,43 0,86 8,128 22,113 81,210 175,277 1,1 2,2 1,3 0,1 -2,1 -2,1 -20,-7 -39,-13 -56,-24 -83,-51 -150,-118 -179,-212 -58,-191 30,-340 155,-478 1,0 2,-1 3,0 0,1 1,2 0,3z"/>
  </g>
  <path class="fil5" d="M1221 785c-122,134 -213,284 -154,475 25,83 83,152 178,212 17,11 36,16 55,23 -241,-173 -224,-509 -79,-710z"/>
  <path class="fil0" d="M797 369c23,24 40,65 47,97 6,26 7,54 -1,79 -31,99 -106,110 -191,73 -13,-5 -23,-13 -34,-21 -8,-5 -16,-11 -25,-16 -1,-1 -2,-2 -4,-2 -4,-3 -10,-6 -16,-7l4 -1c20,-3 39,-3 59,-3 18,-1 36,-1 53,-6 19,-4 36,-12 51,-24 51,-39 62,-107 53,-167l-1 -7 5 5z"/>
  <path class="fil7" d="M577 573c41,-6 79,0 113,-9 74,-18 120,-89 105,-194 32,34 65,115 46,175 -33,108 -117,102 -189,71 -28,-12 -47,-37 -75,-43z"/>
  <path class="fil0" d="M728 546c12,-7 23,-16 32,-28 10,-12 18,-26 24,-40l0 -1c6,-14 9,-29 11,-45l0 0c1,-10 1,-19 1,-29l0 -4 35 27 1 1 -32 7 31 42 -42 4 27 46 -51 -4 15 52 -49 -22 6 51 -47 -34 -2 42 -43 -37 -1 41 -3 -2c-16,-9 -31,-23 -48,-32 -1,-1 -2,-2 -4,-2 -4,-3 -10,-5 -16,-7 0,0 0,0 0,0l0 0 4 -1c22,-3 44,-3 66,-3l0 0c15,-1 29,-2 43,-5l1 0c1,0 2,0 2,-1 14,-3 26,-8 38,-15l1 -1zm18 91c-13,1 -26,1 -39,-2l-1 0 0 -30 45 32 -5 0zm60 -27c-12,12 -27,20 -44,24l-2 1 -2 -45 51 18 -3 2zm34 -55c-5,14 -11,27 -20,39l-2 3 -18 -43 41 -1 -1 2zm8 -59c1,10 1,20 -1,30l0 4 -29 -23 30 -14 0 3zm-52 -100c-1,-9 -2,-18 -3,-27l-1 -7 4 5c7,7 13,16 18,25l2 2 -19 4 -1 -1 0 -1zm-107 235c-9,-2 -18,-5 -26,-8l-2 -1 7 -18 28 29 -7 -2z"/>
  <path class="fil6" d="M745 635c-12,1 -24,1 -37,-2l0 -24 37 26z"/>
  <path class="fil6" d="M805 609c-13,12 -28,19 -43,23l-2 -39 45 16z"/>
  <path class="fil6" d="M838 555c-6,15 -12,27 -19,37l-16 -36 35 -1z"/>
  <path class="fil6" d="M846 497c1,9 0,19 -1,29l-23 -19 24 -10z"/>
  <path class="fil6" d="M786 478c5,-14 9,-29 11,-46l0 0 30 43 -41 3 0 0z"/>
  <path class="fil6" d="M797 432c1,-9 1,-19 1,-29l0 0 30 23 -31 6 0 0z"/>
  <path class="fil6" d="M798 396c-1,-8 -2,-19 -3,-27 6,6 12,15 18,24l-15 3 0 0z"/>
  <path class="fil6" d="M762 520c10,-12 18,-26 24,-42l0 0 26 45 -50 -3 0 0z"/>
  <path class="fil6" d="M688 565c0,0 1,0 2,-1 14,-3 27,-8 38,-15l0 0 6 49 -46 -33z"/>
  <path class="fil6" d="M643 570l-1 41c-23,-13 -41,-32 -65,-38 23,-3 45,-3 66,-3z"/>
  <path class="fil6" d="M643 570l43 36 2 -41 0 0c-15,3 -30,4 -45,5z"/>
  <path class="fil6" d="M689 629l-21 -21 -5 13c9,3 18,6 26,8z"/>
  <path class="fil6" d="M728 549l49 21 -15 -50 0 0c-10,11 -21,21 -34,29l0 0z"/>
  <g id="_642070392">
   <path class="fil0" d="M818 385c-8,-7 -17,-15 -27,-21 -8,-5 -18,-8 -27,-10 -1,-1 -1,-1 -1,-2 0,0 1,-1 1,0 10,3 20,5 28,10 10,6 19,15 28,22 0,0 0,1 0,1 -1,1 -1,1 -2,0z"/>
  </g>
  <path class="fil2" d="M819 385c-8,-7 -18,-17 -27,-22 -8,-5 -19,-8 -28,-10"/>
  <g id="_642072856">
   <path class="fil0" d="M555 207c0,0 0,0 0,-1 -7,-63 9,-115 56,-159 23,-21 61,-30 91,-33 0,0 0,0 0,0l37 -1c0,0 0,0 1,0 13,1 26,2 39,5 116,26 150,118 149,229 0,1 -1,2 -1,2 -1,0 -2,0 -3,0l-6 -6c-43,-40 -98,-66 -157,-71 -17,-1 -35,-1 -53,2 -1,1 -2,3 -3,4 -4,5 -8,9 -12,13 -13,14 -26,27 -39,41 -17,17 -34,35 -51,53 0,0 0,0 0,0 -24,23 -29,31 -63,17 -10,-5 -21,-9 -32,-12 -11,-3 -22,-6 -33,-7 -4,-1 -15,-2 -17,2 -3,6 16,23 19,26 3,2 5,3 8,5 0,0 1,1 1,2 0,0 -1,1 -1,1 -5,4 -9,7 -14,10 0,1 -1,1 -2,0 -12,-7 -25,-17 -33,-29 -5,-8 -10,-19 -6,-29 4,-9 13,-13 22,-15 26,-9 90,-23 103,-49 0,0 0,0 0,0z"/>
  </g>
  <path class="fil8" d="M707 172c4,-1 -85,89 -105,112 -24,22 -28,30 -61,16 -37,-16 -125,-40 -65,12 1,1 3,3 8,6 -5,3 -9,6 -14,10 -41,-24 -55,-63 -18,-70 30,-10 91,-23 105,-50 58,-24 73,-24 124,-32 11,-2 13,-2 26,-4zm32 -157c0,0 0,0 0,0 14,1 28,2 40,5 91,21 148,86 147,227l-7 -6c-60,-54 -137,-81 -212,-69 -67,10 -82,6 -150,34 -9,-76 18,-122 55,-157 21,-20 55,-29 90,-33l37 -1z"/>
  <path class="fil9" d="M451 259c28,-11 92,-24 106,-51 59,-24 73,-24 124,-32l0 0c-4,6 -87,87 -95,93 -25,19 -39,6 -74,-4 -2,0 -4,-1 -5,-1l0 0c-2,0 -3,-1 -5,-1l0 0c-1,-1 -3,-1 -4,-1l0 0c-2,-1 -3,-1 -4,-1l-1 0c-1,0 -2,-1 -3,-1l-1 0c-1,0 -2,0 -3,-1l-1 0c-1,0 -2,0 -3,0l-1 0c-1,0 -2,-1 -3,-1l0 0c-1,0 -2,0 -3,0l-1 0c-1,0 -2,0 -2,0l-1 0c-1,0 -2,0 -2,0l-2 0c0,0 -1,0 -1,0l-2 0c0,0 -1,0 -1,0 -1,0 -1,0 -2,0 0,0 -1,0 -1,0 -1,0 -1,0 -2,0l0 0c-1,0 -2,0 -2,0l-1 0 0 0c0,0 -1,0 -2,1l0 0 0 0 0 0c-1,0 -2,0 -2,0l0 0 0 0z"/>
  <path class="fil0" d="M468 329c-12,-7 -23,-17 -30,-28 -6,-9 -11,-20 -6,-30 10,-25 62,-13 80,-8 10,3 19,7 29,10 7,2 14,4 21,4 9,0 16,-4 23,-9 2,-2 4,-4 5,-6 4,-3 8,-7 12,-10 10,-10 20,-20 31,-30 10,-10 20,-21 31,-31 3,-3 7,-7 10,-11 2,-1 4,-4 5,-5 1,-1 1,-1 2,-1 8,-2 17,-3 26,-4 0,0 1,0 2,0 2,2 -3,7 -4,8 -4,5 -8,9 -12,13 -13,14 -26,27 -39,41 -17,17 -34,35 -51,53 0,0 0,0 0,0 -24,23 -29,31 -63,17 -10,-5 -21,-9 -32,-12 -11,-3 -22,-6 -33,-7 -4,-1 -15,-2 -17,2 -3,6 16,23 19,26 3,2 6,4 9,5 1,1 2,1 0,3 -5,3 -9,6 -14,10 -2,1 -2,1 -4,0z"/>
  <path class="fil10" d="M602 284c-24,22 -28,30 -61,16 -37,-16 -125,-40 -65,12 1,1 3,3 8,6 -5,3 -9,6 -14,10 -55,-32 -61,-92 42,-63 35,11 49,23 74,4 8,-6 91,-87 95,-93 11,-2 13,-2 26,-4 4,-1 -85,89 -105,112z"/>
  <ellipse class="fil8 str0" transform="matrix(1.05348 0.0454599 -0.0431118 0.99907 733.561 12.908)" rx="18" ry="9"/>
  <path class="fil0" d="M924 249c-2,-2 -4,-4 -6,-6 -44,-39 -98,-66 -156,-71 -18,-2 -37,-1 -55,2 -13,2 -27,4 -40,5 -11,2 -21,3 -32,5 -27,5 -52,14 -77,24 -1,0 -1,0 -2,0 0,0 -1,-1 -1,-2 -7,-63 9,-115 56,-159 37,-35 121,-40 168,-29 116,26 150,118 149,229 0,1 -1,2 -1,2 -1,0 -2,0 -3,0z"/>
  <path class="fil10" d="M926 247c1,-141 -56,-206 -147,-227 -46,-10 -130,-6 -167,29 -37,35 -64,81 -55,157 68,-28 83,-24 150,-34 75,-12 152,15 212,69 2,2 5,4 7,6l0 0z"/>
  <g id="_642078176">
   <path class="fil0" d="M494 525c-32,11 -57,6 -87,-5 -1,0 -1,-1 -1,-1 1,-1 1,-1 2,-1 29,11 54,16 85,5 0,0 1,0 1,1 0,0 0,1 0,1z"/>
  </g>
  <path class="fil2" d="M493 524c-31,11 -56,6 -86,-5"/>
  <path class="fil0" d="M405 368c31,1 56,7 84,20 1,0 1,1 1,1 -1,1 -1,1 -2,1 -28,-13 -52,-19 -83,-20 0,0 -7,1 -7,1 -1,0 7,-3 7,-3z"/>
  <g id="_642080976">
   <path class="fil0" d="M1242 443c39,22 69,74 80,116 1,4 2,9 3,13 0,2 1,5 -1,7 -3,1 -9,-4 -11,-5 -2,-3 -5,-5 -8,-7 -10,-7 -19,-15 -29,-22 -26,-19 -50,-30 -82,-16 -30,13 -63,43 -87,65 -22,21 -43,44 -66,64 -4,3 -7,6 -11,9 -12,11 -24,23 -38,33 -8,6 -21,14 -32,11 -9,-3 -13,-13 -15,-21 -10,-35 -3,-82 8,-116 11,-39 37,-92 76,-109 5,-2 9,-4 14,-4 14,-3 32,0 45,1 35,3 58,-18 89,-27 24,-8 44,-4 65,8z"/>
  </g>
  <path class="fil3" d="M1241 445c36,20 67,69 79,115 5,20 5,20 -5,12 -3,-2 -5,-4 -8,-6 -10,-8 -20,-15 -30,-23 -24,-18 -50,-31 -83,-16 -31,13 -65,44 -88,66 -24,22 -46,46 -66,63 -41,34 -80,81 -93,33 -18,-66 21,-196 83,-222 17,-8 30,-5 58,-3 58,5 88,-56 153,-19z"/>
  <g id="_642081368">
   <path class="fil0" d="M1084 552c3,-3 6,-6 9,-9 21,-20 43,-40 70,-53 78,-41 126,6 154,81 0,1 0,2 -1,3 -1,0 -2,0 -3,0 -2,-3 -5,-5 -8,-7 -10,-7 -19,-15 -29,-22 -25,-19 -51,-33 -81,-17 -17,10 -33,24 -47,37 -18,17 -35,35 -53,52 -21,22 -43,44 -67,64 -15,12 -38,29 -58,30 -15,1 -22,-7 -25,-21 -14,-50 -7,-106 21,-150 0,-1 1,-1 2,-1 1,0 1,1 1,1 4,19 12,53 34,58 12,3 26,-4 36,-11 16,-9 31,-23 45,-35z"/>
  </g>
  <path class="fil6" d="M1085 553c3,-2 6,-6 9,-8 36,-35 157,-148 221,27 -3,-2 -5,-4 -8,-6 -10,-8 -20,-15 -30,-23 -24,-18 -52,-34 -83,-16 -64,35 -166,179 -224,182 -11,1 -19,-3 -23,-20 -17,-61 0,-115 20,-148 18,94 66,60 118,12z"/>
  <g id="_642084336">
   <path class="fil0" d="M294 555c1,2 2,4 4,6 6,0 13,0 20,1 2,0 4,1 6,1 1,-2 3,-4 5,-6 4,-4 8,-8 12,-13 0,0 0,0 0,-1 -2,-8 -5,-16 -7,-25 0,-2 -1,-3 -2,-5 0,0 0,-1 1,-2 0,0 1,-1 2,0 24,5 40,33 33,56 -1,2 -1,4 -2,5 -3,6 -7,11 -11,16 0,1 1,3 1,4 0,1 0,1 0,1l63 157c1,1 1,2 2,3 16,3 31,15 36,32 2,10 0,20 -6,29 0,1 -1,1 -2,1 0,0 -1,-1 -1,-1 -1,-2 -1,-3 -2,-4 -4,-7 -7,-14 -11,-20 0,0 0,-1 0,-1 -5,0 -10,0 -15,0 -2,0 -5,-1 -7,-1 -1,1 -2,3 -3,4 -4,4 -8,8 -12,12 1,2 1,4 2,6 1,7 4,13 6,20 0,1 0,2 -1,2 0,1 -1,1 -2,1 -30,-8 -35,-42 -18,-65 -1,-2 -1,-4 -2,-6l-63 -157c0,-1 0,-1 0,-1 0,-1 0,-2 -1,-2 -2,-1 -3,-1 -5,-1 -2,0 -3,-1 -5,-1 -30,-6 -45,-41 -29,-67 0,-1 1,-1 2,-1 1,0 1,0 2,1 3,7 6,15 10,22z"/>
  </g>
  <path class="fil11" d="M282 534c3,7 7,15 10,22 2,2 3,5 4,7 7,0 15,1 22,1 2,0 4,1 6,1 2,-2 4,-4 6,-7 5,-4 9,-9 14,-13 0,-1 -1,-1 -1,-2 -2,-9 -5,-17 -7,-26 0,-1 -1,-3 -2,-4 26,6 41,37 30,58 -3,6 -8,11 -12,16 1,2 2,4 2,6l0 0 63 158c1,1 2,3 2,4 27,4 48,33 31,58 -1,-1 -1,-3 -2,-4 -4,-7 -7,-13 -11,-20 0,-1 0,-1 -1,-2 -5,0 -11,0 -16,0 -3,0 -5,-1 -8,-1 -1,2 -2,3 -3,5 -4,4 -9,8 -13,13 0,2 1,4 2,7 1,6 4,13 6,20 -29,-8 -34,-41 -17,-63 0,-2 -1,-4 -2,-6l-63 -158 0 0c0,-2 -1,-3 -1,-4 -3,-1 -5,-1 -7,-1 -1,0 -3,-1 -5,-1 -27,-5 -43,-39 -27,-64z"/>
  <path class="fil12" d="M337 596c7,-3 13,-1 15,3l58 145c2,5 -2,10 -9,13 -6,3 -13,1 -15,-4l-57 -144c-2,-5 1,-11 8,-13z"/>
  <path class="fil13" d="M400 754c5,-2 8,-6 7,-9l-58 -144c-1,-3 -6,-4 -11,-2 -5,2 -8,6 -6,9l57 144c1,3 6,4 11,2z"/>
  <path class="fil1" d="M707 171c1,-39 14,-76 26,-113 2,-6 4,-11 6,-17 1,-4 2,-8 2,-12 -1,-5 -6,-10 -10,-13 -1,-1 -1,-1 -1,-1 2,0 4,0 7,0 3,3 7,8 8,13 1,9 -5,23 -8,31 -12,37 -25,74 -26,112 -1,0 -3,1 -4,1 0,0 0,0 0,-1z"/>
  <path class="fil14" d="M597 65c-25,28 -42,65 -42,116l0 0c1,0 1,0 2,-1 28,-19 82,-26 116,-24 6,-54 11,-89 23,-105 -28,-1 -68,3 -99,14z"/>
  <path class="fil6" d="M626 105c12,-10 7,-23 -3,-24 -11,-1 -20,0 -27,3l-16 65c12,-1 22,-2 35,-6 23,-6 34,-32 11,-38zm-27 2c3,-1 16,-2 18,-3 12,-7 7,-17 -4,-18 -3,0 -7,1 -11,2l-3 19zm-8 32l7 -25c8,-1 12,-2 17,-2 17,0 16,17 1,23 -7,2 -14,3 -25,4z"/>
 </g>
</svg>
