<svg id="Layer_1" data-name="Layer 1" xmlns="http://www.w3.org/2000/svg" xmlns:xlink="http://www.w3.org/1999/xlink" viewBox="0 0 100 100"><defs><style>.cls-1,.cls-2{fill-rule:evenodd;}.cls-1{fill:url(#radial-gradient);}.cls-2{fill:#273347;}</style><radialGradient id="radial-gradient" cx="-1289.16" cy="1117.11" r="0.48" gradientTransform="matrix(-18.78, 11.25, 11.43, 19.07, -36965.09, -6748.79)" gradientUnits="userSpaceOnUse"><stop offset="0" stop-color="#fcb713"/><stop offset="0.75" stop-color="#ef5c85"/><stop offset="1" stop-color="#ef5655"/></radialGradient></defs><g id="dots-wrapper"><path id="dots" class="cls-1" d="M17,45a4.43,4.43,0,1,1-4.43-4.42A4.43,4.43,0,0,1,17,45ZM6.8,50.55A4.43,4.43,0,1,0,11.23,55,4.43,4.43,0,0,0,6.8,50.55Zm11.5,0A4.43,4.43,0,1,0,22.73,55a4.43,4.43,0,0,0-4.43-4.43Z"/></g><g id="Text"><path id="Fill-1" class="cls-2" d="M38.3,54.92a1.58,1.58,0,0,0,1.49,1.49h.54A.37.37,0,0,0,40.7,56V44.34h0a.37.37,0,0,0-.37-.36H38.68a.38.38,0,0,0-.38.36h0v.95a5.26,5.26,0,0,0-4.2-1.76,6.58,6.58,0,1,0,0,13.15h0a5.41,5.41,0,0,0,4.2-1.76Zm-4.2-.54a4.28,4.28,0,1,1,4.19-4.27,4.22,4.22,0,0,1-4.19,4.27Z"/><path id="Fill-2" class="cls-2" d="M65.18,54.92a1.58,1.58,0,0,0,1.49,1.49h.53a.37.37,0,0,0,.38-.37V44.34h0A.38.38,0,0,0,67.2,44H65.55a.37.37,0,0,0-.37.36h0v.95A5.28,5.28,0,0,0,61,43.53a6.58,6.58,0,1,0,0,13.15h0a5.43,5.43,0,0,0,4.2-1.76ZM61,54.38a4.28,4.28,0,1,1,4.19-4.27A4.22,4.22,0,0,1,61,54.38Z"/><path id="Fill-3" class="cls-2" d="M95.23,54.92a1.58,1.58,0,0,0,1.49,1.49h.53a.37.37,0,0,0,.38-.37V44.34h0a.37.37,0,0,0-.37-.36H95.6a.37.37,0,0,0-.37.36h0v.95A5.3,5.3,0,0,0,91,43.53a6.58,6.58,0,0,0,0,13.15h0a5.45,5.45,0,0,0,4.21-1.76ZM91,54.38a4.28,4.28,0,1,1,4.18-4.27A4.22,4.22,0,0,1,91,54.38Z"/><path id="Fill-4" class="cls-2" d="M82.36,55.33V49.27h0c0-3.41-2.15-5.71-5.59-5.71a4.14,4.14,0,0,0-3.45,1.76A1.39,1.39,0,0,0,71.83,44h-.54a.38.38,0,0,0-.37.38V55h0v1.14h0a.37.37,0,0,0,.37.35h1.8l0,0h0l0,0h0l0-.05h0a.48.48,0,0,0,.07-.2h0V49.18a3.32,3.32,0,1,1,6.64,0V55h0v1.14h0a.37.37,0,0,0,.38.35h1.79l0,0h0l0,0h0l.05-.05h0a.48.48,0,0,0,.07-.2h0v-.76h0"/><path id="Fill-5" class="cls-2" d="M44.64,53.25a6.11,6.11,0,0,0,3.46,1.13c1.1,0,2.24-.57,2.24-1.56,0-1.33-2.48-1.53-4-2.06s-2.9-1.63-2.9-3.4c0-2.71,2.42-3.83,4.67-3.83a7.06,7.06,0,0,1,3.86,1.14.39.39,0,0,1,.13.54l-.91,1.3a.36.36,0,0,1-.54.12,4.54,4.54,0,0,0-2.54-.8c-1.37,0-2.2.64-2.2,1.42,0,1,1.08,1.24,2.34,1.57,2.2.59,4.6,1.3,4.6,4,0,2.39-2.24,3.86-4.71,3.86a7.91,7.91,0,0,1-4.8-1.51.4.4,0,0,1-.08-.54l.9-1.29a.36.36,0,0,1,.52-.09"/></g></svg>