<svg id="Layer_1" data-name="Layer 1" xmlns="http://www.w3.org/2000/svg" viewBox="0 0 100 100"><defs><style>.cls-1{fill:#252f3e;}.cls-2{fill:#f7981d;fill-rule:evenodd;}</style></defs><path class="cls-1" d="M33.7,43.89A7.29,7.29,0,0,0,34,46.1a12,12,0,0,0,.79,1.79,1.12,1.12,0,0,1,.17.57,1,1,0,0,1-.47.75l-1.56,1a1.2,1.2,0,0,1-.65.22,1.09,1.09,0,0,1-.74-.35,7.89,7.89,0,0,1-.9-1.16c-.25-.43-.5-.9-.77-1.47a9.16,9.16,0,0,1-7.3,3.43,6.82,6.82,0,0,1-5-1.79,6.37,6.37,0,0,1-1.84-4.77A6.42,6.42,0,0,1,18,39.24a9.06,9.06,0,0,1,6.09-1.93,20.35,20.35,0,0,1,2.63.19c.92.13,1.86.33,2.86.55V36.24c0-1.89-.4-3.21-1.17-4s-2.14-1.14-4.05-1.14a11.46,11.46,0,0,0-2.68.32,19.91,19.91,0,0,0-2.68.85,8.25,8.25,0,0,1-.87.32,1.52,1.52,0,0,1-.4.07c-.35,0-.52-.24-.52-.77V30.7a1.6,1.6,0,0,1,.17-.87,1.73,1.73,0,0,1,.7-.52,14.21,14.21,0,0,1,3.13-1.12,14.71,14.71,0,0,1,3.87-.47c3,0,5.12.67,6.51,2s2.06,3.38,2.06,6.11v8ZM23.62,47.66a7.91,7.91,0,0,0,2.55-.44,5.56,5.56,0,0,0,2.36-1.59A4,4,0,0,0,29.38,44a8.91,8.91,0,0,0,.25-2.16V40.83a21.7,21.7,0,0,0-2.29-.42A18.46,18.46,0,0,0,25,40.26a5.66,5.66,0,0,0-3.7,1,3.45,3.45,0,0,0-1.22,2.85A3.49,3.49,0,0,0,21,46.75,3.43,3.43,0,0,0,23.62,47.66Zm19.94,2.69a1.41,1.41,0,0,1-.94-.25,2,2,0,0,1-.52-1l-5.84-19.2a4.23,4.23,0,0,1-.22-1,.55.55,0,0,1,.59-.62h2.44a1.41,1.41,0,0,1,1,.25,2.05,2.05,0,0,1,.49,1L44.71,46l3.87-16.45a1.77,1.77,0,0,1,.48-1,1.66,1.66,0,0,1,1-.25h2a1.51,1.51,0,0,1,1,.25,1.68,1.68,0,0,1,.47,1l3.93,16.64,4.3-16.64a2.08,2.08,0,0,1,.49-1,1.61,1.61,0,0,1,1-.25H65.5a.55.55,0,0,1,.62.62,2,2,0,0,1-.05.4,3,3,0,0,1-.17.62l-6,19.21a1.86,1.86,0,0,1-.52,1,1.58,1.58,0,0,1-.94.25H56.31a1.44,1.44,0,0,1-1-.25,1.72,1.72,0,0,1-.48-1L51,33.11l-3.82,16a2.06,2.06,0,0,1-.47,1,1.58,1.58,0,0,1-1,.25ZM75.49,51a16.37,16.37,0,0,1-3.83-.45,11.38,11.38,0,0,1-2.85-1,1.44,1.44,0,0,1-.92-1.39V46.92c0-.52.19-.77.57-.77a1.31,1.31,0,0,1,.44.07l.63.25a13.62,13.62,0,0,0,2.73.87,14.77,14.77,0,0,0,2.95.3,6.66,6.66,0,0,0,3.63-.82,2.66,2.66,0,0,0,1.29-2.36,2.4,2.4,0,0,0-.67-1.74A6.23,6.23,0,0,0,77,41.43l-3.6-1.12a7.55,7.55,0,0,1-4-2.53,5.94,5.94,0,0,1-1.25-3.6,5.48,5.48,0,0,1,.68-2.76,6.33,6.33,0,0,1,1.78-2,8,8,0,0,1,2.59-1.29,10.71,10.71,0,0,1,3.13-.42,11.56,11.56,0,0,1,1.66.1c.57.07,1.1.17,1.62.27s1,.25,1.41.4a5.52,5.52,0,0,1,1,.44,2.26,2.26,0,0,1,.74.62,1.35,1.35,0,0,1,.23.82v1.17c0,.52-.2.8-.58.8a2.59,2.59,0,0,1-.94-.3,11.33,11.33,0,0,0-4.77-1,6.3,6.3,0,0,0-3.3.7,2.4,2.4,0,0,0-1.17,2.21A2.36,2.36,0,0,0,73,35.69a7.61,7.61,0,0,0,2.74,1.37l3.52,1.11a7.6,7.6,0,0,1,3.85,2.39A5.64,5.64,0,0,1,84.26,44a6.42,6.42,0,0,1-.65,2.88,6.81,6.81,0,0,1-1.81,2.19A8.15,8.15,0,0,1,79,50.5,12,12,0,0,1,75.49,51Z"/><path class="cls-2" d="M80.18,63.09c-8.17,6-20,9.24-30.26,9.24A54.78,54.78,0,0,1,13,58.25c-.77-.7-.07-1.64.85-1.1a74.38,74.38,0,0,0,37,9.82A73.71,73.71,0,0,0,79,61.2C80.36,60.58,81.52,62.1,80.18,63.09Z"/><path class="cls-2" d="M83.59,59.22c-1-1.34-6.91-.65-9.57-.33-.79.1-.92-.59-.2-1.11,4.67-3.28,12.35-2.34,13.24-1.25s-.24,8.8-4.62,12.47c-.67.58-1.31.28-1-.47C82.42,66.07,84.63,60.53,83.59,59.22Z"/></svg>