<svg id="Layer_1" data-name="Layer 1" xmlns="http://www.w3.org/2000/svg" viewBox="0 0 100 100"><defs><style>.cls-1{fill:#485992;}</style></defs><path class="cls-1" d="M67.44,26.12H32.56a6.44,6.44,0,0,0-6.44,6.44V67.44a6.44,6.44,0,0,0,6.44,6.44h17.2l0-17.07H45.36a1,1,0,0,1-1-1l0-5.5a1,1,0,0,1,1.05-1.05h4.42V43.9c0-6.16,3.77-9.52,9.27-9.52h4.52a1,1,0,0,1,1,1v4.64a1,1,0,0,1-1,1H60.78c-3,0-3.57,1.42-3.57,3.51v4.6h6.57a1,1,0,0,1,1,1.17l-.65,5.5a1,1,0,0,1-1,.92h-5.9l0,17.07H67.44a6.44,6.44,0,0,0,6.44-6.44V32.56A6.44,6.44,0,0,0,67.44,26.12Z"/></svg>