<svg id="Layer_1" data-name="Layer 1" xmlns="http://www.w3.org/2000/svg" viewBox="0 0 100 100"><defs><style>.cls-1,.cls-2{fill:#767576;}.cls-2{fill-rule:evenodd;}.cls-3{fill:#f6aa1b;}.cls-4{fill:#e27625;}</style></defs><path class="cls-1" d="M51.48,72.46l1.53,4h-3l1.43-4Zm-.57-1.33-3.35,8.79h1.25l.86-2.39h3.72l.86,2.39h1.24l-3.34-8.79H50.91ZM69,79.92h1.14V71.13H69ZM57.21,74.76a2.44,2.44,0,0,1,1.92-1.05c1.52,0,2.29,1.05,2.29,2.58V80H60.27V76.48c0-1.24-.67-1.72-1.53-1.72a1.78,1.78,0,0,0-1.62,1.81v3.35H56V73.81h1.15l.09,1Zm5.17,3.34c0-1.33,1.24-2.1,2.67-2.1a2.64,2.64,0,0,1,1.63.38v-.19a1.43,1.43,0,0,0-1.53-1.43,1.38,1.38,0,0,0-1.43.86l-1.06-.48a2.75,2.75,0,0,1,5.16,1.15v3.63h-1v-.86h-.09a2.31,2.31,0,0,1-2,1,2.09,2.09,0,0,1-2.29-2m4.3-.76A2.43,2.43,0,0,0,65.24,77c-1.14,0-1.62.67-1.62,1.14,0,.67.67,1,1.24,1a1.87,1.87,0,0,0,1.82-1.72"/><path class="cls-2" d="M71.74,82.59l1.33-3.15-2.38-5.55h1.14l1.82,4.21,1.81-4.21h1.15l-3.72,8.7ZM88.56,75.9a1.83,1.83,0,0,0-1.63-1.24,2.12,2.12,0,0,0,0,4.2,1.86,1.86,0,0,0,1.63-1.14l1,.57A2.81,2.81,0,0,1,86.93,80a3.11,3.11,0,0,1-3-3.25,3,3,0,0,1,3-3.25,2.81,2.81,0,0,1,2.58,1.72l-1,.67Z"/><path class="cls-1" d="M92.66,80.11c1.53,0,2.3-.86,2.3-1.91,0-2.29-3.35-1.43-3.35-2.78,0-.47.39-.76,1.06-.76a1.94,1.94,0,0,1,1.62.76l.67-.66a3.53,3.53,0,0,0-2.39-1.15,2,2,0,0,0-2.2,1.91c0,2.2,3.44,1.43,3.44,2.58,0,.57-.38,1-1.14,1a1.88,1.88,0,0,1-1.53-1l-.86.67a3.75,3.75,0,0,0,2.39,1.33Zm-10.89-.19h1.15V73.81H81.77Z"/><path class="cls-2" d="M82.25,70.84a.77.77,0,0,1,0,1.53.77.77,0,0,1,0-1.53ZM80.63,79l.19.86H79.67c-1,0-1.53-.76-1.53-1.91V75H77V73.8h1.15V72h1.15V73.8h1.33V75H79.29V78.1c0,.86.67.86,1.33.86Z"/><path class="cls-1" d="M10.2,74.66V76.1h3.35a2.9,2.9,0,0,1-.77,1.72,3.44,3.44,0,0,1-2.58,1.05,3.66,3.66,0,0,1-3.63-3.73,3.65,3.65,0,0,1,6.12-2.76l1-1A5,5,0,0,0,10.2,70a5.07,5.07,0,1,0,0,10.13A4.58,4.58,0,0,0,15,75.44a2.5,2.5,0,0,0-.09-.86H10.2Zm8.51-1.14a3.25,3.25,0,1,0,0,6.49A3.22,3.22,0,0,0,22,76.82v-.06A3.16,3.16,0,0,0,18.71,73.52Zm0,5.25a2,2,0,0,1,0-4,2,2,0,0,1,0,4Zm15.67-4.59a2.51,2.51,0,0,0-1.82-.76,3.26,3.26,0,0,0,0,6.5,2.22,2.22,0,0,0,1.72-.77h.1v.48c0,1.24-.67,1.91-1.72,1.91A1.84,1.84,0,0,1,31,80.4l-1.24.47a3.14,3.14,0,0,0,2.87,1.91c1.72,0,3.15-1,3.15-3.44V73.42H34.48v.77Zm-1.63,4.59a2,2,0,1,1,1.72-2A1.86,1.86,0,0,1,32.75,78.77Zm-7-5.25a3.25,3.25,0,1,0,0,6.49A3.22,3.22,0,0,0,29,76.82v-.06A3.11,3.11,0,0,0,25.78,73.52Zm0,5.25a2,2,0,0,1,0-4,2,2,0,0,1,0,4Zm11.08-8.69h1.43V80H36.86Zm5.35,8.69a1.85,1.85,0,0,1-1.62-1L45,76l-.19-.38A3,3,0,0,0,39,76.77,3.21,3.21,0,0,0,42.15,80h.06A3.46,3.46,0,0,0,45,78.58l-1.14-.76a1.86,1.86,0,0,1-1.63,1Zm-.09-4a1.29,1.29,0,0,1,1.24.76l-3,1.25A1.79,1.79,0,0,1,42.12,74.76Z"/><path class="cls-3" d="M58.48,22.46V55.39c0,3.68,2.55,5.74,5.24,5.74,2.5,0,5.24-1.75,5.24-5.74V22.7a5.24,5.24,0,0,0-5.24-5.48A5.32,5.32,0,0,0,58.48,22.46Z"/><path class="cls-4" d="M44.76,39.17V55.39c0,3.68,2.55,5.74,5.24,5.74,2.49,0,5.24-1.75,5.24-5.74v-16A5.25,5.25,0,0,0,50,33.93,5.33,5.33,0,0,0,44.76,39.17Z"/><circle class="cls-4" cx="36.28" cy="55.89" r="5.24"/></svg>