<svg id="Layer_1" data-name="Layer 1" xmlns="http://www.w3.org/2000/svg" viewBox="0 0 100 100"><defs><style>.cls-1{fill:#e5e5e4;}.cls-2{fill:#425da9;}.cls-3{fill:#6185c3;}.cls-4{fill:#fff;}</style></defs><path class="cls-1" d="M75.74,18.39H24.26a2.9,2.9,0,0,0-2.91,2.9V31h57.3V21.29A2.9,2.9,0,0,0,75.74,18.39ZM36.09,24.2a1.39,1.39,0,1,1,1.39-1.39A1.4,1.4,0,0,1,36.09,24.2Zm28.18,0a1.39,1.39,0,1,1,1.39-1.39A1.39,1.39,0,0,1,64.27,24.2Z"/><path class="cls-2" d="M83,31.63,78.56,54.54l1.79,23.83a3,3,0,0,1-3,3.24H22.66a3,3,0,0,1-3-3.24l1.79-23.83L17.05,31.63a3.5,3.5,0,0,1,3.43-4.16h59A3.5,3.5,0,0,1,83,31.63Z"/><path class="cls-3" d="M77.34,81.61H22.66a3,3,0,0,1-3-3.24l1.79-23.83H78.56l1.79,23.83A3,3,0,0,1,77.34,81.61Z"/><path class="cls-4" d="M48.89,48.56a8.35,8.35,0,0,0-16.69,0H35a5.57,5.57,0,1,1,5.56,5.33H38v2.79h2.59A5.33,5.33,0,1,1,35,62H32.2a8.35,8.35,0,0,0,16.69,0,8.06,8.06,0,0,0-3.68-6.73A8,8,0,0,0,48.89,48.56Z"/><polygon class="cls-4" points="54.29 45.19 55.72 47.58 61.22 44.29 61.22 68.73 64 68.73 64 39.39 54.29 45.19"/></svg>