<svg id="Layer_1" data-name="Layer 1" xmlns="http://www.w3.org/2000/svg" viewBox="0 0 100 100"><defs><style>.cls-1{fill:#2db24a;}.cls-2{fill:#229a48;}.cls-3{fill:#73c17b;}.cls-4{fill:#fff;}</style></defs><path class="cls-1" d="M74.37,34.82V79.36A4.33,4.33,0,0,1,70,83.69H30a4.33,4.33,0,0,1-4.33-4.33V20.72A4.33,4.33,0,0,1,30,16.39h26Z"/><polygon class="cls-2" points="58.45 34.34 74.37 40.9 74.37 34.74 65.35 32.08 58.45 34.34"/><path class="cls-3" d="M74.37,34.74H60.27a4.33,4.33,0,0,1-4.33-4.33V16.31Z"/><path class="cls-4" d="M60.66,49.9H39.34A1.39,1.39,0,0,0,38,51.29V69.84a1.39,1.39,0,0,0,1.39,1.39H60.66a1.39,1.39,0,0,0,1.39-1.39V51.29A1.39,1.39,0,0,0,60.66,49.9ZM40.72,58.81h7.89v3.51H40.72Zm10.66,0h7.9v3.51h-7.9ZM59.28,56h-7.9V52.67h7.9V56ZM48.61,52.67V56H40.72V52.67ZM40.72,65.09h7.89v3.37H40.72Zm10.66,3.37V65.09h7.9v3.37Z"/></svg>