<svg id="Layer_1" data-name="Layer 1" xmlns="http://www.w3.org/2000/svg" xmlns:xlink="http://www.w3.org/1999/xlink" viewBox="0 0 100 100"><defs><style>.cls-1{fill:#243858;}.cls-2{fill:#4a7bbd;}.cls-3{fill:url(#linear-gradient);}.cls-4{fill:url(#linear-gradient-2);}</style><linearGradient id="linear-gradient" x1="17.73" y1="887.19" x2="10.28" y2="879.74" gradientTransform="matrix(1, 0, 0, -1, 0, 926.45)" gradientUnits="userSpaceOnUse"><stop offset="0.18" stop-color="#315aa8"/><stop offset="1" stop-color="#4a7bbd"/></linearGradient><linearGradient id="linear-gradient-2" x1="19.7" y1="865.79" x2="27.14" y2="873.22" xlink:href="#linear-gradient"/></defs><g id="Blue"><path class="cls-1" d="M49.47,36.24h3.78V55.39C53.25,60.46,51,64,45.82,64a13.41,13.41,0,0,1-4.52-.72V59.58a10.58,10.58,0,0,0,3.9.72c3.18,0,4.28-1.91,4.28-4.66Z"/><path class="cls-1" d="M60.12,34.77A2.36,2.36,0,0,1,62.63,37a1.93,1.93,0,0,1,0,.34,2.52,2.52,0,0,1-5,0h0a2.37,2.37,0,0,1,2.18-2.52A1.93,1.93,0,0,1,60.12,34.77Zm-1.84,8h3.6v21h-3.6Z"/><path class="cls-1" d="M67.33,42.82h3.52V46.5c1.21-2.47,3.33-4.23,7.42-4V46c-4.61-.47-7.42.93-7.42,5.37V63.79H67.33Z"/><path class="cls-1" d="M95.16,60a7.39,7.39,0,0,1-7.09,4.19c-5.57,0-8.38-4.73-8.38-10.89,0-5.91,2.93-10.9,8.8-10.9a6.88,6.88,0,0,1,6.67,4.1V42.82h3.61v21H95.16ZM89,60.84c3.22,0,6.12-2.05,6.12-6.71V52.44c0-4.65-2.64-6.71-5.72-6.71-4.07,0-6.16,2.68-6.16,7.55,0,5,2,7.56,5.76,7.56Z"/><path class="cls-2" d="M35.72,49,20.19,33.46,18.68,32h0L7,43.65H7L1.65,49a1.42,1.42,0,0,0,0,2L12.33,61.69,18.68,68,30.37,56.35l.18-.18L35.72,51A1.44,1.44,0,0,0,35.72,49Zm-17,6.34L13.35,50l5.33-5.33L24,50Z"/><path class="cls-3" d="M18.68,44.67a9,9,0,0,1,0-12.67L7,43.67,13.33,50Z"/><path class="cls-4" d="M24,50l-5.35,5.34a9,9,0,0,1,0,12.71h0l11.71-11.7Z"/></g></svg>