<svg id="Layer_1" data-name="Layer 1" xmlns="http://www.w3.org/2000/svg" viewBox="0 0 100 100"><path d="M62.62,48.54a4.49,4.49,0,0,1,1.1,0,3.71,3.71,0,0,0,.05-2.08c-.26-1.27-.62-2-1.36-1.91s-.76,1-.5,2.3A4.16,4.16,0,0,0,62.62,48.54Z"/><path d="M56.28,49.54c.53.23.85.39,1,.25s.06-.24-.07-.45a3.2,3.2,0,0,0-1.37-1.1,3.72,3.72,0,0,0-3.62.44c-.35.26-.69.62-.64.83s.07.13.19.15a21.23,21.23,0,0,1,2.49-.56A4.37,4.37,0,0,1,56.28,49.54Z"/><path d="M55.22,50.15a2.4,2.4,0,0,0-1.31.55.84.84,0,0,0-.34.52.13.13,0,0,0,0,.12.17.17,0,0,0,.12,0,2.13,2.13,0,0,0,.5-.14A4.42,4.42,0,0,1,56.45,51c.35,0,.51.06.59-.06a.2.2,0,0,0,0-.22A2,2,0,0,0,55.22,50.15Z"/><path d="M60.48,52.38a.72.72,0,1,0,.6-1.24.83.83,0,0,0-1.14.2A.85.85,0,0,0,60.48,52.38Z"/><path d="M63.48,49.75c-.38,0-.69.41-.7.93s.29,1,.67,1,.69-.42.7-.94S63.86,49.76,63.48,49.75Z"/><path d="M38,59.14c-.1-.12-.25-.09-.4,0a2,2,0,0,1-.36,0,.8.8,0,0,1-.65-.33,1.21,1.21,0,0,1,0-1.11l.09-.21a3.3,3.3,0,0,0,.24-2.91,2.59,2.59,0,0,0-2-1.44,2.56,2.56,0,0,0-2.18.78A3.15,3.15,0,0,0,32,56.56c.06.16.15.2.22.21s.35-.08.49-.44a.53.53,0,0,0,0-.11,3.5,3.5,0,0,1,.35-.82,1.53,1.53,0,0,1,1-.66,1.51,1.51,0,0,1,1.17.22,1.49,1.49,0,0,1,.56,1.79,4.16,4.16,0,0,0-.29,1.6A1.58,1.58,0,0,0,36.87,60,1.21,1.21,0,0,0,38,59.41.25.25,0,0,0,38,59.14Z"/><path d="M73.06,57.07c0-.08-.17-.63-.38-1.3a11.93,11.93,0,0,0-.42-1.13,4.09,4.09,0,0,0,.73-3,3.76,3.76,0,0,0-1.1-2.14A8.87,8.87,0,0,0,68,47.6l-1-.27S67,45,66.93,44a11.53,11.53,0,0,0-.43-2.92,7.79,7.79,0,0,0-2-3.59c2.46-2.55,4-5.36,4-7.77,0-4.64-5.7-6-12.72-3.14l-1.48.63-2.73-2.67c-8-7-33,20.82-25,27.57l1.75,1.48a8.59,8.59,0,0,0-.49,4,7.81,7.81,0,0,0,2.7,5,8.13,8.13,0,0,0,5.29,2.13C38.9,71.89,46,76.29,54.35,76.54c8.94.26,16.44-3.93,19.59-11.47a16,16,0,0,0,1.08-5C75,57.94,73.82,57.07,73.06,57.07ZM36.48,62.71a3.82,3.82,0,0,1-.83.06,6.45,6.45,0,0,1-5.9-5.39c-.32-3.18,1.3-5.64,4.19-6.22a4.58,4.58,0,0,1,1.21-.08c1.61.08,4,1.32,4.54,4.84C40.17,59,39.4,62.21,36.48,62.71Zm-3-13.45A6.83,6.83,0,0,0,29.12,52a12.18,12.18,0,0,1-1.84-1.78c-1.55-2.94,1.68-8.64,3.94-11.86,5.57-7.95,14.31-14,18.35-12.88.66.18,2.83,2.71,2.83,2.71a57.19,57.19,0,0,0-7.79,5.36A35.29,35.29,0,0,0,33.47,49.26ZM61.81,61.52a.15.15,0,0,0,.09-.16.15.15,0,0,0-.16-.13,19,19,0,0,1-8.23-.84c.44-1.41,1.6-.9,3.34-.76a24.37,24.37,0,0,0,8.07-.87,18.57,18.57,0,0,0,6-3,11.87,11.87,0,0,1,.85,2.87,1.37,1.37,0,0,1,.88.16c.38.23.66.72.47,2a11,11,0,0,1-3.07,6,12.49,12.49,0,0,1-3.68,2.75,15.71,15.71,0,0,1-2.41,1c-6.33,2.07-12.82-.21-14.91-5.09a8.38,8.38,0,0,1-.42-1.16,10.14,10.14,0,0,1,2.23-9.51h0a.82.82,0,0,0,.3-.56A.94.94,0,0,0,51,53.7c-.83-1.2-3.69-3.25-3.12-7.2a5.39,5.39,0,0,1,5.22-4.72l.59,0c1,.06,1.88.19,2.7.22a5.39,5.39,0,0,0,4.1-1.37A3.29,3.29,0,0,1,62,39.77a2,2,0,0,1,.6-.05,1.94,1.94,0,0,1,1,.32c1.18.79,1.35,2.69,1.41,4.08,0,.8.13,2.72.17,3.27.07,1.26.4,1.44,1.07,1.66.38.13.73.22,1.25.37a6.92,6.92,0,0,1,3.07,1.45,1.94,1.94,0,0,1,.56,1.1c.19,1.35-1,3-4.29,4.52A21.75,21.75,0,0,1,56,58.22L55,58.11c-2.38-.32-3.74,2.76-2.31,4.87.92,1.36,3.44,2.24,6,2.24,5.76,0,10.19-2.46,11.84-4.58l.13-.19c.08-.12,0-.19-.09-.12-1.34.92-7.32,4.58-13.72,3.48a8.47,8.47,0,0,1-1.48-.41c-.57-.22-1.75-.76-1.89-2C58.56,63,61.81,61.52,61.81,61.52Zm-8.17-1h0ZM43.76,38.36A23.79,23.79,0,0,1,50.37,33a.09.09,0,0,1,.12.12,6.22,6.22,0,0,0-.62,1.5.09.09,0,0,0,.14.09,12.89,12.89,0,0,1,5.8-2.05.1.1,0,0,1,.06.17,4.9,4.9,0,0,0-.91.91.09.09,0,0,0,.07.14,11.4,11.4,0,0,1,4.85,1.27c.09.06,0,.23-.08.21a19.63,19.63,0,0,0-8.78,0,20.34,20.34,0,0,0-7.14,3.15C43.8,38.56,43.69,38.44,43.76,38.36Z"/></svg>