<svg id="Layer_1" data-name="Layer 1" xmlns="http://www.w3.org/2000/svg" viewBox="0 0 100 100"><defs><style>.cls-1{fill:#139fda;}</style></defs><path class="cls-1" d="M60,45.91a1.4,1.4,0,0,0-1.29.62,4.11,4.11,0,0,0,0,3.62,1.41,1.41,0,0,0,1.29.63,1.43,1.43,0,0,0,1.29-.63,4,4,0,0,0,0-3.62A1.42,1.42,0,0,0,60,45.91Z"/><path class="cls-1" d="M41.83,45.88a1.45,1.45,0,0,0-1.29.65,2.65,2.65,0,0,0-.36,1.07h3.21a2.17,2.17,0,0,0-.3-1.07A1.39,1.39,0,0,0,41.83,45.88Z"/><path class="cls-1" d="M33,48.6a10,10,0,0,0-1.22-.1,2,2,0,0,0-1.31.32,1,1,0,0,0-.4.87,1.1,1.1,0,0,0,.13.59,1,1,0,0,0,.26.27,2,2,0,0,0,1.32.26A9.5,9.5,0,0,0,33,50.65h0Z"/><path class="cls-1" d="M72.1,30.17a16.63,16.63,0,0,0-6.77,1.44,13.64,13.64,0,0,0-21.85-2.88A15.09,15.09,0,0,0,17.63,43.87a13.08,13.08,0,0,0,9.15,24.18,14,14,0,0,0,26,.63,12.22,12.22,0,0,0,16-5,16.34,16.34,0,0,0,3.3.33,16.9,16.9,0,0,0,0-33.8ZM27.78,49.78c0,1.37-1,2.22-2.58,2.22a4.63,4.63,0,0,1-2.32-.55c-.15-.08-.3-.16-.45-.26s-.08,0,0-.18l.31-.87a.13.13,0,0,1,.21-.07c.09,0,.15.1.27.16a3.7,3.7,0,0,0,2,.59c.69,0,1.12-.37,1.12-.86v0c0-.54-.66-.74-1.43-1l-.17-.06c-1.05-.3-2.17-.73-2.17-2.06v0a2.23,2.23,0,0,1,2.48-2.14h.15a4.58,4.58,0,0,1,2.29.61.16.16,0,0,1,.08.18l-.33.87c-.05.15-.21.05-.21.05a4.58,4.58,0,0,0-2-.52c-.62,0-1,.33-1,.78v0c0,.52.68.75,1.47,1l.14.05c1.05.33,2.16.79,2.16,2Zm6.53,1.78-.31.08-1.14.22a7.83,7.83,0,0,1-1.37.11,5.38,5.38,0,0,1-1.19-.12,2.34,2.34,0,0,1-.92-.4,1.91,1.91,0,0,1-.59-.7,2.46,2.46,0,0,1-.2-1,2.19,2.19,0,0,1,.24-1,2.3,2.3,0,0,1,.65-.74,3.13,3.13,0,0,1,.94-.44,4.5,4.5,0,0,1,1.11-.14l.7,0s.36,0,.75.09v-.19c0-.6-.13-.89-.37-1.07a1.8,1.8,0,0,0-1.12-.29,4.53,4.53,0,0,0-2,.45l-.07,0a.11.11,0,0,1-.15-.07L29,45.48a.14.14,0,0,1,0-.18,4.34,4.34,0,0,1,1.39-.51,8,8,0,0,1,1.21-.11,3.1,3.1,0,0,1,2.07.62,2.55,2.55,0,0,1,.71,2v4.12A.14.14,0,0,1,34.31,51.56Zm3,.13a.13.13,0,0,1-.12.14H36a.14.14,0,0,1-.13-.14V42.08a.13.13,0,0,1,.13-.14h1.2a.13.13,0,0,1,.12.14Zm7.46-3.09c0,.11-.13.11-.13.11h-4.5a1.84,1.84,0,0,0,2.06,2,4.33,4.33,0,0,0,1.85-.34.13.13,0,0,1,.17.08l.3.83c.06.14,0,.19,0,.21a5.63,5.63,0,0,1-3.9.19A3.06,3.06,0,0,1,39.46,51a3.1,3.1,0,0,1-.65-1.15,4.67,4.67,0,0,1-.2-1.43,5.12,5.12,0,0,1,.19-1.44,3.26,3.26,0,0,1,.61-1.17,3,3,0,0,1,1-.79,3.45,3.45,0,0,1,1.49-.29,3.26,3.26,0,0,1,1.29.26,2.64,2.64,0,0,1,.85.65,2.7,2.7,0,0,1,.58,1.06A4.66,4.66,0,0,1,44.79,48.6Zm1.42,2.85a5.06,5.06,0,0,1-.44-.26s-.08,0,0-.18l.31-.87a.14.14,0,0,1,.21-.07l.26.16a3.75,3.75,0,0,0,2.06.59c.69,0,1.12-.37,1.12-.86v0c0-.54-.66-.74-1.43-1l-.17-.06c-1.05-.3-2.17-.73-2.17-2.06v0a2.22,2.22,0,0,1,2.47-2.14h.16a4.58,4.58,0,0,1,2.29.61.15.15,0,0,1,.07.18c0,.08-.29.79-.32.87s-.21.05-.21.05a4.62,4.62,0,0,0-2-.52c-.61,0-1,.33-1,.78v0c0,.52.68.75,1.47,1l.14.05c1,.33,2.16.79,2.16,2v0c0,1.37-1,2.22-2.58,2.22A4.66,4.66,0,0,1,46.21,51.45Zm10.2-5.54a.16.16,0,0,1-.15.13H54.77l-1,5.74a8.35,8.35,0,0,1-.4,1.51,3,3,0,0,1-.58,1,2.06,2.06,0,0,1-.84.58,3.1,3.1,0,0,1-1.1.17,2.65,2.65,0,0,1-.66-.06,2.56,2.56,0,0,1-.41-.12.13.13,0,0,1-.07-.18c0-.09.29-.82.33-.91a.13.13,0,0,1,.16-.08.82.82,0,0,0,.25.08,2.09,2.09,0,0,0,.36,0,1.79,1.79,0,0,0,.53-.07.94.94,0,0,0,.41-.32,2,2,0,0,0,.31-.64,6.45,6.45,0,0,0,.27-1.11l1-5.64h-1c-.12,0-.16-.06-.15-.15l.17-.93a.15.15,0,0,1,.15-.13h1l.06-.31a3.76,3.76,0,0,1,.9-2,2.57,2.57,0,0,1,1.91-.69,3.58,3.58,0,0,1,.61.05,3,3,0,0,1,.45.11.11.11,0,0,1,.08.15l-.34.95c0,.07-.05.11-.2.07l-.23-.06a2,2,0,0,0-.37,0,1.75,1.75,0,0,0-.48.06,1,1,0,0,0-.38.24,1.49,1.49,0,0,0-.32.48,5.48,5.48,0,0,0-.23,1h1.44c.12,0,.15.05.14.14ZM63,49.77a3.17,3.17,0,0,1-.61,1.15,2.71,2.71,0,0,1-1,.77A3.33,3.33,0,0,1,60,52a3.38,3.38,0,0,1-1.43-.28,2.71,2.71,0,0,1-1-.77,3,3,0,0,1-.61-1.15,5.48,5.48,0,0,1,0-2.86,3.3,3.3,0,0,1,.61-1.16,3,3,0,0,1,1-.78A3.38,3.38,0,0,1,60,44.69a3.3,3.3,0,0,1,1.42.28,3,3,0,0,1,1,.78A3.14,3.14,0,0,1,63,46.91a5.21,5.21,0,0,1,0,2.86Zm5.57-4.71c0,.12-.26.74-.34.95a.16.16,0,0,1-.17.12,2.43,2.43,0,0,0-.49-.06,2.38,2.38,0,0,0-.61.08,1.45,1.45,0,0,0-.55.34,1.64,1.64,0,0,0-.4.66,3.89,3.89,0,0,0-.15,1.18v3.36a.14.14,0,0,1-.13.14H64.54a.14.14,0,0,1-.13-.14V45a.13.13,0,0,1,.13-.14h1.15a.13.13,0,0,1,.13.14v.55a2,2,0,0,1,.76-.56,2.25,2.25,0,0,1,1.16-.19,4,4,0,0,1,.76.13A.12.12,0,0,1,68.57,45.06Zm5.63,6.57a5.36,5.36,0,0,1-1.89.34,3.34,3.34,0,0,1-2.62-1,3.83,3.83,0,0,1-.89-2.65A4.71,4.71,0,0,1,69,46.9a3.23,3.23,0,0,1,.65-1.16A3,3,0,0,1,70.74,45a3.58,3.58,0,0,1,1.48-.29,6,6,0,0,1,1,.07,5.23,5.23,0,0,1,.89.22.12.12,0,0,1,.08.16c-.12.35-.21.59-.33.91,0,.14-.15.09-.15.09a4.41,4.41,0,0,0-1.41-.2,1.72,1.72,0,0,0-1.47.65,2.78,2.78,0,0,0-.51,1.75,2.5,2.5,0,0,0,.57,1.82,2,2,0,0,0,1.52.57,5.46,5.46,0,0,0,.73,0,3.17,3.17,0,0,0,.62-.18.13.13,0,0,1,.17.08l.32.9A.11.11,0,0,1,74.2,51.63Zm6.67-3c0,.11-.13.11-.13.11H76.23a2.16,2.16,0,0,0,.53,1.5,2.13,2.13,0,0,0,1.54.53,4.33,4.33,0,0,0,1.85-.34.14.14,0,0,1,.17.08l.29.83c.06.14,0,.19,0,.21a4.56,4.56,0,0,1-2.26.45,4.66,4.66,0,0,1-1.64-.26A3,3,0,0,1,75.54,51a2.85,2.85,0,0,1-.65-1.15,4.66,4.66,0,0,1-.21-1.43,5.11,5.11,0,0,1,.2-1.44,3.26,3.26,0,0,1,.61-1.17,2.85,2.85,0,0,1,1-.79A3.4,3.4,0,0,1,78,44.69,3.19,3.19,0,0,1,79.3,45a2.57,2.57,0,0,1,.86.65,3,3,0,0,1,.58,1.06A5.08,5.08,0,0,1,80.87,48.6Z"/><path class="cls-1" d="M77.91,45.88a1.43,1.43,0,0,0-1.29.65,2.65,2.65,0,0,0-.36,1.07h3.21a2.28,2.28,0,0,0-.3-1.07A1.39,1.39,0,0,0,77.91,45.88Z"/></svg>