<svg xmlns="http://www.w3.org/2000/svg" xmlns:xlink="http://www.w3.org/1999/xlink" viewBox="0 0 100 100"><defs><style>.cls-1{fill:none;}.cls-2{isolation:isolate;}.cls-3{clip-path:url(#clip-path);}.cls-4{fill:#fff;}.cls-5{opacity:0.4;}.cls-6{clip-path:url(#clip-path-3);}.cls-7{fill:#00b2e3;}.cls-8{fill:#243746;}.cls-9{fill:#3a7dc0;}.cls-10{mix-blend-mode:multiply;}.cls-11{clip-path:url(#clip-path-4);}</style><clipPath id="clip-path"><rect class="cls-1" x="-3.65" y="12.07" width="107.3" height="75.87"/></clipPath><clipPath id="clip-path-3"><rect class="cls-1" x="3.01" y="47.33" width="10.82" height="10.82"/></clipPath><clipPath id="clip-path-4"><rect class="cls-1" x="8.41" y="41.92" width="10.82" height="10.82"/></clipPath></defs><g class="cls-2"><g id="Layer_1" data-name="Layer 1"><g class="cls-3"><polygon class="cls-4" points="19.23 41.92 8.41 41.92 8.41 47.33 3.01 47.33 3.01 58.15 13.82 58.15 13.82 52.74 19.23 52.74 19.23 41.92"/><g class="cls-3"><g class="cls-5"><g class="cls-6"><polygon class="cls-7" points="3.01 47.33 3.01 52.74 8.41 52.74 8.41 58.15 13.82 58.15 13.82 47.33 3.01 47.33"/></g></g><path class="cls-8" d="M22.27,55.91l2.35-1.86a3.37,3.37,0,0,0,2.92,1.82,1.82,1.82,0,0,0,2-1.78c0-1.11-1.35-1.46-2.79-1.91-1.82-.55-3.84-1.26-3.84-3.85,0-2.17,1.89-3.89,4.5-3.89a5.79,5.79,0,0,1,4.56,2L29.86,48a2.72,2.72,0,0,0-2.41-1.28c-1.2,0-1.85.65-1.85,1.5,0,1,1.3,1.39,2.74,1.87,1.83.59,3.91,1.41,3.91,4a4.34,4.34,0,0,1-4.69,4.22,6.67,6.67,0,0,1-5.29-2.42m20.71-7H45.5v1a3.2,3.2,0,0,1,2.56-1.22c2.18,0,3.5,1.41,3.5,3.8v5.65H49V52.83c0-1.24-.58-2-1.71-2-1,0-1.76.67-1.76,2.22v5.06H43Zm9.18,4.63a4.52,4.52,0,0,1,4.5-4.82,3.76,3.76,0,0,1,2.76,1.09V44.63H62V58.15H59.42v-1a3.64,3.64,0,0,1-2.8,1.22,4.57,4.57,0,0,1-4.46-4.81m7.33,0A2.39,2.39,0,0,0,57.12,51a2.49,2.49,0,1,0,2.37,2.48m3.06-2.11a6.8,6.8,0,0,1,6.91-7,7,7,0,0,1,4.9,1.87,6.91,6.91,0,0,1,1.25,1.6l-2.26,1.37a4.14,4.14,0,0,0-3.87-2.34,4.45,4.45,0,0,0,.09,8.89A3.76,3.76,0,0,0,73.4,53H69.16V50.54h7v1a6.52,6.52,0,0,1-6.61,6.76,6.82,6.82,0,0,1-7-6.94m14.27-2.5h2.52v1.52a2.62,2.62,0,0,1,2.56-1.52h1L82,51.35h-.69c-1.36,0-2,.7-2,2.43v4.37H76.82Zm6.76,0h2.54v9.26H83.58v-6.8h-.92Zm1.27-1.41A1.52,1.52,0,1,0,83.33,46a1.52,1.52,0,0,0,1.52,1.52m1.87,6a4.52,4.52,0,0,1,4.5-4.82A3.75,3.75,0,0,1,94,49.79V44.63h2.53V58.15H94v-1a3.63,3.63,0,0,1-2.8,1.22,4.57,4.57,0,0,1-4.46-4.81m7.33,0A2.39,2.39,0,0,0,91.68,51a2.49,2.49,0,1,0,2.37,2.48m-51.66,0a4.66,4.66,0,0,0-4.78-4.8,4.81,4.81,0,0,0-4.81,4.82A4.94,4.94,0,0,0,41.94,56l-2-1.2a2.43,2.43,0,0,1-2.21,1.33,2.35,2.35,0,0,1-2.47-1.68h7.15Zm-7-1.11a2.44,2.44,0,0,1,2.28-1.47,2.16,2.16,0,0,1,2.21,1.47Z"/><rect class="cls-9" x="3.01" y="52.74" width="5.41" height="5.41"/><g class="cls-10"><g class="cls-11"><polygon class="cls-7" points="13.82 47.33 13.82 41.92 8.41 41.92 8.41 47.33 8.41 52.74 13.82 52.74 19.23 52.74 19.23 47.33 13.82 47.33"/></g></g><rect class="cls-9" x="13.82" y="41.92" width="5.41" height="5.41"/></g></g></g></g></svg>