<svg id="Layer_1" data-name="Layer 1" xmlns="http://www.w3.org/2000/svg" viewBox="0 0 100 100"><defs><style>.cls-1{fill:#429ad5;}</style></defs><path class="cls-1" d="M39.36,73.29c21.64,0,33.47-17.92,33.47-33.47,0-.5,0-1,0-1.52a23.9,23.9,0,0,0,5.87-6.08,23.73,23.73,0,0,1-6.76,1.85,11.81,11.81,0,0,0,5.17-6.51,23.3,23.3,0,0,1-7.47,2.85,11.77,11.77,0,0,0-20,10.73A33.4,33.4,0,0,1,25.32,28.85,11.79,11.79,0,0,0,29,44.56a11.72,11.72,0,0,1-5.34-1.48v.15a11.77,11.77,0,0,0,9.43,11.53,11.62,11.62,0,0,1-5.31.2,11.76,11.76,0,0,0,11,8.17,23.59,23.59,0,0,1-14.61,5.05,23.91,23.91,0,0,1-2.8-.17,33.31,33.31,0,0,0,18,5.27"/></svg>