<?xml version="1.0" encoding="utf-8"?>
<!-- Generator: Adobe Illustrator 24.1.2, SVG Export Plug-In . SVG Version: 6.00 Build 0)  -->
<svg version="1.1" id="Layer_1" xmlns="http://www.w3.org/2000/svg" xmlns:xlink="http://www.w3.org/1999/xlink" x="0px" y="0px"
	 viewBox="0 0 100 100" style="enable-background:new 0 0 100 100;" xml:space="preserve">
<style type="text/css">
	.st0{fill:#FF0000;}
	.st1{fill:#FFFFFF;}
	.st2{fill:#282828;}
</style>
<g>
	<g>
		<path class="st0" d="M32.7,42.9c-0.3-1.3-1.3-2.2-2.6-2.6c-2.3-0.6-11.5-0.6-11.5-0.6s-9.2,0-11.5,0.6c-1.3,0.3-2.2,1.3-2.6,2.6
			C3.9,45.2,3.9,50,3.9,50s0,4.8,0.6,7.1c0.3,1.3,1.3,2.2,2.6,2.6c2.3,0.6,11.5,0.6,11.5,0.6s9.2,0,11.5-0.6
			c1.3-0.3,2.2-1.3,2.6-2.6c0.6-2.3,0.6-7.1,0.6-7.1S33.3,45.2,32.7,42.9z"/>
		<polygon class="st1" points="15.7,54.4 23.3,50 15.7,45.6 		"/>
	</g>
	<g>
		<g>
			<path class="st2" d="M46.6,58.4c-0.6-0.4-1-1-1.2-1.8c-0.2-0.8-0.4-1.9-0.4-3.3v-1.9c0-1.4,0.1-2.5,0.4-3.3
				c0.3-0.8,0.7-1.5,1.3-1.8c0.6-0.4,1.4-0.6,2.3-0.6c0.9,0,1.7,0.2,2.3,0.6s1,1,1.3,1.8c0.3,0.8,0.4,1.9,0.4,3.3v1.9
				c0,1.4-0.1,2.5-0.4,3.3c-0.3,0.8-0.7,1.5-1.3,1.8S50,59,49,59C48,59,47.2,58.8,46.6,58.4z M49.8,56.4c0.2-0.4,0.2-1.1,0.2-2.1v-4
				c0-0.9-0.1-1.6-0.2-2c-0.2-0.4-0.4-0.6-0.8-0.6c-0.4,0-0.7,0.2-0.8,0.6c-0.2,0.4-0.2,1.1-0.2,2v4c0,0.9,0.1,1.6,0.2,2.1
				c0.1,0.4,0.4,0.6,0.8,0.6C49.4,57.1,49.7,56.8,49.8,56.4z"/>
			<path class="st2" d="M91.2,53.3V54c0,0.8,0,1.5,0.1,1.9c0,0.4,0.1,0.7,0.3,0.9c0.1,0.2,0.4,0.3,0.7,0.3c0.4,0,0.7-0.2,0.9-0.5
				c0.2-0.3,0.2-0.9,0.3-1.7L96,55c0,0.1,0,0.3,0,0.5c0,1.2-0.3,2.1-1,2.7c-0.7,0.6-1.6,0.9-2.8,0.9c-1.4,0-2.4-0.5-3-1.4
				c-0.6-0.9-0.9-2.3-0.9-4.2v-2.2c0-1.9,0.3-3.3,0.9-4.2s1.6-1.3,3-1.3c1,0,1.8,0.2,2.3,0.6c0.5,0.4,0.9,0.9,1.1,1.7
				c0.2,0.8,0.3,1.8,0.3,3.2v2.2L91.2,53.3L91.2,53.3z M91.6,47.9c-0.1,0.2-0.2,0.5-0.3,0.9s-0.1,1-0.1,1.9v0.9h2.1v-0.9
				c0-0.8,0-1.5-0.1-1.9c0-0.4-0.2-0.7-0.3-0.9c-0.1-0.2-0.4-0.3-0.7-0.3C91.9,47.7,91.7,47.8,91.6,47.9z"/>
			<path class="st2" d="M39.5,53.1l-3.3-11.9h2.9l1.2,5.4c0.3,1.3,0.5,2.5,0.7,3.4H41c0.1-0.7,0.3-1.8,0.7-3.4l1.2-5.4h2.9
				l-3.3,11.9v5.7h-2.9L39.5,53.1L39.5,53.1z"/>
			<path class="st2" d="M62.3,45.9v12.9h-2.3l-0.2-1.6h-0.1C59.2,58.4,58.2,59,57,59c-0.8,0-1.5-0.3-1.9-0.8
				c-0.4-0.6-0.6-1.4-0.6-2.6v-9.6h2.9v9.5c0,0.6,0.1,1,0.2,1.2s0.3,0.4,0.6,0.4c0.2,0,0.5-0.1,0.7-0.2c0.2-0.1,0.4-0.3,0.5-0.6
				V45.9H62.3z"/>
			<path class="st2" d="M77.2,45.9v12.9h-2.3l-0.2-1.6h-0.1C74,58.4,73.1,59,71.8,59c-0.8,0-1.5-0.3-1.9-0.8
				c-0.4-0.6-0.6-1.4-0.6-2.6v-9.6h2.9v9.5c0,0.6,0.1,1,0.2,1.2s0.3,0.4,0.6,0.4c0.2,0,0.5-0.1,0.7-0.2c0.2-0.1,0.4-0.3,0.5-0.6
				V45.9H77.2z"/>
			<path class="st2" d="M70.2,43.5h-2.9v15.3h-2.8V43.5h-2.9v-2.3h8.6V43.5z"/>
			<path class="st2" d="M86.8,48c-0.2-0.8-0.5-1.4-0.8-1.8c-0.4-0.4-0.9-0.6-1.6-0.6c-0.5,0-1,0.1-1.5,0.5c-0.5,0.3-0.8,0.7-1.1,1.2
				h0v-6.8H79v18.3h2.4l0.3-1.2h0.1c0.2,0.4,0.6,0.8,1,1c0.5,0.2,0.9,0.4,1.5,0.4c1,0,1.7-0.5,2.2-1.4c0.5-0.9,0.7-2.3,0.7-4.2v-2
				C87.1,49.9,87,48.8,86.8,48z M84.2,53.2c0,0.9,0,1.7-0.1,2.2c-0.1,0.5-0.2,0.9-0.4,1.1c-0.2,0.2-0.4,0.3-0.7,0.3
				c-0.2,0-0.5,0-0.7-0.2c-0.2-0.1-0.4-0.3-0.5-0.5v-7.3c0.1-0.3,0.3-0.6,0.5-0.9c0.2-0.2,0.5-0.3,0.8-0.3c0.3,0,0.5,0.1,0.7,0.3
				c0.2,0.2,0.3,0.6,0.3,1.2c0.1,0.6,0.1,1.3,0.1,2.3L84.2,53.2L84.2,53.2z"/>
		</g>
	</g>
</g>
</svg>
