<svg id="Layer_1" data-name="Layer 1" xmlns="http://www.w3.org/2000/svg" viewBox="0 0 100 100"><defs><style>.cls-1{fill:#03363d;}</style></defs><g id="Layer_1-2" data-name="Layer 1-2"><path class="cls-1" d="M64.66,56a4.27,4.27,0,0,0,3.07-1.19l1.52,1.65a6,6,0,0,1-4.58,1.81c-3.72,0-6.12-2.48-6.12-5.83a5.71,5.71,0,0,1,5.57-5.84h.22c3.7,0,5.79,2.82,5.6,6.74H61.23A3.15,3.15,0,0,0,64.66,56Zm2.66-4.52a2.81,2.81,0,0,0-2.95-2.65,3,3,0,0,0-3.15,2.64Z"/><path class="cls-1" d="M6.79,55.9l6.73-6.84H7V46.9h9.68v2.19L9.91,55.93h6.84v2.16h-10Z"/><path class="cls-1" d="M24.76,56a4.27,4.27,0,0,0,3.07-1.19l1.52,1.65a6,6,0,0,1-4.57,1.81c-3.72,0-6.13-2.48-6.13-5.83a5.72,5.72,0,0,1,5.58-5.84h.21c3.7,0,5.8,2.82,5.61,6.74H21.34A3.14,3.14,0,0,0,24.76,56Zm2.66-4.52a2.8,2.8,0,0,0-2.94-2.64,3,3,0,0,0-3.14,2.63Z"/><path class="cls-1" d="M44.59,52.46a5.58,5.58,0,0,1,5.34-5.82h.27a4.85,4.85,0,0,1,3.72,1.71V41.7H56.3V58.06H53.92V56.52a4.76,4.76,0,0,1-3.74,1.77,5.63,5.63,0,0,1-5.59-5.68Zm9.46,0a3.55,3.55,0,1,0-7.09,0h0a3.55,3.55,0,0,0,7.09,0Z"/><path class="cls-1" d="M71.43,55.69l2.15-1.15a3.2,3.2,0,0,0,2.87,1.63c1.34,0,2-.69,2-1.48s-1.3-1.1-2.71-1.39c-1.91-.4-3.88-1-3.88-3.33,0-1.77,1.72-3.43,4.33-3.43a5.15,5.15,0,0,1,4.51,2.18l-2,1.16a2.89,2.89,0,0,0-2.51-1.27c-1.27,0-1.92.62-1.92,1.34s1,1,2.64,1.39c1.84.4,3.92,1,3.92,3.33,0,1.55-1.34,3.63-4.53,3.61A5.24,5.24,0,0,1,71.43,55.69Z"/><path class="cls-1" d="M87.06,53.09l-1.89,2.06v2.92H82.8V41.7h2.37V52.41l5-5.57H93.1l-4.37,4.8,4.48,6.42H90.53Z"/><path class="cls-1" d="M37.53,46.63c-2.83,0-5.19,1.84-5.19,4.89v6.54h2.42V51.81a2.65,2.65,0,0,1,2.35-2.92,2.57,2.57,0,0,1,.48,0c1.8,0,2.69,1.1,2.69,2.93v6.25h2.45V51.52C42.73,48.47,40.35,46.63,37.53,46.63Z"/></g></svg>